%TF.GenerationSoftware,KiCad,Pcbnew,8.0.6*%
%TF.CreationDate,2024-10-17T21:45:20+02:00*%
%TF.ProjectId,weatherStationBoard,77656174-6865-4725-9374-6174696f6e42,rev?*%
%TF.SameCoordinates,Original*%
%TF.FileFunction,Drillmap*%
%TF.FilePolarity,Positive*%
%FSLAX45Y45*%
G04 Gerber Fmt 4.5, Leading zero omitted, Abs format (unit mm)*
G04 Created by KiCad (PCBNEW 8.0.6) date 2024-10-17 21:45:20*
%MOMM*%
%LPD*%
G01*
G04 APERTURE LIST*
%ADD10C,0.100000*%
%ADD11C,0.050000*%
%ADD12C,0.200000*%
G04 APERTURE END LIST*
D10*
X19060000Y-10740000D02*
G75*
G02*
X18920000Y-10880000I-70000J-70000D01*
G01*
X19060000Y-11960000D02*
G75*
G02*
X19060000Y-10740000I-610000J610000D01*
G01*
D11*
X19600000Y-12500000D02*
X19600000Y-12900000D01*
X22850000Y-9600000D02*
G75*
G02*
X23100000Y-9850000I0J-250000D01*
G01*
X23100000Y-9850000D02*
X23100000Y-12850000D01*
D10*
X18920000Y-11820000D02*
G75*
G02*
X18920000Y-10880000I-470000J470000D01*
G01*
D11*
X21000000Y-12300000D02*
G75*
G02*
X21200000Y-12500000I0J-200000D01*
G01*
X14600000Y-9850000D02*
G75*
G02*
X14850000Y-9600000I250000J0D01*
G01*
X21000000Y-12300000D02*
X19800000Y-12300000D01*
X19600000Y-12900000D02*
G75*
G02*
X19400000Y-13100000I-200000J0D01*
G01*
X23100000Y-12850000D02*
G75*
G02*
X22850000Y-13100000I-250000J0D01*
G01*
X19400000Y-13100000D02*
X14850000Y-13100000D01*
X21200000Y-12900000D02*
X21200000Y-12500000D01*
X14850000Y-9600000D02*
X22850000Y-9600000D01*
X14850000Y-13100000D02*
G75*
G02*
X14600000Y-12850000I0J250000D01*
G01*
X21400000Y-13100000D02*
G75*
G02*
X21200000Y-12900000I0J200000D01*
G01*
D10*
X18920000Y-11820000D02*
G75*
G02*
X19060000Y-11960000I70000J-70000D01*
G01*
D11*
X19600000Y-12500000D02*
G75*
G02*
X19800000Y-12300000I200000J0D01*
G01*
X14600000Y-12850000D02*
X14600000Y-9850000D01*
X22850000Y-13100000D02*
X21400000Y-13100000D01*
D12*
D10*
X14785000Y-11985000D02*
X14815000Y-12015000D01*
X14815000Y-11985000D02*
X14785000Y-12015000D01*
X14785000Y-12185000D02*
X14815000Y-12215000D01*
X14815000Y-12185000D02*
X14785000Y-12215000D01*
X14785000Y-12385000D02*
X14815000Y-12415000D01*
X14815000Y-12385000D02*
X14785000Y-12415000D01*
X14885000Y-10185000D02*
X14915000Y-10215000D01*
X14915000Y-10185000D02*
X14885000Y-10215000D01*
X14885000Y-10385000D02*
X14915000Y-10415000D01*
X14915000Y-10385000D02*
X14885000Y-10415000D01*
X14930000Y-11200000D02*
X14960000Y-11230000D01*
X14960000Y-11200000D02*
X14930000Y-11230000D01*
X14930000Y-11450000D02*
X14960000Y-11480000D01*
X14960000Y-11450000D02*
X14930000Y-11480000D01*
X14985000Y-11985000D02*
X15015000Y-12015000D01*
X15015000Y-11985000D02*
X14985000Y-12015000D01*
X14985000Y-12185000D02*
X15015000Y-12215000D01*
X15015000Y-12185000D02*
X14985000Y-12215000D01*
X15045000Y-11230000D02*
X15075000Y-11260000D01*
X15075000Y-11230000D02*
X15045000Y-11260000D01*
X15045000Y-11370000D02*
X15075000Y-11400000D01*
X15075000Y-11370000D02*
X15045000Y-11400000D01*
X15085000Y-10185000D02*
X15115000Y-10215000D01*
X15115000Y-10185000D02*
X15085000Y-10215000D01*
X15085000Y-10385000D02*
X15115000Y-10415000D01*
X15115000Y-10385000D02*
X15085000Y-10415000D01*
X15115000Y-11440000D02*
X15145000Y-11470000D01*
X15145000Y-11440000D02*
X15115000Y-11470000D01*
X15135000Y-11300500D02*
X15165000Y-11330500D01*
X15165000Y-11300500D02*
X15135000Y-11330500D01*
X15185000Y-12385000D02*
X15215000Y-12415000D01*
X15215000Y-12385000D02*
X15185000Y-12415000D01*
X15185000Y-12685000D02*
X15215000Y-12715000D01*
X15215000Y-12685000D02*
X15185000Y-12715000D01*
X15185000Y-12885000D02*
X15215000Y-12915000D01*
X15215000Y-12885000D02*
X15185000Y-12915000D01*
X15285000Y-9785000D02*
X15315000Y-9815000D01*
X15315000Y-9785000D02*
X15285000Y-9815000D01*
X15285000Y-9985000D02*
X15315000Y-10015000D01*
X15315000Y-9985000D02*
X15285000Y-10015000D01*
X15285000Y-10185000D02*
X15315000Y-10215000D01*
X15315000Y-10185000D02*
X15285000Y-10215000D01*
X15285000Y-10385000D02*
X15315000Y-10415000D01*
X15315000Y-10385000D02*
X15285000Y-10415000D01*
X15360451Y-10722387D02*
X15390451Y-10752387D01*
X15390451Y-10722387D02*
X15360451Y-10752387D01*
X15385000Y-12685000D02*
X15415000Y-12715000D01*
X15415000Y-12685000D02*
X15385000Y-12715000D01*
X15385000Y-12885000D02*
X15415000Y-12915000D01*
X15415000Y-12885000D02*
X15385000Y-12915000D01*
X15459000Y-11155000D02*
X15489000Y-11185000D01*
X15489000Y-11155000D02*
X15459000Y-11185000D01*
X15485000Y-10385000D02*
X15515000Y-10415000D01*
X15515000Y-10385000D02*
X15485000Y-10415000D01*
X15485000Y-10585000D02*
X15515000Y-10615000D01*
X15515000Y-10585000D02*
X15485000Y-10615000D01*
X15490000Y-11877000D02*
X15520000Y-11907000D01*
X15520000Y-11877000D02*
X15490000Y-11907000D01*
X15495000Y-11512500D02*
X15525000Y-11542500D01*
X15525000Y-11512500D02*
X15495000Y-11542500D01*
X15511000Y-10785000D02*
X15541000Y-10815000D01*
X15541000Y-10785000D02*
X15511000Y-10815000D01*
X15585000Y-12685000D02*
X15615000Y-12715000D01*
X15615000Y-12685000D02*
X15585000Y-12715000D01*
X15585000Y-12885000D02*
X15615000Y-12915000D01*
X15615000Y-12885000D02*
X15585000Y-12915000D01*
X15685000Y-10385000D02*
X15715000Y-10415000D01*
X15715000Y-10385000D02*
X15685000Y-10415000D01*
X15685000Y-10585000D02*
X15715000Y-10615000D01*
X15715000Y-10585000D02*
X15685000Y-10615000D01*
X15738232Y-12640424D02*
X15768232Y-12670424D01*
X15768232Y-12640424D02*
X15738232Y-12670424D01*
X15785000Y-12885000D02*
X15815000Y-12915000D01*
X15815000Y-12885000D02*
X15785000Y-12915000D01*
X15800000Y-11092500D02*
X15830000Y-11122500D01*
X15830000Y-11092500D02*
X15800000Y-11122500D01*
X15818000Y-11220000D02*
X15848000Y-11250000D01*
X15848000Y-11220000D02*
X15818000Y-11250000D01*
X15860000Y-12717500D02*
X15890000Y-12747500D01*
X15890000Y-12717500D02*
X15860000Y-12747500D01*
X15885000Y-10585000D02*
X15915000Y-10615000D01*
X15915000Y-10585000D02*
X15885000Y-10615000D01*
X15885000Y-11740000D02*
X15915000Y-11770000D01*
X15915000Y-11740000D02*
X15885000Y-11770000D01*
X15885000Y-12485000D02*
X15915000Y-12515000D01*
X15915000Y-12485000D02*
X15885000Y-12515000D01*
X15885073Y-12285000D02*
X15915073Y-12315000D01*
X15915073Y-12285000D02*
X15885073Y-12315000D01*
X15924000Y-10454000D02*
X15954000Y-10484000D01*
X15954000Y-10454000D02*
X15924000Y-10484000D01*
X15952000Y-10835000D02*
X15982000Y-10865000D01*
X15982000Y-10835000D02*
X15952000Y-10865000D01*
X15985000Y-12885000D02*
X16015000Y-12915000D01*
X16015000Y-12885000D02*
X15985000Y-12915000D01*
X16185000Y-12885000D02*
X16215000Y-12915000D01*
X16215000Y-12885000D02*
X16185000Y-12915000D01*
X16285000Y-11185000D02*
X16315000Y-11215000D01*
X16315000Y-11185000D02*
X16285000Y-11215000D01*
X16285000Y-11385000D02*
X16315000Y-11415000D01*
X16315000Y-11385000D02*
X16285000Y-11415000D01*
X16285000Y-11585000D02*
X16315000Y-11615000D01*
X16315000Y-11585000D02*
X16285000Y-11615000D01*
X16285000Y-11785000D02*
X16315000Y-11815000D01*
X16315000Y-11785000D02*
X16285000Y-11815000D01*
X16340000Y-9840000D02*
X16370000Y-9870000D01*
X16370000Y-9840000D02*
X16340000Y-9870000D01*
X16385000Y-11970000D02*
X16415000Y-12000000D01*
X16415000Y-11970000D02*
X16385000Y-12000000D01*
X16385000Y-12885000D02*
X16415000Y-12915000D01*
X16415000Y-12885000D02*
X16385000Y-12915000D01*
X16585000Y-12685000D02*
X16615000Y-12715000D01*
X16615000Y-12685000D02*
X16585000Y-12715000D01*
X16585000Y-12885000D02*
X16615000Y-12915000D01*
X16615000Y-12885000D02*
X16585000Y-12915000D01*
X16650000Y-12115000D02*
X16680000Y-12145000D01*
X16680000Y-12115000D02*
X16650000Y-12145000D01*
X16685000Y-9785000D02*
X16715000Y-9815000D01*
X16715000Y-9785000D02*
X16685000Y-9815000D01*
X16685000Y-12275000D02*
X16715000Y-12305000D01*
X16715000Y-12275000D02*
X16685000Y-12305000D01*
X16750000Y-11346500D02*
X16780000Y-11376500D01*
X16780000Y-11346500D02*
X16750000Y-11376500D01*
X16785000Y-12685000D02*
X16815000Y-12715000D01*
X16815000Y-12685000D02*
X16785000Y-12715000D01*
X16785000Y-12885000D02*
X16815000Y-12915000D01*
X16815000Y-12885000D02*
X16785000Y-12915000D01*
X16845000Y-10350000D02*
X16875000Y-10380000D01*
X16875000Y-10350000D02*
X16845000Y-10380000D01*
X16985000Y-12685000D02*
X17015000Y-12715000D01*
X17015000Y-12685000D02*
X16985000Y-12715000D01*
X16985000Y-12885000D02*
X17015000Y-12915000D01*
X17015000Y-12885000D02*
X16985000Y-12915000D01*
X17060000Y-10350000D02*
X17090000Y-10380000D01*
X17090000Y-10350000D02*
X17060000Y-10380000D01*
X17090000Y-11400000D02*
X17120000Y-11430000D01*
X17120000Y-11400000D02*
X17090000Y-11430000D01*
X17090000Y-12350000D02*
X17120000Y-12380000D01*
X17120000Y-12350000D02*
X17090000Y-12380000D01*
X17090000Y-12545000D02*
X17120000Y-12575000D01*
X17120000Y-12545000D02*
X17090000Y-12575000D01*
X17185000Y-12685000D02*
X17215000Y-12715000D01*
X17215000Y-12685000D02*
X17185000Y-12715000D01*
X17185000Y-12885000D02*
X17215000Y-12915000D01*
X17215000Y-12885000D02*
X17185000Y-12915000D01*
X17385000Y-10485000D02*
X17415000Y-10515000D01*
X17415000Y-10485000D02*
X17385000Y-10515000D01*
X17385000Y-10685000D02*
X17415000Y-10715000D01*
X17415000Y-10685000D02*
X17385000Y-10715000D01*
X17385000Y-10885000D02*
X17415000Y-10915000D01*
X17415000Y-10885000D02*
X17385000Y-10915000D01*
X17385000Y-11085000D02*
X17415000Y-11115000D01*
X17415000Y-11085000D02*
X17385000Y-11115000D01*
X17385000Y-11285000D02*
X17415000Y-11315000D01*
X17415000Y-11285000D02*
X17385000Y-11315000D01*
X17385000Y-11485000D02*
X17415000Y-11515000D01*
X17415000Y-11485000D02*
X17385000Y-11515000D01*
X17385000Y-12685000D02*
X17415000Y-12715000D01*
X17415000Y-12685000D02*
X17385000Y-12715000D01*
X17385000Y-12885000D02*
X17415000Y-12915000D01*
X17415000Y-12885000D02*
X17385000Y-12915000D01*
X17485000Y-11785000D02*
X17515000Y-11815000D01*
X17515000Y-11785000D02*
X17485000Y-11815000D01*
X17540000Y-9785000D02*
X17570000Y-9815000D01*
X17570000Y-9785000D02*
X17540000Y-9815000D01*
X17585000Y-10185000D02*
X17615000Y-10215000D01*
X17615000Y-10185000D02*
X17585000Y-10215000D01*
X17585000Y-10485000D02*
X17615000Y-10515000D01*
X17615000Y-10485000D02*
X17585000Y-10515000D01*
X17585000Y-10685000D02*
X17615000Y-10715000D01*
X17615000Y-10685000D02*
X17585000Y-10715000D01*
X17585000Y-10885000D02*
X17615000Y-10915000D01*
X17615000Y-10885000D02*
X17585000Y-10915000D01*
X17585000Y-11885000D02*
X17615000Y-11915000D01*
X17615000Y-11885000D02*
X17585000Y-11915000D01*
X17585000Y-12885000D02*
X17615000Y-12915000D01*
X17615000Y-12885000D02*
X17585000Y-12915000D01*
X17685000Y-12185000D02*
X17715000Y-12215000D01*
X17715000Y-12185000D02*
X17685000Y-12215000D01*
X17785000Y-10185000D02*
X17815000Y-10215000D01*
X17815000Y-10185000D02*
X17785000Y-10215000D01*
X17785000Y-10485000D02*
X17815000Y-10515000D01*
X17815000Y-10485000D02*
X17785000Y-10515000D01*
X17785000Y-12885000D02*
X17815000Y-12915000D01*
X17815000Y-12885000D02*
X17785000Y-12915000D01*
X17985000Y-10185000D02*
X18015000Y-10215000D01*
X18015000Y-10185000D02*
X17985000Y-10215000D01*
X17985000Y-10485000D02*
X18015000Y-10515000D01*
X18015000Y-10485000D02*
X17985000Y-10515000D01*
X17985000Y-11385000D02*
X18015000Y-11415000D01*
X18015000Y-11385000D02*
X17985000Y-11415000D01*
X17985000Y-12685000D02*
X18015000Y-12715000D01*
X18015000Y-12685000D02*
X17985000Y-12715000D01*
X17985000Y-12885000D02*
X18015000Y-12915000D01*
X18015000Y-12885000D02*
X17985000Y-12915000D01*
X18185000Y-10185000D02*
X18215000Y-10215000D01*
X18215000Y-10185000D02*
X18185000Y-10215000D01*
X18185000Y-12685000D02*
X18215000Y-12715000D01*
X18215000Y-12685000D02*
X18185000Y-12715000D01*
X18185000Y-12885000D02*
X18215000Y-12915000D01*
X18215000Y-12885000D02*
X18185000Y-12915000D01*
X18190000Y-11215000D02*
X18220000Y-11245000D01*
X18220000Y-11215000D02*
X18190000Y-11245000D01*
X18190000Y-11375000D02*
X18220000Y-11405000D01*
X18220000Y-11375000D02*
X18190000Y-11405000D01*
X18195000Y-11520000D02*
X18225000Y-11550000D01*
X18225000Y-11520000D02*
X18195000Y-11550000D01*
X18285000Y-11885000D02*
X18315000Y-11915000D01*
X18315000Y-11885000D02*
X18285000Y-11915000D01*
X18315000Y-11090000D02*
X18345000Y-11120000D01*
X18345000Y-11090000D02*
X18315000Y-11120000D01*
X18385000Y-9785000D02*
X18415000Y-9815000D01*
X18415000Y-9785000D02*
X18385000Y-9815000D01*
X18385000Y-10185000D02*
X18415000Y-10215000D01*
X18415000Y-10185000D02*
X18385000Y-10215000D01*
X18385000Y-12685000D02*
X18415000Y-12715000D01*
X18415000Y-12685000D02*
X18385000Y-12715000D01*
X18385000Y-12885000D02*
X18415000Y-12915000D01*
X18415000Y-12885000D02*
X18385000Y-12915000D01*
X18585000Y-10185000D02*
X18615000Y-10215000D01*
X18615000Y-10185000D02*
X18585000Y-10215000D01*
X18585000Y-12685000D02*
X18615000Y-12715000D01*
X18615000Y-12685000D02*
X18585000Y-12715000D01*
X18585000Y-12885000D02*
X18615000Y-12915000D01*
X18615000Y-12885000D02*
X18585000Y-12915000D01*
X18675000Y-11520000D02*
X18705000Y-11550000D01*
X18705000Y-11520000D02*
X18675000Y-11550000D01*
X18685000Y-12285000D02*
X18715000Y-12315000D01*
X18715000Y-12285000D02*
X18685000Y-12315000D01*
X18705000Y-11245000D02*
X18735000Y-11275000D01*
X18735000Y-11245000D02*
X18705000Y-11275000D01*
X18785000Y-10185000D02*
X18815000Y-10215000D01*
X18815000Y-10185000D02*
X18785000Y-10215000D01*
X18785000Y-12685000D02*
X18815000Y-12715000D01*
X18815000Y-12685000D02*
X18785000Y-12715000D01*
X18785000Y-12885000D02*
X18815000Y-12915000D01*
X18815000Y-12885000D02*
X18785000Y-12915000D01*
X18885000Y-12285000D02*
X18915000Y-12315000D01*
X18915000Y-12285000D02*
X18885000Y-12315000D01*
X18985000Y-10185000D02*
X19015000Y-10215000D01*
X19015000Y-10185000D02*
X18985000Y-10215000D01*
X18985000Y-12685000D02*
X19015000Y-12715000D01*
X19015000Y-12685000D02*
X18985000Y-12715000D01*
X18985000Y-12885000D02*
X19015000Y-12915000D01*
X19015000Y-12885000D02*
X18985000Y-12915000D01*
X19085000Y-10485000D02*
X19115000Y-10515000D01*
X19115000Y-10485000D02*
X19085000Y-10515000D01*
X19085000Y-12085000D02*
X19115000Y-12115000D01*
X19115000Y-12085000D02*
X19085000Y-12115000D01*
X19230000Y-10845000D02*
X19260000Y-10875000D01*
X19260000Y-10845000D02*
X19230000Y-10875000D01*
X19272500Y-10122500D02*
X19302500Y-10152500D01*
X19302500Y-10122500D02*
X19272500Y-10152500D01*
X19285000Y-9785000D02*
X19315000Y-9815000D01*
X19315000Y-9785000D02*
X19285000Y-9815000D01*
X19285000Y-12455000D02*
X19315000Y-12485000D01*
X19315000Y-12455000D02*
X19285000Y-12485000D01*
X19315000Y-11345000D02*
X19345000Y-11375000D01*
X19345000Y-11345000D02*
X19315000Y-11375000D01*
X19385000Y-10585000D02*
X19415000Y-10615000D01*
X19415000Y-10585000D02*
X19385000Y-10615000D01*
X19385000Y-10785000D02*
X19415000Y-10815000D01*
X19415000Y-10785000D02*
X19385000Y-10815000D01*
X19885000Y-10885000D02*
X19915000Y-10915000D01*
X19915000Y-10885000D02*
X19885000Y-10915000D01*
X19885000Y-11085000D02*
X19915000Y-11115000D01*
X19915000Y-11085000D02*
X19885000Y-11115000D01*
X19885000Y-11885000D02*
X19915000Y-11915000D01*
X19915000Y-11885000D02*
X19885000Y-11915000D01*
X19885000Y-12085000D02*
X19915000Y-12115000D01*
X19915000Y-12085000D02*
X19885000Y-12115000D01*
X20085000Y-10885000D02*
X20115000Y-10915000D01*
X20115000Y-10885000D02*
X20085000Y-10915000D01*
X20085000Y-12085000D02*
X20115000Y-12115000D01*
X20115000Y-12085000D02*
X20085000Y-12115000D01*
X20265000Y-10005000D02*
X20295000Y-10035000D01*
X20295000Y-10005000D02*
X20265000Y-10035000D01*
X20265000Y-10165000D02*
X20295000Y-10195000D01*
X20295000Y-10165000D02*
X20265000Y-10195000D01*
X20285000Y-12085000D02*
X20315000Y-12115000D01*
X20315000Y-12085000D02*
X20285000Y-12115000D01*
X20381000Y-10420000D02*
X20411000Y-10450000D01*
X20411000Y-10420000D02*
X20381000Y-10450000D01*
X20485000Y-12085000D02*
X20515000Y-12115000D01*
X20515000Y-12085000D02*
X20485000Y-12115000D01*
X20560000Y-10890000D02*
X20590000Y-10920000D01*
X20590000Y-10890000D02*
X20560000Y-10920000D01*
X20760000Y-10427000D02*
X20790000Y-10457000D01*
X20790000Y-10427000D02*
X20760000Y-10457000D01*
X20765000Y-12135000D02*
X20795000Y-12165000D01*
X20795000Y-12135000D02*
X20765000Y-12165000D01*
X20935000Y-11335000D02*
X20965000Y-11365000D01*
X20965000Y-11335000D02*
X20935000Y-11365000D01*
X21281000Y-9988000D02*
X21311000Y-10018000D01*
X21311000Y-9988000D02*
X21281000Y-10018000D01*
X21360000Y-11965000D02*
X21390000Y-11995000D01*
X21390000Y-11965000D02*
X21360000Y-11995000D01*
X21385000Y-10885000D02*
X21415000Y-10915000D01*
X21415000Y-10885000D02*
X21385000Y-10915000D01*
X21465000Y-11430000D02*
X21495000Y-11460000D01*
X21495000Y-11430000D02*
X21465000Y-11460000D01*
X21465000Y-11771000D02*
X21495000Y-11801000D01*
X21495000Y-11771000D02*
X21465000Y-11801000D01*
X21485000Y-10985000D02*
X21515000Y-11015000D01*
X21515000Y-10985000D02*
X21485000Y-11015000D01*
X21570000Y-11065000D02*
X21600000Y-11095000D01*
X21600000Y-11065000D02*
X21570000Y-11095000D01*
X21570000Y-11655000D02*
X21600000Y-11685000D01*
X21600000Y-11655000D02*
X21570000Y-11685000D01*
X21585000Y-10085000D02*
X21615000Y-10115000D01*
X21615000Y-10085000D02*
X21585000Y-10115000D01*
X21585000Y-10285000D02*
X21615000Y-10315000D01*
X21615000Y-10285000D02*
X21585000Y-10315000D01*
X21685000Y-12685000D02*
X21715000Y-12715000D01*
X21715000Y-12685000D02*
X21685000Y-12715000D01*
X21785000Y-10085000D02*
X21815000Y-10115000D01*
X21815000Y-10085000D02*
X21785000Y-10115000D01*
X21785000Y-10285000D02*
X21815000Y-10315000D01*
X21815000Y-10285000D02*
X21785000Y-10315000D01*
X21785000Y-11585000D02*
X21815000Y-11615000D01*
X21815000Y-11585000D02*
X21785000Y-11615000D01*
X21885000Y-12885000D02*
X21915000Y-12915000D01*
X21915000Y-12885000D02*
X21885000Y-12915000D01*
X21985000Y-10085000D02*
X22015000Y-10115000D01*
X22015000Y-10085000D02*
X21985000Y-10115000D01*
X21985000Y-10285000D02*
X22015000Y-10315000D01*
X22015000Y-10285000D02*
X21985000Y-10315000D01*
X22085000Y-11385000D02*
X22115000Y-11415000D01*
X22115000Y-11385000D02*
X22085000Y-11415000D01*
X22085000Y-11785000D02*
X22115000Y-11815000D01*
X22115000Y-11785000D02*
X22085000Y-11815000D01*
X22185000Y-12885000D02*
X22215000Y-12915000D01*
X22215000Y-12885000D02*
X22185000Y-12915000D01*
X22285000Y-9785000D02*
X22315000Y-9815000D01*
X22315000Y-9785000D02*
X22285000Y-9815000D01*
X22385000Y-11785000D02*
X22415000Y-11815000D01*
X22415000Y-11785000D02*
X22385000Y-11815000D01*
X22455000Y-10957500D02*
X22485000Y-10987500D01*
X22485000Y-10957500D02*
X22455000Y-10987500D01*
X22467500Y-10732500D02*
X22497500Y-10762500D01*
X22497500Y-10732500D02*
X22467500Y-10762500D01*
X22485000Y-9785000D02*
X22515000Y-9815000D01*
X22515000Y-9785000D02*
X22485000Y-9815000D01*
X22485000Y-10085000D02*
X22515000Y-10115000D01*
X22515000Y-10085000D02*
X22485000Y-10115000D01*
X22485000Y-11385000D02*
X22515000Y-11415000D01*
X22515000Y-11385000D02*
X22485000Y-11415000D01*
X22485000Y-12885000D02*
X22515000Y-12915000D01*
X22515000Y-12885000D02*
X22485000Y-12915000D01*
X22885000Y-10185000D02*
X22915000Y-10215000D01*
X22915000Y-10185000D02*
X22885000Y-10215000D01*
X22885000Y-12485000D02*
X22915000Y-12515000D01*
X22915000Y-12485000D02*
X22885000Y-12515000D01*
X14837500Y-10918500D02*
G75*
G02*
X14777500Y-10918500I-30000J0D01*
G01*
X14777500Y-10918500D02*
G75*
G02*
X14837500Y-10918500I30000J0D01*
G01*
X14837500Y-10888500D02*
X14777500Y-10888500D01*
X14777500Y-10948500D02*
G75*
G02*
X14777500Y-10888500I0J30000D01*
G01*
X14777500Y-10948500D02*
X14837500Y-10948500D01*
X14837500Y-10948500D02*
G75*
G03*
X14837500Y-10888500I0J30000D01*
G01*
X14837500Y-11782500D02*
G75*
G02*
X14777500Y-11782500I-30000J0D01*
G01*
X14777500Y-11782500D02*
G75*
G02*
X14837500Y-11782500I30000J0D01*
G01*
X14837500Y-11752500D02*
X14777500Y-11752500D01*
X14777500Y-11812500D02*
G75*
G02*
X14777500Y-11752500I0J30000D01*
G01*
X14777500Y-11812500D02*
X14837500Y-11812500D01*
X14837500Y-11812500D02*
G75*
G03*
X14837500Y-11752500I0J30000D01*
G01*
X15255500Y-10918500D02*
G75*
G02*
X15195500Y-10918500I-30000J0D01*
G01*
X15195500Y-10918500D02*
G75*
G02*
X15255500Y-10918500I30000J0D01*
G01*
X15280500Y-10888500D02*
X15170500Y-10888500D01*
X15170500Y-10948500D02*
G75*
G02*
X15170500Y-10888500I0J30000D01*
G01*
X15170500Y-10948500D02*
X15280500Y-10948500D01*
X15280500Y-10948500D02*
G75*
G03*
X15280500Y-10888500I0J30000D01*
G01*
X15255500Y-11782500D02*
G75*
G02*
X15195500Y-11782500I-30000J0D01*
G01*
X15195500Y-11782500D02*
G75*
G02*
X15255500Y-11782500I30000J0D01*
G01*
X15280500Y-11752500D02*
X15170500Y-11752500D01*
X15170500Y-11812500D02*
G75*
G02*
X15170500Y-11752500I0J30000D01*
G01*
X15170500Y-11812500D02*
X15280500Y-11812500D01*
X15280500Y-11812500D02*
G75*
G03*
X15280500Y-11752500I0J30000D01*
G01*
D12*
X14858277Y-13413984D02*
X14858277Y-13213984D01*
X14858277Y-13213984D02*
X14905896Y-13213984D01*
X14905896Y-13213984D02*
X14934467Y-13223508D01*
X14934467Y-13223508D02*
X14953515Y-13242555D01*
X14953515Y-13242555D02*
X14963039Y-13261603D01*
X14963039Y-13261603D02*
X14972562Y-13299698D01*
X14972562Y-13299698D02*
X14972562Y-13328269D01*
X14972562Y-13328269D02*
X14963039Y-13366365D01*
X14963039Y-13366365D02*
X14953515Y-13385412D01*
X14953515Y-13385412D02*
X14934467Y-13404460D01*
X14934467Y-13404460D02*
X14905896Y-13413984D01*
X14905896Y-13413984D02*
X14858277Y-13413984D01*
X15058277Y-13413984D02*
X15058277Y-13280650D01*
X15058277Y-13318746D02*
X15067801Y-13299698D01*
X15067801Y-13299698D02*
X15077324Y-13290174D01*
X15077324Y-13290174D02*
X15096372Y-13280650D01*
X15096372Y-13280650D02*
X15115420Y-13280650D01*
X15182086Y-13413984D02*
X15182086Y-13280650D01*
X15182086Y-13213984D02*
X15172562Y-13223508D01*
X15172562Y-13223508D02*
X15182086Y-13233031D01*
X15182086Y-13233031D02*
X15191610Y-13223508D01*
X15191610Y-13223508D02*
X15182086Y-13213984D01*
X15182086Y-13213984D02*
X15182086Y-13233031D01*
X15305896Y-13413984D02*
X15286848Y-13404460D01*
X15286848Y-13404460D02*
X15277324Y-13385412D01*
X15277324Y-13385412D02*
X15277324Y-13213984D01*
X15410658Y-13413984D02*
X15391610Y-13404460D01*
X15391610Y-13404460D02*
X15382086Y-13385412D01*
X15382086Y-13385412D02*
X15382086Y-13213984D01*
X15639229Y-13413984D02*
X15639229Y-13213984D01*
X15639229Y-13213984D02*
X15705896Y-13356841D01*
X15705896Y-13356841D02*
X15772562Y-13213984D01*
X15772562Y-13213984D02*
X15772562Y-13413984D01*
X15953515Y-13413984D02*
X15953515Y-13309222D01*
X15953515Y-13309222D02*
X15943991Y-13290174D01*
X15943991Y-13290174D02*
X15924943Y-13280650D01*
X15924943Y-13280650D02*
X15886848Y-13280650D01*
X15886848Y-13280650D02*
X15867801Y-13290174D01*
X15953515Y-13404460D02*
X15934467Y-13413984D01*
X15934467Y-13413984D02*
X15886848Y-13413984D01*
X15886848Y-13413984D02*
X15867801Y-13404460D01*
X15867801Y-13404460D02*
X15858277Y-13385412D01*
X15858277Y-13385412D02*
X15858277Y-13366365D01*
X15858277Y-13366365D02*
X15867801Y-13347317D01*
X15867801Y-13347317D02*
X15886848Y-13337793D01*
X15886848Y-13337793D02*
X15934467Y-13337793D01*
X15934467Y-13337793D02*
X15953515Y-13328269D01*
X16048753Y-13280650D02*
X16048753Y-13480650D01*
X16048753Y-13290174D02*
X16067801Y-13280650D01*
X16067801Y-13280650D02*
X16105896Y-13280650D01*
X16105896Y-13280650D02*
X16124943Y-13290174D01*
X16124943Y-13290174D02*
X16134467Y-13299698D01*
X16134467Y-13299698D02*
X16143991Y-13318746D01*
X16143991Y-13318746D02*
X16143991Y-13375888D01*
X16143991Y-13375888D02*
X16134467Y-13394936D01*
X16134467Y-13394936D02*
X16124943Y-13404460D01*
X16124943Y-13404460D02*
X16105896Y-13413984D01*
X16105896Y-13413984D02*
X16067801Y-13413984D01*
X16067801Y-13413984D02*
X16048753Y-13404460D01*
X16229705Y-13394936D02*
X16239229Y-13404460D01*
X16239229Y-13404460D02*
X16229705Y-13413984D01*
X16229705Y-13413984D02*
X16220182Y-13404460D01*
X16220182Y-13404460D02*
X16229705Y-13394936D01*
X16229705Y-13394936D02*
X16229705Y-13413984D01*
X16229705Y-13290174D02*
X16239229Y-13299698D01*
X16239229Y-13299698D02*
X16229705Y-13309222D01*
X16229705Y-13309222D02*
X16220182Y-13299698D01*
X16220182Y-13299698D02*
X16229705Y-13290174D01*
X16229705Y-13290174D02*
X16229705Y-13309222D01*
D10*
X14567500Y-13727500D02*
X14597500Y-13757500D01*
X14597500Y-13727500D02*
X14567500Y-13757500D01*
D12*
X14896372Y-13633984D02*
X14915420Y-13633984D01*
X14915420Y-13633984D02*
X14934467Y-13643508D01*
X14934467Y-13643508D02*
X14943991Y-13653031D01*
X14943991Y-13653031D02*
X14953515Y-13672079D01*
X14953515Y-13672079D02*
X14963039Y-13710174D01*
X14963039Y-13710174D02*
X14963039Y-13757793D01*
X14963039Y-13757793D02*
X14953515Y-13795888D01*
X14953515Y-13795888D02*
X14943991Y-13814936D01*
X14943991Y-13814936D02*
X14934467Y-13824460D01*
X14934467Y-13824460D02*
X14915420Y-13833984D01*
X14915420Y-13833984D02*
X14896372Y-13833984D01*
X14896372Y-13833984D02*
X14877324Y-13824460D01*
X14877324Y-13824460D02*
X14867801Y-13814936D01*
X14867801Y-13814936D02*
X14858277Y-13795888D01*
X14858277Y-13795888D02*
X14848753Y-13757793D01*
X14848753Y-13757793D02*
X14848753Y-13710174D01*
X14848753Y-13710174D02*
X14858277Y-13672079D01*
X14858277Y-13672079D02*
X14867801Y-13653031D01*
X14867801Y-13653031D02*
X14877324Y-13643508D01*
X14877324Y-13643508D02*
X14896372Y-13633984D01*
X15048753Y-13814936D02*
X15058277Y-13824460D01*
X15058277Y-13824460D02*
X15048753Y-13833984D01*
X15048753Y-13833984D02*
X15039229Y-13824460D01*
X15039229Y-13824460D02*
X15048753Y-13814936D01*
X15048753Y-13814936D02*
X15048753Y-13833984D01*
X15124943Y-13633984D02*
X15248753Y-13633984D01*
X15248753Y-13633984D02*
X15182086Y-13710174D01*
X15182086Y-13710174D02*
X15210658Y-13710174D01*
X15210658Y-13710174D02*
X15229705Y-13719698D01*
X15229705Y-13719698D02*
X15239229Y-13729222D01*
X15239229Y-13729222D02*
X15248753Y-13748269D01*
X15248753Y-13748269D02*
X15248753Y-13795888D01*
X15248753Y-13795888D02*
X15239229Y-13814936D01*
X15239229Y-13814936D02*
X15229705Y-13824460D01*
X15229705Y-13824460D02*
X15210658Y-13833984D01*
X15210658Y-13833984D02*
X15153515Y-13833984D01*
X15153515Y-13833984D02*
X15134467Y-13824460D01*
X15134467Y-13824460D02*
X15124943Y-13814936D01*
X15372562Y-13633984D02*
X15391610Y-13633984D01*
X15391610Y-13633984D02*
X15410658Y-13643508D01*
X15410658Y-13643508D02*
X15420182Y-13653031D01*
X15420182Y-13653031D02*
X15429705Y-13672079D01*
X15429705Y-13672079D02*
X15439229Y-13710174D01*
X15439229Y-13710174D02*
X15439229Y-13757793D01*
X15439229Y-13757793D02*
X15429705Y-13795888D01*
X15429705Y-13795888D02*
X15420182Y-13814936D01*
X15420182Y-13814936D02*
X15410658Y-13824460D01*
X15410658Y-13824460D02*
X15391610Y-13833984D01*
X15391610Y-13833984D02*
X15372562Y-13833984D01*
X15372562Y-13833984D02*
X15353515Y-13824460D01*
X15353515Y-13824460D02*
X15343991Y-13814936D01*
X15343991Y-13814936D02*
X15334467Y-13795888D01*
X15334467Y-13795888D02*
X15324943Y-13757793D01*
X15324943Y-13757793D02*
X15324943Y-13710174D01*
X15324943Y-13710174D02*
X15334467Y-13672079D01*
X15334467Y-13672079D02*
X15343991Y-13653031D01*
X15343991Y-13653031D02*
X15353515Y-13643508D01*
X15353515Y-13643508D02*
X15372562Y-13633984D01*
X15563039Y-13633984D02*
X15582086Y-13633984D01*
X15582086Y-13633984D02*
X15601134Y-13643508D01*
X15601134Y-13643508D02*
X15610658Y-13653031D01*
X15610658Y-13653031D02*
X15620182Y-13672079D01*
X15620182Y-13672079D02*
X15629705Y-13710174D01*
X15629705Y-13710174D02*
X15629705Y-13757793D01*
X15629705Y-13757793D02*
X15620182Y-13795888D01*
X15620182Y-13795888D02*
X15610658Y-13814936D01*
X15610658Y-13814936D02*
X15601134Y-13824460D01*
X15601134Y-13824460D02*
X15582086Y-13833984D01*
X15582086Y-13833984D02*
X15563039Y-13833984D01*
X15563039Y-13833984D02*
X15543991Y-13824460D01*
X15543991Y-13824460D02*
X15534467Y-13814936D01*
X15534467Y-13814936D02*
X15524943Y-13795888D01*
X15524943Y-13795888D02*
X15515420Y-13757793D01*
X15515420Y-13757793D02*
X15515420Y-13710174D01*
X15515420Y-13710174D02*
X15524943Y-13672079D01*
X15524943Y-13672079D02*
X15534467Y-13653031D01*
X15534467Y-13653031D02*
X15543991Y-13643508D01*
X15543991Y-13643508D02*
X15563039Y-13633984D01*
X15715420Y-13833984D02*
X15715420Y-13700650D01*
X15715420Y-13719698D02*
X15724943Y-13710174D01*
X15724943Y-13710174D02*
X15743991Y-13700650D01*
X15743991Y-13700650D02*
X15772563Y-13700650D01*
X15772563Y-13700650D02*
X15791610Y-13710174D01*
X15791610Y-13710174D02*
X15801134Y-13729222D01*
X15801134Y-13729222D02*
X15801134Y-13833984D01*
X15801134Y-13729222D02*
X15810658Y-13710174D01*
X15810658Y-13710174D02*
X15829705Y-13700650D01*
X15829705Y-13700650D02*
X15858277Y-13700650D01*
X15858277Y-13700650D02*
X15877324Y-13710174D01*
X15877324Y-13710174D02*
X15886848Y-13729222D01*
X15886848Y-13729222D02*
X15886848Y-13833984D01*
X15982086Y-13833984D02*
X15982086Y-13700650D01*
X15982086Y-13719698D02*
X15991610Y-13710174D01*
X15991610Y-13710174D02*
X16010658Y-13700650D01*
X16010658Y-13700650D02*
X16039229Y-13700650D01*
X16039229Y-13700650D02*
X16058277Y-13710174D01*
X16058277Y-13710174D02*
X16067801Y-13729222D01*
X16067801Y-13729222D02*
X16067801Y-13833984D01*
X16067801Y-13729222D02*
X16077324Y-13710174D01*
X16077324Y-13710174D02*
X16096372Y-13700650D01*
X16096372Y-13700650D02*
X16124943Y-13700650D01*
X16124943Y-13700650D02*
X16143991Y-13710174D01*
X16143991Y-13710174D02*
X16153515Y-13729222D01*
X16153515Y-13729222D02*
X16153515Y-13833984D01*
X16543991Y-13624460D02*
X16372563Y-13881603D01*
X16801134Y-13633984D02*
X16820182Y-13633984D01*
X16820182Y-13633984D02*
X16839229Y-13643508D01*
X16839229Y-13643508D02*
X16848753Y-13653031D01*
X16848753Y-13653031D02*
X16858277Y-13672079D01*
X16858277Y-13672079D02*
X16867801Y-13710174D01*
X16867801Y-13710174D02*
X16867801Y-13757793D01*
X16867801Y-13757793D02*
X16858277Y-13795888D01*
X16858277Y-13795888D02*
X16848753Y-13814936D01*
X16848753Y-13814936D02*
X16839229Y-13824460D01*
X16839229Y-13824460D02*
X16820182Y-13833984D01*
X16820182Y-13833984D02*
X16801134Y-13833984D01*
X16801134Y-13833984D02*
X16782087Y-13824460D01*
X16782087Y-13824460D02*
X16772563Y-13814936D01*
X16772563Y-13814936D02*
X16763039Y-13795888D01*
X16763039Y-13795888D02*
X16753515Y-13757793D01*
X16753515Y-13757793D02*
X16753515Y-13710174D01*
X16753515Y-13710174D02*
X16763039Y-13672079D01*
X16763039Y-13672079D02*
X16772563Y-13653031D01*
X16772563Y-13653031D02*
X16782087Y-13643508D01*
X16782087Y-13643508D02*
X16801134Y-13633984D01*
X16953515Y-13814936D02*
X16963039Y-13824460D01*
X16963039Y-13824460D02*
X16953515Y-13833984D01*
X16953515Y-13833984D02*
X16943991Y-13824460D01*
X16943991Y-13824460D02*
X16953515Y-13814936D01*
X16953515Y-13814936D02*
X16953515Y-13833984D01*
X17086848Y-13633984D02*
X17105896Y-13633984D01*
X17105896Y-13633984D02*
X17124944Y-13643508D01*
X17124944Y-13643508D02*
X17134468Y-13653031D01*
X17134468Y-13653031D02*
X17143991Y-13672079D01*
X17143991Y-13672079D02*
X17153515Y-13710174D01*
X17153515Y-13710174D02*
X17153515Y-13757793D01*
X17153515Y-13757793D02*
X17143991Y-13795888D01*
X17143991Y-13795888D02*
X17134468Y-13814936D01*
X17134468Y-13814936D02*
X17124944Y-13824460D01*
X17124944Y-13824460D02*
X17105896Y-13833984D01*
X17105896Y-13833984D02*
X17086848Y-13833984D01*
X17086848Y-13833984D02*
X17067801Y-13824460D01*
X17067801Y-13824460D02*
X17058277Y-13814936D01*
X17058277Y-13814936D02*
X17048753Y-13795888D01*
X17048753Y-13795888D02*
X17039229Y-13757793D01*
X17039229Y-13757793D02*
X17039229Y-13710174D01*
X17039229Y-13710174D02*
X17048753Y-13672079D01*
X17048753Y-13672079D02*
X17058277Y-13653031D01*
X17058277Y-13653031D02*
X17067801Y-13643508D01*
X17067801Y-13643508D02*
X17086848Y-13633984D01*
X17343991Y-13833984D02*
X17229706Y-13833984D01*
X17286848Y-13833984D02*
X17286848Y-13633984D01*
X17286848Y-13633984D02*
X17267801Y-13662555D01*
X17267801Y-13662555D02*
X17248753Y-13681603D01*
X17248753Y-13681603D02*
X17229706Y-13691127D01*
X17534468Y-13833984D02*
X17420182Y-13833984D01*
X17477325Y-13833984D02*
X17477325Y-13633984D01*
X17477325Y-13633984D02*
X17458277Y-13662555D01*
X17458277Y-13662555D02*
X17439229Y-13681603D01*
X17439229Y-13681603D02*
X17420182Y-13691127D01*
X17648753Y-13719698D02*
X17629706Y-13710174D01*
X17629706Y-13710174D02*
X17620182Y-13700650D01*
X17620182Y-13700650D02*
X17610658Y-13681603D01*
X17610658Y-13681603D02*
X17610658Y-13672079D01*
X17610658Y-13672079D02*
X17620182Y-13653031D01*
X17620182Y-13653031D02*
X17629706Y-13643508D01*
X17629706Y-13643508D02*
X17648753Y-13633984D01*
X17648753Y-13633984D02*
X17686849Y-13633984D01*
X17686849Y-13633984D02*
X17705896Y-13643508D01*
X17705896Y-13643508D02*
X17715420Y-13653031D01*
X17715420Y-13653031D02*
X17724944Y-13672079D01*
X17724944Y-13672079D02*
X17724944Y-13681603D01*
X17724944Y-13681603D02*
X17715420Y-13700650D01*
X17715420Y-13700650D02*
X17705896Y-13710174D01*
X17705896Y-13710174D02*
X17686849Y-13719698D01*
X17686849Y-13719698D02*
X17648753Y-13719698D01*
X17648753Y-13719698D02*
X17629706Y-13729222D01*
X17629706Y-13729222D02*
X17620182Y-13738746D01*
X17620182Y-13738746D02*
X17610658Y-13757793D01*
X17610658Y-13757793D02*
X17610658Y-13795888D01*
X17610658Y-13795888D02*
X17620182Y-13814936D01*
X17620182Y-13814936D02*
X17629706Y-13824460D01*
X17629706Y-13824460D02*
X17648753Y-13833984D01*
X17648753Y-13833984D02*
X17686849Y-13833984D01*
X17686849Y-13833984D02*
X17705896Y-13824460D01*
X17705896Y-13824460D02*
X17715420Y-13814936D01*
X17715420Y-13814936D02*
X17724944Y-13795888D01*
X17724944Y-13795888D02*
X17724944Y-13757793D01*
X17724944Y-13757793D02*
X17715420Y-13738746D01*
X17715420Y-13738746D02*
X17705896Y-13729222D01*
X17705896Y-13729222D02*
X17686849Y-13719698D01*
X17801134Y-13633984D02*
X17801134Y-13672079D01*
X17877325Y-13633984D02*
X17877325Y-13672079D01*
X18172563Y-13910174D02*
X18163039Y-13900650D01*
X18163039Y-13900650D02*
X18143991Y-13872079D01*
X18143991Y-13872079D02*
X18134468Y-13853031D01*
X18134468Y-13853031D02*
X18124944Y-13824460D01*
X18124944Y-13824460D02*
X18115420Y-13776841D01*
X18115420Y-13776841D02*
X18115420Y-13738746D01*
X18115420Y-13738746D02*
X18124944Y-13691127D01*
X18124944Y-13691127D02*
X18134468Y-13662555D01*
X18134468Y-13662555D02*
X18143991Y-13643508D01*
X18143991Y-13643508D02*
X18163039Y-13614936D01*
X18163039Y-13614936D02*
X18172563Y-13605412D01*
X18353515Y-13833984D02*
X18239230Y-13833984D01*
X18296372Y-13833984D02*
X18296372Y-13633984D01*
X18296372Y-13633984D02*
X18277325Y-13662555D01*
X18277325Y-13662555D02*
X18258277Y-13681603D01*
X18258277Y-13681603D02*
X18239230Y-13691127D01*
X18420182Y-13633984D02*
X18553515Y-13633984D01*
X18553515Y-13633984D02*
X18467801Y-13833984D01*
X18715420Y-13633984D02*
X18677325Y-13633984D01*
X18677325Y-13633984D02*
X18658277Y-13643508D01*
X18658277Y-13643508D02*
X18648753Y-13653031D01*
X18648753Y-13653031D02*
X18629706Y-13681603D01*
X18629706Y-13681603D02*
X18620182Y-13719698D01*
X18620182Y-13719698D02*
X18620182Y-13795888D01*
X18620182Y-13795888D02*
X18629706Y-13814936D01*
X18629706Y-13814936D02*
X18639230Y-13824460D01*
X18639230Y-13824460D02*
X18658277Y-13833984D01*
X18658277Y-13833984D02*
X18696372Y-13833984D01*
X18696372Y-13833984D02*
X18715420Y-13824460D01*
X18715420Y-13824460D02*
X18724944Y-13814936D01*
X18724944Y-13814936D02*
X18734468Y-13795888D01*
X18734468Y-13795888D02*
X18734468Y-13748269D01*
X18734468Y-13748269D02*
X18724944Y-13729222D01*
X18724944Y-13729222D02*
X18715420Y-13719698D01*
X18715420Y-13719698D02*
X18696372Y-13710174D01*
X18696372Y-13710174D02*
X18658277Y-13710174D01*
X18658277Y-13710174D02*
X18639230Y-13719698D01*
X18639230Y-13719698D02*
X18629706Y-13729222D01*
X18629706Y-13729222D02*
X18620182Y-13748269D01*
X18972563Y-13833984D02*
X18972563Y-13633984D01*
X19058277Y-13833984D02*
X19058277Y-13729222D01*
X19058277Y-13729222D02*
X19048753Y-13710174D01*
X19048753Y-13710174D02*
X19029706Y-13700650D01*
X19029706Y-13700650D02*
X19001134Y-13700650D01*
X19001134Y-13700650D02*
X18982087Y-13710174D01*
X18982087Y-13710174D02*
X18972563Y-13719698D01*
X19182087Y-13833984D02*
X19163039Y-13824460D01*
X19163039Y-13824460D02*
X19153515Y-13814936D01*
X19153515Y-13814936D02*
X19143992Y-13795888D01*
X19143992Y-13795888D02*
X19143992Y-13738746D01*
X19143992Y-13738746D02*
X19153515Y-13719698D01*
X19153515Y-13719698D02*
X19163039Y-13710174D01*
X19163039Y-13710174D02*
X19182087Y-13700650D01*
X19182087Y-13700650D02*
X19210658Y-13700650D01*
X19210658Y-13700650D02*
X19229706Y-13710174D01*
X19229706Y-13710174D02*
X19239230Y-13719698D01*
X19239230Y-13719698D02*
X19248753Y-13738746D01*
X19248753Y-13738746D02*
X19248753Y-13795888D01*
X19248753Y-13795888D02*
X19239230Y-13814936D01*
X19239230Y-13814936D02*
X19229706Y-13824460D01*
X19229706Y-13824460D02*
X19210658Y-13833984D01*
X19210658Y-13833984D02*
X19182087Y-13833984D01*
X19363039Y-13833984D02*
X19343992Y-13824460D01*
X19343992Y-13824460D02*
X19334468Y-13805412D01*
X19334468Y-13805412D02*
X19334468Y-13633984D01*
X19515420Y-13824460D02*
X19496373Y-13833984D01*
X19496373Y-13833984D02*
X19458277Y-13833984D01*
X19458277Y-13833984D02*
X19439230Y-13824460D01*
X19439230Y-13824460D02*
X19429706Y-13805412D01*
X19429706Y-13805412D02*
X19429706Y-13729222D01*
X19429706Y-13729222D02*
X19439230Y-13710174D01*
X19439230Y-13710174D02*
X19458277Y-13700650D01*
X19458277Y-13700650D02*
X19496373Y-13700650D01*
X19496373Y-13700650D02*
X19515420Y-13710174D01*
X19515420Y-13710174D02*
X19524944Y-13729222D01*
X19524944Y-13729222D02*
X19524944Y-13748269D01*
X19524944Y-13748269D02*
X19429706Y-13767317D01*
X19601134Y-13824460D02*
X19620182Y-13833984D01*
X19620182Y-13833984D02*
X19658277Y-13833984D01*
X19658277Y-13833984D02*
X19677325Y-13824460D01*
X19677325Y-13824460D02*
X19686849Y-13805412D01*
X19686849Y-13805412D02*
X19686849Y-13795888D01*
X19686849Y-13795888D02*
X19677325Y-13776841D01*
X19677325Y-13776841D02*
X19658277Y-13767317D01*
X19658277Y-13767317D02*
X19629706Y-13767317D01*
X19629706Y-13767317D02*
X19610658Y-13757793D01*
X19610658Y-13757793D02*
X19601134Y-13738746D01*
X19601134Y-13738746D02*
X19601134Y-13729222D01*
X19601134Y-13729222D02*
X19610658Y-13710174D01*
X19610658Y-13710174D02*
X19629706Y-13700650D01*
X19629706Y-13700650D02*
X19658277Y-13700650D01*
X19658277Y-13700650D02*
X19677325Y-13710174D01*
X19753515Y-13910174D02*
X19763039Y-13900650D01*
X19763039Y-13900650D02*
X19782087Y-13872079D01*
X19782087Y-13872079D02*
X19791611Y-13853031D01*
X19791611Y-13853031D02*
X19801134Y-13824460D01*
X19801134Y-13824460D02*
X19810658Y-13776841D01*
X19810658Y-13776841D02*
X19810658Y-13738746D01*
X19810658Y-13738746D02*
X19801134Y-13691127D01*
X19801134Y-13691127D02*
X19791611Y-13662555D01*
X19791611Y-13662555D02*
X19782087Y-13643508D01*
X19782087Y-13643508D02*
X19763039Y-13614936D01*
X19763039Y-13614936D02*
X19753515Y-13605412D01*
D10*
X14597500Y-14006500D02*
G75*
G02*
X14537500Y-14006500I-30000J0D01*
G01*
X14537500Y-14006500D02*
G75*
G02*
X14597500Y-14006500I30000J0D01*
G01*
D12*
X14896372Y-13897984D02*
X14915420Y-13897984D01*
X14915420Y-13897984D02*
X14934467Y-13907508D01*
X14934467Y-13907508D02*
X14943991Y-13917031D01*
X14943991Y-13917031D02*
X14953515Y-13936079D01*
X14953515Y-13936079D02*
X14963039Y-13974174D01*
X14963039Y-13974174D02*
X14963039Y-14021793D01*
X14963039Y-14021793D02*
X14953515Y-14059888D01*
X14953515Y-14059888D02*
X14943991Y-14078936D01*
X14943991Y-14078936D02*
X14934467Y-14088460D01*
X14934467Y-14088460D02*
X14915420Y-14097984D01*
X14915420Y-14097984D02*
X14896372Y-14097984D01*
X14896372Y-14097984D02*
X14877324Y-14088460D01*
X14877324Y-14088460D02*
X14867801Y-14078936D01*
X14867801Y-14078936D02*
X14858277Y-14059888D01*
X14858277Y-14059888D02*
X14848753Y-14021793D01*
X14848753Y-14021793D02*
X14848753Y-13974174D01*
X14848753Y-13974174D02*
X14858277Y-13936079D01*
X14858277Y-13936079D02*
X14867801Y-13917031D01*
X14867801Y-13917031D02*
X14877324Y-13907508D01*
X14877324Y-13907508D02*
X14896372Y-13897984D01*
X15048753Y-14078936D02*
X15058277Y-14088460D01*
X15058277Y-14088460D02*
X15048753Y-14097984D01*
X15048753Y-14097984D02*
X15039229Y-14088460D01*
X15039229Y-14088460D02*
X15048753Y-14078936D01*
X15048753Y-14078936D02*
X15048753Y-14097984D01*
X15229705Y-13897984D02*
X15191610Y-13897984D01*
X15191610Y-13897984D02*
X15172562Y-13907508D01*
X15172562Y-13907508D02*
X15163039Y-13917031D01*
X15163039Y-13917031D02*
X15143991Y-13945603D01*
X15143991Y-13945603D02*
X15134467Y-13983698D01*
X15134467Y-13983698D02*
X15134467Y-14059888D01*
X15134467Y-14059888D02*
X15143991Y-14078936D01*
X15143991Y-14078936D02*
X15153515Y-14088460D01*
X15153515Y-14088460D02*
X15172562Y-14097984D01*
X15172562Y-14097984D02*
X15210658Y-14097984D01*
X15210658Y-14097984D02*
X15229705Y-14088460D01*
X15229705Y-14088460D02*
X15239229Y-14078936D01*
X15239229Y-14078936D02*
X15248753Y-14059888D01*
X15248753Y-14059888D02*
X15248753Y-14012269D01*
X15248753Y-14012269D02*
X15239229Y-13993222D01*
X15239229Y-13993222D02*
X15229705Y-13983698D01*
X15229705Y-13983698D02*
X15210658Y-13974174D01*
X15210658Y-13974174D02*
X15172562Y-13974174D01*
X15172562Y-13974174D02*
X15153515Y-13983698D01*
X15153515Y-13983698D02*
X15143991Y-13993222D01*
X15143991Y-13993222D02*
X15134467Y-14012269D01*
X15372562Y-13897984D02*
X15391610Y-13897984D01*
X15391610Y-13897984D02*
X15410658Y-13907508D01*
X15410658Y-13907508D02*
X15420182Y-13917031D01*
X15420182Y-13917031D02*
X15429705Y-13936079D01*
X15429705Y-13936079D02*
X15439229Y-13974174D01*
X15439229Y-13974174D02*
X15439229Y-14021793D01*
X15439229Y-14021793D02*
X15429705Y-14059888D01*
X15429705Y-14059888D02*
X15420182Y-14078936D01*
X15420182Y-14078936D02*
X15410658Y-14088460D01*
X15410658Y-14088460D02*
X15391610Y-14097984D01*
X15391610Y-14097984D02*
X15372562Y-14097984D01*
X15372562Y-14097984D02*
X15353515Y-14088460D01*
X15353515Y-14088460D02*
X15343991Y-14078936D01*
X15343991Y-14078936D02*
X15334467Y-14059888D01*
X15334467Y-14059888D02*
X15324943Y-14021793D01*
X15324943Y-14021793D02*
X15324943Y-13974174D01*
X15324943Y-13974174D02*
X15334467Y-13936079D01*
X15334467Y-13936079D02*
X15343991Y-13917031D01*
X15343991Y-13917031D02*
X15353515Y-13907508D01*
X15353515Y-13907508D02*
X15372562Y-13897984D01*
X15563039Y-13897984D02*
X15582086Y-13897984D01*
X15582086Y-13897984D02*
X15601134Y-13907508D01*
X15601134Y-13907508D02*
X15610658Y-13917031D01*
X15610658Y-13917031D02*
X15620182Y-13936079D01*
X15620182Y-13936079D02*
X15629705Y-13974174D01*
X15629705Y-13974174D02*
X15629705Y-14021793D01*
X15629705Y-14021793D02*
X15620182Y-14059888D01*
X15620182Y-14059888D02*
X15610658Y-14078936D01*
X15610658Y-14078936D02*
X15601134Y-14088460D01*
X15601134Y-14088460D02*
X15582086Y-14097984D01*
X15582086Y-14097984D02*
X15563039Y-14097984D01*
X15563039Y-14097984D02*
X15543991Y-14088460D01*
X15543991Y-14088460D02*
X15534467Y-14078936D01*
X15534467Y-14078936D02*
X15524943Y-14059888D01*
X15524943Y-14059888D02*
X15515420Y-14021793D01*
X15515420Y-14021793D02*
X15515420Y-13974174D01*
X15515420Y-13974174D02*
X15524943Y-13936079D01*
X15524943Y-13936079D02*
X15534467Y-13917031D01*
X15534467Y-13917031D02*
X15543991Y-13907508D01*
X15543991Y-13907508D02*
X15563039Y-13897984D01*
X15715420Y-14097984D02*
X15715420Y-13964650D01*
X15715420Y-13983698D02*
X15724943Y-13974174D01*
X15724943Y-13974174D02*
X15743991Y-13964650D01*
X15743991Y-13964650D02*
X15772563Y-13964650D01*
X15772563Y-13964650D02*
X15791610Y-13974174D01*
X15791610Y-13974174D02*
X15801134Y-13993222D01*
X15801134Y-13993222D02*
X15801134Y-14097984D01*
X15801134Y-13993222D02*
X15810658Y-13974174D01*
X15810658Y-13974174D02*
X15829705Y-13964650D01*
X15829705Y-13964650D02*
X15858277Y-13964650D01*
X15858277Y-13964650D02*
X15877324Y-13974174D01*
X15877324Y-13974174D02*
X15886848Y-13993222D01*
X15886848Y-13993222D02*
X15886848Y-14097984D01*
X15982086Y-14097984D02*
X15982086Y-13964650D01*
X15982086Y-13983698D02*
X15991610Y-13974174D01*
X15991610Y-13974174D02*
X16010658Y-13964650D01*
X16010658Y-13964650D02*
X16039229Y-13964650D01*
X16039229Y-13964650D02*
X16058277Y-13974174D01*
X16058277Y-13974174D02*
X16067801Y-13993222D01*
X16067801Y-13993222D02*
X16067801Y-14097984D01*
X16067801Y-13993222D02*
X16077324Y-13974174D01*
X16077324Y-13974174D02*
X16096372Y-13964650D01*
X16096372Y-13964650D02*
X16124943Y-13964650D01*
X16124943Y-13964650D02*
X16143991Y-13974174D01*
X16143991Y-13974174D02*
X16153515Y-13993222D01*
X16153515Y-13993222D02*
X16153515Y-14097984D01*
X16543991Y-13888460D02*
X16372563Y-14145603D01*
X16801134Y-13897984D02*
X16820182Y-13897984D01*
X16820182Y-13897984D02*
X16839229Y-13907508D01*
X16839229Y-13907508D02*
X16848753Y-13917031D01*
X16848753Y-13917031D02*
X16858277Y-13936079D01*
X16858277Y-13936079D02*
X16867801Y-13974174D01*
X16867801Y-13974174D02*
X16867801Y-14021793D01*
X16867801Y-14021793D02*
X16858277Y-14059888D01*
X16858277Y-14059888D02*
X16848753Y-14078936D01*
X16848753Y-14078936D02*
X16839229Y-14088460D01*
X16839229Y-14088460D02*
X16820182Y-14097984D01*
X16820182Y-14097984D02*
X16801134Y-14097984D01*
X16801134Y-14097984D02*
X16782087Y-14088460D01*
X16782087Y-14088460D02*
X16772563Y-14078936D01*
X16772563Y-14078936D02*
X16763039Y-14059888D01*
X16763039Y-14059888D02*
X16753515Y-14021793D01*
X16753515Y-14021793D02*
X16753515Y-13974174D01*
X16753515Y-13974174D02*
X16763039Y-13936079D01*
X16763039Y-13936079D02*
X16772563Y-13917031D01*
X16772563Y-13917031D02*
X16782087Y-13907508D01*
X16782087Y-13907508D02*
X16801134Y-13897984D01*
X16953515Y-14078936D02*
X16963039Y-14088460D01*
X16963039Y-14088460D02*
X16953515Y-14097984D01*
X16953515Y-14097984D02*
X16943991Y-14088460D01*
X16943991Y-14088460D02*
X16953515Y-14078936D01*
X16953515Y-14078936D02*
X16953515Y-14097984D01*
X17086848Y-13897984D02*
X17105896Y-13897984D01*
X17105896Y-13897984D02*
X17124944Y-13907508D01*
X17124944Y-13907508D02*
X17134468Y-13917031D01*
X17134468Y-13917031D02*
X17143991Y-13936079D01*
X17143991Y-13936079D02*
X17153515Y-13974174D01*
X17153515Y-13974174D02*
X17153515Y-14021793D01*
X17153515Y-14021793D02*
X17143991Y-14059888D01*
X17143991Y-14059888D02*
X17134468Y-14078936D01*
X17134468Y-14078936D02*
X17124944Y-14088460D01*
X17124944Y-14088460D02*
X17105896Y-14097984D01*
X17105896Y-14097984D02*
X17086848Y-14097984D01*
X17086848Y-14097984D02*
X17067801Y-14088460D01*
X17067801Y-14088460D02*
X17058277Y-14078936D01*
X17058277Y-14078936D02*
X17048753Y-14059888D01*
X17048753Y-14059888D02*
X17039229Y-14021793D01*
X17039229Y-14021793D02*
X17039229Y-13974174D01*
X17039229Y-13974174D02*
X17048753Y-13936079D01*
X17048753Y-13936079D02*
X17058277Y-13917031D01*
X17058277Y-13917031D02*
X17067801Y-13907508D01*
X17067801Y-13907508D02*
X17086848Y-13897984D01*
X17229706Y-13917031D02*
X17239229Y-13907508D01*
X17239229Y-13907508D02*
X17258277Y-13897984D01*
X17258277Y-13897984D02*
X17305896Y-13897984D01*
X17305896Y-13897984D02*
X17324944Y-13907508D01*
X17324944Y-13907508D02*
X17334468Y-13917031D01*
X17334468Y-13917031D02*
X17343991Y-13936079D01*
X17343991Y-13936079D02*
X17343991Y-13955127D01*
X17343991Y-13955127D02*
X17334468Y-13983698D01*
X17334468Y-13983698D02*
X17220182Y-14097984D01*
X17220182Y-14097984D02*
X17343991Y-14097984D01*
X17410658Y-13897984D02*
X17534468Y-13897984D01*
X17534468Y-13897984D02*
X17467801Y-13974174D01*
X17467801Y-13974174D02*
X17496372Y-13974174D01*
X17496372Y-13974174D02*
X17515420Y-13983698D01*
X17515420Y-13983698D02*
X17524944Y-13993222D01*
X17524944Y-13993222D02*
X17534468Y-14012269D01*
X17534468Y-14012269D02*
X17534468Y-14059888D01*
X17534468Y-14059888D02*
X17524944Y-14078936D01*
X17524944Y-14078936D02*
X17515420Y-14088460D01*
X17515420Y-14088460D02*
X17496372Y-14097984D01*
X17496372Y-14097984D02*
X17439229Y-14097984D01*
X17439229Y-14097984D02*
X17420182Y-14088460D01*
X17420182Y-14088460D02*
X17410658Y-14078936D01*
X17705896Y-13897984D02*
X17667801Y-13897984D01*
X17667801Y-13897984D02*
X17648753Y-13907508D01*
X17648753Y-13907508D02*
X17639229Y-13917031D01*
X17639229Y-13917031D02*
X17620182Y-13945603D01*
X17620182Y-13945603D02*
X17610658Y-13983698D01*
X17610658Y-13983698D02*
X17610658Y-14059888D01*
X17610658Y-14059888D02*
X17620182Y-14078936D01*
X17620182Y-14078936D02*
X17629706Y-14088460D01*
X17629706Y-14088460D02*
X17648753Y-14097984D01*
X17648753Y-14097984D02*
X17686849Y-14097984D01*
X17686849Y-14097984D02*
X17705896Y-14088460D01*
X17705896Y-14088460D02*
X17715420Y-14078936D01*
X17715420Y-14078936D02*
X17724944Y-14059888D01*
X17724944Y-14059888D02*
X17724944Y-14012269D01*
X17724944Y-14012269D02*
X17715420Y-13993222D01*
X17715420Y-13993222D02*
X17705896Y-13983698D01*
X17705896Y-13983698D02*
X17686849Y-13974174D01*
X17686849Y-13974174D02*
X17648753Y-13974174D01*
X17648753Y-13974174D02*
X17629706Y-13983698D01*
X17629706Y-13983698D02*
X17620182Y-13993222D01*
X17620182Y-13993222D02*
X17610658Y-14012269D01*
X17801134Y-13897984D02*
X17801134Y-13936079D01*
X17877325Y-13897984D02*
X17877325Y-13936079D01*
X18172563Y-14174174D02*
X18163039Y-14164650D01*
X18163039Y-14164650D02*
X18143991Y-14136079D01*
X18143991Y-14136079D02*
X18134468Y-14117031D01*
X18134468Y-14117031D02*
X18124944Y-14088460D01*
X18124944Y-14088460D02*
X18115420Y-14040841D01*
X18115420Y-14040841D02*
X18115420Y-14002746D01*
X18115420Y-14002746D02*
X18124944Y-13955127D01*
X18124944Y-13955127D02*
X18134468Y-13926555D01*
X18134468Y-13926555D02*
X18143991Y-13907508D01*
X18143991Y-13907508D02*
X18163039Y-13878936D01*
X18163039Y-13878936D02*
X18172563Y-13869412D01*
X18286849Y-13897984D02*
X18305896Y-13897984D01*
X18305896Y-13897984D02*
X18324944Y-13907508D01*
X18324944Y-13907508D02*
X18334468Y-13917031D01*
X18334468Y-13917031D02*
X18343991Y-13936079D01*
X18343991Y-13936079D02*
X18353515Y-13974174D01*
X18353515Y-13974174D02*
X18353515Y-14021793D01*
X18353515Y-14021793D02*
X18343991Y-14059888D01*
X18343991Y-14059888D02*
X18334468Y-14078936D01*
X18334468Y-14078936D02*
X18324944Y-14088460D01*
X18324944Y-14088460D02*
X18305896Y-14097984D01*
X18305896Y-14097984D02*
X18286849Y-14097984D01*
X18286849Y-14097984D02*
X18267801Y-14088460D01*
X18267801Y-14088460D02*
X18258277Y-14078936D01*
X18258277Y-14078936D02*
X18248753Y-14059888D01*
X18248753Y-14059888D02*
X18239230Y-14021793D01*
X18239230Y-14021793D02*
X18239230Y-13974174D01*
X18239230Y-13974174D02*
X18248753Y-13936079D01*
X18248753Y-13936079D02*
X18258277Y-13917031D01*
X18258277Y-13917031D02*
X18267801Y-13907508D01*
X18267801Y-13907508D02*
X18286849Y-13897984D01*
X18591611Y-14097984D02*
X18591611Y-13897984D01*
X18677325Y-14097984D02*
X18677325Y-13993222D01*
X18677325Y-13993222D02*
X18667801Y-13974174D01*
X18667801Y-13974174D02*
X18648753Y-13964650D01*
X18648753Y-13964650D02*
X18620182Y-13964650D01*
X18620182Y-13964650D02*
X18601134Y-13974174D01*
X18601134Y-13974174D02*
X18591611Y-13983698D01*
X18801134Y-14097984D02*
X18782087Y-14088460D01*
X18782087Y-14088460D02*
X18772563Y-14078936D01*
X18772563Y-14078936D02*
X18763039Y-14059888D01*
X18763039Y-14059888D02*
X18763039Y-14002746D01*
X18763039Y-14002746D02*
X18772563Y-13983698D01*
X18772563Y-13983698D02*
X18782087Y-13974174D01*
X18782087Y-13974174D02*
X18801134Y-13964650D01*
X18801134Y-13964650D02*
X18829706Y-13964650D01*
X18829706Y-13964650D02*
X18848753Y-13974174D01*
X18848753Y-13974174D02*
X18858277Y-13983698D01*
X18858277Y-13983698D02*
X18867801Y-14002746D01*
X18867801Y-14002746D02*
X18867801Y-14059888D01*
X18867801Y-14059888D02*
X18858277Y-14078936D01*
X18858277Y-14078936D02*
X18848753Y-14088460D01*
X18848753Y-14088460D02*
X18829706Y-14097984D01*
X18829706Y-14097984D02*
X18801134Y-14097984D01*
X18982087Y-14097984D02*
X18963039Y-14088460D01*
X18963039Y-14088460D02*
X18953515Y-14069412D01*
X18953515Y-14069412D02*
X18953515Y-13897984D01*
X19134468Y-14088460D02*
X19115420Y-14097984D01*
X19115420Y-14097984D02*
X19077325Y-14097984D01*
X19077325Y-14097984D02*
X19058277Y-14088460D01*
X19058277Y-14088460D02*
X19048753Y-14069412D01*
X19048753Y-14069412D02*
X19048753Y-13993222D01*
X19048753Y-13993222D02*
X19058277Y-13974174D01*
X19058277Y-13974174D02*
X19077325Y-13964650D01*
X19077325Y-13964650D02*
X19115420Y-13964650D01*
X19115420Y-13964650D02*
X19134468Y-13974174D01*
X19134468Y-13974174D02*
X19143992Y-13993222D01*
X19143992Y-13993222D02*
X19143992Y-14012269D01*
X19143992Y-14012269D02*
X19048753Y-14031317D01*
X19220182Y-14088460D02*
X19239230Y-14097984D01*
X19239230Y-14097984D02*
X19277325Y-14097984D01*
X19277325Y-14097984D02*
X19296373Y-14088460D01*
X19296373Y-14088460D02*
X19305896Y-14069412D01*
X19305896Y-14069412D02*
X19305896Y-14059888D01*
X19305896Y-14059888D02*
X19296373Y-14040841D01*
X19296373Y-14040841D02*
X19277325Y-14031317D01*
X19277325Y-14031317D02*
X19248753Y-14031317D01*
X19248753Y-14031317D02*
X19229706Y-14021793D01*
X19229706Y-14021793D02*
X19220182Y-14002746D01*
X19220182Y-14002746D02*
X19220182Y-13993222D01*
X19220182Y-13993222D02*
X19229706Y-13974174D01*
X19229706Y-13974174D02*
X19248753Y-13964650D01*
X19248753Y-13964650D02*
X19277325Y-13964650D01*
X19277325Y-13964650D02*
X19296373Y-13974174D01*
X19543992Y-14021793D02*
X19696373Y-14021793D01*
X19620182Y-14097984D02*
X19620182Y-13945603D01*
X20029706Y-13964650D02*
X20029706Y-14097984D01*
X19982087Y-13888460D02*
X19934468Y-14031317D01*
X19934468Y-14031317D02*
X20058277Y-14031317D01*
X20277325Y-14088460D02*
X20296373Y-14097984D01*
X20296373Y-14097984D02*
X20334468Y-14097984D01*
X20334468Y-14097984D02*
X20353516Y-14088460D01*
X20353516Y-14088460D02*
X20363039Y-14069412D01*
X20363039Y-14069412D02*
X20363039Y-14059888D01*
X20363039Y-14059888D02*
X20353516Y-14040841D01*
X20353516Y-14040841D02*
X20334468Y-14031317D01*
X20334468Y-14031317D02*
X20305896Y-14031317D01*
X20305896Y-14031317D02*
X20286849Y-14021793D01*
X20286849Y-14021793D02*
X20277325Y-14002746D01*
X20277325Y-14002746D02*
X20277325Y-13993222D01*
X20277325Y-13993222D02*
X20286849Y-13974174D01*
X20286849Y-13974174D02*
X20305896Y-13964650D01*
X20305896Y-13964650D02*
X20334468Y-13964650D01*
X20334468Y-13964650D02*
X20353516Y-13974174D01*
X20477325Y-14097984D02*
X20458277Y-14088460D01*
X20458277Y-14088460D02*
X20448754Y-14069412D01*
X20448754Y-14069412D02*
X20448754Y-13897984D01*
X20582087Y-14097984D02*
X20563039Y-14088460D01*
X20563039Y-14088460D02*
X20553516Y-14078936D01*
X20553516Y-14078936D02*
X20543992Y-14059888D01*
X20543992Y-14059888D02*
X20543992Y-14002746D01*
X20543992Y-14002746D02*
X20553516Y-13983698D01*
X20553516Y-13983698D02*
X20563039Y-13974174D01*
X20563039Y-13974174D02*
X20582087Y-13964650D01*
X20582087Y-13964650D02*
X20610658Y-13964650D01*
X20610658Y-13964650D02*
X20629706Y-13974174D01*
X20629706Y-13974174D02*
X20639230Y-13983698D01*
X20639230Y-13983698D02*
X20648754Y-14002746D01*
X20648754Y-14002746D02*
X20648754Y-14059888D01*
X20648754Y-14059888D02*
X20639230Y-14078936D01*
X20639230Y-14078936D02*
X20629706Y-14088460D01*
X20629706Y-14088460D02*
X20610658Y-14097984D01*
X20610658Y-14097984D02*
X20582087Y-14097984D01*
X20705897Y-13964650D02*
X20782087Y-13964650D01*
X20734468Y-13897984D02*
X20734468Y-14069412D01*
X20734468Y-14069412D02*
X20743992Y-14088460D01*
X20743992Y-14088460D02*
X20763039Y-14097984D01*
X20763039Y-14097984D02*
X20782087Y-14097984D01*
X20839230Y-14088460D02*
X20858277Y-14097984D01*
X20858277Y-14097984D02*
X20896373Y-14097984D01*
X20896373Y-14097984D02*
X20915420Y-14088460D01*
X20915420Y-14088460D02*
X20924944Y-14069412D01*
X20924944Y-14069412D02*
X20924944Y-14059888D01*
X20924944Y-14059888D02*
X20915420Y-14040841D01*
X20915420Y-14040841D02*
X20896373Y-14031317D01*
X20896373Y-14031317D02*
X20867801Y-14031317D01*
X20867801Y-14031317D02*
X20848754Y-14021793D01*
X20848754Y-14021793D02*
X20839230Y-14002746D01*
X20839230Y-14002746D02*
X20839230Y-13993222D01*
X20839230Y-13993222D02*
X20848754Y-13974174D01*
X20848754Y-13974174D02*
X20867801Y-13964650D01*
X20867801Y-13964650D02*
X20896373Y-13964650D01*
X20896373Y-13964650D02*
X20915420Y-13974174D01*
X20991611Y-14174174D02*
X21001135Y-14164650D01*
X21001135Y-14164650D02*
X21020182Y-14136079D01*
X21020182Y-14136079D02*
X21029706Y-14117031D01*
X21029706Y-14117031D02*
X21039230Y-14088460D01*
X21039230Y-14088460D02*
X21048754Y-14040841D01*
X21048754Y-14040841D02*
X21048754Y-14002746D01*
X21048754Y-14002746D02*
X21039230Y-13955127D01*
X21039230Y-13955127D02*
X21029706Y-13926555D01*
X21029706Y-13926555D02*
X21020182Y-13907508D01*
X21020182Y-13907508D02*
X21001135Y-13878936D01*
X21001135Y-13878936D02*
X20991611Y-13869412D01*
M02*
