%TF.GenerationSoftware,KiCad,Pcbnew,8.0.6*%
%TF.CreationDate,2024-10-17T21:48:28+02:00*%
%TF.ProjectId,weatherStationBoard,77656174-6865-4725-9374-6174696f6e42,rev?*%
%TF.SameCoordinates,Original*%
%TF.FileFunction,Copper,L4,Bot*%
%TF.FilePolarity,Positive*%
%FSLAX46Y46*%
G04 Gerber Fmt 4.6, Leading zero omitted, Abs format (unit mm)*
G04 Created by KiCad (PCBNEW 8.0.6) date 2024-10-17 21:48:28*
%MOMM*%
%LPD*%
G01*
G04 APERTURE LIST*
G04 Aperture macros list*
%AMRoundRect*
0 Rectangle with rounded corners*
0 $1 Rounding radius*
0 $2 $3 $4 $5 $6 $7 $8 $9 X,Y pos of 4 corners*
0 Add a 4 corners polygon primitive as box body*
4,1,4,$2,$3,$4,$5,$6,$7,$8,$9,$2,$3,0*
0 Add four circle primitives for the rounded corners*
1,1,$1+$1,$2,$3*
1,1,$1+$1,$4,$5*
1,1,$1+$1,$6,$7*
1,1,$1+$1,$8,$9*
0 Add four rect primitives between the rounded corners*
20,1,$1+$1,$2,$3,$4,$5,0*
20,1,$1+$1,$4,$5,$6,$7,0*
20,1,$1+$1,$6,$7,$8,$9,0*
20,1,$1+$1,$8,$9,$2,$3,0*%
G04 Aperture macros list end*
%TA.AperFunction,ComponentPad*%
%ADD10O,2.100000X1.000000*%
%TD*%
%TA.AperFunction,ComponentPad*%
%ADD11O,1.600000X1.000000*%
%TD*%
%TA.AperFunction,SMDPad,CuDef*%
%ADD12RoundRect,0.250000X-0.250000X-0.475000X0.250000X-0.475000X0.250000X0.475000X-0.250000X0.475000X0*%
%TD*%
%TA.AperFunction,SMDPad,CuDef*%
%ADD13RoundRect,0.090000X0.360000X-0.660000X0.360000X0.660000X-0.360000X0.660000X-0.360000X-0.660000X0*%
%TD*%
%TA.AperFunction,ViaPad*%
%ADD14C,0.700000*%
%TD*%
%TA.AperFunction,Conductor*%
%ADD15C,0.200000*%
%TD*%
%TA.AperFunction,Conductor*%
%ADD16C,0.500000*%
%TD*%
%TA.AperFunction,Conductor*%
%ADD17C,0.300000*%
%TD*%
G04 APERTURE END LIST*
D10*
%TO.P,J1,S1,SHIELD*%
%TO.N,GND*%
X152255000Y-109185000D03*
D11*
X148075000Y-109185000D03*
D10*
X152255000Y-117825000D03*
D11*
X148075000Y-117825000D03*
%TD*%
D12*
%TO.P,C11,1*%
%TO.N,GND*%
X202550000Y-118500000D03*
%TO.P,C11,2*%
%TO.N,5V*%
X204450000Y-118500000D03*
%TD*%
D13*
%TO.P,D3,1,VDD*%
%TO.N,5V*%
X205750000Y-115950000D03*
%TO.P,D3,2,DOUT*%
%TO.N,unconnected-(D3-DOUT-Pad2)*%
X202450000Y-115950000D03*
%TO.P,D3,3,VSS*%
%TO.N,GND*%
X202450000Y-111050000D03*
%TO.P,D3,4,DIN*%
%TO.N,/IO12*%
X205750000Y-111050000D03*
%TD*%
D14*
%TO.N,GND*%
X148000000Y-124000000D03*
X167000000Y-98000000D03*
X182000000Y-102000000D03*
X182000000Y-127000000D03*
X174000000Y-111000000D03*
X221000000Y-118000000D03*
X174000000Y-129000000D03*
X168000000Y-127000000D03*
X220000000Y-103000000D03*
X176000000Y-119000000D03*
X149000000Y-104000000D03*
X150000000Y-120000000D03*
X175000000Y-118000000D03*
X167000000Y-122900000D03*
X159000000Y-125000000D03*
X224000000Y-118000000D03*
X180000000Y-127000000D03*
X154000000Y-129000000D03*
X199000000Y-121000000D03*
X199000000Y-109000000D03*
X191000000Y-105000000D03*
X176000000Y-129000000D03*
X184000000Y-127000000D03*
X163000000Y-112000000D03*
X182000000Y-129000000D03*
X168000000Y-129000000D03*
X184000000Y-102000000D03*
X157000000Y-104000000D03*
X174000000Y-105000000D03*
X170000000Y-127000000D03*
X193000000Y-98000000D03*
X174000000Y-127000000D03*
X176000000Y-107000000D03*
X220000000Y-101000000D03*
X177000000Y-122000000D03*
X186000000Y-127000000D03*
X186000000Y-129000000D03*
X229000000Y-125000000D03*
X166000000Y-129000000D03*
X172000000Y-129000000D03*
X170000000Y-129000000D03*
X176000000Y-105000000D03*
X188000000Y-102000000D03*
X149450000Y-112150000D03*
X180000000Y-129000000D03*
X162000000Y-129000000D03*
X183000000Y-119000000D03*
X223000000Y-98000000D03*
X151000000Y-102000000D03*
X180000000Y-102000000D03*
X194000000Y-108000000D03*
X163000000Y-118000000D03*
X225000000Y-129000000D03*
X225000000Y-114000000D03*
X155000000Y-104000000D03*
X172000000Y-127000000D03*
X184000000Y-129000000D03*
X201000000Y-121000000D03*
X190000000Y-129000000D03*
X190000000Y-102000000D03*
X148000000Y-122000000D03*
X187000000Y-123000000D03*
X215000000Y-110000000D03*
X153000000Y-98000000D03*
X217000000Y-127000000D03*
X201000000Y-109000000D03*
X150000000Y-122000000D03*
X205000000Y-121000000D03*
X203000000Y-121000000D03*
X188000000Y-127000000D03*
X218000000Y-116000000D03*
X199000000Y-111000000D03*
X158000000Y-129000000D03*
X163000000Y-114000000D03*
X174000000Y-107000000D03*
X218000000Y-101000000D03*
X174000000Y-113000000D03*
X180000000Y-105000000D03*
X152000000Y-124000000D03*
X153000000Y-100000000D03*
X216000000Y-101000000D03*
X157000000Y-106000000D03*
X163000000Y-116000000D03*
X176000000Y-109000000D03*
X166000000Y-127000000D03*
X164000000Y-119850000D03*
X225000000Y-101000000D03*
X176000000Y-102000000D03*
X153000000Y-102000000D03*
X156000000Y-127000000D03*
X189000000Y-123000000D03*
X184000000Y-98000000D03*
X151000000Y-104000000D03*
X216000000Y-103000000D03*
X149450000Y-114650000D03*
X152000000Y-127000000D03*
X174000000Y-109000000D03*
X218000000Y-103000000D03*
X188000000Y-129000000D03*
X221000000Y-114000000D03*
X148000000Y-120000000D03*
X222000000Y-129000000D03*
X229000000Y-102000000D03*
X178000000Y-129000000D03*
X164000000Y-129000000D03*
X153000000Y-104000000D03*
X152000000Y-129000000D03*
X160000000Y-129000000D03*
X194000000Y-106000000D03*
X225000000Y-98000000D03*
X219000000Y-129000000D03*
X191000000Y-121000000D03*
X190000000Y-127000000D03*
X186000000Y-102000000D03*
X156000000Y-129000000D03*
X174000000Y-115000000D03*
X155000000Y-106000000D03*
X180000000Y-114000000D03*
X199000000Y-119000000D03*
X178000000Y-105000000D03*
X159000000Y-106000000D03*
X178000000Y-102000000D03*
X149000000Y-102000000D03*
X154000000Y-127000000D03*
%TO.N,/DTR*%
X166650000Y-121300000D03*
X167650000Y-113615000D03*
%TO.N,5V*%
X159670000Y-108500000D03*
X155260000Y-108000000D03*
X170750000Y-103650000D03*
X203960000Y-104350000D03*
X168600000Y-103650000D03*
%TO.N,/XI*%
X159000735Y-123000000D03*
X159000000Y-117550000D03*
%TO.N,3V3*%
X187200000Y-112600000D03*
X213750000Y-119800000D03*
X183300000Y-111050000D03*
X159390000Y-104690000D03*
X192875000Y-101375000D03*
X192450000Y-108600000D03*
X182050000Y-113900000D03*
X163550000Y-98550000D03*
X182050000Y-112300000D03*
X224700000Y-109725000D03*
X214000000Y-109000000D03*
X224825000Y-107475000D03*
%TO.N,/GPIO0*%
X212960000Y-100030000D03*
X193300000Y-113600000D03*
X171050000Y-125600000D03*
X209500000Y-113500000D03*
X193000000Y-124700000D03*
X171050000Y-123650000D03*
%TO.N,/nRST*%
X202800000Y-101800000D03*
X175550000Y-98000000D03*
X207800000Y-121500000D03*
X207750000Y-104420000D03*
X202800000Y-100200000D03*
X171050000Y-114150000D03*
%TO.N,Net-(U2-TXD)*%
X157532320Y-126554244D03*
X158150000Y-111075000D03*
%TO.N,Net-(U2-RXD)*%
X158330000Y-112350000D03*
X158750000Y-127325000D03*
%TO.N,/BME_SD0*%
X186900000Y-115350000D03*
X182100000Y-115350000D03*
%TO.N,/I2C_SCL*%
X215850000Y-116700000D03*
X215850000Y-110800000D03*
%TO.N,/IO12*%
X205750000Y-109050000D03*
%TO.N,Net-(J1-CC1)*%
X154740000Y-111700000D03*
X153754509Y-107373869D03*
%TO.N,Net-(J1-CC2)*%
X155050000Y-118920000D03*
X155100000Y-115275000D03*
%TO.N,/USB_D+*%
X151500000Y-113155000D03*
X151300000Y-114550000D03*
%TO.N,/USB_D-*%
X150600000Y-113850000D03*
X150600000Y-112450000D03*
%TO.N,/I2C_SDA*%
X214800000Y-114450000D03*
X214800000Y-117860000D03*
%TD*%
D15*
%TO.N,/USB_D+*%
X151425000Y-113230000D02*
G75*
G03*
X151349986Y-113411066I181100J-181100D01*
G01*
X151350000Y-114464644D02*
G75*
G02*
X151324987Y-114524987I-85400J44D01*
G01*
%TO.N,Net-(J1-CC2)*%
X155025000Y-115325000D02*
G75*
G02*
X155050018Y-115385355I-60400J-60400D01*
G01*
%TO.N,Net-(J1-CC1)*%
X154247254Y-108487254D02*
G75*
G02*
X154739978Y-109676847I-1189554J-1189546D01*
G01*
X153754509Y-107684189D02*
G75*
G03*
X153973930Y-108213946I749191J-11D01*
G01*
%TO.N,Net-(U2-RXD)*%
X158265000Y-112415000D02*
G75*
G03*
X158200010Y-112571923I156900J-156900D01*
G01*
X158620799Y-127291252D02*
G75*
G03*
X158702273Y-127325025I81501J81452D01*
G01*
X158200000Y-126549039D02*
G75*
G03*
X158427285Y-127097714I776000J39D01*
G01*
%TO.N,Net-(U2-TXD)*%
X157880000Y-111345000D02*
G75*
G03*
X157610016Y-111996837I651800J-651800D01*
G01*
X157610000Y-126421635D02*
G75*
G02*
X157571140Y-126515384I-132600J35D01*
G01*
%TO.N,/nRST*%
X172000000Y-112528248D02*
G75*
G02*
X171524986Y-113674986I-1621800J48D01*
G01*
X175550000Y-99225000D02*
G75*
G02*
X174683792Y-101316203I-2957400J0D01*
G01*
X173195344Y-102804655D02*
G75*
G03*
X171999991Y-105690472I2885856J-2885845D01*
G01*
X207750000Y-121414644D02*
G75*
G03*
X207775013Y-121474987I85400J44D01*
G01*
%TO.N,/GPIO0*%
X210899827Y-100030000D02*
G75*
G03*
X209909992Y-100439992I-27J-1399800D01*
G01*
X193300000Y-124187867D02*
G75*
G02*
X193150009Y-124550009I-512100J-33D01*
G01*
X209910000Y-100440000D02*
G75*
G03*
X209500011Y-101429827I989800J-989800D01*
G01*
%TO.N,3V3*%
X192425000Y-103307322D02*
G75*
G03*
X192437507Y-103337493I42700J22D01*
G01*
D16*
X160429999Y-99599999D02*
G75*
G03*
X159380009Y-102134924I2534901J-2534901D01*
G01*
D15*
X192437500Y-103337500D02*
G75*
G02*
X192450009Y-103367677I-30200J-30200D01*
G01*
D16*
X162515000Y-98550000D02*
G75*
G03*
X160748147Y-99281858I0J-2498700D01*
G01*
X159380000Y-104672928D02*
G75*
G03*
X159385008Y-104684992I17100J28D01*
G01*
D15*
X224762500Y-107537500D02*
G75*
G03*
X224699995Y-107688388I150900J-150900D01*
G01*
X213875000Y-109125000D02*
G75*
G03*
X213749990Y-109426776I301800J-301800D01*
G01*
X186425000Y-111825000D02*
G75*
G03*
X184553984Y-111050006I-1871000J-1871000D01*
G01*
X192650000Y-101600000D02*
G75*
G03*
X192424999Y-102143198I543200J-543200D01*
G01*
%TO.N,/XI*%
X159000367Y-117550367D02*
G75*
G02*
X159000773Y-117551253I-867J-933D01*
G01*
D17*
%TO.N,5V*%
X205750000Y-117390380D02*
G75*
G02*
X205425006Y-118175006I-1109600J-20D01*
G01*
X205329809Y-118270190D02*
G75*
G02*
X204775000Y-118500005I-554809J554790D01*
G01*
X205237347Y-113987347D02*
G75*
G02*
X205750001Y-115225000I-1237647J-1237653D01*
G01*
X155277071Y-107990000D02*
G75*
G03*
X155265008Y-107995008I29J-17100D01*
G01*
X203960000Y-111444278D02*
G75*
G03*
X204854994Y-113605006I3055700J-22D01*
G01*
X159415000Y-108245000D02*
G75*
G03*
X158799375Y-107990010I-615600J-615600D01*
G01*
D15*
%TO.N,/DTR*%
X167850000Y-118201471D02*
G75*
G02*
X167250008Y-119650008I-2048500J-29D01*
G01*
X167750000Y-113715000D02*
G75*
G02*
X167849991Y-113956421I-241400J-241400D01*
G01*
X167021231Y-119878768D02*
G75*
G03*
X166650010Y-120775000I896269J-896232D01*
G01*
%TO.N,Net-(U2-RXD)*%
X158702273Y-127325000D02*
X158750000Y-127325000D01*
X158620799Y-127291252D02*
X158427273Y-127097726D01*
X158265000Y-112415000D02*
X158330000Y-112350000D01*
X158200000Y-112571923D02*
X158200000Y-126549039D01*
%TO.N,/GPIO0*%
X171050000Y-125600000D02*
X171050000Y-123650000D01*
%TO.N,/USB_D+*%
X151350000Y-113411066D02*
X151350000Y-114464644D01*
X151300000Y-114550000D02*
X151325000Y-114525000D01*
X151500000Y-113155000D02*
X151425000Y-113230000D01*
%TO.N,/USB_D-*%
X150600000Y-113850000D02*
X150600000Y-112450000D01*
%TO.N,/nRST*%
X202800000Y-100200000D02*
X202800000Y-101800000D01*
%TO.N,/DTR*%
X167650000Y-113615000D02*
X167750000Y-113715000D01*
X166650000Y-121300000D02*
X166650000Y-120775000D01*
X167249999Y-119649999D02*
X167021231Y-119878768D01*
X167850000Y-118201471D02*
X167850000Y-113956421D01*
D17*
%TO.N,5V*%
X205750000Y-115225000D02*
X205750000Y-115950000D01*
X203960000Y-111444278D02*
X203960000Y-104350000D01*
X205750000Y-117390380D02*
X205750000Y-115950000D01*
X204775000Y-118500000D02*
X204450000Y-118500000D01*
X159670000Y-108500000D02*
X159415000Y-108245000D01*
X155277071Y-107990000D02*
X158799375Y-107990000D01*
X168600000Y-103650000D02*
X170750000Y-103650000D01*
X155260000Y-108000000D02*
X155265000Y-107995000D01*
X205237347Y-113987347D02*
X204855000Y-113605000D01*
X205424999Y-118174999D02*
X205329809Y-118270190D01*
D15*
%TO.N,/XI*%
X159000735Y-117551254D02*
X159000735Y-123000000D01*
X159000000Y-117550000D02*
X159000367Y-117550367D01*
D16*
%TO.N,3V3*%
X160429999Y-99599999D02*
X160748144Y-99281855D01*
X159385000Y-104685000D02*
X159390000Y-104690000D01*
D15*
X192875000Y-101375000D02*
X192650000Y-101600000D01*
D16*
X163550000Y-98550000D02*
X162515000Y-98550000D01*
D15*
X187200000Y-112600000D02*
X186425000Y-111825000D01*
X192425000Y-103307322D02*
X192425000Y-102143198D01*
D16*
X159380000Y-102134924D02*
X159380000Y-104672928D01*
D15*
X183300000Y-111050000D02*
X184553984Y-111050000D01*
X224700000Y-109725000D02*
X224700000Y-107688388D01*
X182050000Y-113900000D02*
X182050000Y-112300000D01*
X213750000Y-119800000D02*
X213750000Y-109426776D01*
X192450000Y-103367677D02*
X192450000Y-108600000D01*
X214000000Y-109000000D02*
X213875000Y-109125000D01*
X224825000Y-107475000D02*
X224762500Y-107537500D01*
%TO.N,/GPIO0*%
X212960000Y-100030000D02*
X210899827Y-100030000D01*
X209500000Y-101429827D02*
X209500000Y-113500000D01*
X193300000Y-113600000D02*
X193300000Y-124187867D01*
X193150000Y-124550000D02*
X193000000Y-124700000D01*
%TO.N,/nRST*%
X172000000Y-112528248D02*
X172000000Y-105690472D01*
X174683794Y-101316205D02*
X173195344Y-102804655D01*
X175550000Y-99225000D02*
X175550000Y-98000000D01*
X207800000Y-121500000D02*
X207775000Y-121475000D01*
X171525000Y-113675000D02*
X171050000Y-114150000D01*
X207750000Y-104420000D02*
X207750000Y-121414644D01*
%TO.N,Net-(U2-TXD)*%
X157880000Y-111345000D02*
X158150000Y-111075000D01*
X157571160Y-126515404D02*
X157532320Y-126554244D01*
X157610000Y-111996837D02*
X157610000Y-126421635D01*
%TO.N,/BME_SD0*%
X186900000Y-115350000D02*
X182100000Y-115350000D01*
%TO.N,/I2C_SCL*%
X215850000Y-116700000D02*
X215850000Y-110800000D01*
%TO.N,/IO12*%
X205750000Y-109050000D02*
X205750000Y-111050000D01*
%TO.N,Net-(J1-CC1)*%
X153754509Y-107373869D02*
X153777500Y-107396860D01*
X154740000Y-109676847D02*
X154740000Y-111700000D01*
X153754509Y-107373869D02*
X153754509Y-107684189D01*
X154247254Y-108487254D02*
X153973938Y-108213938D01*
%TO.N,Net-(J1-CC2)*%
X155025000Y-115325000D02*
X155000000Y-115300000D01*
X155050000Y-118920000D02*
X155050000Y-115385355D01*
%TO.N,/I2C_SDA*%
X214800000Y-117860000D02*
X214800000Y-114450000D01*
%TD*%
%TA.AperFunction,Conductor*%
%TO.N,GND*%
G36*
X229943039Y-97019685D02*
G01*
X229988794Y-97072489D01*
X230000000Y-97124000D01*
X230000000Y-129876000D01*
X229980315Y-129943039D01*
X229927511Y-129988794D01*
X229876000Y-130000000D01*
X216083952Y-130000000D01*
X216016913Y-129980315D01*
X215971158Y-129927511D01*
X215968821Y-129922052D01*
X213000000Y-122500000D01*
X195000000Y-122500000D01*
X194999999Y-122500000D01*
X192031179Y-129922052D01*
X191988005Y-129976986D01*
X191921984Y-129999858D01*
X191916048Y-130000000D01*
X147124000Y-130000000D01*
X147056961Y-129980315D01*
X147011206Y-129927511D01*
X147000000Y-129876000D01*
X147000000Y-126554243D01*
X156877042Y-126554243D01*
X156877042Y-126554244D01*
X156896082Y-126711062D01*
X156952100Y-126858767D01*
X157041837Y-126988774D01*
X157160080Y-127093527D01*
X157160082Y-127093528D01*
X157299954Y-127166940D01*
X157453334Y-127204744D01*
X157453335Y-127204744D01*
X157611305Y-127204744D01*
X157764685Y-127166940D01*
X157818903Y-127138483D01*
X157887411Y-127124758D01*
X157952464Y-127150250D01*
X157976846Y-127175394D01*
X158077660Y-127314150D01*
X158100439Y-127372089D01*
X158113762Y-127481815D01*
X158113763Y-127481821D01*
X158169780Y-127629523D01*
X158259517Y-127759530D01*
X158377760Y-127864283D01*
X158377762Y-127864284D01*
X158517634Y-127937696D01*
X158671014Y-127975500D01*
X158671015Y-127975500D01*
X158828985Y-127975500D01*
X158982365Y-127937696D01*
X159122240Y-127864283D01*
X159240483Y-127759530D01*
X159330220Y-127629523D01*
X159386237Y-127481818D01*
X159405278Y-127325000D01*
X159390677Y-127204744D01*
X159386237Y-127168181D01*
X159364992Y-127112164D01*
X159330220Y-127020477D01*
X159240483Y-126890470D01*
X159122240Y-126785717D01*
X159122238Y-126785716D01*
X159122237Y-126785715D01*
X158982365Y-126712303D01*
X158828986Y-126674500D01*
X158828985Y-126674500D01*
X158725749Y-126674500D01*
X158658710Y-126654815D01*
X158612955Y-126602011D01*
X158602810Y-126566687D01*
X158601561Y-126557196D01*
X158600500Y-126541012D01*
X158600500Y-123728676D01*
X158620185Y-123661637D01*
X158672989Y-123615882D01*
X158742147Y-123605938D01*
X158767320Y-123612437D01*
X158768369Y-123612695D01*
X158768370Y-123612696D01*
X158837169Y-123629653D01*
X158921749Y-123650500D01*
X158921750Y-123650500D01*
X159079720Y-123650500D01*
X159081753Y-123649999D01*
X170394722Y-123649999D01*
X170394722Y-123650000D01*
X170413762Y-123806818D01*
X170469780Y-123954523D01*
X170469781Y-123954524D01*
X170559517Y-124084531D01*
X170607726Y-124127239D01*
X170644853Y-124186428D01*
X170649500Y-124220055D01*
X170649500Y-125029944D01*
X170629815Y-125096983D01*
X170607727Y-125122759D01*
X170559521Y-125165465D01*
X170559515Y-125165472D01*
X170469781Y-125295475D01*
X170469780Y-125295476D01*
X170413762Y-125443181D01*
X170394722Y-125599999D01*
X170394722Y-125600000D01*
X170413762Y-125756818D01*
X170469780Y-125904523D01*
X170559517Y-126034530D01*
X170677760Y-126139283D01*
X170677762Y-126139284D01*
X170817634Y-126212696D01*
X170971014Y-126250500D01*
X170971015Y-126250500D01*
X171128985Y-126250500D01*
X171282365Y-126212696D01*
X171422240Y-126139283D01*
X171540483Y-126034530D01*
X171630220Y-125904523D01*
X171686237Y-125756818D01*
X171705278Y-125600000D01*
X171686237Y-125443182D01*
X171630220Y-125295477D01*
X171540483Y-125165470D01*
X171540480Y-125165467D01*
X171540478Y-125165465D01*
X171492273Y-125122759D01*
X171455146Y-125063570D01*
X171450500Y-125029944D01*
X171450500Y-124699999D01*
X192344722Y-124699999D01*
X192344722Y-124700000D01*
X192363762Y-124856818D01*
X192419780Y-125004523D01*
X192509517Y-125134530D01*
X192627760Y-125239283D01*
X192627762Y-125239284D01*
X192767634Y-125312696D01*
X192921014Y-125350500D01*
X192921015Y-125350500D01*
X193078985Y-125350500D01*
X193232365Y-125312696D01*
X193372240Y-125239283D01*
X193490483Y-125134530D01*
X193580220Y-125004523D01*
X193636237Y-124856818D01*
X193655278Y-124700000D01*
X193638394Y-124560949D01*
X193643557Y-124507694D01*
X193678038Y-124401561D01*
X193700504Y-124259670D01*
X193700500Y-124187841D01*
X193700500Y-119024986D01*
X201550001Y-119024986D01*
X201560494Y-119127697D01*
X201615641Y-119294119D01*
X201615643Y-119294124D01*
X201707684Y-119443345D01*
X201831654Y-119567315D01*
X201980875Y-119659356D01*
X201980880Y-119659358D01*
X202147302Y-119714505D01*
X202147309Y-119714506D01*
X202250019Y-119724999D01*
X202299999Y-119724998D01*
X202300000Y-119724998D01*
X202300000Y-118750000D01*
X201550001Y-118750000D01*
X201550001Y-119024986D01*
X193700500Y-119024986D01*
X193700500Y-117975013D01*
X201550000Y-117975013D01*
X201550000Y-118250000D01*
X202300000Y-118250000D01*
X202300000Y-117275000D01*
X202299999Y-117274999D01*
X202250029Y-117275000D01*
X202250011Y-117275001D01*
X202147302Y-117285494D01*
X201980880Y-117340641D01*
X201980875Y-117340643D01*
X201831654Y-117432684D01*
X201707684Y-117556654D01*
X201615643Y-117705875D01*
X201615641Y-117705880D01*
X201560494Y-117872302D01*
X201560493Y-117872309D01*
X201550000Y-117975013D01*
X193700500Y-117975013D01*
X193700500Y-115259264D01*
X201699500Y-115259264D01*
X201699500Y-116640739D01*
X201713981Y-116732170D01*
X201713981Y-116732171D01*
X201713982Y-116732174D01*
X201713983Y-116732175D01*
X201759264Y-116821044D01*
X201770142Y-116842392D01*
X201770145Y-116842396D01*
X201857603Y-116929854D01*
X201857605Y-116929855D01*
X201857609Y-116929859D01*
X201967825Y-116986017D01*
X201967826Y-116986017D01*
X201967828Y-116986018D01*
X201999494Y-116991033D01*
X202059265Y-117000500D01*
X202840734Y-117000499D01*
X202840739Y-117000499D01*
X202840739Y-117000498D01*
X202886454Y-116993258D01*
X202932170Y-116986018D01*
X202932171Y-116986018D01*
X202932172Y-116986017D01*
X202932175Y-116986017D01*
X203042391Y-116929859D01*
X203129859Y-116842391D01*
X203186017Y-116732175D01*
X203186017Y-116732173D01*
X203186018Y-116732172D01*
X203186018Y-116732171D01*
X203198650Y-116652413D01*
X203200500Y-116640735D01*
X203200499Y-115259266D01*
X203200499Y-115259264D01*
X203200499Y-115259260D01*
X203186018Y-115167829D01*
X203186018Y-115167828D01*
X203186017Y-115167826D01*
X203186017Y-115167825D01*
X203129859Y-115057609D01*
X203129857Y-115057607D01*
X203129854Y-115057603D01*
X203042396Y-114970145D01*
X203042393Y-114970143D01*
X203042391Y-114970141D01*
X202932175Y-114913983D01*
X202932174Y-114913982D01*
X202932171Y-114913981D01*
X202840735Y-114899500D01*
X202059260Y-114899500D01*
X202059260Y-114899501D01*
X201967829Y-114913981D01*
X201967828Y-114913981D01*
X201857607Y-114970142D01*
X201857603Y-114970145D01*
X201770145Y-115057603D01*
X201770142Y-115057608D01*
X201713981Y-115167827D01*
X201713981Y-115167828D01*
X201699500Y-115259264D01*
X193700500Y-115259264D01*
X193700500Y-114170055D01*
X193720185Y-114103016D01*
X193742274Y-114077239D01*
X193790482Y-114034531D01*
X193794959Y-114028045D01*
X193880220Y-113904523D01*
X193936237Y-113756818D01*
X193955278Y-113600000D01*
X193947666Y-113537304D01*
X193936237Y-113443181D01*
X193906044Y-113363570D01*
X193880220Y-113295477D01*
X193790483Y-113165470D01*
X193672240Y-113060717D01*
X193672238Y-113060716D01*
X193672237Y-113060715D01*
X193532365Y-112987303D01*
X193378986Y-112949500D01*
X193378985Y-112949500D01*
X193221015Y-112949500D01*
X193221014Y-112949500D01*
X193067634Y-112987303D01*
X192927762Y-113060715D01*
X192848931Y-113130552D01*
X192821337Y-113154999D01*
X192809516Y-113165471D01*
X192719781Y-113295475D01*
X192719780Y-113295476D01*
X192663762Y-113443181D01*
X192644722Y-113599999D01*
X192644722Y-113600000D01*
X192663762Y-113756818D01*
X192718064Y-113899999D01*
X192719780Y-113904523D01*
X192731046Y-113920844D01*
X192809517Y-114034531D01*
X192857726Y-114077239D01*
X192894853Y-114136428D01*
X192899500Y-114170055D01*
X192899500Y-123957654D01*
X192879815Y-124024693D01*
X192827011Y-124070448D01*
X192805175Y-124078051D01*
X192767633Y-124087304D01*
X192627762Y-124160715D01*
X192509516Y-124265471D01*
X192419781Y-124395475D01*
X192419780Y-124395476D01*
X192363762Y-124543181D01*
X192344722Y-124699999D01*
X171450500Y-124699999D01*
X171450500Y-124220055D01*
X171470185Y-124153016D01*
X171492274Y-124127239D01*
X171540482Y-124084531D01*
X171550203Y-124070448D01*
X171630220Y-123954523D01*
X171686237Y-123806818D01*
X171705278Y-123650000D01*
X171686237Y-123493182D01*
X171630220Y-123345477D01*
X171540483Y-123215470D01*
X171422240Y-123110717D01*
X171422238Y-123110716D01*
X171422237Y-123110715D01*
X171282365Y-123037303D01*
X171128986Y-122999500D01*
X171128985Y-122999500D01*
X170971015Y-122999500D01*
X170971014Y-122999500D01*
X170817634Y-123037303D01*
X170677762Y-123110715D01*
X170559516Y-123215471D01*
X170469781Y-123345475D01*
X170469780Y-123345476D01*
X170413762Y-123493181D01*
X170394722Y-123649999D01*
X159081753Y-123649999D01*
X159233100Y-123612696D01*
X159245976Y-123605938D01*
X159372975Y-123539283D01*
X159491218Y-123434530D01*
X159580955Y-123304523D01*
X159636972Y-123156818D01*
X159656013Y-123000000D01*
X159636972Y-122843182D01*
X159580955Y-122695477D01*
X159491218Y-122565470D01*
X159491215Y-122565467D01*
X159491213Y-122565465D01*
X159443008Y-122522759D01*
X159405881Y-122463570D01*
X159401235Y-122429944D01*
X159401235Y-121299999D01*
X165994722Y-121299999D01*
X165994722Y-121300000D01*
X166013762Y-121456818D01*
X166069780Y-121604523D01*
X166159517Y-121734530D01*
X166277760Y-121839283D01*
X166277762Y-121839284D01*
X166417634Y-121912696D01*
X166571014Y-121950500D01*
X166571015Y-121950500D01*
X166728985Y-121950500D01*
X166882365Y-121912696D01*
X166913094Y-121896568D01*
X167022240Y-121839283D01*
X167140483Y-121734530D01*
X167230220Y-121604523D01*
X167286237Y-121456818D01*
X167305278Y-121300000D01*
X167292587Y-121195475D01*
X167286237Y-121143181D01*
X167264992Y-121087164D01*
X167230220Y-120995477D01*
X167140483Y-120865470D01*
X167140480Y-120865467D01*
X167140478Y-120865465D01*
X167095946Y-120826013D01*
X167058819Y-120766824D01*
X167054555Y-120723472D01*
X167060409Y-120649092D01*
X167063450Y-120629894D01*
X167090655Y-120516570D01*
X167096662Y-120498081D01*
X167141260Y-120390409D01*
X167150087Y-120373083D01*
X167210979Y-120273714D01*
X167222403Y-120257990D01*
X167301202Y-120165724D01*
X167307776Y-120158613D01*
X167496866Y-119969524D01*
X167496910Y-119969499D01*
X167533204Y-119933204D01*
X167533205Y-119933205D01*
X167630457Y-119835952D01*
X167801960Y-119620893D01*
X167948306Y-119387983D01*
X168067653Y-119140152D01*
X168158501Y-118880517D01*
X168219707Y-118612342D01*
X168250502Y-118339001D01*
X168250500Y-118201465D01*
X168250500Y-118180480D01*
X168250500Y-114149999D01*
X170394722Y-114149999D01*
X170394722Y-114150000D01*
X170413762Y-114306818D01*
X170445038Y-114389284D01*
X170469780Y-114454523D01*
X170559517Y-114584530D01*
X170677760Y-114689283D01*
X170677762Y-114689284D01*
X170817634Y-114762696D01*
X170971014Y-114800500D01*
X170971015Y-114800500D01*
X171128985Y-114800500D01*
X171282365Y-114762696D01*
X171297937Y-114754523D01*
X171422240Y-114689283D01*
X171540483Y-114584530D01*
X171630220Y-114454523D01*
X171686237Y-114306818D01*
X171705278Y-114150000D01*
X171702931Y-114130673D01*
X171714391Y-114061751D01*
X171738342Y-114028049D01*
X171845480Y-113920913D01*
X171845482Y-113920908D01*
X171851326Y-113915065D01*
X171851524Y-113914839D01*
X171888477Y-113877887D01*
X171888477Y-113877886D01*
X171888485Y-113877879D01*
X172030100Y-113700301D01*
X172150942Y-113507985D01*
X172150945Y-113507979D01*
X172150946Y-113507978D01*
X172154788Y-113500000D01*
X175870783Y-113500000D01*
X175890899Y-114088881D01*
X175926922Y-114439282D01*
X175949849Y-114662303D01*
X175951157Y-114675021D01*
X176051272Y-115255674D01*
X176051275Y-115255687D01*
X176189358Y-115822311D01*
X176190777Y-115828135D01*
X176369026Y-116389749D01*
X176555820Y-116863427D01*
X176585188Y-116937900D01*
X176838242Y-117469996D01*
X176838244Y-117469999D01*
X176838245Y-117470001D01*
X177122199Y-117975013D01*
X177127033Y-117983610D01*
X177224954Y-118132902D01*
X177450189Y-118476300D01*
X177786657Y-118919999D01*
X177806217Y-118945792D01*
X177806225Y-118945802D01*
X178191791Y-119387988D01*
X178193458Y-119389899D01*
X178610101Y-119806542D01*
X178610113Y-119806552D01*
X178610119Y-119806558D01*
X178842870Y-120009506D01*
X179054205Y-120193781D01*
X179523700Y-120549811D01*
X180016397Y-120872971D01*
X180529999Y-121161755D01*
X180530002Y-121161756D01*
X180530003Y-121161757D01*
X180820686Y-121300000D01*
X181062110Y-121414816D01*
X181610251Y-121630974D01*
X182171865Y-121809223D01*
X182530292Y-121896568D01*
X182744312Y-121948724D01*
X182744325Y-121948727D01*
X182744327Y-121948727D01*
X182744334Y-121948729D01*
X183324988Y-122048844D01*
X183911121Y-122109101D01*
X184500000Y-122129217D01*
X185088879Y-122109101D01*
X185675012Y-122048844D01*
X186255666Y-121948729D01*
X186313941Y-121934528D01*
X186325321Y-121931754D01*
X186828135Y-121809223D01*
X187389749Y-121630974D01*
X187937890Y-121414816D01*
X188470001Y-121161755D01*
X188983603Y-120872971D01*
X189476300Y-120549811D01*
X189945795Y-120193781D01*
X190217555Y-119956818D01*
X190389871Y-119806567D01*
X190389877Y-119806560D01*
X190389899Y-119806542D01*
X190599999Y-119599999D01*
X190667092Y-119529536D01*
X190775169Y-119367787D01*
X190849613Y-119188061D01*
X190887565Y-118997266D01*
X190887565Y-118802732D01*
X190887565Y-118802729D01*
X190849614Y-118611943D01*
X190849613Y-118611937D01*
X190775169Y-118432211D01*
X190773136Y-118429169D01*
X190667095Y-118270466D01*
X190667089Y-118270458D01*
X190529539Y-118132908D01*
X190529531Y-118132902D01*
X190367797Y-118024835D01*
X190367790Y-118024831D01*
X190367787Y-118024829D01*
X190367783Y-118024827D01*
X190367779Y-118024825D01*
X190188062Y-117950385D01*
X190188054Y-117950383D01*
X189997268Y-117912433D01*
X189997266Y-117912433D01*
X189802732Y-117912433D01*
X189802730Y-117912433D01*
X189611943Y-117950383D01*
X189611935Y-117950385D01*
X189432218Y-118024825D01*
X189432200Y-118024835D01*
X189270467Y-118132901D01*
X189270466Y-118132902D01*
X189199979Y-118200017D01*
X189019689Y-118376887D01*
X189013508Y-118382553D01*
X188711820Y-118640893D01*
X188630261Y-118710733D01*
X188622752Y-118716676D01*
X188215796Y-119013951D01*
X188207858Y-119019292D01*
X187779185Y-119284266D01*
X187770850Y-119288983D01*
X187322984Y-119520095D01*
X187314310Y-119524155D01*
X186849969Y-119720003D01*
X186841008Y-119723381D01*
X186362936Y-119882810D01*
X186353741Y-119885487D01*
X185864777Y-120007547D01*
X185855402Y-120009506D01*
X185358490Y-120093465D01*
X185348993Y-120094695D01*
X184847070Y-120140055D01*
X184837506Y-120140548D01*
X184333580Y-120147037D01*
X184324006Y-120146790D01*
X183821090Y-120114369D01*
X183811564Y-120113384D01*
X183312664Y-120042249D01*
X183303242Y-120040532D01*
X182811278Y-119931097D01*
X182802017Y-119928658D01*
X182320009Y-119781594D01*
X182310964Y-119778448D01*
X181841726Y-119594618D01*
X181832950Y-119590783D01*
X181379292Y-119371284D01*
X181370839Y-119366783D01*
X180935484Y-119112934D01*
X180927403Y-119107794D01*
X180512930Y-118821097D01*
X180505275Y-118815353D01*
X180489744Y-118802732D01*
X180114162Y-118497522D01*
X180106986Y-118491216D01*
X179741553Y-118144134D01*
X179734873Y-118137279D01*
X179730924Y-118132901D01*
X179397332Y-117763048D01*
X179391209Y-117755708D01*
X179083547Y-117356533D01*
X179078012Y-117348748D01*
X179061538Y-117323570D01*
X178802074Y-116927016D01*
X178797149Y-116918813D01*
X178554590Y-116477061D01*
X178550308Y-116468495D01*
X178458451Y-116265472D01*
X178342559Y-116009328D01*
X178338955Y-116000464D01*
X178325270Y-115962696D01*
X178167264Y-115526641D01*
X178164364Y-115517557D01*
X178029748Y-115031877D01*
X178027551Y-115022566D01*
X178026887Y-115019169D01*
X177930818Y-114527941D01*
X177929350Y-114518510D01*
X177871082Y-114017925D01*
X177870343Y-114008385D01*
X177870282Y-114006818D01*
X177850882Y-113504787D01*
X177850882Y-113495212D01*
X177853682Y-113422759D01*
X177870343Y-112991603D01*
X177871083Y-112982065D01*
X177873236Y-112963570D01*
X177929351Y-112481485D01*
X177930817Y-112472062D01*
X177964467Y-112299999D01*
X181394722Y-112299999D01*
X181394722Y-112300000D01*
X181413762Y-112456818D01*
X181469780Y-112604523D01*
X181469781Y-112604524D01*
X181559517Y-112734531D01*
X181607726Y-112777239D01*
X181644853Y-112836428D01*
X181649500Y-112870055D01*
X181649500Y-113329944D01*
X181629815Y-113396983D01*
X181607727Y-113422759D01*
X181559523Y-113465464D01*
X181559515Y-113465472D01*
X181469781Y-113595475D01*
X181469780Y-113595476D01*
X181413762Y-113743181D01*
X181394722Y-113899999D01*
X181394722Y-113900000D01*
X181413762Y-114056818D01*
X181452421Y-114158752D01*
X181469780Y-114204523D01*
X181559517Y-114334530D01*
X181677760Y-114439283D01*
X181817635Y-114512696D01*
X181821790Y-114513720D01*
X181825396Y-114514609D01*
X181885777Y-114549765D01*
X181917565Y-114611985D01*
X181910669Y-114681513D01*
X181867278Y-114736276D01*
X181853348Y-114744802D01*
X181727761Y-114810716D01*
X181727760Y-114810717D01*
X181611196Y-114913983D01*
X181609516Y-114915471D01*
X181519781Y-115045475D01*
X181519780Y-115045476D01*
X181463762Y-115193181D01*
X181444722Y-115349999D01*
X181444722Y-115350000D01*
X181463762Y-115506818D01*
X181519780Y-115654523D01*
X181609517Y-115784530D01*
X181727760Y-115889283D01*
X181727762Y-115889284D01*
X181867634Y-115962696D01*
X182021014Y-116000500D01*
X182021015Y-116000500D01*
X182178985Y-116000500D01*
X182332365Y-115962696D01*
X182472240Y-115889283D01*
X182590483Y-115784530D01*
X182590483Y-115784528D01*
X182593695Y-115781684D01*
X182656929Y-115751963D01*
X182675922Y-115750500D01*
X186324078Y-115750500D01*
X186391117Y-115770185D01*
X186406305Y-115781684D01*
X186409516Y-115784528D01*
X186409517Y-115784530D01*
X186527760Y-115889283D01*
X186527762Y-115889284D01*
X186667634Y-115962696D01*
X186821014Y-116000500D01*
X186821015Y-116000500D01*
X186978985Y-116000500D01*
X187132365Y-115962696D01*
X187272240Y-115889283D01*
X187390483Y-115784530D01*
X187480220Y-115654523D01*
X187536237Y-115506818D01*
X187555278Y-115350000D01*
X187546172Y-115275000D01*
X187536237Y-115193181D01*
X187507793Y-115118181D01*
X187480220Y-115045477D01*
X187390483Y-114915470D01*
X187272240Y-114810717D01*
X187272238Y-114810716D01*
X187272237Y-114810715D01*
X187132365Y-114737303D01*
X186978986Y-114699500D01*
X186978985Y-114699500D01*
X186821015Y-114699500D01*
X186821014Y-114699500D01*
X186667634Y-114737303D01*
X186527762Y-114810715D01*
X186527760Y-114810717D01*
X186411196Y-114913983D01*
X186406305Y-114918316D01*
X186343071Y-114948037D01*
X186324078Y-114949500D01*
X182675922Y-114949500D01*
X182608883Y-114929815D01*
X182593695Y-114918316D01*
X182590483Y-114915471D01*
X182590483Y-114915470D01*
X182472240Y-114810717D01*
X182472238Y-114810716D01*
X182472237Y-114810715D01*
X182332365Y-114737303D01*
X182332360Y-114737302D01*
X182324597Y-114735388D01*
X182264218Y-114700229D01*
X182232433Y-114638009D01*
X182239332Y-114568480D01*
X182282726Y-114513720D01*
X182296634Y-114505206D01*
X182422240Y-114439283D01*
X182540483Y-114334530D01*
X182630220Y-114204523D01*
X182686237Y-114056818D01*
X182705278Y-113900000D01*
X182704618Y-113894560D01*
X182686237Y-113743181D01*
X182658025Y-113668794D01*
X182630220Y-113595477D01*
X182540483Y-113465470D01*
X182540479Y-113465467D01*
X182540477Y-113465464D01*
X182492273Y-113422759D01*
X182455146Y-113363570D01*
X182450500Y-113329944D01*
X182450500Y-112870055D01*
X182470185Y-112803016D01*
X182492274Y-112777239D01*
X182540482Y-112734531D01*
X182540483Y-112734530D01*
X182630220Y-112604523D01*
X182686237Y-112456818D01*
X182705278Y-112300000D01*
X182704944Y-112297245D01*
X182686237Y-112143181D01*
X182649182Y-112045476D01*
X182630220Y-111995477D01*
X182540483Y-111865470D01*
X182422240Y-111760717D01*
X182422238Y-111760716D01*
X182422237Y-111760715D01*
X182282365Y-111687303D01*
X182128986Y-111649500D01*
X182128985Y-111649500D01*
X181971015Y-111649500D01*
X181971014Y-111649500D01*
X181817634Y-111687303D01*
X181677762Y-111760715D01*
X181559516Y-111865471D01*
X181469781Y-111995475D01*
X181469780Y-111995476D01*
X181413762Y-112143181D01*
X181394722Y-112299999D01*
X177964467Y-112299999D01*
X178027554Y-111977417D01*
X178029747Y-111968128D01*
X178164366Y-111482434D01*
X178167262Y-111473366D01*
X178320670Y-111049999D01*
X182644722Y-111049999D01*
X182644722Y-111050000D01*
X182663762Y-111206818D01*
X182686007Y-111265472D01*
X182719780Y-111354523D01*
X182809517Y-111484530D01*
X182927760Y-111589283D01*
X182927762Y-111589284D01*
X183067634Y-111662696D01*
X183221014Y-111700500D01*
X183221015Y-111700500D01*
X183378985Y-111700500D01*
X183532365Y-111662696D01*
X183672240Y-111589283D01*
X183790483Y-111484530D01*
X183790483Y-111484528D01*
X183793695Y-111481684D01*
X183856929Y-111451963D01*
X183875922Y-111450500D01*
X184496403Y-111450500D01*
X184550507Y-111450500D01*
X184557458Y-111450694D01*
X184798464Y-111464228D01*
X184812261Y-111465782D01*
X185046795Y-111505630D01*
X185060349Y-111508723D01*
X185276091Y-111570877D01*
X185288942Y-111574579D01*
X185302067Y-111579172D01*
X185521845Y-111670206D01*
X185534367Y-111676235D01*
X185657566Y-111744325D01*
X185742579Y-111791310D01*
X185754353Y-111798708D01*
X185801514Y-111832170D01*
X185948374Y-111936372D01*
X185959238Y-111945037D01*
X186133200Y-112100499D01*
X186139127Y-112105796D01*
X186144181Y-112110574D01*
X186346303Y-112312696D01*
X186511653Y-112478045D01*
X186545138Y-112539368D01*
X186547068Y-112580668D01*
X186544722Y-112599994D01*
X186544722Y-112600000D01*
X186563762Y-112756818D01*
X186605753Y-112867538D01*
X186619780Y-112904523D01*
X186709517Y-113034530D01*
X186827760Y-113139283D01*
X186827762Y-113139284D01*
X186967634Y-113212696D01*
X187121014Y-113250500D01*
X187121015Y-113250500D01*
X187278985Y-113250500D01*
X187432365Y-113212696D01*
X187572240Y-113139283D01*
X187690483Y-113034530D01*
X187780220Y-112904523D01*
X187836237Y-112756818D01*
X187855278Y-112600000D01*
X187848273Y-112542304D01*
X187836237Y-112443181D01*
X187786750Y-112312696D01*
X187780220Y-112295477D01*
X187690483Y-112165470D01*
X187572240Y-112060717D01*
X187572238Y-112060716D01*
X187572237Y-112060715D01*
X187432365Y-111987303D01*
X187278986Y-111949500D01*
X187278985Y-111949500D01*
X187167255Y-111949500D01*
X187100216Y-111929815D01*
X187079574Y-111913181D01*
X186915063Y-111748670D01*
X201500000Y-111748670D01*
X201515185Y-111864019D01*
X201515187Y-111864024D01*
X201574633Y-112007541D01*
X201574633Y-112007542D01*
X201669207Y-112130792D01*
X201792458Y-112225366D01*
X201935975Y-112284812D01*
X201935980Y-112284814D01*
X202051329Y-112300000D01*
X202200000Y-112300000D01*
X202200000Y-111300000D01*
X201500000Y-111300000D01*
X201500000Y-111748670D01*
X186915063Y-111748670D01*
X186747394Y-111581001D01*
X186747384Y-111580983D01*
X186708200Y-111541799D01*
X186708201Y-111541799D01*
X186602371Y-111435969D01*
X186571622Y-111410734D01*
X186370993Y-111246081D01*
X186122098Y-111079775D01*
X185858117Y-110938676D01*
X185858110Y-110938672D01*
X185808643Y-110918182D01*
X185581564Y-110824123D01*
X185462544Y-110788019D01*
X185295120Y-110737233D01*
X185295115Y-110737232D01*
X185295112Y-110737231D01*
X185295100Y-110737228D01*
X185001544Y-110678838D01*
X185001539Y-110678837D01*
X185001536Y-110678836D01*
X185001526Y-110678835D01*
X184790343Y-110658037D01*
X184703648Y-110649499D01*
X184703645Y-110649499D01*
X184553982Y-110649500D01*
X183875922Y-110649500D01*
X183808883Y-110629815D01*
X183793695Y-110618316D01*
X183790483Y-110615471D01*
X183790483Y-110615470D01*
X183672240Y-110510717D01*
X183672238Y-110510716D01*
X183672237Y-110510715D01*
X183532365Y-110437303D01*
X183378986Y-110399500D01*
X183378985Y-110399500D01*
X183221015Y-110399500D01*
X183221014Y-110399500D01*
X183067634Y-110437303D01*
X182927762Y-110510715D01*
X182809516Y-110615471D01*
X182719781Y-110745475D01*
X182719780Y-110745476D01*
X182663762Y-110893181D01*
X182644722Y-111049999D01*
X178320670Y-111049999D01*
X178338961Y-110999519D01*
X178342555Y-110990680D01*
X178550314Y-110531491D01*
X178554590Y-110522938D01*
X178648818Y-110351329D01*
X201500000Y-110351329D01*
X201500000Y-110800000D01*
X202200000Y-110800000D01*
X202200000Y-109800000D01*
X202700000Y-109800000D01*
X202700000Y-112300000D01*
X202848671Y-112300000D01*
X202964019Y-112284814D01*
X202964024Y-112284812D01*
X203107541Y-112225366D01*
X203107542Y-112225366D01*
X203230792Y-112130792D01*
X203325366Y-112007542D01*
X203329430Y-112000504D01*
X203332301Y-112002161D01*
X203366440Y-111959779D01*
X203432729Y-111937699D01*
X203500432Y-111954963D01*
X203548054Y-112006089D01*
X203558799Y-112037423D01*
X203579836Y-112143182D01*
X203609671Y-112293181D01*
X203610480Y-112297245D01*
X203707085Y-112615717D01*
X203710483Y-112626916D01*
X203825470Y-112904524D01*
X203842314Y-112945188D01*
X203872843Y-113002304D01*
X204004706Y-113249004D01*
X204004717Y-113249022D01*
X204196096Y-113535441D01*
X204196106Y-113535455D01*
X204390084Y-113771819D01*
X204414650Y-113801752D01*
X204490180Y-113877282D01*
X204490190Y-113877293D01*
X204494510Y-113881613D01*
X204494511Y-113881614D01*
X204519007Y-113906110D01*
X204519011Y-113906116D01*
X204533741Y-113920844D01*
X204536448Y-113923551D01*
X204536448Y-113923552D01*
X204547427Y-113934530D01*
X204547431Y-113934534D01*
X204915342Y-114302445D01*
X204921951Y-114309594D01*
X205044922Y-114453574D01*
X205056359Y-114469316D01*
X205152729Y-114626578D01*
X205161563Y-114643915D01*
X205228588Y-114805725D01*
X205236057Y-114875194D01*
X205204782Y-114937673D01*
X205170326Y-114963661D01*
X205157609Y-114970140D01*
X205157603Y-114970145D01*
X205070145Y-115057603D01*
X205070142Y-115057608D01*
X205013981Y-115167827D01*
X205013981Y-115167828D01*
X204999500Y-115259264D01*
X204999500Y-116640739D01*
X205013981Y-116732170D01*
X205013981Y-116732171D01*
X205013982Y-116732174D01*
X205013983Y-116732175D01*
X205059264Y-116821044D01*
X205070142Y-116842392D01*
X205070145Y-116842396D01*
X205157603Y-116929854D01*
X205157605Y-116929855D01*
X205157609Y-116929859D01*
X205231796Y-116967659D01*
X205282591Y-117015633D01*
X205299500Y-117078143D01*
X205299500Y-117323468D01*
X205299499Y-117323486D01*
X205299499Y-117384299D01*
X205298902Y-117396451D01*
X205288034Y-117506819D01*
X205283291Y-117530664D01*
X205274371Y-117560068D01*
X205236073Y-117618506D01*
X205172260Y-117646962D01*
X205103194Y-117636400D01*
X205080790Y-117622878D01*
X204991909Y-117555477D01*
X204972341Y-117540638D01*
X204831561Y-117485122D01*
X204785926Y-117479642D01*
X204743102Y-117474500D01*
X204156898Y-117474500D01*
X204117853Y-117479188D01*
X204068438Y-117485122D01*
X203927656Y-117540639D01*
X203807077Y-117632077D01*
X203710514Y-117759416D01*
X203708686Y-117758030D01*
X203667361Y-117798326D01*
X203598906Y-117812315D01*
X203533755Y-117787073D01*
X203492593Y-117730615D01*
X203491607Y-117727755D01*
X203484359Y-117705882D01*
X203484356Y-117705875D01*
X203392315Y-117556654D01*
X203268345Y-117432684D01*
X203119124Y-117340643D01*
X203119119Y-117340641D01*
X202952697Y-117285494D01*
X202952690Y-117285493D01*
X202849986Y-117275000D01*
X202800000Y-117275000D01*
X202800000Y-119724999D01*
X202849972Y-119724999D01*
X202849986Y-119724998D01*
X202952697Y-119714505D01*
X203119119Y-119659358D01*
X203119124Y-119659356D01*
X203268345Y-119567315D01*
X203392315Y-119443345D01*
X203484356Y-119294124D01*
X203484357Y-119294120D01*
X203491606Y-119272245D01*
X203531377Y-119214799D01*
X203595892Y-119187974D01*
X203664668Y-119200287D01*
X203709167Y-119241605D01*
X203710514Y-119240584D01*
X203807077Y-119367922D01*
X203927656Y-119459360D01*
X203927657Y-119459360D01*
X203927658Y-119459361D01*
X204068436Y-119514877D01*
X204156898Y-119525500D01*
X204156903Y-119525500D01*
X204743097Y-119525500D01*
X204743102Y-119525500D01*
X204831564Y-119514877D01*
X204972342Y-119459361D01*
X205092922Y-119367922D01*
X205184361Y-119247342D01*
X205239877Y-119106564D01*
X205250500Y-119018102D01*
X205250500Y-118935297D01*
X205270185Y-118868258D01*
X205318203Y-118824813D01*
X205422348Y-118771748D01*
X205579631Y-118657472D01*
X205596211Y-118640889D01*
X205596218Y-118640885D01*
X205707225Y-118529877D01*
X205707253Y-118529861D01*
X205743556Y-118493556D01*
X205743557Y-118493557D01*
X205815863Y-118421250D01*
X205819138Y-118416983D01*
X205849904Y-118376887D01*
X205940363Y-118258999D01*
X206042618Y-118081884D01*
X206120880Y-117892938D01*
X206173810Y-117695393D01*
X206200501Y-117492629D01*
X206200500Y-117390372D01*
X206200500Y-117369597D01*
X206200500Y-117078143D01*
X206220185Y-117011104D01*
X206268203Y-116967659D01*
X206342391Y-116929859D01*
X206429859Y-116842391D01*
X206486017Y-116732175D01*
X206486017Y-116732173D01*
X206486018Y-116732172D01*
X206486018Y-116732171D01*
X206498650Y-116652413D01*
X206500500Y-116640735D01*
X206500499Y-115259266D01*
X206500499Y-115259264D01*
X206500499Y-115259260D01*
X206486018Y-115167829D01*
X206486018Y-115167828D01*
X206486017Y-115167826D01*
X206486017Y-115167825D01*
X206429859Y-115057609D01*
X206429857Y-115057607D01*
X206429854Y-115057603D01*
X206342396Y-114970145D01*
X206342393Y-114970143D01*
X206342391Y-114970141D01*
X206232175Y-114913983D01*
X206232173Y-114913982D01*
X206231736Y-114913760D01*
X206180940Y-114865785D01*
X206167142Y-114830873D01*
X206117820Y-114614778D01*
X206076812Y-114497586D01*
X206036180Y-114381466D01*
X206036178Y-114381460D01*
X205928926Y-114158750D01*
X205797413Y-113949449D01*
X205643293Y-113756189D01*
X205555898Y-113668795D01*
X205555898Y-113668794D01*
X205555897Y-113668794D01*
X205188897Y-113301794D01*
X205176002Y-113288898D01*
X205171242Y-113283863D01*
X204983517Y-113073799D01*
X204974847Y-113062927D01*
X204928907Y-112998181D01*
X204862454Y-112904523D01*
X204813848Y-112836019D01*
X204806450Y-112824245D01*
X204753683Y-112728769D01*
X204671864Y-112580729D01*
X204665835Y-112568207D01*
X204559365Y-112311163D01*
X204554772Y-112298038D01*
X204554542Y-112297241D01*
X204477750Y-112030684D01*
X204474657Y-112017129D01*
X204428052Y-111742827D01*
X204426498Y-111729032D01*
X204410695Y-111447593D01*
X204410500Y-111440641D01*
X204410500Y-110359264D01*
X204999500Y-110359264D01*
X204999500Y-111740739D01*
X205013981Y-111832170D01*
X205013981Y-111832171D01*
X205013982Y-111832174D01*
X205013983Y-111832175D01*
X205069124Y-111940396D01*
X205070142Y-111942392D01*
X205070145Y-111942396D01*
X205157603Y-112029854D01*
X205157605Y-112029855D01*
X205157609Y-112029859D01*
X205267825Y-112086017D01*
X205267826Y-112086017D01*
X205267828Y-112086018D01*
X205302947Y-112091579D01*
X205359265Y-112100500D01*
X206140734Y-112100499D01*
X206140739Y-112100499D01*
X206140739Y-112100498D01*
X206186454Y-112093258D01*
X206232170Y-112086018D01*
X206232171Y-112086018D01*
X206232172Y-112086017D01*
X206232175Y-112086017D01*
X206342391Y-112029859D01*
X206429859Y-111942391D01*
X206486017Y-111832175D01*
X206486017Y-111832173D01*
X206486018Y-111832172D01*
X206486018Y-111832171D01*
X206491956Y-111794679D01*
X206500500Y-111740735D01*
X206500499Y-110359266D01*
X206500499Y-110359264D01*
X206500499Y-110359260D01*
X206486018Y-110267829D01*
X206486018Y-110267828D01*
X206486017Y-110267826D01*
X206486017Y-110267825D01*
X206429859Y-110157609D01*
X206429857Y-110157607D01*
X206429854Y-110157603D01*
X206342396Y-110070145D01*
X206342393Y-110070143D01*
X206342391Y-110070141D01*
X206232175Y-110013983D01*
X206232173Y-110013982D01*
X206223480Y-110009553D01*
X206224595Y-110007363D01*
X206178506Y-109975847D01*
X206151308Y-109911488D01*
X206150500Y-109897354D01*
X206150500Y-109620055D01*
X206170185Y-109553016D01*
X206192274Y-109527239D01*
X206240482Y-109484531D01*
X206245893Y-109476692D01*
X206330220Y-109354523D01*
X206386237Y-109206818D01*
X206405278Y-109050000D01*
X206399304Y-109000795D01*
X206386237Y-108893181D01*
X206361590Y-108828193D01*
X206330220Y-108745477D01*
X206240483Y-108615470D01*
X206122240Y-108510717D01*
X206122238Y-108510716D01*
X206122237Y-108510715D01*
X205982365Y-108437303D01*
X205828986Y-108399500D01*
X205828985Y-108399500D01*
X205671015Y-108399500D01*
X205671014Y-108399500D01*
X205517634Y-108437303D01*
X205377762Y-108510715D01*
X205259516Y-108615471D01*
X205169781Y-108745475D01*
X205169780Y-108745476D01*
X205113762Y-108893181D01*
X205094722Y-109049999D01*
X205094722Y-109050000D01*
X205113762Y-109206818D01*
X205169780Y-109354523D01*
X205169781Y-109354524D01*
X205259517Y-109484531D01*
X205307726Y-109527239D01*
X205344853Y-109586428D01*
X205349500Y-109620055D01*
X205349500Y-109897353D01*
X205329815Y-109964392D01*
X205277011Y-110010147D01*
X205269980Y-110012885D01*
X205267825Y-110013982D01*
X205267825Y-110013983D01*
X205157609Y-110070141D01*
X205157608Y-110070142D01*
X205157603Y-110070145D01*
X205070145Y-110157603D01*
X205070143Y-110157607D01*
X205070141Y-110157609D01*
X205056185Y-110184999D01*
X205013981Y-110267827D01*
X205013981Y-110267828D01*
X204999500Y-110359264D01*
X204410500Y-110359264D01*
X204410500Y-104875759D01*
X204430185Y-104808720D01*
X204445846Y-104790444D01*
X204445509Y-104790145D01*
X204450481Y-104784532D01*
X204450481Y-104784531D01*
X204450483Y-104784530D01*
X204540220Y-104654523D01*
X204596237Y-104506818D01*
X204606779Y-104419999D01*
X207094722Y-104419999D01*
X207094722Y-104420000D01*
X207113762Y-104576818D01*
X207169780Y-104724523D01*
X207169781Y-104724524D01*
X207259517Y-104854531D01*
X207307726Y-104897239D01*
X207344853Y-104956428D01*
X207349500Y-104990055D01*
X207349500Y-120974240D01*
X207329815Y-121041279D01*
X207314153Y-121059556D01*
X207314491Y-121059856D01*
X207309515Y-121065472D01*
X207219781Y-121195475D01*
X207219780Y-121195476D01*
X207163762Y-121343181D01*
X207144722Y-121499999D01*
X207144722Y-121500000D01*
X207163762Y-121656818D01*
X207193234Y-121734528D01*
X207219780Y-121804523D01*
X207309517Y-121934530D01*
X207427760Y-122039283D01*
X207427762Y-122039284D01*
X207567634Y-122112696D01*
X207721014Y-122150500D01*
X207721015Y-122150500D01*
X207878985Y-122150500D01*
X208032365Y-122112696D01*
X208039215Y-122109101D01*
X208172240Y-122039283D01*
X208290483Y-121934530D01*
X208380220Y-121804523D01*
X208436237Y-121656818D01*
X208455278Y-121500000D01*
X208436237Y-121343182D01*
X208380220Y-121195477D01*
X208290483Y-121065470D01*
X208192272Y-120978463D01*
X208155147Y-120919276D01*
X208150500Y-120885649D01*
X208150500Y-119799999D01*
X213094722Y-119799999D01*
X213094722Y-119800000D01*
X213113762Y-119956818D01*
X213165586Y-120093465D01*
X213169780Y-120104523D01*
X213259517Y-120234530D01*
X213377760Y-120339283D01*
X213377762Y-120339284D01*
X213517634Y-120412696D01*
X213671014Y-120450500D01*
X213671015Y-120450500D01*
X213828985Y-120450500D01*
X213982365Y-120412696D01*
X214024815Y-120390416D01*
X214122240Y-120339283D01*
X214240483Y-120234530D01*
X214330220Y-120104523D01*
X214386237Y-119956818D01*
X214405278Y-119800000D01*
X214386237Y-119643182D01*
X214330220Y-119495477D01*
X214240483Y-119365470D01*
X214240480Y-119365467D01*
X214240478Y-119365465D01*
X214192273Y-119322759D01*
X214155146Y-119263570D01*
X214150500Y-119229944D01*
X214150500Y-118429169D01*
X214170185Y-118362130D01*
X214222989Y-118316375D01*
X214292147Y-118306431D01*
X214355703Y-118335456D01*
X214356631Y-118336269D01*
X214413986Y-118387080D01*
X214427762Y-118399285D01*
X214567634Y-118472696D01*
X214721014Y-118510500D01*
X214721015Y-118510500D01*
X214878985Y-118510500D01*
X215032365Y-118472696D01*
X215089404Y-118442759D01*
X215172240Y-118399283D01*
X215290483Y-118294530D01*
X215380220Y-118164523D01*
X215436237Y-118016818D01*
X215455278Y-117860000D01*
X215447790Y-117798326D01*
X215436237Y-117703181D01*
X215409270Y-117632077D01*
X215380220Y-117555477D01*
X215290483Y-117425470D01*
X215290480Y-117425467D01*
X215290478Y-117425465D01*
X215242273Y-117382759D01*
X215205146Y-117323570D01*
X215200500Y-117289944D01*
X215200500Y-117269169D01*
X215220185Y-117202130D01*
X215272989Y-117156375D01*
X215342147Y-117146431D01*
X215405703Y-117175456D01*
X215406631Y-117176269D01*
X215463986Y-117227080D01*
X215477762Y-117239285D01*
X215617634Y-117312696D01*
X215771014Y-117350500D01*
X215771015Y-117350500D01*
X215928985Y-117350500D01*
X216082365Y-117312696D01*
X216121422Y-117292197D01*
X216222240Y-117239283D01*
X216340483Y-117134530D01*
X216430220Y-117004523D01*
X216486237Y-116856818D01*
X216505278Y-116700000D01*
X216498083Y-116640739D01*
X216486237Y-116543181D01*
X216457912Y-116468495D01*
X216430220Y-116395477D01*
X216340483Y-116265470D01*
X216340480Y-116265467D01*
X216340478Y-116265465D01*
X216292273Y-116222759D01*
X216255146Y-116163570D01*
X216250500Y-116129944D01*
X216250500Y-111370055D01*
X216270185Y-111303016D01*
X216292274Y-111277239D01*
X216340482Y-111234531D01*
X216359611Y-111206818D01*
X216430220Y-111104523D01*
X216486237Y-110956818D01*
X216505278Y-110800000D01*
X216490567Y-110678838D01*
X216486237Y-110643181D01*
X216443878Y-110531491D01*
X216430220Y-110495477D01*
X216340483Y-110365470D01*
X216222240Y-110260717D01*
X216222238Y-110260716D01*
X216222237Y-110260715D01*
X216082365Y-110187303D01*
X215928986Y-110149500D01*
X215928985Y-110149500D01*
X215771015Y-110149500D01*
X215771014Y-110149500D01*
X215617634Y-110187303D01*
X215477762Y-110260715D01*
X215359516Y-110365471D01*
X215269781Y-110495475D01*
X215269780Y-110495476D01*
X215213762Y-110643181D01*
X215194722Y-110799999D01*
X215194722Y-110800000D01*
X215213762Y-110956818D01*
X215269780Y-111104523D01*
X215269781Y-111104524D01*
X215359517Y-111234531D01*
X215407726Y-111277239D01*
X215444853Y-111336428D01*
X215449500Y-111370055D01*
X215449500Y-113880830D01*
X215429815Y-113947869D01*
X215377011Y-113993624D01*
X215307853Y-114003568D01*
X215244297Y-113974543D01*
X215243274Y-113973646D01*
X215172240Y-113910717D01*
X215172238Y-113910715D01*
X215032365Y-113837303D01*
X214878986Y-113799500D01*
X214878985Y-113799500D01*
X214721015Y-113799500D01*
X214721014Y-113799500D01*
X214567634Y-113837303D01*
X214427761Y-113910715D01*
X214427759Y-113910717D01*
X214356726Y-113973646D01*
X214293493Y-114003367D01*
X214224230Y-113994183D01*
X214170927Y-113949010D01*
X214150507Y-113882191D01*
X214150500Y-113880830D01*
X214150500Y-109729334D01*
X214151773Y-109724999D01*
X224044722Y-109724999D01*
X224044722Y-109725000D01*
X224063762Y-109881818D01*
X224111376Y-110007363D01*
X224119780Y-110029523D01*
X224209517Y-110159530D01*
X224327760Y-110264283D01*
X224327762Y-110264284D01*
X224467634Y-110337696D01*
X224621014Y-110375500D01*
X224621015Y-110375500D01*
X224778985Y-110375500D01*
X224932365Y-110337696D01*
X225072240Y-110264283D01*
X225190483Y-110159530D01*
X225280220Y-110029523D01*
X225336237Y-109881818D01*
X225355278Y-109725000D01*
X225342536Y-109620055D01*
X225336237Y-109568181D01*
X225307877Y-109493403D01*
X225280220Y-109420477D01*
X225190483Y-109290470D01*
X225190480Y-109290467D01*
X225190478Y-109290465D01*
X225142273Y-109247759D01*
X225105146Y-109188570D01*
X225100500Y-109154944D01*
X225100500Y-108140016D01*
X225120185Y-108072977D01*
X225166876Y-108030219D01*
X225197232Y-108014287D01*
X225197230Y-108014287D01*
X225197240Y-108014283D01*
X225315483Y-107909530D01*
X225405220Y-107779523D01*
X225461237Y-107631818D01*
X225480278Y-107475000D01*
X225479728Y-107470466D01*
X225461237Y-107318181D01*
X225424588Y-107221547D01*
X225405220Y-107170477D01*
X225315483Y-107040470D01*
X225197240Y-106935717D01*
X225197238Y-106935716D01*
X225197237Y-106935715D01*
X225057365Y-106862303D01*
X224903986Y-106824500D01*
X224903985Y-106824500D01*
X224746015Y-106824500D01*
X224746014Y-106824500D01*
X224592634Y-106862303D01*
X224452762Y-106935715D01*
X224334516Y-107040471D01*
X224244781Y-107170475D01*
X224244780Y-107170476D01*
X224188762Y-107318181D01*
X224169722Y-107474999D01*
X224169722Y-107475000D01*
X224188762Y-107631818D01*
X224237295Y-107759787D01*
X224244780Y-107779523D01*
X224277550Y-107826999D01*
X224299433Y-107893352D01*
X224299500Y-107897438D01*
X224299500Y-109154944D01*
X224279815Y-109221983D01*
X224257727Y-109247759D01*
X224209521Y-109290465D01*
X224209515Y-109290472D01*
X224119781Y-109420475D01*
X224119780Y-109420476D01*
X224063762Y-109568181D01*
X224044722Y-109724999D01*
X214151773Y-109724999D01*
X214170185Y-109662295D01*
X214222989Y-109616540D01*
X214230529Y-109613392D01*
X214232355Y-109612698D01*
X214232365Y-109612696D01*
X214372240Y-109539283D01*
X214490483Y-109434530D01*
X214580220Y-109304523D01*
X214636237Y-109156818D01*
X214655278Y-109000000D01*
X214652263Y-108975164D01*
X214636237Y-108843181D01*
X214606905Y-108765840D01*
X214580220Y-108695477D01*
X214490483Y-108565470D01*
X214372240Y-108460717D01*
X214372238Y-108460716D01*
X214372237Y-108460715D01*
X214232365Y-108387303D01*
X214078986Y-108349500D01*
X214078985Y-108349500D01*
X213921015Y-108349500D01*
X213921014Y-108349500D01*
X213767634Y-108387303D01*
X213627762Y-108460715D01*
X213509516Y-108565471D01*
X213419781Y-108695475D01*
X213419780Y-108695476D01*
X213363762Y-108843181D01*
X213344722Y-108999999D01*
X213344722Y-109000000D01*
X213363763Y-109156819D01*
X213363763Y-109156820D01*
X213365159Y-109160501D01*
X213365380Y-109163383D01*
X213365558Y-109164102D01*
X213365438Y-109164131D01*
X213370370Y-109228189D01*
X213370641Y-109228232D01*
X213370461Y-109229365D01*
X213370523Y-109230165D01*
X213369891Y-109232964D01*
X213349502Y-109361646D01*
X213349502Y-109367912D01*
X213349500Y-109367960D01*
X213349500Y-109374049D01*
X213349500Y-109419992D01*
X213349500Y-109426753D01*
X213349498Y-109476692D01*
X213349497Y-109493362D01*
X213349500Y-109493403D01*
X213349500Y-119229944D01*
X213329815Y-119296983D01*
X213307727Y-119322759D01*
X213259521Y-119365465D01*
X213259515Y-119365472D01*
X213169781Y-119495475D01*
X213169780Y-119495476D01*
X213113762Y-119643181D01*
X213094722Y-119799999D01*
X208150500Y-119799999D01*
X208150500Y-113499999D01*
X208844722Y-113499999D01*
X208844722Y-113500000D01*
X208863762Y-113656818D01*
X208907377Y-113771819D01*
X208919780Y-113804523D01*
X209009517Y-113934530D01*
X209127760Y-114039283D01*
X209127762Y-114039284D01*
X209267634Y-114112696D01*
X209421014Y-114150500D01*
X209421015Y-114150500D01*
X209578985Y-114150500D01*
X209732365Y-114112696D01*
X209777740Y-114088881D01*
X209872240Y-114039283D01*
X209990483Y-113934530D01*
X210080220Y-113804523D01*
X210136237Y-113656818D01*
X210155278Y-113500000D01*
X210150808Y-113463181D01*
X210136237Y-113343181D01*
X210112254Y-113279944D01*
X210080220Y-113195477D01*
X209990483Y-113065470D01*
X209990480Y-113065467D01*
X209990478Y-113065465D01*
X209942273Y-113022759D01*
X209905146Y-112963570D01*
X209900500Y-112929944D01*
X209900500Y-101487405D01*
X209900501Y-101487402D01*
X209900500Y-101434689D01*
X209900882Y-101424963D01*
X209904813Y-101375001D01*
X209912036Y-101283209D01*
X209915079Y-101263999D01*
X209916043Y-101259985D01*
X209947129Y-101130494D01*
X209953139Y-101111997D01*
X209967283Y-101077851D01*
X209985857Y-101033008D01*
X210005681Y-100985147D01*
X210014509Y-100967818D01*
X210086253Y-100850741D01*
X210097678Y-100835016D01*
X210186796Y-100730670D01*
X210200553Y-100716914D01*
X210215088Y-100704500D01*
X210305021Y-100627689D01*
X210320748Y-100616263D01*
X210437824Y-100544519D01*
X210455153Y-100535691D01*
X210518577Y-100509420D01*
X210582003Y-100483149D01*
X210600494Y-100477140D01*
X210734008Y-100445088D01*
X210753212Y-100442047D01*
X210895118Y-100430881D01*
X210904839Y-100430500D01*
X210957402Y-100430501D01*
X210957405Y-100430500D01*
X212384078Y-100430500D01*
X212451117Y-100450185D01*
X212466305Y-100461684D01*
X212469516Y-100464528D01*
X212469517Y-100464530D01*
X212587760Y-100569283D01*
X212587762Y-100569284D01*
X212727634Y-100642696D01*
X212881014Y-100680500D01*
X212881015Y-100680500D01*
X213038985Y-100680500D01*
X213192365Y-100642696D01*
X213213030Y-100631850D01*
X213332240Y-100569283D01*
X213450483Y-100464530D01*
X213540220Y-100334523D01*
X213596237Y-100186818D01*
X213615278Y-100030000D01*
X213610347Y-99989385D01*
X213596237Y-99873181D01*
X213563589Y-99787097D01*
X213540220Y-99725477D01*
X213450483Y-99595470D01*
X213332240Y-99490717D01*
X213332238Y-99490716D01*
X213332237Y-99490715D01*
X213192365Y-99417303D01*
X213038986Y-99379500D01*
X213038985Y-99379500D01*
X212881015Y-99379500D01*
X212881014Y-99379500D01*
X212727634Y-99417303D01*
X212587762Y-99490715D01*
X212466305Y-99598316D01*
X212403071Y-99628037D01*
X212384078Y-99629500D01*
X210839234Y-99629500D01*
X210839063Y-99629510D01*
X210781834Y-99629510D01*
X210547857Y-99660308D01*
X210547854Y-99660309D01*
X210319899Y-99721386D01*
X210101859Y-99811699D01*
X210101855Y-99811701D01*
X209897473Y-99929698D01*
X209710248Y-100073361D01*
X209710241Y-100073367D01*
X209667523Y-100116083D01*
X209667521Y-100116087D01*
X209663131Y-100120477D01*
X209663097Y-100120495D01*
X209543354Y-100240237D01*
X209399688Y-100427466D01*
X209281690Y-100631850D01*
X209281684Y-100631861D01*
X209191376Y-100849889D01*
X209191375Y-100849893D01*
X209130298Y-101077846D01*
X209123367Y-101130504D01*
X209099498Y-101311834D01*
X209099498Y-101311838D01*
X209099498Y-101311839D01*
X209099500Y-101402212D01*
X209099500Y-112929944D01*
X209079815Y-112996983D01*
X209057727Y-113022759D01*
X209009521Y-113065465D01*
X209009515Y-113065472D01*
X208919781Y-113195475D01*
X208919780Y-113195476D01*
X208863762Y-113343181D01*
X208844722Y-113499999D01*
X208150500Y-113499999D01*
X208150500Y-104990055D01*
X208170185Y-104923016D01*
X208192274Y-104897239D01*
X208240482Y-104854531D01*
X208249049Y-104842120D01*
X208330220Y-104724523D01*
X208386237Y-104576818D01*
X208405278Y-104420000D01*
X208396779Y-104349999D01*
X208386237Y-104263181D01*
X208364992Y-104207164D01*
X208330220Y-104115477D01*
X208240483Y-103985470D01*
X208122240Y-103880717D01*
X208122238Y-103880716D01*
X208122237Y-103880715D01*
X207982365Y-103807303D01*
X207828986Y-103769500D01*
X207828985Y-103769500D01*
X207671015Y-103769500D01*
X207671014Y-103769500D01*
X207517634Y-103807303D01*
X207377762Y-103880715D01*
X207338530Y-103915471D01*
X207272713Y-103973780D01*
X207259516Y-103985471D01*
X207169781Y-104115475D01*
X207169780Y-104115476D01*
X207113762Y-104263181D01*
X207094722Y-104419999D01*
X204606779Y-104419999D01*
X204615278Y-104350000D01*
X204612599Y-104327932D01*
X204596237Y-104193181D01*
X204561087Y-104100500D01*
X204540220Y-104045477D01*
X204450483Y-103915470D01*
X204332240Y-103810717D01*
X204332238Y-103810716D01*
X204332237Y-103810715D01*
X204192365Y-103737303D01*
X204038986Y-103699500D01*
X204038985Y-103699500D01*
X203881015Y-103699500D01*
X203881014Y-103699500D01*
X203727634Y-103737303D01*
X203587762Y-103810715D01*
X203469516Y-103915471D01*
X203379781Y-104045475D01*
X203379780Y-104045476D01*
X203323762Y-104193181D01*
X203304722Y-104349999D01*
X203304722Y-104350000D01*
X203323762Y-104506818D01*
X203379780Y-104654523D01*
X203379781Y-104654524D01*
X203469518Y-104784532D01*
X203474491Y-104790145D01*
X203473044Y-104791426D01*
X203504850Y-104842120D01*
X203509500Y-104875759D01*
X203509500Y-109967132D01*
X203489815Y-110034171D01*
X203437011Y-110079926D01*
X203367853Y-110089870D01*
X203304297Y-110060845D01*
X203287125Y-110042619D01*
X203230794Y-109969209D01*
X203107541Y-109874633D01*
X202964024Y-109815187D01*
X202964019Y-109815185D01*
X202848671Y-109800000D01*
X202700000Y-109800000D01*
X202200000Y-109800000D01*
X202051329Y-109800000D01*
X201935980Y-109815185D01*
X201935975Y-109815187D01*
X201792458Y-109874633D01*
X201792457Y-109874633D01*
X201669207Y-109969207D01*
X201574633Y-110092457D01*
X201574633Y-110092458D01*
X201515187Y-110235975D01*
X201515185Y-110235980D01*
X201500000Y-110351329D01*
X178648818Y-110351329D01*
X178797153Y-110081178D01*
X178802067Y-110072994D01*
X179078026Y-109651231D01*
X179083538Y-109643478D01*
X179391219Y-109244278D01*
X179397321Y-109236963D01*
X179734889Y-108862703D01*
X179741540Y-108855877D01*
X180107000Y-108508770D01*
X180114147Y-108502489D01*
X180505296Y-108184629D01*
X180512913Y-108178914D01*
X180927421Y-107892193D01*
X180935464Y-107887077D01*
X181370853Y-107633208D01*
X181379278Y-107628722D01*
X181832967Y-107409208D01*
X181841708Y-107405388D01*
X182310974Y-107221547D01*
X182319997Y-107218408D01*
X182802030Y-107071337D01*
X182811278Y-107068902D01*
X183303242Y-106959467D01*
X183312641Y-106957754D01*
X183811589Y-106886612D01*
X183821064Y-106885632D01*
X184324023Y-106853208D01*
X184333563Y-106852962D01*
X184837513Y-106859451D01*
X184847063Y-106859943D01*
X185348997Y-106905304D01*
X185358485Y-106906533D01*
X185855409Y-106990494D01*
X185864770Y-106992450D01*
X186353758Y-107114517D01*
X186362919Y-107117184D01*
X186841015Y-107276620D01*
X186849962Y-107279993D01*
X187314323Y-107475850D01*
X187322984Y-107479904D01*
X187770850Y-107711016D01*
X187779185Y-107715733D01*
X188207871Y-107980716D01*
X188215779Y-107986036D01*
X188622764Y-108283332D01*
X188630245Y-108289254D01*
X189013525Y-108617460D01*
X189019672Y-108623095D01*
X189199999Y-108800001D01*
X189270462Y-108867094D01*
X189270464Y-108867095D01*
X189270466Y-108867097D01*
X189270467Y-108867098D01*
X189432200Y-108975164D01*
X189432203Y-108975165D01*
X189432211Y-108975171D01*
X189611937Y-109049615D01*
X189658657Y-109058908D01*
X189802729Y-109087567D01*
X189997266Y-109087567D01*
X189997268Y-109087567D01*
X190093315Y-109068461D01*
X190188061Y-109049615D01*
X190367787Y-108975171D01*
X190529536Y-108867094D01*
X190667092Y-108729538D01*
X190753647Y-108599999D01*
X191794722Y-108599999D01*
X191794722Y-108600000D01*
X191813762Y-108756818D01*
X191865479Y-108893182D01*
X191869780Y-108904523D01*
X191959517Y-109034530D01*
X192077760Y-109139283D01*
X192077762Y-109139284D01*
X192217634Y-109212696D01*
X192371014Y-109250500D01*
X192371015Y-109250500D01*
X192528985Y-109250500D01*
X192682365Y-109212696D01*
X192705267Y-109200676D01*
X192822240Y-109139283D01*
X192940483Y-109034530D01*
X193030220Y-108904523D01*
X193086237Y-108756818D01*
X193105278Y-108600000D01*
X193101302Y-108567250D01*
X193086237Y-108443181D01*
X193048312Y-108343182D01*
X193030220Y-108295477D01*
X192940483Y-108165470D01*
X192940480Y-108165467D01*
X192940478Y-108165465D01*
X192892273Y-108122759D01*
X192855146Y-108063570D01*
X192850500Y-108029944D01*
X192850500Y-103434158D01*
X192850535Y-103433660D01*
X192850530Y-103425046D01*
X192850531Y-103425044D01*
X192850527Y-103418858D01*
X192850533Y-103418837D01*
X192850500Y-103348765D01*
X192850500Y-103314951D01*
X192850499Y-103314947D01*
X192844578Y-103292849D01*
X192842744Y-103284992D01*
X192833433Y-103238277D01*
X192833431Y-103238273D01*
X192831664Y-103232451D01*
X192832980Y-103232051D01*
X192825500Y-103194456D01*
X192825500Y-102151324D01*
X192826560Y-102135148D01*
X192826800Y-102133324D01*
X192855062Y-102069425D01*
X192913383Y-102030950D01*
X192949740Y-102025500D01*
X192953985Y-102025500D01*
X193107365Y-101987696D01*
X193166197Y-101956818D01*
X193247240Y-101914283D01*
X193365483Y-101809530D01*
X193455220Y-101679523D01*
X193511237Y-101531818D01*
X193530278Y-101375000D01*
X193519442Y-101285752D01*
X193511237Y-101218181D01*
X193477985Y-101130504D01*
X193455220Y-101070477D01*
X193365483Y-100940470D01*
X193247240Y-100835717D01*
X193247238Y-100835716D01*
X193247237Y-100835715D01*
X193107365Y-100762303D01*
X192953986Y-100724500D01*
X192953985Y-100724500D01*
X192796015Y-100724500D01*
X192796014Y-100724500D01*
X192642634Y-100762303D01*
X192502762Y-100835715D01*
X192384516Y-100940471D01*
X192294781Y-101070475D01*
X192294780Y-101070476D01*
X192238762Y-101218181D01*
X192219722Y-101374999D01*
X192219722Y-101375001D01*
X192226305Y-101429224D01*
X192214844Y-101498148D01*
X192203531Y-101517049D01*
X192193639Y-101530664D01*
X192110125Y-101694570D01*
X192053277Y-101869529D01*
X192053277Y-101869530D01*
X192024500Y-102051220D01*
X192024500Y-103240912D01*
X192024467Y-103241374D01*
X192024474Y-103256140D01*
X192024467Y-103256163D01*
X192024500Y-103327157D01*
X192024500Y-103360050D01*
X192030421Y-103382151D01*
X192032251Y-103389996D01*
X192041563Y-103436713D01*
X192043332Y-103442534D01*
X192042012Y-103442934D01*
X192049500Y-103480539D01*
X192049500Y-108029944D01*
X192029815Y-108096983D01*
X192007727Y-108122759D01*
X191959521Y-108165465D01*
X191959515Y-108165472D01*
X191869781Y-108295475D01*
X191869780Y-108295476D01*
X191813762Y-108443181D01*
X191794722Y-108599999D01*
X190753647Y-108599999D01*
X190775169Y-108567789D01*
X190849613Y-108388063D01*
X190887565Y-108197268D01*
X190887565Y-108002734D01*
X190887565Y-108002731D01*
X190849614Y-107811945D01*
X190849613Y-107811939D01*
X190792143Y-107673192D01*
X190775172Y-107632220D01*
X190775171Y-107632219D01*
X190775169Y-107632213D01*
X190772832Y-107628715D01*
X190667096Y-107470469D01*
X190667095Y-107470468D01*
X190667093Y-107470466D01*
X190667092Y-107470464D01*
X190599999Y-107400001D01*
X190389899Y-107193458D01*
X190389880Y-107193441D01*
X190389871Y-107193432D01*
X189945802Y-106806225D01*
X189945800Y-106806223D01*
X189945795Y-106806219D01*
X189476300Y-106450189D01*
X189295057Y-106331312D01*
X188983610Y-106127033D01*
X188469999Y-105838244D01*
X188469996Y-105838242D01*
X187937900Y-105585188D01*
X187937890Y-105585184D01*
X187389749Y-105369026D01*
X186828135Y-105190777D01*
X186828116Y-105190772D01*
X186828111Y-105190771D01*
X186255687Y-105051275D01*
X186255674Y-105051272D01*
X185675021Y-104951157D01*
X185675013Y-104951156D01*
X185675012Y-104951156D01*
X185088879Y-104890899D01*
X185088885Y-104890899D01*
X184500000Y-104870783D01*
X183911118Y-104890899D01*
X183324978Y-104951157D01*
X182744325Y-105051272D01*
X182744312Y-105051275D01*
X182171888Y-105190771D01*
X182171872Y-105190775D01*
X182171865Y-105190777D01*
X181610251Y-105369026D01*
X181291327Y-105494793D01*
X181062099Y-105585188D01*
X180530003Y-105838242D01*
X180530000Y-105838244D01*
X180016389Y-106127033D01*
X179523698Y-106450190D01*
X179054207Y-106806217D01*
X179054197Y-106806225D01*
X178610119Y-107193441D01*
X178610093Y-107193465D01*
X178193465Y-107610093D01*
X178193441Y-107610119D01*
X177806225Y-108054197D01*
X177806217Y-108054207D01*
X177450190Y-108523698D01*
X177127033Y-109016389D01*
X176838244Y-109530000D01*
X176838242Y-109530003D01*
X176585188Y-110062099D01*
X176546767Y-110159528D01*
X176369026Y-110610251D01*
X176212150Y-111104524D01*
X176190778Y-111171862D01*
X176190771Y-111171888D01*
X176051275Y-111744312D01*
X176051272Y-111744325D01*
X175951157Y-112324978D01*
X175890899Y-112911118D01*
X175870783Y-113500000D01*
X172154788Y-113500000D01*
X172233888Y-113335752D01*
X172249494Y-113303348D01*
X172324514Y-113088963D01*
X172366615Y-112904524D01*
X172375058Y-112867538D01*
X172375058Y-112867536D01*
X172375060Y-112867528D01*
X172400496Y-112641825D01*
X172400497Y-112590976D01*
X172400500Y-112590954D01*
X172400500Y-112504500D01*
X172400501Y-112470677D01*
X172400500Y-112470673D01*
X172400500Y-105693176D01*
X172400618Y-105687767D01*
X172405097Y-105585188D01*
X172414272Y-105375070D01*
X172415212Y-105364336D01*
X172455715Y-105056690D01*
X172457587Y-105046071D01*
X172524753Y-104743117D01*
X172527544Y-104732702D01*
X172620854Y-104436761D01*
X172624543Y-104426626D01*
X172743287Y-104139954D01*
X172747857Y-104130157D01*
X172755499Y-104115477D01*
X172891125Y-103854943D01*
X172896520Y-103845597D01*
X173063247Y-103583888D01*
X173069437Y-103575048D01*
X173258331Y-103328877D01*
X173265270Y-103320608D01*
X173476861Y-103089697D01*
X173480624Y-103085767D01*
X173481244Y-103085148D01*
X175004274Y-101562118D01*
X175004274Y-101562117D01*
X175010364Y-101556028D01*
X175010389Y-101555998D01*
X175083635Y-101482754D01*
X175292939Y-101227717D01*
X175476238Y-100953393D01*
X175631765Y-100662423D01*
X175758023Y-100357610D01*
X175805834Y-100199999D01*
X202144722Y-100199999D01*
X202144722Y-100200000D01*
X202163762Y-100356818D01*
X202219780Y-100504523D01*
X202219781Y-100504524D01*
X202309517Y-100634531D01*
X202357726Y-100677239D01*
X202394853Y-100736428D01*
X202399500Y-100770055D01*
X202399500Y-101229944D01*
X202379815Y-101296983D01*
X202357727Y-101322759D01*
X202309521Y-101365465D01*
X202309515Y-101365472D01*
X202219781Y-101495475D01*
X202219780Y-101495476D01*
X202163762Y-101643181D01*
X202144722Y-101799999D01*
X202144722Y-101800000D01*
X202163762Y-101956818D01*
X202199565Y-102051220D01*
X202219780Y-102104523D01*
X202309517Y-102234530D01*
X202427760Y-102339283D01*
X202427762Y-102339284D01*
X202567634Y-102412696D01*
X202721014Y-102450500D01*
X202721015Y-102450500D01*
X202878985Y-102450500D01*
X203032365Y-102412696D01*
X203172240Y-102339283D01*
X203290483Y-102234530D01*
X203380220Y-102104523D01*
X203436237Y-101956818D01*
X203455278Y-101800000D01*
X203436237Y-101643182D01*
X203380220Y-101495477D01*
X203290483Y-101365470D01*
X203290480Y-101365467D01*
X203290478Y-101365465D01*
X203242273Y-101322759D01*
X203205146Y-101263570D01*
X203200500Y-101229944D01*
X203200500Y-100770055D01*
X203220185Y-100703016D01*
X203242274Y-100677239D01*
X203290482Y-100634531D01*
X203292333Y-100631850D01*
X203380220Y-100504523D01*
X203436237Y-100356818D01*
X203455278Y-100200000D01*
X203453678Y-100186818D01*
X203436237Y-100043181D01*
X203393198Y-99929698D01*
X203380220Y-99895477D01*
X203290483Y-99765470D01*
X203172240Y-99660717D01*
X203172238Y-99660716D01*
X203172237Y-99660715D01*
X203032365Y-99587303D01*
X202878986Y-99549500D01*
X202878985Y-99549500D01*
X202721015Y-99549500D01*
X202721014Y-99549500D01*
X202567634Y-99587303D01*
X202427762Y-99660715D01*
X202309516Y-99765471D01*
X202219781Y-99895475D01*
X202219780Y-99895476D01*
X202163762Y-100043181D01*
X202144722Y-100199999D01*
X175805834Y-100199999D01*
X175853796Y-100041890D01*
X175918162Y-99718302D01*
X175950500Y-99389964D01*
X175950500Y-99225000D01*
X175950500Y-99167417D01*
X175950500Y-98570055D01*
X175970185Y-98503016D01*
X175992274Y-98477239D01*
X176040482Y-98434531D01*
X176043496Y-98430165D01*
X176130220Y-98304523D01*
X176186237Y-98156818D01*
X176205278Y-98000000D01*
X176197666Y-97937304D01*
X176186237Y-97843181D01*
X176164992Y-97787164D01*
X176130220Y-97695477D01*
X176040483Y-97565470D01*
X175922240Y-97460717D01*
X175922238Y-97460716D01*
X175922237Y-97460715D01*
X175782365Y-97387303D01*
X175628986Y-97349500D01*
X175628985Y-97349500D01*
X175471015Y-97349500D01*
X175471014Y-97349500D01*
X175317634Y-97387303D01*
X175177762Y-97460715D01*
X175059516Y-97565471D01*
X174969781Y-97695475D01*
X174969780Y-97695476D01*
X174913762Y-97843181D01*
X174894722Y-97999999D01*
X174894722Y-98000000D01*
X174913762Y-98156818D01*
X174969780Y-98304523D01*
X174969781Y-98304524D01*
X175059517Y-98434531D01*
X175107726Y-98477239D01*
X175144853Y-98536428D01*
X175149500Y-98570055D01*
X175149500Y-99221519D01*
X175149305Y-99228472D01*
X175133813Y-99504331D01*
X175132256Y-99518149D01*
X175086559Y-99787097D01*
X175083465Y-99800654D01*
X175007941Y-100062804D01*
X175003348Y-100075929D01*
X174898951Y-100327966D01*
X174892918Y-100340495D01*
X174760954Y-100579264D01*
X174753555Y-100591037D01*
X174595688Y-100813529D01*
X174587021Y-100824397D01*
X174539930Y-100877092D01*
X174402879Y-101030451D01*
X174398101Y-101035504D01*
X172869536Y-102564068D01*
X172869445Y-102564171D01*
X172773794Y-102659823D01*
X172522239Y-102959615D01*
X172297784Y-103280170D01*
X172297768Y-103280196D01*
X172102102Y-103619097D01*
X172102094Y-103619113D01*
X171936710Y-103973777D01*
X171936709Y-103973780D01*
X171807808Y-104327932D01*
X171802859Y-104341528D01*
X171781832Y-104420000D01*
X171701570Y-104719536D01*
X171701569Y-104719543D01*
X171633611Y-105104933D01*
X171599500Y-105494793D01*
X171599500Y-112523368D01*
X171599117Y-112533101D01*
X171585224Y-112709553D01*
X171582180Y-112728769D01*
X171541997Y-112896131D01*
X171535984Y-112914636D01*
X171470115Y-113073652D01*
X171461282Y-113090989D01*
X171371343Y-113237752D01*
X171359906Y-113253493D01*
X171244798Y-113388267D01*
X171238190Y-113395416D01*
X171170423Y-113463182D01*
X171109103Y-113496666D01*
X171082744Y-113499500D01*
X170971014Y-113499500D01*
X170817634Y-113537303D01*
X170677762Y-113610715D01*
X170672925Y-113615000D01*
X170576640Y-113700301D01*
X170559516Y-113715471D01*
X170469781Y-113845475D01*
X170469780Y-113845476D01*
X170413762Y-113993181D01*
X170394722Y-114149999D01*
X168250500Y-114149999D01*
X168250500Y-113903694D01*
X168250500Y-113894560D01*
X168250494Y-113894478D01*
X168250494Y-113888786D01*
X168258553Y-113844813D01*
X168261401Y-113837304D01*
X168286237Y-113771818D01*
X168305278Y-113615000D01*
X168302908Y-113595477D01*
X168286237Y-113458181D01*
X168250355Y-113363570D01*
X168230220Y-113310477D01*
X168140483Y-113180470D01*
X168022240Y-113075717D01*
X168022238Y-113075716D01*
X168022237Y-113075715D01*
X167882365Y-113002303D01*
X167728986Y-112964500D01*
X167728985Y-112964500D01*
X167571015Y-112964500D01*
X167571014Y-112964500D01*
X167417634Y-113002303D01*
X167277762Y-113075715D01*
X167159516Y-113180471D01*
X167069781Y-113310475D01*
X167069780Y-113310476D01*
X167013762Y-113458181D01*
X166994722Y-113614999D01*
X166994722Y-113615000D01*
X167013762Y-113771818D01*
X167062376Y-113900000D01*
X167069780Y-113919523D01*
X167159517Y-114049530D01*
X167277760Y-114154283D01*
X167277762Y-114154284D01*
X167383126Y-114209584D01*
X167433338Y-114258168D01*
X167449500Y-114319380D01*
X167449500Y-118197413D01*
X167449235Y-118205522D01*
X167435935Y-118408478D01*
X167433818Y-118424559D01*
X167394935Y-118620046D01*
X167390737Y-118635713D01*
X167326670Y-118824455D01*
X167320463Y-118839441D01*
X167232308Y-119018204D01*
X167224197Y-119032251D01*
X167113462Y-119197979D01*
X167103588Y-119210848D01*
X166969625Y-119363602D01*
X166964079Y-119369524D01*
X166778747Y-119554859D01*
X166778746Y-119554859D01*
X166778745Y-119554860D01*
X166778729Y-119554877D01*
X166776058Y-119557547D01*
X166776024Y-119557565D01*
X166660723Y-119672870D01*
X166660719Y-119672875D01*
X166527622Y-119846336D01*
X166527616Y-119846345D01*
X166418299Y-120035693D01*
X166418297Y-120035697D01*
X166334627Y-120237701D01*
X166278038Y-120448895D01*
X166249500Y-120665675D01*
X166249500Y-120729944D01*
X166229815Y-120796983D01*
X166207727Y-120822759D01*
X166159521Y-120865465D01*
X166159515Y-120865472D01*
X166069781Y-120995475D01*
X166069780Y-120995476D01*
X166013762Y-121143181D01*
X165994722Y-121299999D01*
X159401235Y-121299999D01*
X159401235Y-118119403D01*
X159420920Y-118052364D01*
X159443010Y-118026586D01*
X159490483Y-117984530D01*
X159580220Y-117854523D01*
X159636237Y-117706818D01*
X159655278Y-117550000D01*
X159652243Y-117525000D01*
X159636237Y-117393181D01*
X159605713Y-117312696D01*
X159580220Y-117245477D01*
X159490483Y-117115470D01*
X159372240Y-117010717D01*
X159372238Y-117010716D01*
X159372237Y-117010715D01*
X159232365Y-116937303D01*
X159078986Y-116899500D01*
X159078985Y-116899500D01*
X158921015Y-116899500D01*
X158921014Y-116899500D01*
X158760351Y-116939099D01*
X158759991Y-116937641D01*
X158698797Y-116942351D01*
X158637294Y-116909198D01*
X158603478Y-116848056D01*
X158600500Y-116821044D01*
X158600500Y-113017640D01*
X158620185Y-112950601D01*
X158666872Y-112907845D01*
X158702240Y-112889283D01*
X158820483Y-112784530D01*
X158910220Y-112654523D01*
X158966237Y-112506818D01*
X158985278Y-112350000D01*
X158978873Y-112297245D01*
X158966237Y-112193181D01*
X158931087Y-112100499D01*
X158910220Y-112045477D01*
X158820483Y-111915470D01*
X158702240Y-111810717D01*
X158702237Y-111810714D01*
X158609033Y-111761797D01*
X158558820Y-111713212D01*
X158542846Y-111645193D01*
X158566181Y-111579336D01*
X158584433Y-111559185D01*
X158640482Y-111509531D01*
X158657739Y-111484530D01*
X158730220Y-111379523D01*
X158786237Y-111231818D01*
X158805278Y-111075000D01*
X158802243Y-111050000D01*
X158786237Y-110918181D01*
X158750565Y-110824123D01*
X158730220Y-110770477D01*
X158640483Y-110640470D01*
X158522240Y-110535717D01*
X158522238Y-110535716D01*
X158522237Y-110535715D01*
X158382365Y-110462303D01*
X158228986Y-110424500D01*
X158228985Y-110424500D01*
X158071015Y-110424500D01*
X158071014Y-110424500D01*
X157917634Y-110462303D01*
X157777762Y-110535715D01*
X157777760Y-110535717D01*
X157687737Y-110615470D01*
X157659516Y-110640471D01*
X157569781Y-110770475D01*
X157569780Y-110770476D01*
X157513762Y-110918181D01*
X157494722Y-111074999D01*
X157499231Y-111112137D01*
X157487770Y-111181061D01*
X157474512Y-111202568D01*
X157429978Y-111260607D01*
X157343315Y-111410718D01*
X157343307Y-111410734D01*
X157276978Y-111570877D01*
X157265349Y-111614283D01*
X157232117Y-111738318D01*
X157209497Y-111910181D01*
X157209497Y-111910184D01*
X157209497Y-111910185D01*
X157209500Y-111987304D01*
X157209500Y-125915768D01*
X157189815Y-125982807D01*
X157164655Y-126008816D01*
X157165694Y-126009988D01*
X157160081Y-126014960D01*
X157160080Y-126014961D01*
X157137991Y-126034530D01*
X157041836Y-126119715D01*
X156952101Y-126249719D01*
X156952100Y-126249720D01*
X156896082Y-126397425D01*
X156877042Y-126554243D01*
X147000000Y-126554243D01*
X147000000Y-118919999D01*
X154394722Y-118919999D01*
X154394722Y-118920000D01*
X154413762Y-119076818D01*
X154462276Y-119204736D01*
X154469780Y-119224523D01*
X154559517Y-119354530D01*
X154677760Y-119459283D01*
X154677762Y-119459284D01*
X154817634Y-119532696D01*
X154971014Y-119570500D01*
X154971015Y-119570500D01*
X155128985Y-119570500D01*
X155282365Y-119532696D01*
X155316316Y-119514877D01*
X155422240Y-119459283D01*
X155540483Y-119354530D01*
X155630220Y-119224523D01*
X155686237Y-119076818D01*
X155705278Y-118920000D01*
X155698996Y-118868258D01*
X155686237Y-118763181D01*
X155646147Y-118657473D01*
X155630220Y-118615477D01*
X155540483Y-118485470D01*
X155540480Y-118485467D01*
X155540478Y-118485465D01*
X155492273Y-118442759D01*
X155455146Y-118383570D01*
X155450500Y-118349944D01*
X155450500Y-115889350D01*
X155470185Y-115822311D01*
X155492271Y-115796536D01*
X155590483Y-115709530D01*
X155680220Y-115579523D01*
X155736237Y-115431818D01*
X155755278Y-115275000D01*
X155753368Y-115259265D01*
X155736237Y-115118181D01*
X155703506Y-115031877D01*
X155680220Y-114970477D01*
X155590483Y-114840470D01*
X155472240Y-114735717D01*
X155472238Y-114735716D01*
X155472237Y-114735715D01*
X155332365Y-114662303D01*
X155178986Y-114624500D01*
X155178985Y-114624500D01*
X155021015Y-114624500D01*
X155021014Y-114624500D01*
X154867634Y-114662303D01*
X154727762Y-114735715D01*
X154609516Y-114840471D01*
X154519781Y-114970475D01*
X154519780Y-114970476D01*
X154463762Y-115118181D01*
X154444722Y-115274999D01*
X154444722Y-115275000D01*
X154463762Y-115431818D01*
X154519780Y-115579523D01*
X154519781Y-115579524D01*
X154609518Y-115709532D01*
X154614491Y-115715145D01*
X154613044Y-115716426D01*
X154644850Y-115767120D01*
X154649500Y-115800759D01*
X154649500Y-118349944D01*
X154629815Y-118416983D01*
X154607727Y-118442759D01*
X154559521Y-118485465D01*
X154559515Y-118485472D01*
X154469781Y-118615475D01*
X154469780Y-118615476D01*
X154413762Y-118763181D01*
X154394722Y-118919999D01*
X147000000Y-118919999D01*
X147000000Y-118741839D01*
X147019685Y-118674800D01*
X147072489Y-118629045D01*
X147141647Y-118619101D01*
X147192892Y-118638737D01*
X147301321Y-118711188D01*
X147301328Y-118711192D01*
X147483306Y-118786569D01*
X147483318Y-118786572D01*
X147676504Y-118824999D01*
X147676508Y-118825000D01*
X147825000Y-118825000D01*
X147825000Y-118125000D01*
X148325000Y-118125000D01*
X148325000Y-118825000D01*
X148473492Y-118825000D01*
X148473495Y-118824999D01*
X148666681Y-118786572D01*
X148666693Y-118786569D01*
X148848671Y-118711192D01*
X148848684Y-118711185D01*
X149012462Y-118601751D01*
X149012466Y-118601748D01*
X149151748Y-118462466D01*
X149151751Y-118462462D01*
X149261185Y-118298684D01*
X149261192Y-118298671D01*
X149336569Y-118116692D01*
X149336569Y-118116690D01*
X149344862Y-118075000D01*
X148541988Y-118075000D01*
X148559205Y-118065060D01*
X148615060Y-118009205D01*
X148654556Y-117940796D01*
X148675000Y-117864496D01*
X148675000Y-117785504D01*
X148654556Y-117709204D01*
X148615060Y-117640795D01*
X148559205Y-117584940D01*
X148541988Y-117575000D01*
X149344862Y-117575000D01*
X150735138Y-117575000D01*
X151538012Y-117575000D01*
X151520795Y-117584940D01*
X151464940Y-117640795D01*
X151425444Y-117709204D01*
X151405000Y-117785504D01*
X151405000Y-117864496D01*
X151425444Y-117940796D01*
X151464940Y-118009205D01*
X151520795Y-118065060D01*
X151538012Y-118075000D01*
X150735138Y-118075000D01*
X150743430Y-118116690D01*
X150743430Y-118116692D01*
X150818807Y-118298671D01*
X150818814Y-118298684D01*
X150928248Y-118462462D01*
X150928251Y-118462466D01*
X151067533Y-118601748D01*
X151067537Y-118601751D01*
X151231315Y-118711185D01*
X151231328Y-118711192D01*
X151413306Y-118786569D01*
X151413318Y-118786572D01*
X151606504Y-118824999D01*
X151606508Y-118825000D01*
X152005000Y-118825000D01*
X152005000Y-118125000D01*
X152505000Y-118125000D01*
X152505000Y-118825000D01*
X152903492Y-118825000D01*
X152903495Y-118824999D01*
X153096681Y-118786572D01*
X153096693Y-118786569D01*
X153278671Y-118711192D01*
X153278684Y-118711185D01*
X153442462Y-118601751D01*
X153442466Y-118601748D01*
X153581748Y-118462466D01*
X153581751Y-118462462D01*
X153691185Y-118298684D01*
X153691192Y-118298671D01*
X153766569Y-118116692D01*
X153766569Y-118116690D01*
X153774862Y-118075000D01*
X152971988Y-118075000D01*
X152989205Y-118065060D01*
X153045060Y-118009205D01*
X153084556Y-117940796D01*
X153105000Y-117864496D01*
X153105000Y-117785504D01*
X153084556Y-117709204D01*
X153045060Y-117640795D01*
X152989205Y-117584940D01*
X152971988Y-117575000D01*
X153774862Y-117575000D01*
X153766569Y-117533309D01*
X153766569Y-117533307D01*
X153691192Y-117351328D01*
X153691185Y-117351315D01*
X153581751Y-117187537D01*
X153581748Y-117187533D01*
X153442466Y-117048251D01*
X153442462Y-117048248D01*
X153278684Y-116938814D01*
X153278671Y-116938807D01*
X153096693Y-116863430D01*
X153096681Y-116863427D01*
X152903495Y-116825000D01*
X152505000Y-116825000D01*
X152505000Y-117525000D01*
X152005000Y-117525000D01*
X152005000Y-116825000D01*
X151606504Y-116825000D01*
X151413318Y-116863427D01*
X151413306Y-116863430D01*
X151231328Y-116938807D01*
X151231315Y-116938814D01*
X151067537Y-117048248D01*
X151067533Y-117048251D01*
X150928251Y-117187533D01*
X150928248Y-117187537D01*
X150818814Y-117351315D01*
X150818807Y-117351328D01*
X150743430Y-117533307D01*
X150743430Y-117533309D01*
X150735138Y-117575000D01*
X149344862Y-117575000D01*
X149336569Y-117533309D01*
X149336569Y-117533307D01*
X149261192Y-117351328D01*
X149261185Y-117351315D01*
X149151751Y-117187537D01*
X149151748Y-117187533D01*
X149012466Y-117048251D01*
X149012462Y-117048248D01*
X148848684Y-116938814D01*
X148848671Y-116938807D01*
X148666693Y-116863430D01*
X148666681Y-116863427D01*
X148473495Y-116825000D01*
X148325000Y-116825000D01*
X148325000Y-117525000D01*
X147825000Y-117525000D01*
X147825000Y-116825000D01*
X147676504Y-116825000D01*
X147483318Y-116863427D01*
X147483306Y-116863430D01*
X147301328Y-116938807D01*
X147301315Y-116938814D01*
X147192891Y-117011262D01*
X147126214Y-117032140D01*
X147058833Y-117013656D01*
X147012143Y-116961677D01*
X147000000Y-116908160D01*
X147000000Y-112449999D01*
X149944722Y-112449999D01*
X149944722Y-112450000D01*
X149963762Y-112606818D01*
X150019780Y-112754523D01*
X150019781Y-112754524D01*
X150109517Y-112884531D01*
X150157726Y-112927239D01*
X150194853Y-112986428D01*
X150199500Y-113020055D01*
X150199500Y-113279944D01*
X150179815Y-113346983D01*
X150157727Y-113372759D01*
X150109521Y-113415465D01*
X150109515Y-113415472D01*
X150019781Y-113545475D01*
X150019780Y-113545476D01*
X149963762Y-113693181D01*
X149944722Y-113849999D01*
X149944722Y-113850000D01*
X149963762Y-114006818D01*
X150002840Y-114109856D01*
X150019780Y-114154523D01*
X150109517Y-114284530D01*
X150227760Y-114389283D01*
X150227762Y-114389284D01*
X150367634Y-114462696D01*
X150521014Y-114500500D01*
X150521015Y-114500500D01*
X150528857Y-114500500D01*
X150595896Y-114520185D01*
X150641651Y-114572989D01*
X150651953Y-114609554D01*
X150663762Y-114706818D01*
X150707953Y-114823338D01*
X150719780Y-114854523D01*
X150809517Y-114984530D01*
X150927760Y-115089283D01*
X150927762Y-115089284D01*
X151067634Y-115162696D01*
X151221014Y-115200500D01*
X151221015Y-115200500D01*
X151378985Y-115200500D01*
X151532365Y-115162696D01*
X151617180Y-115118181D01*
X151672240Y-115089283D01*
X151790483Y-114984530D01*
X151880220Y-114854523D01*
X151936237Y-114706818D01*
X151955278Y-114550000D01*
X151955250Y-114549765D01*
X151936237Y-114393181D01*
X151904536Y-114309594D01*
X151880220Y-114245477D01*
X151790483Y-114115470D01*
X151790479Y-114115466D01*
X151785509Y-114109856D01*
X151786953Y-114108576D01*
X151755145Y-114057860D01*
X151750500Y-114024240D01*
X151750500Y-113833138D01*
X151770185Y-113766099D01*
X151816874Y-113723342D01*
X151872232Y-113694287D01*
X151872230Y-113694287D01*
X151872240Y-113694283D01*
X151990483Y-113589530D01*
X152080220Y-113459523D01*
X152136237Y-113311818D01*
X152155278Y-113155000D01*
X152145419Y-113073799D01*
X152136237Y-112998181D01*
X152103218Y-112911118D01*
X152080220Y-112850477D01*
X151990483Y-112720470D01*
X151872240Y-112615717D01*
X151872238Y-112615716D01*
X151872237Y-112615715D01*
X151732365Y-112542303D01*
X151578986Y-112504500D01*
X151578985Y-112504500D01*
X151421015Y-112504500D01*
X151421014Y-112504500D01*
X151402414Y-112509084D01*
X151332612Y-112506013D01*
X151275551Y-112465691D01*
X151249648Y-112403633D01*
X151236516Y-112295476D01*
X151236237Y-112293181D01*
X151198312Y-112193182D01*
X151180220Y-112145477D01*
X151090483Y-112015470D01*
X150972240Y-111910717D01*
X150972238Y-111910716D01*
X150972237Y-111910715D01*
X150832365Y-111837303D01*
X150678986Y-111799500D01*
X150678985Y-111799500D01*
X150521015Y-111799500D01*
X150521014Y-111799500D01*
X150367634Y-111837303D01*
X150227762Y-111910715D01*
X150109516Y-112015471D01*
X150019781Y-112145475D01*
X150019780Y-112145476D01*
X149963762Y-112293181D01*
X149944722Y-112449999D01*
X147000000Y-112449999D01*
X147000000Y-110101839D01*
X147019685Y-110034800D01*
X147072489Y-109989045D01*
X147141647Y-109979101D01*
X147192892Y-109998737D01*
X147301321Y-110071188D01*
X147301328Y-110071192D01*
X147483306Y-110146569D01*
X147483318Y-110146572D01*
X147676504Y-110184999D01*
X147676508Y-110185000D01*
X147825000Y-110185000D01*
X147825000Y-109485000D01*
X148325000Y-109485000D01*
X148325000Y-110185000D01*
X148473492Y-110185000D01*
X148473495Y-110184999D01*
X148666681Y-110146572D01*
X148666693Y-110146569D01*
X148848671Y-110071192D01*
X148848684Y-110071185D01*
X149012462Y-109961751D01*
X149012466Y-109961748D01*
X149151748Y-109822466D01*
X149151751Y-109822462D01*
X149261185Y-109658684D01*
X149261192Y-109658671D01*
X149336569Y-109476692D01*
X149336569Y-109476690D01*
X149344862Y-109435000D01*
X148541988Y-109435000D01*
X148559205Y-109425060D01*
X148615060Y-109369205D01*
X148654556Y-109300796D01*
X148675000Y-109224496D01*
X148675000Y-109145504D01*
X148654556Y-109069204D01*
X148615060Y-109000795D01*
X148559205Y-108944940D01*
X148541988Y-108935000D01*
X149344862Y-108935000D01*
X150735138Y-108935000D01*
X151538012Y-108935000D01*
X151520795Y-108944940D01*
X151464940Y-109000795D01*
X151425444Y-109069204D01*
X151405000Y-109145504D01*
X151405000Y-109224496D01*
X151425444Y-109300796D01*
X151464940Y-109369205D01*
X151520795Y-109425060D01*
X151538012Y-109435000D01*
X150735138Y-109435000D01*
X150743430Y-109476690D01*
X150743430Y-109476692D01*
X150818807Y-109658671D01*
X150818814Y-109658684D01*
X150928248Y-109822462D01*
X150928251Y-109822466D01*
X151067533Y-109961748D01*
X151067537Y-109961751D01*
X151231315Y-110071185D01*
X151231328Y-110071192D01*
X151413306Y-110146569D01*
X151413318Y-110146572D01*
X151606504Y-110184999D01*
X151606508Y-110185000D01*
X152005000Y-110185000D01*
X152005000Y-109485000D01*
X152505000Y-109485000D01*
X152505000Y-110185000D01*
X152903492Y-110185000D01*
X152903495Y-110184999D01*
X153096681Y-110146572D01*
X153096693Y-110146569D01*
X153278671Y-110071192D01*
X153278684Y-110071185D01*
X153442462Y-109961751D01*
X153442466Y-109961748D01*
X153581748Y-109822466D01*
X153581751Y-109822462D01*
X153691185Y-109658684D01*
X153691192Y-109658671D01*
X153766569Y-109476692D01*
X153766569Y-109476690D01*
X153774862Y-109435000D01*
X152971988Y-109435000D01*
X152989205Y-109425060D01*
X153045060Y-109369205D01*
X153084556Y-109300796D01*
X153105000Y-109224496D01*
X153105000Y-109145504D01*
X153084556Y-109069204D01*
X153045060Y-109000795D01*
X152989205Y-108944940D01*
X152971988Y-108935000D01*
X153774863Y-108935000D01*
X153767461Y-108897785D01*
X153773688Y-108828193D01*
X153816552Y-108773016D01*
X153882441Y-108749772D01*
X153950438Y-108765840D01*
X153983368Y-108793063D01*
X154088347Y-108915978D01*
X154099785Y-108931721D01*
X154194679Y-109086579D01*
X154203513Y-109103916D01*
X154273014Y-109271712D01*
X154279027Y-109290219D01*
X154321423Y-109466829D01*
X154324466Y-109486047D01*
X154339117Y-109672268D01*
X154339499Y-109681994D01*
X154339499Y-109744406D01*
X154339500Y-109744419D01*
X154339500Y-111129944D01*
X154319815Y-111196983D01*
X154297727Y-111222759D01*
X154249521Y-111265465D01*
X154249515Y-111265472D01*
X154159781Y-111395475D01*
X154159780Y-111395476D01*
X154103762Y-111543181D01*
X154084722Y-111699999D01*
X154084722Y-111700000D01*
X154103762Y-111856818D01*
X154156349Y-111995476D01*
X154159780Y-112004523D01*
X154249517Y-112134530D01*
X154367760Y-112239283D01*
X154367762Y-112239284D01*
X154507634Y-112312696D01*
X154661014Y-112350500D01*
X154661015Y-112350500D01*
X154818985Y-112350500D01*
X154972365Y-112312696D01*
X155001804Y-112297245D01*
X155112240Y-112239283D01*
X155230483Y-112134530D01*
X155320220Y-112004523D01*
X155376237Y-111856818D01*
X155395278Y-111700000D01*
X155393737Y-111687304D01*
X155376237Y-111543181D01*
X155337348Y-111440641D01*
X155320220Y-111395477D01*
X155230483Y-111265470D01*
X155230480Y-111265467D01*
X155230478Y-111265465D01*
X155182273Y-111222759D01*
X155145146Y-111163570D01*
X155140500Y-111129944D01*
X155140500Y-109616048D01*
X155140478Y-109615719D01*
X155140479Y-109586428D01*
X155140480Y-109559888D01*
X155114293Y-109327419D01*
X155092736Y-109232964D01*
X155062242Y-109099346D01*
X155062240Y-109099341D01*
X155058120Y-109087567D01*
X154984980Y-108878530D01*
X154948204Y-108802161D01*
X154936854Y-108733225D01*
X154964577Y-108669091D01*
X155022572Y-108630126D01*
X155089600Y-108627969D01*
X155181014Y-108650500D01*
X155181015Y-108650500D01*
X155338985Y-108650500D01*
X155492365Y-108612696D01*
X155516557Y-108599999D01*
X155632240Y-108539283D01*
X155708544Y-108471683D01*
X155771778Y-108441963D01*
X155790771Y-108440500D01*
X158740075Y-108440500D01*
X158740079Y-108440501D01*
X158793302Y-108440500D01*
X158805451Y-108441097D01*
X158869198Y-108447373D01*
X158893025Y-108452111D01*
X158935983Y-108465142D01*
X158994420Y-108503438D01*
X159022876Y-108567250D01*
X159023082Y-108568855D01*
X159033762Y-108656815D01*
X159033763Y-108656821D01*
X159076857Y-108770449D01*
X159089780Y-108804523D01*
X159179517Y-108934530D01*
X159297760Y-109039283D01*
X159297762Y-109039284D01*
X159437634Y-109112696D01*
X159591014Y-109150500D01*
X159591015Y-109150500D01*
X159748985Y-109150500D01*
X159902365Y-109112696D01*
X159927801Y-109099346D01*
X160042240Y-109039283D01*
X160160483Y-108934530D01*
X160250220Y-108804523D01*
X160306237Y-108656818D01*
X160325278Y-108500000D01*
X160321046Y-108465141D01*
X160306237Y-108343181D01*
X160250899Y-108197268D01*
X160250220Y-108195477D01*
X160160483Y-108065470D01*
X160042240Y-107960717D01*
X160042238Y-107960716D01*
X160042237Y-107960715D01*
X159902365Y-107887303D01*
X159748986Y-107849500D01*
X159748985Y-107849500D01*
X159693946Y-107849500D01*
X159626907Y-107829815D01*
X159618460Y-107823876D01*
X159534936Y-107759787D01*
X159534931Y-107759783D01*
X159393954Y-107678392D01*
X159384951Y-107673194D01*
X159384947Y-107673192D01*
X159224944Y-107606919D01*
X159224941Y-107606918D01*
X159224936Y-107606916D01*
X159057663Y-107562098D01*
X158981346Y-107552053D01*
X158885955Y-107539497D01*
X158885950Y-107539497D01*
X158799362Y-107539500D01*
X155768195Y-107539500D01*
X155701156Y-107519815D01*
X155685969Y-107508316D01*
X155685787Y-107508155D01*
X155632240Y-107460717D01*
X155632235Y-107460714D01*
X155632232Y-107460712D01*
X155492365Y-107387303D01*
X155338986Y-107349500D01*
X155338985Y-107349500D01*
X155181015Y-107349500D01*
X155181014Y-107349500D01*
X155027634Y-107387303D01*
X154887762Y-107460715D01*
X154769516Y-107565471D01*
X154679781Y-107695475D01*
X154679780Y-107695476D01*
X154623763Y-107843180D01*
X154605283Y-107995379D01*
X154577661Y-108059556D01*
X154519727Y-108098613D01*
X154449874Y-108100148D01*
X154394506Y-108068113D01*
X154273062Y-107946669D01*
X154239577Y-107885346D01*
X154244561Y-107815654D01*
X154258687Y-107788557D01*
X154334729Y-107678392D01*
X154390746Y-107530687D01*
X154409787Y-107373869D01*
X154403026Y-107318182D01*
X154390746Y-107217050D01*
X154369501Y-107161033D01*
X154334729Y-107069346D01*
X154244992Y-106939339D01*
X154126749Y-106834586D01*
X154126747Y-106834585D01*
X154126746Y-106834584D01*
X153986874Y-106761172D01*
X153833495Y-106723369D01*
X153833494Y-106723369D01*
X153675524Y-106723369D01*
X153675523Y-106723369D01*
X153522143Y-106761172D01*
X153382271Y-106834584D01*
X153324649Y-106885632D01*
X153268115Y-106935717D01*
X153264025Y-106939340D01*
X153174290Y-107069344D01*
X153174289Y-107069345D01*
X153118271Y-107217050D01*
X153099231Y-107373868D01*
X153099231Y-107373869D01*
X153118271Y-107530687D01*
X153156778Y-107632219D01*
X153174289Y-107678392D01*
X153264026Y-107808399D01*
X153320916Y-107858798D01*
X153341629Y-107877148D01*
X153378756Y-107936337D01*
X153381874Y-107950556D01*
X153382323Y-107953392D01*
X153382325Y-107953398D01*
X153438242Y-108125504D01*
X153438244Y-108125507D01*
X153438245Y-108125511D01*
X153440259Y-108129464D01*
X153453155Y-108198133D01*
X153426878Y-108262874D01*
X153369771Y-108303130D01*
X153299966Y-108306122D01*
X153282322Y-108300319D01*
X153096693Y-108223430D01*
X153096681Y-108223427D01*
X152903495Y-108185000D01*
X152505000Y-108185000D01*
X152505000Y-108885000D01*
X152005000Y-108885000D01*
X152005000Y-108185000D01*
X151606504Y-108185000D01*
X151413318Y-108223427D01*
X151413306Y-108223430D01*
X151231328Y-108298807D01*
X151231315Y-108298814D01*
X151067537Y-108408248D01*
X151067533Y-108408251D01*
X150928251Y-108547533D01*
X150928248Y-108547537D01*
X150818814Y-108711315D01*
X150818807Y-108711328D01*
X150743430Y-108893307D01*
X150743430Y-108893309D01*
X150735138Y-108935000D01*
X149344862Y-108935000D01*
X149336569Y-108893309D01*
X149336569Y-108893307D01*
X149261192Y-108711328D01*
X149261185Y-108711315D01*
X149151751Y-108547537D01*
X149151748Y-108547533D01*
X149012466Y-108408251D01*
X149012462Y-108408248D01*
X148848684Y-108298814D01*
X148848671Y-108298807D01*
X148666693Y-108223430D01*
X148666681Y-108223427D01*
X148473495Y-108185000D01*
X148325000Y-108185000D01*
X148325000Y-108885000D01*
X147825000Y-108885000D01*
X147825000Y-108185000D01*
X147676504Y-108185000D01*
X147483318Y-108223427D01*
X147483306Y-108223430D01*
X147301328Y-108298807D01*
X147301315Y-108298814D01*
X147192891Y-108371262D01*
X147126214Y-108392140D01*
X147058833Y-108373656D01*
X147012143Y-108321677D01*
X147000000Y-108268160D01*
X147000000Y-104689999D01*
X158734722Y-104689999D01*
X158734722Y-104690000D01*
X158753762Y-104846818D01*
X158809780Y-104994523D01*
X158899517Y-105124530D01*
X159017760Y-105229283D01*
X159017762Y-105229284D01*
X159157634Y-105302696D01*
X159311014Y-105340500D01*
X159311015Y-105340500D01*
X159468985Y-105340500D01*
X159622365Y-105302696D01*
X159762240Y-105229283D01*
X159880483Y-105124530D01*
X159970220Y-104994523D01*
X160026237Y-104846818D01*
X160045278Y-104690000D01*
X160040971Y-104654524D01*
X160026237Y-104533181D01*
X159985820Y-104426612D01*
X159970220Y-104385477D01*
X159952448Y-104359730D01*
X159930567Y-104293376D01*
X159930500Y-104289292D01*
X159930500Y-103649999D01*
X167944722Y-103649999D01*
X167944722Y-103650000D01*
X167963762Y-103806818D01*
X168019780Y-103954523D01*
X168109517Y-104084530D01*
X168227760Y-104189283D01*
X168227762Y-104189284D01*
X168367634Y-104262696D01*
X168521014Y-104300500D01*
X168521015Y-104300500D01*
X168678985Y-104300500D01*
X168832365Y-104262696D01*
X168972240Y-104189283D01*
X169037256Y-104131683D01*
X169100490Y-104101963D01*
X169119483Y-104100500D01*
X170230517Y-104100500D01*
X170297556Y-104120185D01*
X170312741Y-104131682D01*
X170377760Y-104189283D01*
X170377762Y-104189284D01*
X170517634Y-104262696D01*
X170671014Y-104300500D01*
X170671015Y-104300500D01*
X170828985Y-104300500D01*
X170982365Y-104262696D01*
X171122240Y-104189283D01*
X171240483Y-104084530D01*
X171330220Y-103954523D01*
X171386237Y-103806818D01*
X171405278Y-103650000D01*
X171386237Y-103493182D01*
X171367180Y-103442934D01*
X171363663Y-103433660D01*
X171330220Y-103345477D01*
X171240483Y-103215470D01*
X171122240Y-103110717D01*
X171122238Y-103110716D01*
X171122237Y-103110715D01*
X170982365Y-103037303D01*
X170828986Y-102999500D01*
X170828985Y-102999500D01*
X170671015Y-102999500D01*
X170671014Y-102999500D01*
X170517634Y-103037303D01*
X170377762Y-103110715D01*
X170312744Y-103168316D01*
X170249510Y-103198037D01*
X170230517Y-103199500D01*
X169119483Y-103199500D01*
X169052444Y-103179815D01*
X169037256Y-103168316D01*
X168972240Y-103110717D01*
X168972238Y-103110716D01*
X168972237Y-103110715D01*
X168832365Y-103037303D01*
X168678986Y-102999500D01*
X168678985Y-102999500D01*
X168521015Y-102999500D01*
X168521014Y-102999500D01*
X168367634Y-103037303D01*
X168227762Y-103110715D01*
X168109516Y-103215471D01*
X168019781Y-103345475D01*
X168019780Y-103345476D01*
X167963762Y-103493181D01*
X167944722Y-103649999D01*
X159930500Y-103649999D01*
X159930500Y-102137970D01*
X159930649Y-102131886D01*
X159934611Y-102051220D01*
X159944811Y-101843567D01*
X159946004Y-101831464D01*
X159949258Y-101809530D01*
X159987909Y-101548951D01*
X159990282Y-101537023D01*
X159991875Y-101530664D01*
X160059680Y-101259968D01*
X160063201Y-101248356D01*
X160159430Y-100979412D01*
X160164072Y-100968205D01*
X160286202Y-100709980D01*
X160291918Y-100699289D01*
X160438762Y-100454293D01*
X160445506Y-100444200D01*
X160615656Y-100214777D01*
X160623353Y-100205399D01*
X160817103Y-99991627D01*
X160821260Y-99987260D01*
X161134540Y-99673982D01*
X161140432Y-99668464D01*
X161322905Y-99508439D01*
X161335750Y-99498582D01*
X161534143Y-99366020D01*
X161548178Y-99357916D01*
X161762172Y-99252385D01*
X161777138Y-99246186D01*
X162003087Y-99169487D01*
X162018722Y-99165298D01*
X162252741Y-99118748D01*
X162268800Y-99116633D01*
X162489106Y-99102194D01*
X162510912Y-99100765D01*
X162519021Y-99100500D01*
X162581843Y-99100500D01*
X163168569Y-99100500D01*
X163226194Y-99114703D01*
X163317635Y-99162696D01*
X163394325Y-99181598D01*
X163471014Y-99200500D01*
X163471015Y-99200500D01*
X163628985Y-99200500D01*
X163782365Y-99162696D01*
X163922240Y-99089283D01*
X164040483Y-98984530D01*
X164130220Y-98854523D01*
X164186237Y-98706818D01*
X164205278Y-98550000D01*
X164186237Y-98393182D01*
X164130220Y-98245477D01*
X164040483Y-98115470D01*
X163922240Y-98010717D01*
X163922238Y-98010716D01*
X163922237Y-98010715D01*
X163782365Y-97937303D01*
X163628986Y-97899500D01*
X163628985Y-97899500D01*
X163471015Y-97899500D01*
X163471014Y-97899500D01*
X163317636Y-97937303D01*
X163271763Y-97961379D01*
X163226194Y-97985296D01*
X163168569Y-97999500D01*
X162566365Y-97999500D01*
X162566355Y-97999497D01*
X162515000Y-97999497D01*
X162365202Y-97999497D01*
X162297984Y-98006117D01*
X162067058Y-98028861D01*
X162067045Y-98028863D01*
X161773211Y-98087311D01*
X161486506Y-98174281D01*
X161209720Y-98288931D01*
X160945503Y-98430159D01*
X160945493Y-98430165D01*
X160696403Y-98596602D01*
X160696389Y-98596612D01*
X160464799Y-98786675D01*
X160410132Y-98841343D01*
X160410129Y-98841344D01*
X160410130Y-98841345D01*
X160162190Y-99089284D01*
X160077060Y-99174413D01*
X160077037Y-99174425D01*
X159913054Y-99338407D01*
X159680938Y-99615031D01*
X159473823Y-99910823D01*
X159473807Y-99910849D01*
X159293259Y-100223568D01*
X159293247Y-100223592D01*
X159140644Y-100550851D01*
X159140641Y-100550859D01*
X159017133Y-100890200D01*
X158923677Y-101238994D01*
X158923673Y-101239011D01*
X158860970Y-101594625D01*
X158860970Y-101594629D01*
X158829499Y-101954367D01*
X158829499Y-101954370D01*
X158829500Y-102062449D01*
X158829500Y-104318268D01*
X158811921Y-104378132D01*
X158813265Y-104378837D01*
X158809781Y-104385475D01*
X158753762Y-104533181D01*
X158734722Y-104689999D01*
X147000000Y-104689999D01*
X147000000Y-97124000D01*
X147019685Y-97056961D01*
X147072489Y-97011206D01*
X147124000Y-97000000D01*
X229876000Y-97000000D01*
X229943039Y-97019685D01*
G37*
%TD.AperFunction*%
%TD*%
M02*
