%TF.GenerationSoftware,KiCad,Pcbnew,8.0.6*%
%TF.CreationDate,2024-10-17T21:48:28+02:00*%
%TF.ProjectId,weatherStationBoard,77656174-6865-4725-9374-6174696f6e42,rev?*%
%TF.SameCoordinates,Original*%
%TF.FileFunction,Legend,Top*%
%TF.FilePolarity,Positive*%
%FSLAX46Y46*%
G04 Gerber Fmt 4.6, Leading zero omitted, Abs format (unit mm)*
G04 Created by KiCad (PCBNEW 8.0.6) date 2024-10-17 21:48:28*
%MOMM*%
%LPD*%
G01*
G04 APERTURE LIST*
%ADD10C,0.200000*%
%ADD11C,0.300000*%
%ADD12C,0.150000*%
%ADD13C,0.254000*%
%ADD14C,0.120000*%
G04 APERTURE END LIST*
D10*
X184393482Y-107964838D02*
X184298244Y-107917219D01*
X184298244Y-107917219D02*
X184155387Y-107917219D01*
X184155387Y-107917219D02*
X184012530Y-107964838D01*
X184012530Y-107964838D02*
X183917292Y-108060076D01*
X183917292Y-108060076D02*
X183869673Y-108155314D01*
X183869673Y-108155314D02*
X183822054Y-108345790D01*
X183822054Y-108345790D02*
X183822054Y-108488647D01*
X183822054Y-108488647D02*
X183869673Y-108679123D01*
X183869673Y-108679123D02*
X183917292Y-108774361D01*
X183917292Y-108774361D02*
X184012530Y-108869600D01*
X184012530Y-108869600D02*
X184155387Y-108917219D01*
X184155387Y-108917219D02*
X184250625Y-108917219D01*
X184250625Y-108917219D02*
X184393482Y-108869600D01*
X184393482Y-108869600D02*
X184441101Y-108821980D01*
X184441101Y-108821980D02*
X184441101Y-108488647D01*
X184441101Y-108488647D02*
X184250625Y-108488647D01*
X184869673Y-108917219D02*
X184869673Y-107917219D01*
X184869673Y-107917219D02*
X185441101Y-108917219D01*
X185441101Y-108917219D02*
X185441101Y-107917219D01*
X185917292Y-108917219D02*
X185917292Y-107917219D01*
X185917292Y-107917219D02*
X186155387Y-107917219D01*
X186155387Y-107917219D02*
X186298244Y-107964838D01*
X186298244Y-107964838D02*
X186393482Y-108060076D01*
X186393482Y-108060076D02*
X186441101Y-108155314D01*
X186441101Y-108155314D02*
X186488720Y-108345790D01*
X186488720Y-108345790D02*
X186488720Y-108488647D01*
X186488720Y-108488647D02*
X186441101Y-108679123D01*
X186441101Y-108679123D02*
X186393482Y-108774361D01*
X186393482Y-108774361D02*
X186298244Y-108869600D01*
X186298244Y-108869600D02*
X186155387Y-108917219D01*
X186155387Y-108917219D02*
X185917292Y-108917219D01*
X188372054Y-116819600D02*
X188514911Y-116867219D01*
X188514911Y-116867219D02*
X188753006Y-116867219D01*
X188753006Y-116867219D02*
X188848244Y-116819600D01*
X188848244Y-116819600D02*
X188895863Y-116771980D01*
X188895863Y-116771980D02*
X188943482Y-116676742D01*
X188943482Y-116676742D02*
X188943482Y-116581504D01*
X188943482Y-116581504D02*
X188895863Y-116486266D01*
X188895863Y-116486266D02*
X188848244Y-116438647D01*
X188848244Y-116438647D02*
X188753006Y-116391028D01*
X188753006Y-116391028D02*
X188562530Y-116343409D01*
X188562530Y-116343409D02*
X188467292Y-116295790D01*
X188467292Y-116295790D02*
X188419673Y-116248171D01*
X188419673Y-116248171D02*
X188372054Y-116152933D01*
X188372054Y-116152933D02*
X188372054Y-116057695D01*
X188372054Y-116057695D02*
X188419673Y-115962457D01*
X188419673Y-115962457D02*
X188467292Y-115914838D01*
X188467292Y-115914838D02*
X188562530Y-115867219D01*
X188562530Y-115867219D02*
X188800625Y-115867219D01*
X188800625Y-115867219D02*
X188943482Y-115914838D01*
X189943482Y-116771980D02*
X189895863Y-116819600D01*
X189895863Y-116819600D02*
X189753006Y-116867219D01*
X189753006Y-116867219D02*
X189657768Y-116867219D01*
X189657768Y-116867219D02*
X189514911Y-116819600D01*
X189514911Y-116819600D02*
X189419673Y-116724361D01*
X189419673Y-116724361D02*
X189372054Y-116629123D01*
X189372054Y-116629123D02*
X189324435Y-116438647D01*
X189324435Y-116438647D02*
X189324435Y-116295790D01*
X189324435Y-116295790D02*
X189372054Y-116105314D01*
X189372054Y-116105314D02*
X189419673Y-116010076D01*
X189419673Y-116010076D02*
X189514911Y-115914838D01*
X189514911Y-115914838D02*
X189657768Y-115867219D01*
X189657768Y-115867219D02*
X189753006Y-115867219D01*
X189753006Y-115867219D02*
X189895863Y-115914838D01*
X189895863Y-115914838D02*
X189943482Y-115962457D01*
X190848244Y-116867219D02*
X190372054Y-116867219D01*
X190372054Y-116867219D02*
X190372054Y-115867219D01*
X178859673Y-98160552D02*
X178859673Y-98827219D01*
X178859673Y-98255790D02*
X178907292Y-98208171D01*
X178907292Y-98208171D02*
X179002530Y-98160552D01*
X179002530Y-98160552D02*
X179145387Y-98160552D01*
X179145387Y-98160552D02*
X179240625Y-98208171D01*
X179240625Y-98208171D02*
X179288244Y-98303409D01*
X179288244Y-98303409D02*
X179288244Y-98827219D01*
X180335863Y-98827219D02*
X180002530Y-98351028D01*
X179764435Y-98827219D02*
X179764435Y-97827219D01*
X179764435Y-97827219D02*
X180145387Y-97827219D01*
X180145387Y-97827219D02*
X180240625Y-97874838D01*
X180240625Y-97874838D02*
X180288244Y-97922457D01*
X180288244Y-97922457D02*
X180335863Y-98017695D01*
X180335863Y-98017695D02*
X180335863Y-98160552D01*
X180335863Y-98160552D02*
X180288244Y-98255790D01*
X180288244Y-98255790D02*
X180240625Y-98303409D01*
X180240625Y-98303409D02*
X180145387Y-98351028D01*
X180145387Y-98351028D02*
X179764435Y-98351028D01*
X180716816Y-98779600D02*
X180859673Y-98827219D01*
X180859673Y-98827219D02*
X181097768Y-98827219D01*
X181097768Y-98827219D02*
X181193006Y-98779600D01*
X181193006Y-98779600D02*
X181240625Y-98731980D01*
X181240625Y-98731980D02*
X181288244Y-98636742D01*
X181288244Y-98636742D02*
X181288244Y-98541504D01*
X181288244Y-98541504D02*
X181240625Y-98446266D01*
X181240625Y-98446266D02*
X181193006Y-98398647D01*
X181193006Y-98398647D02*
X181097768Y-98351028D01*
X181097768Y-98351028D02*
X180907292Y-98303409D01*
X180907292Y-98303409D02*
X180812054Y-98255790D01*
X180812054Y-98255790D02*
X180764435Y-98208171D01*
X180764435Y-98208171D02*
X180716816Y-98112933D01*
X180716816Y-98112933D02*
X180716816Y-98017695D01*
X180716816Y-98017695D02*
X180764435Y-97922457D01*
X180764435Y-97922457D02*
X180812054Y-97874838D01*
X180812054Y-97874838D02*
X180907292Y-97827219D01*
X180907292Y-97827219D02*
X181145387Y-97827219D01*
X181145387Y-97827219D02*
X181288244Y-97874838D01*
X181573959Y-97827219D02*
X182145387Y-97827219D01*
X181859673Y-98827219D02*
X181859673Y-97827219D01*
X179474435Y-110517219D02*
X180093482Y-110517219D01*
X180093482Y-110517219D02*
X179760149Y-110898171D01*
X179760149Y-110898171D02*
X179903006Y-110898171D01*
X179903006Y-110898171D02*
X179998244Y-110945790D01*
X179998244Y-110945790D02*
X180045863Y-110993409D01*
X180045863Y-110993409D02*
X180093482Y-111088647D01*
X180093482Y-111088647D02*
X180093482Y-111326742D01*
X180093482Y-111326742D02*
X180045863Y-111421980D01*
X180045863Y-111421980D02*
X179998244Y-111469600D01*
X179998244Y-111469600D02*
X179903006Y-111517219D01*
X179903006Y-111517219D02*
X179617292Y-111517219D01*
X179617292Y-111517219D02*
X179522054Y-111469600D01*
X179522054Y-111469600D02*
X179474435Y-111421980D01*
X180379197Y-110517219D02*
X180712530Y-111517219D01*
X180712530Y-111517219D02*
X181045863Y-110517219D01*
X181283959Y-110517219D02*
X181903006Y-110517219D01*
X181903006Y-110517219D02*
X181569673Y-110898171D01*
X181569673Y-110898171D02*
X181712530Y-110898171D01*
X181712530Y-110898171D02*
X181807768Y-110945790D01*
X181807768Y-110945790D02*
X181855387Y-110993409D01*
X181855387Y-110993409D02*
X181903006Y-111088647D01*
X181903006Y-111088647D02*
X181903006Y-111326742D01*
X181903006Y-111326742D02*
X181855387Y-111421980D01*
X181855387Y-111421980D02*
X181807768Y-111469600D01*
X181807768Y-111469600D02*
X181712530Y-111517219D01*
X181712530Y-111517219D02*
X181426816Y-111517219D01*
X181426816Y-111517219D02*
X181331578Y-111469600D01*
X181331578Y-111469600D02*
X181283959Y-111421980D01*
X171745863Y-101717219D02*
X171269673Y-101717219D01*
X171269673Y-101717219D02*
X171222054Y-102193409D01*
X171222054Y-102193409D02*
X171269673Y-102145790D01*
X171269673Y-102145790D02*
X171364911Y-102098171D01*
X171364911Y-102098171D02*
X171603006Y-102098171D01*
X171603006Y-102098171D02*
X171698244Y-102145790D01*
X171698244Y-102145790D02*
X171745863Y-102193409D01*
X171745863Y-102193409D02*
X171793482Y-102288647D01*
X171793482Y-102288647D02*
X171793482Y-102526742D01*
X171793482Y-102526742D02*
X171745863Y-102621980D01*
X171745863Y-102621980D02*
X171698244Y-102669600D01*
X171698244Y-102669600D02*
X171603006Y-102717219D01*
X171603006Y-102717219D02*
X171364911Y-102717219D01*
X171364911Y-102717219D02*
X171269673Y-102669600D01*
X171269673Y-102669600D02*
X171222054Y-102621980D01*
X172079197Y-101717219D02*
X172412530Y-102717219D01*
X172412530Y-102717219D02*
X172745863Y-101717219D01*
D11*
X186411653Y-98800828D02*
X185911653Y-98086542D01*
X185554510Y-98800828D02*
X185554510Y-97300828D01*
X185554510Y-97300828D02*
X186125939Y-97300828D01*
X186125939Y-97300828D02*
X186268796Y-97372257D01*
X186268796Y-97372257D02*
X186340225Y-97443685D01*
X186340225Y-97443685D02*
X186411653Y-97586542D01*
X186411653Y-97586542D02*
X186411653Y-97800828D01*
X186411653Y-97800828D02*
X186340225Y-97943685D01*
X186340225Y-97943685D02*
X186268796Y-98015114D01*
X186268796Y-98015114D02*
X186125939Y-98086542D01*
X186125939Y-98086542D02*
X185554510Y-98086542D01*
X187054510Y-98015114D02*
X187554510Y-98015114D01*
X187768796Y-98800828D02*
X187054510Y-98800828D01*
X187054510Y-98800828D02*
X187054510Y-97300828D01*
X187054510Y-97300828D02*
X187768796Y-97300828D01*
X188340225Y-98729400D02*
X188554511Y-98800828D01*
X188554511Y-98800828D02*
X188911653Y-98800828D01*
X188911653Y-98800828D02*
X189054511Y-98729400D01*
X189054511Y-98729400D02*
X189125939Y-98657971D01*
X189125939Y-98657971D02*
X189197368Y-98515114D01*
X189197368Y-98515114D02*
X189197368Y-98372257D01*
X189197368Y-98372257D02*
X189125939Y-98229400D01*
X189125939Y-98229400D02*
X189054511Y-98157971D01*
X189054511Y-98157971D02*
X188911653Y-98086542D01*
X188911653Y-98086542D02*
X188625939Y-98015114D01*
X188625939Y-98015114D02*
X188483082Y-97943685D01*
X188483082Y-97943685D02*
X188411653Y-97872257D01*
X188411653Y-97872257D02*
X188340225Y-97729400D01*
X188340225Y-97729400D02*
X188340225Y-97586542D01*
X188340225Y-97586542D02*
X188411653Y-97443685D01*
X188411653Y-97443685D02*
X188483082Y-97372257D01*
X188483082Y-97372257D02*
X188625939Y-97300828D01*
X188625939Y-97300828D02*
X188983082Y-97300828D01*
X188983082Y-97300828D02*
X189197368Y-97372257D01*
X189840224Y-98015114D02*
X190340224Y-98015114D01*
X190554510Y-98800828D02*
X189840224Y-98800828D01*
X189840224Y-98800828D02*
X189840224Y-97300828D01*
X189840224Y-97300828D02*
X190554510Y-97300828D01*
X190983082Y-97300828D02*
X191840225Y-97300828D01*
X191411653Y-98800828D02*
X191411653Y-97300828D01*
D10*
X180722054Y-117269600D02*
X180864911Y-117317219D01*
X180864911Y-117317219D02*
X181103006Y-117317219D01*
X181103006Y-117317219D02*
X181198244Y-117269600D01*
X181198244Y-117269600D02*
X181245863Y-117221980D01*
X181245863Y-117221980D02*
X181293482Y-117126742D01*
X181293482Y-117126742D02*
X181293482Y-117031504D01*
X181293482Y-117031504D02*
X181245863Y-116936266D01*
X181245863Y-116936266D02*
X181198244Y-116888647D01*
X181198244Y-116888647D02*
X181103006Y-116841028D01*
X181103006Y-116841028D02*
X180912530Y-116793409D01*
X180912530Y-116793409D02*
X180817292Y-116745790D01*
X180817292Y-116745790D02*
X180769673Y-116698171D01*
X180769673Y-116698171D02*
X180722054Y-116602933D01*
X180722054Y-116602933D02*
X180722054Y-116507695D01*
X180722054Y-116507695D02*
X180769673Y-116412457D01*
X180769673Y-116412457D02*
X180817292Y-116364838D01*
X180817292Y-116364838D02*
X180912530Y-116317219D01*
X180912530Y-116317219D02*
X181150625Y-116317219D01*
X181150625Y-116317219D02*
X181293482Y-116364838D01*
X181722054Y-117317219D02*
X181722054Y-116317219D01*
X181722054Y-116317219D02*
X181960149Y-116317219D01*
X181960149Y-116317219D02*
X182103006Y-116364838D01*
X182103006Y-116364838D02*
X182198244Y-116460076D01*
X182198244Y-116460076D02*
X182245863Y-116555314D01*
X182245863Y-116555314D02*
X182293482Y-116745790D01*
X182293482Y-116745790D02*
X182293482Y-116888647D01*
X182293482Y-116888647D02*
X182245863Y-117079123D01*
X182245863Y-117079123D02*
X182198244Y-117174361D01*
X182198244Y-117174361D02*
X182103006Y-117269600D01*
X182103006Y-117269600D02*
X181960149Y-117317219D01*
X181960149Y-117317219D02*
X181722054Y-117317219D01*
X182674435Y-117031504D02*
X183150625Y-117031504D01*
X182579197Y-117317219D02*
X182912530Y-116317219D01*
X182912530Y-116317219D02*
X183245863Y-117317219D01*
X217224435Y-103917219D02*
X217843482Y-103917219D01*
X217843482Y-103917219D02*
X217510149Y-104298171D01*
X217510149Y-104298171D02*
X217653006Y-104298171D01*
X217653006Y-104298171D02*
X217748244Y-104345790D01*
X217748244Y-104345790D02*
X217795863Y-104393409D01*
X217795863Y-104393409D02*
X217843482Y-104488647D01*
X217843482Y-104488647D02*
X217843482Y-104726742D01*
X217843482Y-104726742D02*
X217795863Y-104821980D01*
X217795863Y-104821980D02*
X217748244Y-104869600D01*
X217748244Y-104869600D02*
X217653006Y-104917219D01*
X217653006Y-104917219D02*
X217367292Y-104917219D01*
X217367292Y-104917219D02*
X217272054Y-104869600D01*
X217272054Y-104869600D02*
X217224435Y-104821980D01*
X218129197Y-103917219D02*
X218462530Y-104917219D01*
X218462530Y-104917219D02*
X218795863Y-103917219D01*
X219033959Y-103917219D02*
X219653006Y-103917219D01*
X219653006Y-103917219D02*
X219319673Y-104298171D01*
X219319673Y-104298171D02*
X219462530Y-104298171D01*
X219462530Y-104298171D02*
X219557768Y-104345790D01*
X219557768Y-104345790D02*
X219605387Y-104393409D01*
X219605387Y-104393409D02*
X219653006Y-104488647D01*
X219653006Y-104488647D02*
X219653006Y-104726742D01*
X219653006Y-104726742D02*
X219605387Y-104821980D01*
X219605387Y-104821980D02*
X219557768Y-104869600D01*
X219557768Y-104869600D02*
X219462530Y-104917219D01*
X219462530Y-104917219D02*
X219176816Y-104917219D01*
X219176816Y-104917219D02*
X219081578Y-104869600D01*
X219081578Y-104869600D02*
X219033959Y-104821980D01*
D11*
X217054510Y-98015114D02*
X217268796Y-98086542D01*
X217268796Y-98086542D02*
X217340225Y-98157971D01*
X217340225Y-98157971D02*
X217411653Y-98300828D01*
X217411653Y-98300828D02*
X217411653Y-98515114D01*
X217411653Y-98515114D02*
X217340225Y-98657971D01*
X217340225Y-98657971D02*
X217268796Y-98729400D01*
X217268796Y-98729400D02*
X217125939Y-98800828D01*
X217125939Y-98800828D02*
X216554510Y-98800828D01*
X216554510Y-98800828D02*
X216554510Y-97300828D01*
X216554510Y-97300828D02*
X217054510Y-97300828D01*
X217054510Y-97300828D02*
X217197368Y-97372257D01*
X217197368Y-97372257D02*
X217268796Y-97443685D01*
X217268796Y-97443685D02*
X217340225Y-97586542D01*
X217340225Y-97586542D02*
X217340225Y-97729400D01*
X217340225Y-97729400D02*
X217268796Y-97872257D01*
X217268796Y-97872257D02*
X217197368Y-97943685D01*
X217197368Y-97943685D02*
X217054510Y-98015114D01*
X217054510Y-98015114D02*
X216554510Y-98015114D01*
X218340225Y-97300828D02*
X218625939Y-97300828D01*
X218625939Y-97300828D02*
X218768796Y-97372257D01*
X218768796Y-97372257D02*
X218911653Y-97515114D01*
X218911653Y-97515114D02*
X218983082Y-97800828D01*
X218983082Y-97800828D02*
X218983082Y-98300828D01*
X218983082Y-98300828D02*
X218911653Y-98586542D01*
X218911653Y-98586542D02*
X218768796Y-98729400D01*
X218768796Y-98729400D02*
X218625939Y-98800828D01*
X218625939Y-98800828D02*
X218340225Y-98800828D01*
X218340225Y-98800828D02*
X218197368Y-98729400D01*
X218197368Y-98729400D02*
X218054510Y-98586542D01*
X218054510Y-98586542D02*
X217983082Y-98300828D01*
X217983082Y-98300828D02*
X217983082Y-97800828D01*
X217983082Y-97800828D02*
X218054510Y-97515114D01*
X218054510Y-97515114D02*
X218197368Y-97372257D01*
X218197368Y-97372257D02*
X218340225Y-97300828D01*
X219911654Y-97300828D02*
X220197368Y-97300828D01*
X220197368Y-97300828D02*
X220340225Y-97372257D01*
X220340225Y-97372257D02*
X220483082Y-97515114D01*
X220483082Y-97515114D02*
X220554511Y-97800828D01*
X220554511Y-97800828D02*
X220554511Y-98300828D01*
X220554511Y-98300828D02*
X220483082Y-98586542D01*
X220483082Y-98586542D02*
X220340225Y-98729400D01*
X220340225Y-98729400D02*
X220197368Y-98800828D01*
X220197368Y-98800828D02*
X219911654Y-98800828D01*
X219911654Y-98800828D02*
X219768797Y-98729400D01*
X219768797Y-98729400D02*
X219625939Y-98586542D01*
X219625939Y-98586542D02*
X219554511Y-98300828D01*
X219554511Y-98300828D02*
X219554511Y-97800828D01*
X219554511Y-97800828D02*
X219625939Y-97515114D01*
X219625939Y-97515114D02*
X219768797Y-97372257D01*
X219768797Y-97372257D02*
X219911654Y-97300828D01*
X220983083Y-97300828D02*
X221840226Y-97300828D01*
X221411654Y-98800828D02*
X221411654Y-97300828D01*
D10*
X154874435Y-97567219D02*
X155493482Y-97567219D01*
X155493482Y-97567219D02*
X155160149Y-97948171D01*
X155160149Y-97948171D02*
X155303006Y-97948171D01*
X155303006Y-97948171D02*
X155398244Y-97995790D01*
X155398244Y-97995790D02*
X155445863Y-98043409D01*
X155445863Y-98043409D02*
X155493482Y-98138647D01*
X155493482Y-98138647D02*
X155493482Y-98376742D01*
X155493482Y-98376742D02*
X155445863Y-98471980D01*
X155445863Y-98471980D02*
X155398244Y-98519600D01*
X155398244Y-98519600D02*
X155303006Y-98567219D01*
X155303006Y-98567219D02*
X155017292Y-98567219D01*
X155017292Y-98567219D02*
X154922054Y-98519600D01*
X154922054Y-98519600D02*
X154874435Y-98471980D01*
X155779197Y-97567219D02*
X156112530Y-98567219D01*
X156112530Y-98567219D02*
X156445863Y-97567219D01*
X156683959Y-97567219D02*
X157303006Y-97567219D01*
X157303006Y-97567219D02*
X156969673Y-97948171D01*
X156969673Y-97948171D02*
X157112530Y-97948171D01*
X157112530Y-97948171D02*
X157207768Y-97995790D01*
X157207768Y-97995790D02*
X157255387Y-98043409D01*
X157255387Y-98043409D02*
X157303006Y-98138647D01*
X157303006Y-98138647D02*
X157303006Y-98376742D01*
X157303006Y-98376742D02*
X157255387Y-98471980D01*
X157255387Y-98471980D02*
X157207768Y-98519600D01*
X157207768Y-98519600D02*
X157112530Y-98567219D01*
X157112530Y-98567219D02*
X156826816Y-98567219D01*
X156826816Y-98567219D02*
X156731578Y-98519600D01*
X156731578Y-98519600D02*
X156683959Y-98471980D01*
D12*
X161633333Y-127059580D02*
X161585714Y-127107200D01*
X161585714Y-127107200D02*
X161442857Y-127154819D01*
X161442857Y-127154819D02*
X161347619Y-127154819D01*
X161347619Y-127154819D02*
X161204762Y-127107200D01*
X161204762Y-127107200D02*
X161109524Y-127011961D01*
X161109524Y-127011961D02*
X161061905Y-126916723D01*
X161061905Y-126916723D02*
X161014286Y-126726247D01*
X161014286Y-126726247D02*
X161014286Y-126583390D01*
X161014286Y-126583390D02*
X161061905Y-126392914D01*
X161061905Y-126392914D02*
X161109524Y-126297676D01*
X161109524Y-126297676D02*
X161204762Y-126202438D01*
X161204762Y-126202438D02*
X161347619Y-126154819D01*
X161347619Y-126154819D02*
X161442857Y-126154819D01*
X161442857Y-126154819D02*
X161585714Y-126202438D01*
X161585714Y-126202438D02*
X161633333Y-126250057D01*
X162490476Y-126488152D02*
X162490476Y-127154819D01*
X162252381Y-126107200D02*
X162014286Y-126821485D01*
X162014286Y-126821485D02*
X162633333Y-126821485D01*
D13*
X208221380Y-101625842D02*
X208402809Y-101686318D01*
X208402809Y-101686318D02*
X208705190Y-101686318D01*
X208705190Y-101686318D02*
X208826142Y-101625842D01*
X208826142Y-101625842D02*
X208886618Y-101565365D01*
X208886618Y-101565365D02*
X208947095Y-101444413D01*
X208947095Y-101444413D02*
X208947095Y-101323461D01*
X208947095Y-101323461D02*
X208886618Y-101202508D01*
X208886618Y-101202508D02*
X208826142Y-101142032D01*
X208826142Y-101142032D02*
X208705190Y-101081556D01*
X208705190Y-101081556D02*
X208463285Y-101021080D01*
X208463285Y-101021080D02*
X208342333Y-100960603D01*
X208342333Y-100960603D02*
X208281856Y-100900127D01*
X208281856Y-100900127D02*
X208221380Y-100779175D01*
X208221380Y-100779175D02*
X208221380Y-100658222D01*
X208221380Y-100658222D02*
X208281856Y-100537270D01*
X208281856Y-100537270D02*
X208342333Y-100476794D01*
X208342333Y-100476794D02*
X208463285Y-100416318D01*
X208463285Y-100416318D02*
X208765666Y-100416318D01*
X208765666Y-100416318D02*
X208947095Y-100476794D01*
X209430904Y-100537270D02*
X209491380Y-100476794D01*
X209491380Y-100476794D02*
X209612333Y-100416318D01*
X209612333Y-100416318D02*
X209914714Y-100416318D01*
X209914714Y-100416318D02*
X210035666Y-100476794D01*
X210035666Y-100476794D02*
X210096142Y-100537270D01*
X210096142Y-100537270D02*
X210156619Y-100658222D01*
X210156619Y-100658222D02*
X210156619Y-100779175D01*
X210156619Y-100779175D02*
X210096142Y-100960603D01*
X210096142Y-100960603D02*
X209370428Y-101686318D01*
X209370428Y-101686318D02*
X210156619Y-101686318D01*
D12*
X172754761Y-124750057D02*
X172659523Y-124702438D01*
X172659523Y-124702438D02*
X172564285Y-124607200D01*
X172564285Y-124607200D02*
X172421428Y-124464342D01*
X172421428Y-124464342D02*
X172326190Y-124416723D01*
X172326190Y-124416723D02*
X172230952Y-124416723D01*
X172278571Y-124654819D02*
X172183333Y-124607200D01*
X172183333Y-124607200D02*
X172088095Y-124511961D01*
X172088095Y-124511961D02*
X172040476Y-124321485D01*
X172040476Y-124321485D02*
X172040476Y-123988152D01*
X172040476Y-123988152D02*
X172088095Y-123797676D01*
X172088095Y-123797676D02*
X172183333Y-123702438D01*
X172183333Y-123702438D02*
X172278571Y-123654819D01*
X172278571Y-123654819D02*
X172469047Y-123654819D01*
X172469047Y-123654819D02*
X172564285Y-123702438D01*
X172564285Y-123702438D02*
X172659523Y-123797676D01*
X172659523Y-123797676D02*
X172707142Y-123988152D01*
X172707142Y-123988152D02*
X172707142Y-124321485D01*
X172707142Y-124321485D02*
X172659523Y-124511961D01*
X172659523Y-124511961D02*
X172564285Y-124607200D01*
X172564285Y-124607200D02*
X172469047Y-124654819D01*
X172469047Y-124654819D02*
X172278571Y-124654819D01*
X173659523Y-124654819D02*
X173088095Y-124654819D01*
X173373809Y-124654819D02*
X173373809Y-123654819D01*
X173373809Y-123654819D02*
X173278571Y-123797676D01*
X173278571Y-123797676D02*
X173183333Y-123892914D01*
X173183333Y-123892914D02*
X173088095Y-123940533D01*
X176633333Y-127354819D02*
X176300000Y-126878628D01*
X176061905Y-127354819D02*
X176061905Y-126354819D01*
X176061905Y-126354819D02*
X176442857Y-126354819D01*
X176442857Y-126354819D02*
X176538095Y-126402438D01*
X176538095Y-126402438D02*
X176585714Y-126450057D01*
X176585714Y-126450057D02*
X176633333Y-126545295D01*
X176633333Y-126545295D02*
X176633333Y-126688152D01*
X176633333Y-126688152D02*
X176585714Y-126783390D01*
X176585714Y-126783390D02*
X176538095Y-126831009D01*
X176538095Y-126831009D02*
X176442857Y-126878628D01*
X176442857Y-126878628D02*
X176061905Y-126878628D01*
X176966667Y-126354819D02*
X177585714Y-126354819D01*
X177585714Y-126354819D02*
X177252381Y-126735771D01*
X177252381Y-126735771D02*
X177395238Y-126735771D01*
X177395238Y-126735771D02*
X177490476Y-126783390D01*
X177490476Y-126783390D02*
X177538095Y-126831009D01*
X177538095Y-126831009D02*
X177585714Y-126926247D01*
X177585714Y-126926247D02*
X177585714Y-127164342D01*
X177585714Y-127164342D02*
X177538095Y-127259580D01*
X177538095Y-127259580D02*
X177490476Y-127307200D01*
X177490476Y-127307200D02*
X177395238Y-127354819D01*
X177395238Y-127354819D02*
X177109524Y-127354819D01*
X177109524Y-127354819D02*
X177014286Y-127307200D01*
X177014286Y-127307200D02*
X176966667Y-127259580D01*
X220254819Y-113642857D02*
X219778628Y-113976190D01*
X220254819Y-114214285D02*
X219254819Y-114214285D01*
X219254819Y-114214285D02*
X219254819Y-113833333D01*
X219254819Y-113833333D02*
X219302438Y-113738095D01*
X219302438Y-113738095D02*
X219350057Y-113690476D01*
X219350057Y-113690476D02*
X219445295Y-113642857D01*
X219445295Y-113642857D02*
X219588152Y-113642857D01*
X219588152Y-113642857D02*
X219683390Y-113690476D01*
X219683390Y-113690476D02*
X219731009Y-113738095D01*
X219731009Y-113738095D02*
X219778628Y-113833333D01*
X219778628Y-113833333D02*
X219778628Y-114214285D01*
X220254819Y-112690476D02*
X220254819Y-113261904D01*
X220254819Y-112976190D02*
X219254819Y-112976190D01*
X219254819Y-112976190D02*
X219397676Y-113071428D01*
X219397676Y-113071428D02*
X219492914Y-113166666D01*
X219492914Y-113166666D02*
X219540533Y-113261904D01*
X220254819Y-111738095D02*
X220254819Y-112309523D01*
X220254819Y-112023809D02*
X219254819Y-112023809D01*
X219254819Y-112023809D02*
X219397676Y-112119047D01*
X219397676Y-112119047D02*
X219492914Y-112214285D01*
X219492914Y-112214285D02*
X219540533Y-112309523D01*
X218104819Y-113792857D02*
X217628628Y-114126190D01*
X218104819Y-114364285D02*
X217104819Y-114364285D01*
X217104819Y-114364285D02*
X217104819Y-113983333D01*
X217104819Y-113983333D02*
X217152438Y-113888095D01*
X217152438Y-113888095D02*
X217200057Y-113840476D01*
X217200057Y-113840476D02*
X217295295Y-113792857D01*
X217295295Y-113792857D02*
X217438152Y-113792857D01*
X217438152Y-113792857D02*
X217533390Y-113840476D01*
X217533390Y-113840476D02*
X217581009Y-113888095D01*
X217581009Y-113888095D02*
X217628628Y-113983333D01*
X217628628Y-113983333D02*
X217628628Y-114364285D01*
X218104819Y-112840476D02*
X218104819Y-113411904D01*
X218104819Y-113126190D02*
X217104819Y-113126190D01*
X217104819Y-113126190D02*
X217247676Y-113221428D01*
X217247676Y-113221428D02*
X217342914Y-113316666D01*
X217342914Y-113316666D02*
X217390533Y-113411904D01*
X217200057Y-112459523D02*
X217152438Y-112411904D01*
X217152438Y-112411904D02*
X217104819Y-112316666D01*
X217104819Y-112316666D02*
X217104819Y-112078571D01*
X217104819Y-112078571D02*
X217152438Y-111983333D01*
X217152438Y-111983333D02*
X217200057Y-111935714D01*
X217200057Y-111935714D02*
X217295295Y-111888095D01*
X217295295Y-111888095D02*
X217390533Y-111888095D01*
X217390533Y-111888095D02*
X217533390Y-111935714D01*
X217533390Y-111935714D02*
X218104819Y-112507142D01*
X218104819Y-112507142D02*
X218104819Y-111888095D01*
X165459580Y-125016666D02*
X165507200Y-125064285D01*
X165507200Y-125064285D02*
X165554819Y-125207142D01*
X165554819Y-125207142D02*
X165554819Y-125302380D01*
X165554819Y-125302380D02*
X165507200Y-125445237D01*
X165507200Y-125445237D02*
X165411961Y-125540475D01*
X165411961Y-125540475D02*
X165316723Y-125588094D01*
X165316723Y-125588094D02*
X165126247Y-125635713D01*
X165126247Y-125635713D02*
X164983390Y-125635713D01*
X164983390Y-125635713D02*
X164792914Y-125588094D01*
X164792914Y-125588094D02*
X164697676Y-125540475D01*
X164697676Y-125540475D02*
X164602438Y-125445237D01*
X164602438Y-125445237D02*
X164554819Y-125302380D01*
X164554819Y-125302380D02*
X164554819Y-125207142D01*
X164554819Y-125207142D02*
X164602438Y-125064285D01*
X164602438Y-125064285D02*
X164650057Y-125016666D01*
X164554819Y-124683332D02*
X164554819Y-124064285D01*
X164554819Y-124064285D02*
X164935771Y-124397618D01*
X164935771Y-124397618D02*
X164935771Y-124254761D01*
X164935771Y-124254761D02*
X164983390Y-124159523D01*
X164983390Y-124159523D02*
X165031009Y-124111904D01*
X165031009Y-124111904D02*
X165126247Y-124064285D01*
X165126247Y-124064285D02*
X165364342Y-124064285D01*
X165364342Y-124064285D02*
X165459580Y-124111904D01*
X165459580Y-124111904D02*
X165507200Y-124159523D01*
X165507200Y-124159523D02*
X165554819Y-124254761D01*
X165554819Y-124254761D02*
X165554819Y-124540475D01*
X165554819Y-124540475D02*
X165507200Y-124635713D01*
X165507200Y-124635713D02*
X165459580Y-124683332D01*
X193304819Y-121692857D02*
X192828628Y-122026190D01*
X193304819Y-122264285D02*
X192304819Y-122264285D01*
X192304819Y-122264285D02*
X192304819Y-121883333D01*
X192304819Y-121883333D02*
X192352438Y-121788095D01*
X192352438Y-121788095D02*
X192400057Y-121740476D01*
X192400057Y-121740476D02*
X192495295Y-121692857D01*
X192495295Y-121692857D02*
X192638152Y-121692857D01*
X192638152Y-121692857D02*
X192733390Y-121740476D01*
X192733390Y-121740476D02*
X192781009Y-121788095D01*
X192781009Y-121788095D02*
X192828628Y-121883333D01*
X192828628Y-121883333D02*
X192828628Y-122264285D01*
X193304819Y-120740476D02*
X193304819Y-121311904D01*
X193304819Y-121026190D02*
X192304819Y-121026190D01*
X192304819Y-121026190D02*
X192447676Y-121121428D01*
X192447676Y-121121428D02*
X192542914Y-121216666D01*
X192542914Y-121216666D02*
X192590533Y-121311904D01*
X192304819Y-120121428D02*
X192304819Y-120026190D01*
X192304819Y-120026190D02*
X192352438Y-119930952D01*
X192352438Y-119930952D02*
X192400057Y-119883333D01*
X192400057Y-119883333D02*
X192495295Y-119835714D01*
X192495295Y-119835714D02*
X192685771Y-119788095D01*
X192685771Y-119788095D02*
X192923866Y-119788095D01*
X192923866Y-119788095D02*
X193114342Y-119835714D01*
X193114342Y-119835714D02*
X193209580Y-119883333D01*
X193209580Y-119883333D02*
X193257200Y-119930952D01*
X193257200Y-119930952D02*
X193304819Y-120026190D01*
X193304819Y-120026190D02*
X193304819Y-120121428D01*
X193304819Y-120121428D02*
X193257200Y-120216666D01*
X193257200Y-120216666D02*
X193209580Y-120264285D01*
X193209580Y-120264285D02*
X193114342Y-120311904D01*
X193114342Y-120311904D02*
X192923866Y-120359523D01*
X192923866Y-120359523D02*
X192685771Y-120359523D01*
X192685771Y-120359523D02*
X192495295Y-120311904D01*
X192495295Y-120311904D02*
X192400057Y-120264285D01*
X192400057Y-120264285D02*
X192352438Y-120216666D01*
X192352438Y-120216666D02*
X192304819Y-120121428D01*
X164688095Y-97754819D02*
X164688095Y-98564342D01*
X164688095Y-98564342D02*
X164735714Y-98659580D01*
X164735714Y-98659580D02*
X164783333Y-98707200D01*
X164783333Y-98707200D02*
X164878571Y-98754819D01*
X164878571Y-98754819D02*
X165069047Y-98754819D01*
X165069047Y-98754819D02*
X165164285Y-98707200D01*
X165164285Y-98707200D02*
X165211904Y-98659580D01*
X165211904Y-98659580D02*
X165259523Y-98564342D01*
X165259523Y-98564342D02*
X165259523Y-97754819D01*
X166164285Y-98088152D02*
X166164285Y-98754819D01*
X165926190Y-97707200D02*
X165688095Y-98421485D01*
X165688095Y-98421485D02*
X166307142Y-98421485D01*
X173804761Y-117100057D02*
X173709523Y-117052438D01*
X173709523Y-117052438D02*
X173614285Y-116957200D01*
X173614285Y-116957200D02*
X173471428Y-116814342D01*
X173471428Y-116814342D02*
X173376190Y-116766723D01*
X173376190Y-116766723D02*
X173280952Y-116766723D01*
X173328571Y-117004819D02*
X173233333Y-116957200D01*
X173233333Y-116957200D02*
X173138095Y-116861961D01*
X173138095Y-116861961D02*
X173090476Y-116671485D01*
X173090476Y-116671485D02*
X173090476Y-116338152D01*
X173090476Y-116338152D02*
X173138095Y-116147676D01*
X173138095Y-116147676D02*
X173233333Y-116052438D01*
X173233333Y-116052438D02*
X173328571Y-116004819D01*
X173328571Y-116004819D02*
X173519047Y-116004819D01*
X173519047Y-116004819D02*
X173614285Y-116052438D01*
X173614285Y-116052438D02*
X173709523Y-116147676D01*
X173709523Y-116147676D02*
X173757142Y-116338152D01*
X173757142Y-116338152D02*
X173757142Y-116671485D01*
X173757142Y-116671485D02*
X173709523Y-116861961D01*
X173709523Y-116861961D02*
X173614285Y-116957200D01*
X173614285Y-116957200D02*
X173519047Y-117004819D01*
X173519047Y-117004819D02*
X173328571Y-117004819D01*
X174138095Y-116100057D02*
X174185714Y-116052438D01*
X174185714Y-116052438D02*
X174280952Y-116004819D01*
X174280952Y-116004819D02*
X174519047Y-116004819D01*
X174519047Y-116004819D02*
X174614285Y-116052438D01*
X174614285Y-116052438D02*
X174661904Y-116100057D01*
X174661904Y-116100057D02*
X174709523Y-116195295D01*
X174709523Y-116195295D02*
X174709523Y-116290533D01*
X174709523Y-116290533D02*
X174661904Y-116433390D01*
X174661904Y-116433390D02*
X174090476Y-117004819D01*
X174090476Y-117004819D02*
X174709523Y-117004819D01*
X154011905Y-102704819D02*
X154011905Y-101704819D01*
X154011905Y-101704819D02*
X154250000Y-101704819D01*
X154250000Y-101704819D02*
X154392857Y-101752438D01*
X154392857Y-101752438D02*
X154488095Y-101847676D01*
X154488095Y-101847676D02*
X154535714Y-101942914D01*
X154535714Y-101942914D02*
X154583333Y-102133390D01*
X154583333Y-102133390D02*
X154583333Y-102276247D01*
X154583333Y-102276247D02*
X154535714Y-102466723D01*
X154535714Y-102466723D02*
X154488095Y-102561961D01*
X154488095Y-102561961D02*
X154392857Y-102657200D01*
X154392857Y-102657200D02*
X154250000Y-102704819D01*
X154250000Y-102704819D02*
X154011905Y-102704819D01*
X155535714Y-102704819D02*
X154964286Y-102704819D01*
X155250000Y-102704819D02*
X155250000Y-101704819D01*
X155250000Y-101704819D02*
X155154762Y-101847676D01*
X155154762Y-101847676D02*
X155059524Y-101942914D01*
X155059524Y-101942914D02*
X154964286Y-101990533D01*
X171983333Y-107509580D02*
X171935714Y-107557200D01*
X171935714Y-107557200D02*
X171792857Y-107604819D01*
X171792857Y-107604819D02*
X171697619Y-107604819D01*
X171697619Y-107604819D02*
X171554762Y-107557200D01*
X171554762Y-107557200D02*
X171459524Y-107461961D01*
X171459524Y-107461961D02*
X171411905Y-107366723D01*
X171411905Y-107366723D02*
X171364286Y-107176247D01*
X171364286Y-107176247D02*
X171364286Y-107033390D01*
X171364286Y-107033390D02*
X171411905Y-106842914D01*
X171411905Y-106842914D02*
X171459524Y-106747676D01*
X171459524Y-106747676D02*
X171554762Y-106652438D01*
X171554762Y-106652438D02*
X171697619Y-106604819D01*
X171697619Y-106604819D02*
X171792857Y-106604819D01*
X171792857Y-106604819D02*
X171935714Y-106652438D01*
X171935714Y-106652438D02*
X171983333Y-106700057D01*
X172840476Y-106604819D02*
X172650000Y-106604819D01*
X172650000Y-106604819D02*
X172554762Y-106652438D01*
X172554762Y-106652438D02*
X172507143Y-106700057D01*
X172507143Y-106700057D02*
X172411905Y-106842914D01*
X172411905Y-106842914D02*
X172364286Y-107033390D01*
X172364286Y-107033390D02*
X172364286Y-107414342D01*
X172364286Y-107414342D02*
X172411905Y-107509580D01*
X172411905Y-107509580D02*
X172459524Y-107557200D01*
X172459524Y-107557200D02*
X172554762Y-107604819D01*
X172554762Y-107604819D02*
X172745238Y-107604819D01*
X172745238Y-107604819D02*
X172840476Y-107557200D01*
X172840476Y-107557200D02*
X172888095Y-107509580D01*
X172888095Y-107509580D02*
X172935714Y-107414342D01*
X172935714Y-107414342D02*
X172935714Y-107176247D01*
X172935714Y-107176247D02*
X172888095Y-107081009D01*
X172888095Y-107081009D02*
X172840476Y-107033390D01*
X172840476Y-107033390D02*
X172745238Y-106985771D01*
X172745238Y-106985771D02*
X172554762Y-106985771D01*
X172554762Y-106985771D02*
X172459524Y-107033390D01*
X172459524Y-107033390D02*
X172411905Y-107081009D01*
X172411905Y-107081009D02*
X172364286Y-107176247D01*
X171933333Y-111609580D02*
X171885714Y-111657200D01*
X171885714Y-111657200D02*
X171742857Y-111704819D01*
X171742857Y-111704819D02*
X171647619Y-111704819D01*
X171647619Y-111704819D02*
X171504762Y-111657200D01*
X171504762Y-111657200D02*
X171409524Y-111561961D01*
X171409524Y-111561961D02*
X171361905Y-111466723D01*
X171361905Y-111466723D02*
X171314286Y-111276247D01*
X171314286Y-111276247D02*
X171314286Y-111133390D01*
X171314286Y-111133390D02*
X171361905Y-110942914D01*
X171361905Y-110942914D02*
X171409524Y-110847676D01*
X171409524Y-110847676D02*
X171504762Y-110752438D01*
X171504762Y-110752438D02*
X171647619Y-110704819D01*
X171647619Y-110704819D02*
X171742857Y-110704819D01*
X171742857Y-110704819D02*
X171885714Y-110752438D01*
X171885714Y-110752438D02*
X171933333Y-110800057D01*
X172314286Y-110800057D02*
X172361905Y-110752438D01*
X172361905Y-110752438D02*
X172457143Y-110704819D01*
X172457143Y-110704819D02*
X172695238Y-110704819D01*
X172695238Y-110704819D02*
X172790476Y-110752438D01*
X172790476Y-110752438D02*
X172838095Y-110800057D01*
X172838095Y-110800057D02*
X172885714Y-110895295D01*
X172885714Y-110895295D02*
X172885714Y-110990533D01*
X172885714Y-110990533D02*
X172838095Y-111133390D01*
X172838095Y-111133390D02*
X172266667Y-111704819D01*
X172266667Y-111704819D02*
X172885714Y-111704819D01*
X219107142Y-124309580D02*
X219059523Y-124357200D01*
X219059523Y-124357200D02*
X218916666Y-124404819D01*
X218916666Y-124404819D02*
X218821428Y-124404819D01*
X218821428Y-124404819D02*
X218678571Y-124357200D01*
X218678571Y-124357200D02*
X218583333Y-124261961D01*
X218583333Y-124261961D02*
X218535714Y-124166723D01*
X218535714Y-124166723D02*
X218488095Y-123976247D01*
X218488095Y-123976247D02*
X218488095Y-123833390D01*
X218488095Y-123833390D02*
X218535714Y-123642914D01*
X218535714Y-123642914D02*
X218583333Y-123547676D01*
X218583333Y-123547676D02*
X218678571Y-123452438D01*
X218678571Y-123452438D02*
X218821428Y-123404819D01*
X218821428Y-123404819D02*
X218916666Y-123404819D01*
X218916666Y-123404819D02*
X219059523Y-123452438D01*
X219059523Y-123452438D02*
X219107142Y-123500057D01*
X220059523Y-124404819D02*
X219488095Y-124404819D01*
X219773809Y-124404819D02*
X219773809Y-123404819D01*
X219773809Y-123404819D02*
X219678571Y-123547676D01*
X219678571Y-123547676D02*
X219583333Y-123642914D01*
X219583333Y-123642914D02*
X219488095Y-123690533D01*
X220630952Y-123833390D02*
X220535714Y-123785771D01*
X220535714Y-123785771D02*
X220488095Y-123738152D01*
X220488095Y-123738152D02*
X220440476Y-123642914D01*
X220440476Y-123642914D02*
X220440476Y-123595295D01*
X220440476Y-123595295D02*
X220488095Y-123500057D01*
X220488095Y-123500057D02*
X220535714Y-123452438D01*
X220535714Y-123452438D02*
X220630952Y-123404819D01*
X220630952Y-123404819D02*
X220821428Y-123404819D01*
X220821428Y-123404819D02*
X220916666Y-123452438D01*
X220916666Y-123452438D02*
X220964285Y-123500057D01*
X220964285Y-123500057D02*
X221011904Y-123595295D01*
X221011904Y-123595295D02*
X221011904Y-123642914D01*
X221011904Y-123642914D02*
X220964285Y-123738152D01*
X220964285Y-123738152D02*
X220916666Y-123785771D01*
X220916666Y-123785771D02*
X220821428Y-123833390D01*
X220821428Y-123833390D02*
X220630952Y-123833390D01*
X220630952Y-123833390D02*
X220535714Y-123881009D01*
X220535714Y-123881009D02*
X220488095Y-123928628D01*
X220488095Y-123928628D02*
X220440476Y-124023866D01*
X220440476Y-124023866D02*
X220440476Y-124214342D01*
X220440476Y-124214342D02*
X220488095Y-124309580D01*
X220488095Y-124309580D02*
X220535714Y-124357200D01*
X220535714Y-124357200D02*
X220630952Y-124404819D01*
X220630952Y-124404819D02*
X220821428Y-124404819D01*
X220821428Y-124404819D02*
X220916666Y-124357200D01*
X220916666Y-124357200D02*
X220964285Y-124309580D01*
X220964285Y-124309580D02*
X221011904Y-124214342D01*
X221011904Y-124214342D02*
X221011904Y-124023866D01*
X221011904Y-124023866D02*
X220964285Y-123928628D01*
X220964285Y-123928628D02*
X220916666Y-123881009D01*
X220916666Y-123881009D02*
X220821428Y-123833390D01*
X176354819Y-121266666D02*
X175878628Y-121599999D01*
X176354819Y-121838094D02*
X175354819Y-121838094D01*
X175354819Y-121838094D02*
X175354819Y-121457142D01*
X175354819Y-121457142D02*
X175402438Y-121361904D01*
X175402438Y-121361904D02*
X175450057Y-121314285D01*
X175450057Y-121314285D02*
X175545295Y-121266666D01*
X175545295Y-121266666D02*
X175688152Y-121266666D01*
X175688152Y-121266666D02*
X175783390Y-121314285D01*
X175783390Y-121314285D02*
X175831009Y-121361904D01*
X175831009Y-121361904D02*
X175878628Y-121457142D01*
X175878628Y-121457142D02*
X175878628Y-121838094D01*
X175354819Y-120361904D02*
X175354819Y-120838094D01*
X175354819Y-120838094D02*
X175831009Y-120885713D01*
X175831009Y-120885713D02*
X175783390Y-120838094D01*
X175783390Y-120838094D02*
X175735771Y-120742856D01*
X175735771Y-120742856D02*
X175735771Y-120504761D01*
X175735771Y-120504761D02*
X175783390Y-120409523D01*
X175783390Y-120409523D02*
X175831009Y-120361904D01*
X175831009Y-120361904D02*
X175926247Y-120314285D01*
X175926247Y-120314285D02*
X176164342Y-120314285D01*
X176164342Y-120314285D02*
X176259580Y-120361904D01*
X176259580Y-120361904D02*
X176307200Y-120409523D01*
X176307200Y-120409523D02*
X176354819Y-120504761D01*
X176354819Y-120504761D02*
X176354819Y-120742856D01*
X176354819Y-120742856D02*
X176307200Y-120838094D01*
X176307200Y-120838094D02*
X176259580Y-120885713D01*
X152683333Y-122304819D02*
X152350000Y-121828628D01*
X152111905Y-122304819D02*
X152111905Y-121304819D01*
X152111905Y-121304819D02*
X152492857Y-121304819D01*
X152492857Y-121304819D02*
X152588095Y-121352438D01*
X152588095Y-121352438D02*
X152635714Y-121400057D01*
X152635714Y-121400057D02*
X152683333Y-121495295D01*
X152683333Y-121495295D02*
X152683333Y-121638152D01*
X152683333Y-121638152D02*
X152635714Y-121733390D01*
X152635714Y-121733390D02*
X152588095Y-121781009D01*
X152588095Y-121781009D02*
X152492857Y-121828628D01*
X152492857Y-121828628D02*
X152111905Y-121828628D01*
X153254762Y-121733390D02*
X153159524Y-121685771D01*
X153159524Y-121685771D02*
X153111905Y-121638152D01*
X153111905Y-121638152D02*
X153064286Y-121542914D01*
X153064286Y-121542914D02*
X153064286Y-121495295D01*
X153064286Y-121495295D02*
X153111905Y-121400057D01*
X153111905Y-121400057D02*
X153159524Y-121352438D01*
X153159524Y-121352438D02*
X153254762Y-121304819D01*
X153254762Y-121304819D02*
X153445238Y-121304819D01*
X153445238Y-121304819D02*
X153540476Y-121352438D01*
X153540476Y-121352438D02*
X153588095Y-121400057D01*
X153588095Y-121400057D02*
X153635714Y-121495295D01*
X153635714Y-121495295D02*
X153635714Y-121542914D01*
X153635714Y-121542914D02*
X153588095Y-121638152D01*
X153588095Y-121638152D02*
X153540476Y-121685771D01*
X153540476Y-121685771D02*
X153445238Y-121733390D01*
X153445238Y-121733390D02*
X153254762Y-121733390D01*
X153254762Y-121733390D02*
X153159524Y-121781009D01*
X153159524Y-121781009D02*
X153111905Y-121828628D01*
X153111905Y-121828628D02*
X153064286Y-121923866D01*
X153064286Y-121923866D02*
X153064286Y-122114342D01*
X153064286Y-122114342D02*
X153111905Y-122209580D01*
X153111905Y-122209580D02*
X153159524Y-122257200D01*
X153159524Y-122257200D02*
X153254762Y-122304819D01*
X153254762Y-122304819D02*
X153445238Y-122304819D01*
X153445238Y-122304819D02*
X153540476Y-122257200D01*
X153540476Y-122257200D02*
X153588095Y-122209580D01*
X153588095Y-122209580D02*
X153635714Y-122114342D01*
X153635714Y-122114342D02*
X153635714Y-121923866D01*
X153635714Y-121923866D02*
X153588095Y-121828628D01*
X153588095Y-121828628D02*
X153540476Y-121781009D01*
X153540476Y-121781009D02*
X153445238Y-121733390D01*
X214833333Y-106109580D02*
X214785714Y-106157200D01*
X214785714Y-106157200D02*
X214642857Y-106204819D01*
X214642857Y-106204819D02*
X214547619Y-106204819D01*
X214547619Y-106204819D02*
X214404762Y-106157200D01*
X214404762Y-106157200D02*
X214309524Y-106061961D01*
X214309524Y-106061961D02*
X214261905Y-105966723D01*
X214261905Y-105966723D02*
X214214286Y-105776247D01*
X214214286Y-105776247D02*
X214214286Y-105633390D01*
X214214286Y-105633390D02*
X214261905Y-105442914D01*
X214261905Y-105442914D02*
X214309524Y-105347676D01*
X214309524Y-105347676D02*
X214404762Y-105252438D01*
X214404762Y-105252438D02*
X214547619Y-105204819D01*
X214547619Y-105204819D02*
X214642857Y-105204819D01*
X214642857Y-105204819D02*
X214785714Y-105252438D01*
X214785714Y-105252438D02*
X214833333Y-105300057D01*
X215738095Y-105204819D02*
X215261905Y-105204819D01*
X215261905Y-105204819D02*
X215214286Y-105681009D01*
X215214286Y-105681009D02*
X215261905Y-105633390D01*
X215261905Y-105633390D02*
X215357143Y-105585771D01*
X215357143Y-105585771D02*
X215595238Y-105585771D01*
X215595238Y-105585771D02*
X215690476Y-105633390D01*
X215690476Y-105633390D02*
X215738095Y-105681009D01*
X215738095Y-105681009D02*
X215785714Y-105776247D01*
X215785714Y-105776247D02*
X215785714Y-106014342D01*
X215785714Y-106014342D02*
X215738095Y-106109580D01*
X215738095Y-106109580D02*
X215690476Y-106157200D01*
X215690476Y-106157200D02*
X215595238Y-106204819D01*
X215595238Y-106204819D02*
X215357143Y-106204819D01*
X215357143Y-106204819D02*
X215261905Y-106157200D01*
X215261905Y-106157200D02*
X215214286Y-106109580D01*
X171033333Y-97534580D02*
X170985714Y-97582200D01*
X170985714Y-97582200D02*
X170842857Y-97629819D01*
X170842857Y-97629819D02*
X170747619Y-97629819D01*
X170747619Y-97629819D02*
X170604762Y-97582200D01*
X170604762Y-97582200D02*
X170509524Y-97486961D01*
X170509524Y-97486961D02*
X170461905Y-97391723D01*
X170461905Y-97391723D02*
X170414286Y-97201247D01*
X170414286Y-97201247D02*
X170414286Y-97058390D01*
X170414286Y-97058390D02*
X170461905Y-96867914D01*
X170461905Y-96867914D02*
X170509524Y-96772676D01*
X170509524Y-96772676D02*
X170604762Y-96677438D01*
X170604762Y-96677438D02*
X170747619Y-96629819D01*
X170747619Y-96629819D02*
X170842857Y-96629819D01*
X170842857Y-96629819D02*
X170985714Y-96677438D01*
X170985714Y-96677438D02*
X171033333Y-96725057D01*
X171509524Y-97629819D02*
X171700000Y-97629819D01*
X171700000Y-97629819D02*
X171795238Y-97582200D01*
X171795238Y-97582200D02*
X171842857Y-97534580D01*
X171842857Y-97534580D02*
X171938095Y-97391723D01*
X171938095Y-97391723D02*
X171985714Y-97201247D01*
X171985714Y-97201247D02*
X171985714Y-96820295D01*
X171985714Y-96820295D02*
X171938095Y-96725057D01*
X171938095Y-96725057D02*
X171890476Y-96677438D01*
X171890476Y-96677438D02*
X171795238Y-96629819D01*
X171795238Y-96629819D02*
X171604762Y-96629819D01*
X171604762Y-96629819D02*
X171509524Y-96677438D01*
X171509524Y-96677438D02*
X171461905Y-96725057D01*
X171461905Y-96725057D02*
X171414286Y-96820295D01*
X171414286Y-96820295D02*
X171414286Y-97058390D01*
X171414286Y-97058390D02*
X171461905Y-97153628D01*
X171461905Y-97153628D02*
X171509524Y-97201247D01*
X171509524Y-97201247D02*
X171604762Y-97248866D01*
X171604762Y-97248866D02*
X171795238Y-97248866D01*
X171795238Y-97248866D02*
X171890476Y-97201247D01*
X171890476Y-97201247D02*
X171938095Y-97153628D01*
X171938095Y-97153628D02*
X171985714Y-97058390D01*
X219157142Y-120354819D02*
X218823809Y-119878628D01*
X218585714Y-120354819D02*
X218585714Y-119354819D01*
X218585714Y-119354819D02*
X218966666Y-119354819D01*
X218966666Y-119354819D02*
X219061904Y-119402438D01*
X219061904Y-119402438D02*
X219109523Y-119450057D01*
X219109523Y-119450057D02*
X219157142Y-119545295D01*
X219157142Y-119545295D02*
X219157142Y-119688152D01*
X219157142Y-119688152D02*
X219109523Y-119783390D01*
X219109523Y-119783390D02*
X219061904Y-119831009D01*
X219061904Y-119831009D02*
X218966666Y-119878628D01*
X218966666Y-119878628D02*
X218585714Y-119878628D01*
X220109523Y-120354819D02*
X219538095Y-120354819D01*
X219823809Y-120354819D02*
X219823809Y-119354819D01*
X219823809Y-119354819D02*
X219728571Y-119497676D01*
X219728571Y-119497676D02*
X219633333Y-119592914D01*
X219633333Y-119592914D02*
X219538095Y-119640533D01*
X220966666Y-119688152D02*
X220966666Y-120354819D01*
X220728571Y-119307200D02*
X220490476Y-120021485D01*
X220490476Y-120021485D02*
X221109523Y-120021485D01*
X180233333Y-126204819D02*
X179900000Y-125728628D01*
X179661905Y-126204819D02*
X179661905Y-125204819D01*
X179661905Y-125204819D02*
X180042857Y-125204819D01*
X180042857Y-125204819D02*
X180138095Y-125252438D01*
X180138095Y-125252438D02*
X180185714Y-125300057D01*
X180185714Y-125300057D02*
X180233333Y-125395295D01*
X180233333Y-125395295D02*
X180233333Y-125538152D01*
X180233333Y-125538152D02*
X180185714Y-125633390D01*
X180185714Y-125633390D02*
X180138095Y-125681009D01*
X180138095Y-125681009D02*
X180042857Y-125728628D01*
X180042857Y-125728628D02*
X179661905Y-125728628D01*
X180614286Y-125300057D02*
X180661905Y-125252438D01*
X180661905Y-125252438D02*
X180757143Y-125204819D01*
X180757143Y-125204819D02*
X180995238Y-125204819D01*
X180995238Y-125204819D02*
X181090476Y-125252438D01*
X181090476Y-125252438D02*
X181138095Y-125300057D01*
X181138095Y-125300057D02*
X181185714Y-125395295D01*
X181185714Y-125395295D02*
X181185714Y-125490533D01*
X181185714Y-125490533D02*
X181138095Y-125633390D01*
X181138095Y-125633390D02*
X180566667Y-126204819D01*
X180566667Y-126204819D02*
X181185714Y-126204819D01*
X207204819Y-110561904D02*
X208014342Y-110561904D01*
X208014342Y-110561904D02*
X208109580Y-110514285D01*
X208109580Y-110514285D02*
X208157200Y-110466666D01*
X208157200Y-110466666D02*
X208204819Y-110371428D01*
X208204819Y-110371428D02*
X208204819Y-110180952D01*
X208204819Y-110180952D02*
X208157200Y-110085714D01*
X208157200Y-110085714D02*
X208109580Y-110038095D01*
X208109580Y-110038095D02*
X208014342Y-109990476D01*
X208014342Y-109990476D02*
X207204819Y-109990476D01*
X208204819Y-108990476D02*
X208204819Y-109561904D01*
X208204819Y-109276190D02*
X207204819Y-109276190D01*
X207204819Y-109276190D02*
X207347676Y-109371428D01*
X207347676Y-109371428D02*
X207442914Y-109466666D01*
X207442914Y-109466666D02*
X207490533Y-109561904D01*
X171933333Y-109609580D02*
X171885714Y-109657200D01*
X171885714Y-109657200D02*
X171742857Y-109704819D01*
X171742857Y-109704819D02*
X171647619Y-109704819D01*
X171647619Y-109704819D02*
X171504762Y-109657200D01*
X171504762Y-109657200D02*
X171409524Y-109561961D01*
X171409524Y-109561961D02*
X171361905Y-109466723D01*
X171361905Y-109466723D02*
X171314286Y-109276247D01*
X171314286Y-109276247D02*
X171314286Y-109133390D01*
X171314286Y-109133390D02*
X171361905Y-108942914D01*
X171361905Y-108942914D02*
X171409524Y-108847676D01*
X171409524Y-108847676D02*
X171504762Y-108752438D01*
X171504762Y-108752438D02*
X171647619Y-108704819D01*
X171647619Y-108704819D02*
X171742857Y-108704819D01*
X171742857Y-108704819D02*
X171885714Y-108752438D01*
X171885714Y-108752438D02*
X171933333Y-108800057D01*
X172885714Y-109704819D02*
X172314286Y-109704819D01*
X172600000Y-109704819D02*
X172600000Y-108704819D01*
X172600000Y-108704819D02*
X172504762Y-108847676D01*
X172504762Y-108847676D02*
X172409524Y-108942914D01*
X172409524Y-108942914D02*
X172314286Y-108990533D01*
X222407142Y-114709580D02*
X222359523Y-114757200D01*
X222359523Y-114757200D02*
X222216666Y-114804819D01*
X222216666Y-114804819D02*
X222121428Y-114804819D01*
X222121428Y-114804819D02*
X221978571Y-114757200D01*
X221978571Y-114757200D02*
X221883333Y-114661961D01*
X221883333Y-114661961D02*
X221835714Y-114566723D01*
X221835714Y-114566723D02*
X221788095Y-114376247D01*
X221788095Y-114376247D02*
X221788095Y-114233390D01*
X221788095Y-114233390D02*
X221835714Y-114042914D01*
X221835714Y-114042914D02*
X221883333Y-113947676D01*
X221883333Y-113947676D02*
X221978571Y-113852438D01*
X221978571Y-113852438D02*
X222121428Y-113804819D01*
X222121428Y-113804819D02*
X222216666Y-113804819D01*
X222216666Y-113804819D02*
X222359523Y-113852438D01*
X222359523Y-113852438D02*
X222407142Y-113900057D01*
X223359523Y-114804819D02*
X222788095Y-114804819D01*
X223073809Y-114804819D02*
X223073809Y-113804819D01*
X223073809Y-113804819D02*
X222978571Y-113947676D01*
X222978571Y-113947676D02*
X222883333Y-114042914D01*
X222883333Y-114042914D02*
X222788095Y-114090533D01*
X224216666Y-114138152D02*
X224216666Y-114804819D01*
X223978571Y-113757200D02*
X223740476Y-114471485D01*
X223740476Y-114471485D02*
X224359523Y-114471485D01*
X226590476Y-124454819D02*
X227209523Y-124454819D01*
X227209523Y-124454819D02*
X226876190Y-124835771D01*
X226876190Y-124835771D02*
X227019047Y-124835771D01*
X227019047Y-124835771D02*
X227114285Y-124883390D01*
X227114285Y-124883390D02*
X227161904Y-124931009D01*
X227161904Y-124931009D02*
X227209523Y-125026247D01*
X227209523Y-125026247D02*
X227209523Y-125264342D01*
X227209523Y-125264342D02*
X227161904Y-125359580D01*
X227161904Y-125359580D02*
X227114285Y-125407200D01*
X227114285Y-125407200D02*
X227019047Y-125454819D01*
X227019047Y-125454819D02*
X226733333Y-125454819D01*
X226733333Y-125454819D02*
X226638095Y-125407200D01*
X226638095Y-125407200D02*
X226590476Y-125359580D01*
X227828571Y-124454819D02*
X227923809Y-124454819D01*
X227923809Y-124454819D02*
X228019047Y-124502438D01*
X228019047Y-124502438D02*
X228066666Y-124550057D01*
X228066666Y-124550057D02*
X228114285Y-124645295D01*
X228114285Y-124645295D02*
X228161904Y-124835771D01*
X228161904Y-124835771D02*
X228161904Y-125073866D01*
X228161904Y-125073866D02*
X228114285Y-125264342D01*
X228114285Y-125264342D02*
X228066666Y-125359580D01*
X228066666Y-125359580D02*
X228019047Y-125407200D01*
X228019047Y-125407200D02*
X227923809Y-125454819D01*
X227923809Y-125454819D02*
X227828571Y-125454819D01*
X227828571Y-125454819D02*
X227733333Y-125407200D01*
X227733333Y-125407200D02*
X227685714Y-125359580D01*
X227685714Y-125359580D02*
X227638095Y-125264342D01*
X227638095Y-125264342D02*
X227590476Y-125073866D01*
X227590476Y-125073866D02*
X227590476Y-124835771D01*
X227590476Y-124835771D02*
X227638095Y-124645295D01*
X227638095Y-124645295D02*
X227685714Y-124550057D01*
X227685714Y-124550057D02*
X227733333Y-124502438D01*
X227733333Y-124502438D02*
X227828571Y-124454819D01*
X227685714Y-102404819D02*
X227114286Y-102404819D01*
X227400000Y-102404819D02*
X227400000Y-101404819D01*
X227400000Y-101404819D02*
X227304762Y-101547676D01*
X227304762Y-101547676D02*
X227209524Y-101642914D01*
X227209524Y-101642914D02*
X227114286Y-101690533D01*
X155104819Y-124938094D02*
X154104819Y-124938094D01*
X154104819Y-124938094D02*
X154104819Y-124699999D01*
X154104819Y-124699999D02*
X154152438Y-124557142D01*
X154152438Y-124557142D02*
X154247676Y-124461904D01*
X154247676Y-124461904D02*
X154342914Y-124414285D01*
X154342914Y-124414285D02*
X154533390Y-124366666D01*
X154533390Y-124366666D02*
X154676247Y-124366666D01*
X154676247Y-124366666D02*
X154866723Y-124414285D01*
X154866723Y-124414285D02*
X154961961Y-124461904D01*
X154961961Y-124461904D02*
X155057200Y-124557142D01*
X155057200Y-124557142D02*
X155104819Y-124699999D01*
X155104819Y-124699999D02*
X155104819Y-124938094D01*
X154200057Y-123985713D02*
X154152438Y-123938094D01*
X154152438Y-123938094D02*
X154104819Y-123842856D01*
X154104819Y-123842856D02*
X154104819Y-123604761D01*
X154104819Y-123604761D02*
X154152438Y-123509523D01*
X154152438Y-123509523D02*
X154200057Y-123461904D01*
X154200057Y-123461904D02*
X154295295Y-123414285D01*
X154295295Y-123414285D02*
X154390533Y-123414285D01*
X154390533Y-123414285D02*
X154533390Y-123461904D01*
X154533390Y-123461904D02*
X155104819Y-124033332D01*
X155104819Y-124033332D02*
X155104819Y-123414285D01*
X148310833Y-106864819D02*
X147977500Y-106388628D01*
X147739405Y-106864819D02*
X147739405Y-105864819D01*
X147739405Y-105864819D02*
X148120357Y-105864819D01*
X148120357Y-105864819D02*
X148215595Y-105912438D01*
X148215595Y-105912438D02*
X148263214Y-105960057D01*
X148263214Y-105960057D02*
X148310833Y-106055295D01*
X148310833Y-106055295D02*
X148310833Y-106198152D01*
X148310833Y-106198152D02*
X148263214Y-106293390D01*
X148263214Y-106293390D02*
X148215595Y-106341009D01*
X148215595Y-106341009D02*
X148120357Y-106388628D01*
X148120357Y-106388628D02*
X147739405Y-106388628D01*
X149167976Y-105864819D02*
X148977500Y-105864819D01*
X148977500Y-105864819D02*
X148882262Y-105912438D01*
X148882262Y-105912438D02*
X148834643Y-105960057D01*
X148834643Y-105960057D02*
X148739405Y-106102914D01*
X148739405Y-106102914D02*
X148691786Y-106293390D01*
X148691786Y-106293390D02*
X148691786Y-106674342D01*
X148691786Y-106674342D02*
X148739405Y-106769580D01*
X148739405Y-106769580D02*
X148787024Y-106817200D01*
X148787024Y-106817200D02*
X148882262Y-106864819D01*
X148882262Y-106864819D02*
X149072738Y-106864819D01*
X149072738Y-106864819D02*
X149167976Y-106817200D01*
X149167976Y-106817200D02*
X149215595Y-106769580D01*
X149215595Y-106769580D02*
X149263214Y-106674342D01*
X149263214Y-106674342D02*
X149263214Y-106436247D01*
X149263214Y-106436247D02*
X149215595Y-106341009D01*
X149215595Y-106341009D02*
X149167976Y-106293390D01*
X149167976Y-106293390D02*
X149072738Y-106245771D01*
X149072738Y-106245771D02*
X148882262Y-106245771D01*
X148882262Y-106245771D02*
X148787024Y-106293390D01*
X148787024Y-106293390D02*
X148739405Y-106341009D01*
X148739405Y-106341009D02*
X148691786Y-106436247D01*
X188757142Y-111359580D02*
X188709523Y-111407200D01*
X188709523Y-111407200D02*
X188566666Y-111454819D01*
X188566666Y-111454819D02*
X188471428Y-111454819D01*
X188471428Y-111454819D02*
X188328571Y-111407200D01*
X188328571Y-111407200D02*
X188233333Y-111311961D01*
X188233333Y-111311961D02*
X188185714Y-111216723D01*
X188185714Y-111216723D02*
X188138095Y-111026247D01*
X188138095Y-111026247D02*
X188138095Y-110883390D01*
X188138095Y-110883390D02*
X188185714Y-110692914D01*
X188185714Y-110692914D02*
X188233333Y-110597676D01*
X188233333Y-110597676D02*
X188328571Y-110502438D01*
X188328571Y-110502438D02*
X188471428Y-110454819D01*
X188471428Y-110454819D02*
X188566666Y-110454819D01*
X188566666Y-110454819D02*
X188709523Y-110502438D01*
X188709523Y-110502438D02*
X188757142Y-110550057D01*
X189709523Y-111454819D02*
X189138095Y-111454819D01*
X189423809Y-111454819D02*
X189423809Y-110454819D01*
X189423809Y-110454819D02*
X189328571Y-110597676D01*
X189328571Y-110597676D02*
X189233333Y-110692914D01*
X189233333Y-110692914D02*
X189138095Y-110740533D01*
X190090476Y-110550057D02*
X190138095Y-110502438D01*
X190138095Y-110502438D02*
X190233333Y-110454819D01*
X190233333Y-110454819D02*
X190471428Y-110454819D01*
X190471428Y-110454819D02*
X190566666Y-110502438D01*
X190566666Y-110502438D02*
X190614285Y-110550057D01*
X190614285Y-110550057D02*
X190661904Y-110645295D01*
X190661904Y-110645295D02*
X190661904Y-110740533D01*
X190661904Y-110740533D02*
X190614285Y-110883390D01*
X190614285Y-110883390D02*
X190042857Y-111454819D01*
X190042857Y-111454819D02*
X190661904Y-111454819D01*
X155119580Y-110322857D02*
X155167200Y-110370476D01*
X155167200Y-110370476D02*
X155214819Y-110513333D01*
X155214819Y-110513333D02*
X155214819Y-110608571D01*
X155214819Y-110608571D02*
X155167200Y-110751428D01*
X155167200Y-110751428D02*
X155071961Y-110846666D01*
X155071961Y-110846666D02*
X154976723Y-110894285D01*
X154976723Y-110894285D02*
X154786247Y-110941904D01*
X154786247Y-110941904D02*
X154643390Y-110941904D01*
X154643390Y-110941904D02*
X154452914Y-110894285D01*
X154452914Y-110894285D02*
X154357676Y-110846666D01*
X154357676Y-110846666D02*
X154262438Y-110751428D01*
X154262438Y-110751428D02*
X154214819Y-110608571D01*
X154214819Y-110608571D02*
X154214819Y-110513333D01*
X154214819Y-110513333D02*
X154262438Y-110370476D01*
X154262438Y-110370476D02*
X154310057Y-110322857D01*
X155214819Y-109370476D02*
X155214819Y-109941904D01*
X155214819Y-109656190D02*
X154214819Y-109656190D01*
X154214819Y-109656190D02*
X154357676Y-109751428D01*
X154357676Y-109751428D02*
X154452914Y-109846666D01*
X154452914Y-109846666D02*
X154500533Y-109941904D01*
X154214819Y-108751428D02*
X154214819Y-108656190D01*
X154214819Y-108656190D02*
X154262438Y-108560952D01*
X154262438Y-108560952D02*
X154310057Y-108513333D01*
X154310057Y-108513333D02*
X154405295Y-108465714D01*
X154405295Y-108465714D02*
X154595771Y-108418095D01*
X154595771Y-108418095D02*
X154833866Y-108418095D01*
X154833866Y-108418095D02*
X155024342Y-108465714D01*
X155024342Y-108465714D02*
X155119580Y-108513333D01*
X155119580Y-108513333D02*
X155167200Y-108560952D01*
X155167200Y-108560952D02*
X155214819Y-108656190D01*
X155214819Y-108656190D02*
X155214819Y-108751428D01*
X155214819Y-108751428D02*
X155167200Y-108846666D01*
X155167200Y-108846666D02*
X155119580Y-108894285D01*
X155119580Y-108894285D02*
X155024342Y-108941904D01*
X155024342Y-108941904D02*
X154833866Y-108989523D01*
X154833866Y-108989523D02*
X154595771Y-108989523D01*
X154595771Y-108989523D02*
X154405295Y-108941904D01*
X154405295Y-108941904D02*
X154310057Y-108894285D01*
X154310057Y-108894285D02*
X154262438Y-108846666D01*
X154262438Y-108846666D02*
X154214819Y-108751428D01*
X171983333Y-105459580D02*
X171935714Y-105507200D01*
X171935714Y-105507200D02*
X171792857Y-105554819D01*
X171792857Y-105554819D02*
X171697619Y-105554819D01*
X171697619Y-105554819D02*
X171554762Y-105507200D01*
X171554762Y-105507200D02*
X171459524Y-105411961D01*
X171459524Y-105411961D02*
X171411905Y-105316723D01*
X171411905Y-105316723D02*
X171364286Y-105126247D01*
X171364286Y-105126247D02*
X171364286Y-104983390D01*
X171364286Y-104983390D02*
X171411905Y-104792914D01*
X171411905Y-104792914D02*
X171459524Y-104697676D01*
X171459524Y-104697676D02*
X171554762Y-104602438D01*
X171554762Y-104602438D02*
X171697619Y-104554819D01*
X171697619Y-104554819D02*
X171792857Y-104554819D01*
X171792857Y-104554819D02*
X171935714Y-104602438D01*
X171935714Y-104602438D02*
X171983333Y-104650057D01*
X172316667Y-104554819D02*
X172983333Y-104554819D01*
X172983333Y-104554819D02*
X172554762Y-105554819D01*
X162538095Y-109704819D02*
X162538095Y-110514342D01*
X162538095Y-110514342D02*
X162585714Y-110609580D01*
X162585714Y-110609580D02*
X162633333Y-110657200D01*
X162633333Y-110657200D02*
X162728571Y-110704819D01*
X162728571Y-110704819D02*
X162919047Y-110704819D01*
X162919047Y-110704819D02*
X163014285Y-110657200D01*
X163014285Y-110657200D02*
X163061904Y-110609580D01*
X163061904Y-110609580D02*
X163109523Y-110514342D01*
X163109523Y-110514342D02*
X163109523Y-109704819D01*
X163538095Y-109800057D02*
X163585714Y-109752438D01*
X163585714Y-109752438D02*
X163680952Y-109704819D01*
X163680952Y-109704819D02*
X163919047Y-109704819D01*
X163919047Y-109704819D02*
X164014285Y-109752438D01*
X164014285Y-109752438D02*
X164061904Y-109800057D01*
X164061904Y-109800057D02*
X164109523Y-109895295D01*
X164109523Y-109895295D02*
X164109523Y-109990533D01*
X164109523Y-109990533D02*
X164061904Y-110133390D01*
X164061904Y-110133390D02*
X163490476Y-110704819D01*
X163490476Y-110704819D02*
X164109523Y-110704819D01*
X216654819Y-122942857D02*
X216178628Y-123276190D01*
X216654819Y-123514285D02*
X215654819Y-123514285D01*
X215654819Y-123514285D02*
X215654819Y-123133333D01*
X215654819Y-123133333D02*
X215702438Y-123038095D01*
X215702438Y-123038095D02*
X215750057Y-122990476D01*
X215750057Y-122990476D02*
X215845295Y-122942857D01*
X215845295Y-122942857D02*
X215988152Y-122942857D01*
X215988152Y-122942857D02*
X216083390Y-122990476D01*
X216083390Y-122990476D02*
X216131009Y-123038095D01*
X216131009Y-123038095D02*
X216178628Y-123133333D01*
X216178628Y-123133333D02*
X216178628Y-123514285D01*
X216654819Y-121990476D02*
X216654819Y-122561904D01*
X216654819Y-122276190D02*
X215654819Y-122276190D01*
X215654819Y-122276190D02*
X215797676Y-122371428D01*
X215797676Y-122371428D02*
X215892914Y-122466666D01*
X215892914Y-122466666D02*
X215940533Y-122561904D01*
X215654819Y-121657142D02*
X215654819Y-121038095D01*
X215654819Y-121038095D02*
X216035771Y-121371428D01*
X216035771Y-121371428D02*
X216035771Y-121228571D01*
X216035771Y-121228571D02*
X216083390Y-121133333D01*
X216083390Y-121133333D02*
X216131009Y-121085714D01*
X216131009Y-121085714D02*
X216226247Y-121038095D01*
X216226247Y-121038095D02*
X216464342Y-121038095D01*
X216464342Y-121038095D02*
X216559580Y-121085714D01*
X216559580Y-121085714D02*
X216607200Y-121133333D01*
X216607200Y-121133333D02*
X216654819Y-121228571D01*
X216654819Y-121228571D02*
X216654819Y-121514285D01*
X216654819Y-121514285D02*
X216607200Y-121609523D01*
X216607200Y-121609523D02*
X216559580Y-121657142D01*
X158323809Y-121978628D02*
X158323809Y-122454819D01*
X157990476Y-121454819D02*
X158323809Y-121978628D01*
X158323809Y-121978628D02*
X158657142Y-121454819D01*
X159514285Y-122454819D02*
X158942857Y-122454819D01*
X159228571Y-122454819D02*
X159228571Y-121454819D01*
X159228571Y-121454819D02*
X159133333Y-121597676D01*
X159133333Y-121597676D02*
X159038095Y-121692914D01*
X159038095Y-121692914D02*
X158942857Y-121740533D01*
X184238095Y-110354819D02*
X184238095Y-111164342D01*
X184238095Y-111164342D02*
X184285714Y-111259580D01*
X184285714Y-111259580D02*
X184333333Y-111307200D01*
X184333333Y-111307200D02*
X184428571Y-111354819D01*
X184428571Y-111354819D02*
X184619047Y-111354819D01*
X184619047Y-111354819D02*
X184714285Y-111307200D01*
X184714285Y-111307200D02*
X184761904Y-111259580D01*
X184761904Y-111259580D02*
X184809523Y-111164342D01*
X184809523Y-111164342D02*
X184809523Y-110354819D01*
X185190476Y-110354819D02*
X185809523Y-110354819D01*
X185809523Y-110354819D02*
X185476190Y-110735771D01*
X185476190Y-110735771D02*
X185619047Y-110735771D01*
X185619047Y-110735771D02*
X185714285Y-110783390D01*
X185714285Y-110783390D02*
X185761904Y-110831009D01*
X185761904Y-110831009D02*
X185809523Y-110926247D01*
X185809523Y-110926247D02*
X185809523Y-111164342D01*
X185809523Y-111164342D02*
X185761904Y-111259580D01*
X185761904Y-111259580D02*
X185714285Y-111307200D01*
X185714285Y-111307200D02*
X185619047Y-111354819D01*
X185619047Y-111354819D02*
X185333333Y-111354819D01*
X185333333Y-111354819D02*
X185238095Y-111307200D01*
X185238095Y-111307200D02*
X185190476Y-111259580D01*
X168908333Y-97534580D02*
X168860714Y-97582200D01*
X168860714Y-97582200D02*
X168717857Y-97629819D01*
X168717857Y-97629819D02*
X168622619Y-97629819D01*
X168622619Y-97629819D02*
X168479762Y-97582200D01*
X168479762Y-97582200D02*
X168384524Y-97486961D01*
X168384524Y-97486961D02*
X168336905Y-97391723D01*
X168336905Y-97391723D02*
X168289286Y-97201247D01*
X168289286Y-97201247D02*
X168289286Y-97058390D01*
X168289286Y-97058390D02*
X168336905Y-96867914D01*
X168336905Y-96867914D02*
X168384524Y-96772676D01*
X168384524Y-96772676D02*
X168479762Y-96677438D01*
X168479762Y-96677438D02*
X168622619Y-96629819D01*
X168622619Y-96629819D02*
X168717857Y-96629819D01*
X168717857Y-96629819D02*
X168860714Y-96677438D01*
X168860714Y-96677438D02*
X168908333Y-96725057D01*
X169479762Y-97058390D02*
X169384524Y-97010771D01*
X169384524Y-97010771D02*
X169336905Y-96963152D01*
X169336905Y-96963152D02*
X169289286Y-96867914D01*
X169289286Y-96867914D02*
X169289286Y-96820295D01*
X169289286Y-96820295D02*
X169336905Y-96725057D01*
X169336905Y-96725057D02*
X169384524Y-96677438D01*
X169384524Y-96677438D02*
X169479762Y-96629819D01*
X169479762Y-96629819D02*
X169670238Y-96629819D01*
X169670238Y-96629819D02*
X169765476Y-96677438D01*
X169765476Y-96677438D02*
X169813095Y-96725057D01*
X169813095Y-96725057D02*
X169860714Y-96820295D01*
X169860714Y-96820295D02*
X169860714Y-96867914D01*
X169860714Y-96867914D02*
X169813095Y-96963152D01*
X169813095Y-96963152D02*
X169765476Y-97010771D01*
X169765476Y-97010771D02*
X169670238Y-97058390D01*
X169670238Y-97058390D02*
X169479762Y-97058390D01*
X169479762Y-97058390D02*
X169384524Y-97106009D01*
X169384524Y-97106009D02*
X169336905Y-97153628D01*
X169336905Y-97153628D02*
X169289286Y-97248866D01*
X169289286Y-97248866D02*
X169289286Y-97439342D01*
X169289286Y-97439342D02*
X169336905Y-97534580D01*
X169336905Y-97534580D02*
X169384524Y-97582200D01*
X169384524Y-97582200D02*
X169479762Y-97629819D01*
X169479762Y-97629819D02*
X169670238Y-97629819D01*
X169670238Y-97629819D02*
X169765476Y-97582200D01*
X169765476Y-97582200D02*
X169813095Y-97534580D01*
X169813095Y-97534580D02*
X169860714Y-97439342D01*
X169860714Y-97439342D02*
X169860714Y-97248866D01*
X169860714Y-97248866D02*
X169813095Y-97153628D01*
X169813095Y-97153628D02*
X169765476Y-97106009D01*
X169765476Y-97106009D02*
X169670238Y-97058390D01*
X168604819Y-117766666D02*
X168128628Y-118099999D01*
X168604819Y-118338094D02*
X167604819Y-118338094D01*
X167604819Y-118338094D02*
X167604819Y-117957142D01*
X167604819Y-117957142D02*
X167652438Y-117861904D01*
X167652438Y-117861904D02*
X167700057Y-117814285D01*
X167700057Y-117814285D02*
X167795295Y-117766666D01*
X167795295Y-117766666D02*
X167938152Y-117766666D01*
X167938152Y-117766666D02*
X168033390Y-117814285D01*
X168033390Y-117814285D02*
X168081009Y-117861904D01*
X168081009Y-117861904D02*
X168128628Y-117957142D01*
X168128628Y-117957142D02*
X168128628Y-118338094D01*
X168604819Y-117290475D02*
X168604819Y-117099999D01*
X168604819Y-117099999D02*
X168557200Y-117004761D01*
X168557200Y-117004761D02*
X168509580Y-116957142D01*
X168509580Y-116957142D02*
X168366723Y-116861904D01*
X168366723Y-116861904D02*
X168176247Y-116814285D01*
X168176247Y-116814285D02*
X167795295Y-116814285D01*
X167795295Y-116814285D02*
X167700057Y-116861904D01*
X167700057Y-116861904D02*
X167652438Y-116909523D01*
X167652438Y-116909523D02*
X167604819Y-117004761D01*
X167604819Y-117004761D02*
X167604819Y-117195237D01*
X167604819Y-117195237D02*
X167652438Y-117290475D01*
X167652438Y-117290475D02*
X167700057Y-117338094D01*
X167700057Y-117338094D02*
X167795295Y-117385713D01*
X167795295Y-117385713D02*
X168033390Y-117385713D01*
X168033390Y-117385713D02*
X168128628Y-117338094D01*
X168128628Y-117338094D02*
X168176247Y-117290475D01*
X168176247Y-117290475D02*
X168223866Y-117195237D01*
X168223866Y-117195237D02*
X168223866Y-117004761D01*
X168223866Y-117004761D02*
X168176247Y-116909523D01*
X168176247Y-116909523D02*
X168128628Y-116861904D01*
X168128628Y-116861904D02*
X168033390Y-116814285D01*
X219107142Y-126359580D02*
X219059523Y-126407200D01*
X219059523Y-126407200D02*
X218916666Y-126454819D01*
X218916666Y-126454819D02*
X218821428Y-126454819D01*
X218821428Y-126454819D02*
X218678571Y-126407200D01*
X218678571Y-126407200D02*
X218583333Y-126311961D01*
X218583333Y-126311961D02*
X218535714Y-126216723D01*
X218535714Y-126216723D02*
X218488095Y-126026247D01*
X218488095Y-126026247D02*
X218488095Y-125883390D01*
X218488095Y-125883390D02*
X218535714Y-125692914D01*
X218535714Y-125692914D02*
X218583333Y-125597676D01*
X218583333Y-125597676D02*
X218678571Y-125502438D01*
X218678571Y-125502438D02*
X218821428Y-125454819D01*
X218821428Y-125454819D02*
X218916666Y-125454819D01*
X218916666Y-125454819D02*
X219059523Y-125502438D01*
X219059523Y-125502438D02*
X219107142Y-125550057D01*
X220059523Y-126454819D02*
X219488095Y-126454819D01*
X219773809Y-126454819D02*
X219773809Y-125454819D01*
X219773809Y-125454819D02*
X219678571Y-125597676D01*
X219678571Y-125597676D02*
X219583333Y-125692914D01*
X219583333Y-125692914D02*
X219488095Y-125740533D01*
X220392857Y-125454819D02*
X221059523Y-125454819D01*
X221059523Y-125454819D02*
X220630952Y-126454819D01*
X219861905Y-107704819D02*
X219861905Y-106704819D01*
X219861905Y-106704819D02*
X220100000Y-106704819D01*
X220100000Y-106704819D02*
X220242857Y-106752438D01*
X220242857Y-106752438D02*
X220338095Y-106847676D01*
X220338095Y-106847676D02*
X220385714Y-106942914D01*
X220385714Y-106942914D02*
X220433333Y-107133390D01*
X220433333Y-107133390D02*
X220433333Y-107276247D01*
X220433333Y-107276247D02*
X220385714Y-107466723D01*
X220385714Y-107466723D02*
X220338095Y-107561961D01*
X220338095Y-107561961D02*
X220242857Y-107657200D01*
X220242857Y-107657200D02*
X220100000Y-107704819D01*
X220100000Y-107704819D02*
X219861905Y-107704819D01*
X221290476Y-107038152D02*
X221290476Y-107704819D01*
X221052381Y-106657200D02*
X220814286Y-107371485D01*
X220814286Y-107371485D02*
X221433333Y-107371485D01*
X219107142Y-122259580D02*
X219059523Y-122307200D01*
X219059523Y-122307200D02*
X218916666Y-122354819D01*
X218916666Y-122354819D02*
X218821428Y-122354819D01*
X218821428Y-122354819D02*
X218678571Y-122307200D01*
X218678571Y-122307200D02*
X218583333Y-122211961D01*
X218583333Y-122211961D02*
X218535714Y-122116723D01*
X218535714Y-122116723D02*
X218488095Y-121926247D01*
X218488095Y-121926247D02*
X218488095Y-121783390D01*
X218488095Y-121783390D02*
X218535714Y-121592914D01*
X218535714Y-121592914D02*
X218583333Y-121497676D01*
X218583333Y-121497676D02*
X218678571Y-121402438D01*
X218678571Y-121402438D02*
X218821428Y-121354819D01*
X218821428Y-121354819D02*
X218916666Y-121354819D01*
X218916666Y-121354819D02*
X219059523Y-121402438D01*
X219059523Y-121402438D02*
X219107142Y-121450057D01*
X220059523Y-122354819D02*
X219488095Y-122354819D01*
X219773809Y-122354819D02*
X219773809Y-121354819D01*
X219773809Y-121354819D02*
X219678571Y-121497676D01*
X219678571Y-121497676D02*
X219583333Y-121592914D01*
X219583333Y-121592914D02*
X219488095Y-121640533D01*
X220916666Y-121354819D02*
X220726190Y-121354819D01*
X220726190Y-121354819D02*
X220630952Y-121402438D01*
X220630952Y-121402438D02*
X220583333Y-121450057D01*
X220583333Y-121450057D02*
X220488095Y-121592914D01*
X220488095Y-121592914D02*
X220440476Y-121783390D01*
X220440476Y-121783390D02*
X220440476Y-122164342D01*
X220440476Y-122164342D02*
X220488095Y-122259580D01*
X220488095Y-122259580D02*
X220535714Y-122307200D01*
X220535714Y-122307200D02*
X220630952Y-122354819D01*
X220630952Y-122354819D02*
X220821428Y-122354819D01*
X220821428Y-122354819D02*
X220916666Y-122307200D01*
X220916666Y-122307200D02*
X220964285Y-122259580D01*
X220964285Y-122259580D02*
X221011904Y-122164342D01*
X221011904Y-122164342D02*
X221011904Y-121926247D01*
X221011904Y-121926247D02*
X220964285Y-121831009D01*
X220964285Y-121831009D02*
X220916666Y-121783390D01*
X220916666Y-121783390D02*
X220821428Y-121735771D01*
X220821428Y-121735771D02*
X220630952Y-121735771D01*
X220630952Y-121735771D02*
X220535714Y-121783390D01*
X220535714Y-121783390D02*
X220488095Y-121831009D01*
X220488095Y-121831009D02*
X220440476Y-121926247D01*
X173258333Y-97629819D02*
X172925000Y-97153628D01*
X172686905Y-97629819D02*
X172686905Y-96629819D01*
X172686905Y-96629819D02*
X173067857Y-96629819D01*
X173067857Y-96629819D02*
X173163095Y-96677438D01*
X173163095Y-96677438D02*
X173210714Y-96725057D01*
X173210714Y-96725057D02*
X173258333Y-96820295D01*
X173258333Y-96820295D02*
X173258333Y-96963152D01*
X173258333Y-96963152D02*
X173210714Y-97058390D01*
X173210714Y-97058390D02*
X173163095Y-97106009D01*
X173163095Y-97106009D02*
X173067857Y-97153628D01*
X173067857Y-97153628D02*
X172686905Y-97153628D01*
X173591667Y-96629819D02*
X174258333Y-96629819D01*
X174258333Y-96629819D02*
X173829762Y-97629819D01*
X222407142Y-101659580D02*
X222359523Y-101707200D01*
X222359523Y-101707200D02*
X222216666Y-101754819D01*
X222216666Y-101754819D02*
X222121428Y-101754819D01*
X222121428Y-101754819D02*
X221978571Y-101707200D01*
X221978571Y-101707200D02*
X221883333Y-101611961D01*
X221883333Y-101611961D02*
X221835714Y-101516723D01*
X221835714Y-101516723D02*
X221788095Y-101326247D01*
X221788095Y-101326247D02*
X221788095Y-101183390D01*
X221788095Y-101183390D02*
X221835714Y-100992914D01*
X221835714Y-100992914D02*
X221883333Y-100897676D01*
X221883333Y-100897676D02*
X221978571Y-100802438D01*
X221978571Y-100802438D02*
X222121428Y-100754819D01*
X222121428Y-100754819D02*
X222216666Y-100754819D01*
X222216666Y-100754819D02*
X222359523Y-100802438D01*
X222359523Y-100802438D02*
X222407142Y-100850057D01*
X223359523Y-101754819D02*
X222788095Y-101754819D01*
X223073809Y-101754819D02*
X223073809Y-100754819D01*
X223073809Y-100754819D02*
X222978571Y-100897676D01*
X222978571Y-100897676D02*
X222883333Y-100992914D01*
X222883333Y-100992914D02*
X222788095Y-101040533D01*
X223692857Y-100754819D02*
X224311904Y-100754819D01*
X224311904Y-100754819D02*
X223978571Y-101135771D01*
X223978571Y-101135771D02*
X224121428Y-101135771D01*
X224121428Y-101135771D02*
X224216666Y-101183390D01*
X224216666Y-101183390D02*
X224264285Y-101231009D01*
X224264285Y-101231009D02*
X224311904Y-101326247D01*
X224311904Y-101326247D02*
X224311904Y-101564342D01*
X224311904Y-101564342D02*
X224264285Y-101659580D01*
X224264285Y-101659580D02*
X224216666Y-101707200D01*
X224216666Y-101707200D02*
X224121428Y-101754819D01*
X224121428Y-101754819D02*
X223835714Y-101754819D01*
X223835714Y-101754819D02*
X223740476Y-101707200D01*
X223740476Y-101707200D02*
X223692857Y-101659580D01*
X154583333Y-100704819D02*
X154250000Y-100228628D01*
X154011905Y-100704819D02*
X154011905Y-99704819D01*
X154011905Y-99704819D02*
X154392857Y-99704819D01*
X154392857Y-99704819D02*
X154488095Y-99752438D01*
X154488095Y-99752438D02*
X154535714Y-99800057D01*
X154535714Y-99800057D02*
X154583333Y-99895295D01*
X154583333Y-99895295D02*
X154583333Y-100038152D01*
X154583333Y-100038152D02*
X154535714Y-100133390D01*
X154535714Y-100133390D02*
X154488095Y-100181009D01*
X154488095Y-100181009D02*
X154392857Y-100228628D01*
X154392857Y-100228628D02*
X154011905Y-100228628D01*
X155440476Y-100038152D02*
X155440476Y-100704819D01*
X155202381Y-99657200D02*
X154964286Y-100371485D01*
X154964286Y-100371485D02*
X155583333Y-100371485D01*
X222407142Y-100159580D02*
X222359523Y-100207200D01*
X222359523Y-100207200D02*
X222216666Y-100254819D01*
X222216666Y-100254819D02*
X222121428Y-100254819D01*
X222121428Y-100254819D02*
X221978571Y-100207200D01*
X221978571Y-100207200D02*
X221883333Y-100111961D01*
X221883333Y-100111961D02*
X221835714Y-100016723D01*
X221835714Y-100016723D02*
X221788095Y-99826247D01*
X221788095Y-99826247D02*
X221788095Y-99683390D01*
X221788095Y-99683390D02*
X221835714Y-99492914D01*
X221835714Y-99492914D02*
X221883333Y-99397676D01*
X221883333Y-99397676D02*
X221978571Y-99302438D01*
X221978571Y-99302438D02*
X222121428Y-99254819D01*
X222121428Y-99254819D02*
X222216666Y-99254819D01*
X222216666Y-99254819D02*
X222359523Y-99302438D01*
X222359523Y-99302438D02*
X222407142Y-99350057D01*
X223359523Y-100254819D02*
X222788095Y-100254819D01*
X223073809Y-100254819D02*
X223073809Y-99254819D01*
X223073809Y-99254819D02*
X222978571Y-99397676D01*
X222978571Y-99397676D02*
X222883333Y-99492914D01*
X222883333Y-99492914D02*
X222788095Y-99540533D01*
X224264285Y-99254819D02*
X223788095Y-99254819D01*
X223788095Y-99254819D02*
X223740476Y-99731009D01*
X223740476Y-99731009D02*
X223788095Y-99683390D01*
X223788095Y-99683390D02*
X223883333Y-99635771D01*
X223883333Y-99635771D02*
X224121428Y-99635771D01*
X224121428Y-99635771D02*
X224216666Y-99683390D01*
X224216666Y-99683390D02*
X224264285Y-99731009D01*
X224264285Y-99731009D02*
X224311904Y-99826247D01*
X224311904Y-99826247D02*
X224311904Y-100064342D01*
X224311904Y-100064342D02*
X224264285Y-100159580D01*
X224264285Y-100159580D02*
X224216666Y-100207200D01*
X224216666Y-100207200D02*
X224121428Y-100254819D01*
X224121428Y-100254819D02*
X223883333Y-100254819D01*
X223883333Y-100254819D02*
X223788095Y-100207200D01*
X223788095Y-100207200D02*
X223740476Y-100159580D01*
X156954819Y-117616666D02*
X156478628Y-117949999D01*
X156954819Y-118188094D02*
X155954819Y-118188094D01*
X155954819Y-118188094D02*
X155954819Y-117807142D01*
X155954819Y-117807142D02*
X156002438Y-117711904D01*
X156002438Y-117711904D02*
X156050057Y-117664285D01*
X156050057Y-117664285D02*
X156145295Y-117616666D01*
X156145295Y-117616666D02*
X156288152Y-117616666D01*
X156288152Y-117616666D02*
X156383390Y-117664285D01*
X156383390Y-117664285D02*
X156431009Y-117711904D01*
X156431009Y-117711904D02*
X156478628Y-117807142D01*
X156478628Y-117807142D02*
X156478628Y-118188094D01*
X156954819Y-116664285D02*
X156954819Y-117235713D01*
X156954819Y-116949999D02*
X155954819Y-116949999D01*
X155954819Y-116949999D02*
X156097676Y-117045237D01*
X156097676Y-117045237D02*
X156192914Y-117140475D01*
X156192914Y-117140475D02*
X156240533Y-117235713D01*
D13*
X197971380Y-101625842D02*
X198152809Y-101686318D01*
X198152809Y-101686318D02*
X198455190Y-101686318D01*
X198455190Y-101686318D02*
X198576142Y-101625842D01*
X198576142Y-101625842D02*
X198636618Y-101565365D01*
X198636618Y-101565365D02*
X198697095Y-101444413D01*
X198697095Y-101444413D02*
X198697095Y-101323461D01*
X198697095Y-101323461D02*
X198636618Y-101202508D01*
X198636618Y-101202508D02*
X198576142Y-101142032D01*
X198576142Y-101142032D02*
X198455190Y-101081556D01*
X198455190Y-101081556D02*
X198213285Y-101021080D01*
X198213285Y-101021080D02*
X198092333Y-100960603D01*
X198092333Y-100960603D02*
X198031856Y-100900127D01*
X198031856Y-100900127D02*
X197971380Y-100779175D01*
X197971380Y-100779175D02*
X197971380Y-100658222D01*
X197971380Y-100658222D02*
X198031856Y-100537270D01*
X198031856Y-100537270D02*
X198092333Y-100476794D01*
X198092333Y-100476794D02*
X198213285Y-100416318D01*
X198213285Y-100416318D02*
X198515666Y-100416318D01*
X198515666Y-100416318D02*
X198697095Y-100476794D01*
X199906619Y-101686318D02*
X199180904Y-101686318D01*
X199543761Y-101686318D02*
X199543761Y-100416318D01*
X199543761Y-100416318D02*
X199422809Y-100597746D01*
X199422809Y-100597746D02*
X199301857Y-100718699D01*
X199301857Y-100718699D02*
X199180904Y-100779175D01*
D14*
%TO.C,J1*%
X151025000Y-108805000D02*
X149025000Y-108805000D01*
X151025000Y-118205000D02*
X149025000Y-118205000D01*
%TO.C,C4*%
X161538748Y-124165000D02*
X162061252Y-124165000D01*
X161538748Y-125635000D02*
X162061252Y-125635000D01*
D13*
%TO.C,S2*%
X206000000Y-97750000D02*
X206000000Y-103750000D01*
X206000000Y-103750000D02*
X212000000Y-103750000D01*
X212000000Y-97750000D02*
X206000000Y-97750000D01*
X212000000Y-103750000D02*
X212000000Y-97750000D01*
X211620900Y-103250000D02*
G75*
G02*
X211379100Y-103250000I-120900J0D01*
G01*
X211379100Y-103250000D02*
G75*
G02*
X211620900Y-103250000I120900J0D01*
G01*
D14*
%TO.C,TP1*%
X170350000Y-102350000D02*
G75*
G02*
X168950000Y-102350000I-700000J0D01*
G01*
X168950000Y-102350000D02*
G75*
G02*
X170350000Y-102350000I700000J0D01*
G01*
%TO.C,Q1*%
X169490000Y-120837500D02*
X169490000Y-120037500D01*
X169490000Y-120837500D02*
X169490000Y-121637500D01*
X172610000Y-120837500D02*
X172610000Y-120037500D01*
X172610000Y-120837500D02*
X172610000Y-121637500D01*
X169540000Y-122137500D02*
X169210000Y-122377500D01*
X169210000Y-121897500D01*
X169540000Y-122137500D01*
G36*
X169540000Y-122137500D02*
G01*
X169210000Y-122377500D01*
X169210000Y-121897500D01*
X169540000Y-122137500D01*
G37*
%TO.C,R3*%
X176572936Y-124165000D02*
X177027064Y-124165000D01*
X176572936Y-125635000D02*
X177027064Y-125635000D01*
%TO.C,R11*%
X219040000Y-110077064D02*
X219040000Y-109622936D01*
X220510000Y-110077064D02*
X220510000Y-109622936D01*
%TO.C,R12*%
X216915000Y-109612936D02*
X216915000Y-110067064D01*
X218385000Y-109612936D02*
X218385000Y-110067064D01*
%TO.C,TP10*%
X187650000Y-109850000D02*
G75*
G02*
X186250000Y-109850000I-700000J0D01*
G01*
X186250000Y-109850000D02*
G75*
G02*
X187650000Y-109850000I700000J0D01*
G01*
%TO.C,TP9*%
X150850000Y-124300000D02*
G75*
G02*
X149450000Y-124300000I-700000J0D01*
G01*
X149450000Y-124300000D02*
G75*
G02*
X150850000Y-124300000I700000J0D01*
G01*
%TO.C,C3*%
X164315000Y-121738748D02*
X164315000Y-122261252D01*
X165785000Y-121738748D02*
X165785000Y-122261252D01*
%TO.C,R10*%
X192065000Y-117572936D02*
X192065000Y-118027064D01*
X193535000Y-117572936D02*
X193535000Y-118027064D01*
%TO.C,U4*%
X160140000Y-101590000D02*
X161400000Y-101590000D01*
X160140000Y-105350000D02*
X160140000Y-101590000D01*
X166960000Y-101590000D02*
X165700000Y-101590000D01*
X166960000Y-105350000D02*
X166960000Y-101590000D01*
X160240000Y-106630000D02*
X159910000Y-106870000D01*
X159910000Y-106390000D01*
X160240000Y-106630000D01*
G36*
X160240000Y-106630000D02*
G01*
X159910000Y-106870000D01*
X159910000Y-106390000D01*
X160240000Y-106630000D01*
G37*
%TO.C,Q2*%
X169490000Y-116537500D02*
X169490000Y-115737500D01*
X169490000Y-116537500D02*
X169490000Y-117337500D01*
X172610000Y-116537500D02*
X172610000Y-115737500D01*
X172610000Y-116537500D02*
X172610000Y-117337500D01*
X172890000Y-115477500D02*
X172560000Y-115237500D01*
X172890000Y-114997500D01*
X172890000Y-115477500D01*
G36*
X172890000Y-115477500D02*
G01*
X172560000Y-115237500D01*
X172890000Y-114997500D01*
X172890000Y-115477500D01*
G37*
%TO.C,TP2*%
X183300000Y-109550000D02*
G75*
G02*
X181900000Y-109550000I-700000J0D01*
G01*
X181900000Y-109550000D02*
G75*
G02*
X183300000Y-109550000I700000J0D01*
G01*
%TO.C,TP8*%
X219100000Y-106150000D02*
G75*
G02*
X217700000Y-106150000I-700000J0D01*
G01*
X217700000Y-106150000D02*
G75*
G02*
X219100000Y-106150000I700000J0D01*
G01*
%TO.C,D1*%
X156500000Y-103210000D02*
X159185000Y-103210000D01*
X159185000Y-101290000D02*
X156500000Y-101290000D01*
X159185000Y-103210000D02*
X159185000Y-101290000D01*
%TO.C,C6*%
X169188748Y-106415000D02*
X169711252Y-106415000D01*
X169188748Y-107885000D02*
X169711252Y-107885000D01*
%TO.C,C2*%
X169188748Y-110515000D02*
X169711252Y-110515000D01*
X169188748Y-111985000D02*
X169711252Y-111985000D01*
%TO.C,C18*%
X223311252Y-123215000D02*
X222788748Y-123215000D01*
X223311252Y-124685000D02*
X222788748Y-124685000D01*
%TO.C,R5*%
X173165000Y-121327064D02*
X173165000Y-120872936D01*
X174635000Y-121327064D02*
X174635000Y-120872936D01*
%TO.C,R8*%
X153077064Y-119235000D02*
X152622936Y-119235000D01*
X153077064Y-120705000D02*
X152622936Y-120705000D01*
%TO.C,C5*%
X214738748Y-106765000D02*
X215261252Y-106765000D01*
X214738748Y-108235000D02*
X215261252Y-108235000D01*
%TO.C,TP7*%
X159300000Y-98100000D02*
G75*
G02*
X157900000Y-98100000I-700000J0D01*
G01*
X157900000Y-98100000D02*
G75*
G02*
X159300000Y-98100000I700000J0D01*
G01*
%TO.C,C9*%
X170515000Y-99711252D02*
X170515000Y-99188748D01*
X171985000Y-99711252D02*
X171985000Y-99188748D01*
%TO.C,TP3*%
X185450000Y-117650000D02*
G75*
G02*
X184050000Y-117650000I-700000J0D01*
G01*
X184050000Y-117650000D02*
G75*
G02*
X185450000Y-117650000I700000J0D01*
G01*
%TO.C,R14*%
X222822936Y-119165000D02*
X223277064Y-119165000D01*
X222822936Y-120635000D02*
X223277064Y-120635000D01*
%TO.C,R2*%
X180172936Y-123165000D02*
X180627064Y-123165000D01*
X180172936Y-124635000D02*
X180627064Y-124635000D01*
%TO.C,U1*%
X195880000Y-105880000D02*
X198000000Y-105880000D01*
X195880000Y-106500000D02*
X195880000Y-105880000D01*
X210000000Y-105880000D02*
X212120000Y-105880000D01*
X212120000Y-105880000D02*
X212120000Y-106500000D01*
X212790000Y-122836000D02*
X212310000Y-122836000D01*
X212550000Y-122500000D01*
X212790000Y-122836000D01*
G36*
X212790000Y-122836000D02*
G01*
X212310000Y-122836000D01*
X212550000Y-122500000D01*
X212790000Y-122836000D01*
G37*
%TO.C,C1*%
X169188748Y-108465000D02*
X169711252Y-108465000D01*
X169188748Y-109935000D02*
X169711252Y-109935000D01*
%TO.C,C14*%
X223311252Y-111715000D02*
X222788748Y-111715000D01*
X223311252Y-113185000D02*
X222788748Y-113185000D01*
%TO.C,D2*%
X155590000Y-123187500D02*
X155590000Y-125872500D01*
X155590000Y-125872500D02*
X157510000Y-125872500D01*
X157510000Y-125872500D02*
X157510000Y-123187500D01*
%TO.C,R6*%
X151704564Y-105675000D02*
X151250436Y-105675000D01*
X151704564Y-107145000D02*
X151250436Y-107145000D01*
%TO.C,C12*%
X192638748Y-110815000D02*
X193161252Y-110815000D01*
X192638748Y-112285000D02*
X193161252Y-112285000D01*
%TO.C,C10*%
X155825000Y-111641252D02*
X155825000Y-111118748D01*
X157295000Y-111641252D02*
X157295000Y-111118748D01*
%TO.C,C7*%
X169188748Y-104365000D02*
X169711252Y-104365000D01*
X169188748Y-105835000D02*
X169711252Y-105835000D01*
%TO.C,TP5*%
X215900000Y-98500000D02*
G75*
G02*
X214500000Y-98500000I-700000J0D01*
G01*
X214500000Y-98500000D02*
G75*
G02*
X215900000Y-98500000I700000J0D01*
G01*
%TO.C,U2*%
X163300000Y-109190000D02*
X161350000Y-109190000D01*
X163300000Y-109190000D02*
X165250000Y-109190000D01*
X163300000Y-119310000D02*
X161350000Y-119310000D01*
X163300000Y-119310000D02*
X165250000Y-119310000D01*
X160600000Y-109245000D02*
X160360000Y-108915000D01*
X160840000Y-108915000D01*
X160600000Y-109245000D01*
G36*
X160600000Y-109245000D02*
G01*
X160360000Y-108915000D01*
X160840000Y-108915000D01*
X160600000Y-109245000D01*
G37*
%TO.C,R13*%
X215465000Y-118672936D02*
X215465000Y-119127064D01*
X216935000Y-118672936D02*
X216935000Y-119127064D01*
%TO.C,Y1*%
X163800000Y-120350000D02*
X159800000Y-120350000D01*
X163800000Y-123650000D02*
X163800000Y-120350000D01*
%TO.C,U3*%
X185860000Y-111790000D02*
X183000000Y-111790000D01*
X185860000Y-115210000D02*
X183000000Y-115210000D01*
X186380000Y-111900000D02*
X186100000Y-111900000D01*
X186100000Y-111620000D01*
X186380000Y-111900000D01*
G36*
X186380000Y-111900000D02*
G01*
X186100000Y-111900000D01*
X186100000Y-111620000D01*
X186380000Y-111900000D01*
G37*
%TO.C,C8*%
X168365000Y-99711252D02*
X168365000Y-99188748D01*
X169835000Y-99711252D02*
X169835000Y-99188748D01*
%TO.C,R9*%
X167415000Y-120172936D02*
X167415000Y-120627064D01*
X168885000Y-120172936D02*
X168885000Y-120627064D01*
%TO.C,C17*%
X223311252Y-125265000D02*
X222788748Y-125265000D01*
X223311252Y-126735000D02*
X222788748Y-126735000D01*
%TO.C,D4*%
X222050000Y-106740000D02*
X222050000Y-110750000D01*
X224050000Y-106740000D02*
X222050000Y-106740000D01*
X224050000Y-106740000D02*
X224050000Y-110750000D01*
%TO.C,C16*%
X223311252Y-121165000D02*
X222788748Y-121165000D01*
X223311252Y-122635000D02*
X222788748Y-122635000D01*
%TO.C,R7*%
X172665000Y-99222936D02*
X172665000Y-99677064D01*
X174135000Y-99222936D02*
X174135000Y-99677064D01*
%TO.C,TP4*%
X187650000Y-117400000D02*
G75*
G02*
X186250000Y-117400000I-700000J0D01*
G01*
X186250000Y-117400000D02*
G75*
G02*
X187650000Y-117400000I700000J0D01*
G01*
%TO.C,C13*%
X223311252Y-104465000D02*
X222788748Y-104465000D01*
X223311252Y-105935000D02*
X222788748Y-105935000D01*
%TO.C,R4*%
X157727064Y-99515000D02*
X157272936Y-99515000D01*
X157727064Y-100985000D02*
X157272936Y-100985000D01*
%TO.C,TP6*%
X178220000Y-98550000D02*
G75*
G02*
X176820000Y-98550000I-700000J0D01*
G01*
X176820000Y-98550000D02*
G75*
G02*
X178220000Y-98550000I700000J0D01*
G01*
%TO.C,C15*%
X223311252Y-102215000D02*
X222788748Y-102215000D01*
X223311252Y-103685000D02*
X222788748Y-103685000D01*
%TO.C,R1*%
X155815000Y-120272936D02*
X155815000Y-120727064D01*
X157285000Y-120272936D02*
X157285000Y-120727064D01*
D13*
%TO.C,S1*%
X195750000Y-97750000D02*
X195750000Y-103750000D01*
X195750000Y-103750000D02*
X201750000Y-103750000D01*
X201750000Y-97750000D02*
X195750000Y-97750000D01*
X201750000Y-103750000D02*
X201750000Y-97750000D01*
X201370900Y-103250000D02*
G75*
G02*
X201129100Y-103250000I-120900J0D01*
G01*
X201129100Y-103250000D02*
G75*
G02*
X201370900Y-103250000I120900J0D01*
G01*
%TD*%
M02*
