%TF.GenerationSoftware,KiCad,Pcbnew,8.0.6*%
%TF.CreationDate,2024-10-17T21:48:28+02:00*%
%TF.ProjectId,weatherStationBoard,77656174-6865-4725-9374-6174696f6e42,rev?*%
%TF.SameCoordinates,Original*%
%TF.FileFunction,Legend,Bot*%
%TF.FilePolarity,Positive*%
%FSLAX46Y46*%
G04 Gerber Fmt 4.6, Leading zero omitted, Abs format (unit mm)*
G04 Created by KiCad (PCBNEW 8.0.6) date 2024-10-17 21:48:28*
%MOMM*%
%LPD*%
G01*
G04 APERTURE LIST*
%ADD10C,0.150000*%
%ADD11C,0.120000*%
G04 APERTURE END LIST*
D10*
X207492857Y-118909580D02*
X207540476Y-118957200D01*
X207540476Y-118957200D02*
X207683333Y-119004819D01*
X207683333Y-119004819D02*
X207778571Y-119004819D01*
X207778571Y-119004819D02*
X207921428Y-118957200D01*
X207921428Y-118957200D02*
X208016666Y-118861961D01*
X208016666Y-118861961D02*
X208064285Y-118766723D01*
X208064285Y-118766723D02*
X208111904Y-118576247D01*
X208111904Y-118576247D02*
X208111904Y-118433390D01*
X208111904Y-118433390D02*
X208064285Y-118242914D01*
X208064285Y-118242914D02*
X208016666Y-118147676D01*
X208016666Y-118147676D02*
X207921428Y-118052438D01*
X207921428Y-118052438D02*
X207778571Y-118004819D01*
X207778571Y-118004819D02*
X207683333Y-118004819D01*
X207683333Y-118004819D02*
X207540476Y-118052438D01*
X207540476Y-118052438D02*
X207492857Y-118100057D01*
X206540476Y-119004819D02*
X207111904Y-119004819D01*
X206826190Y-119004819D02*
X206826190Y-118004819D01*
X206826190Y-118004819D02*
X206921428Y-118147676D01*
X206921428Y-118147676D02*
X207016666Y-118242914D01*
X207016666Y-118242914D02*
X207111904Y-118290533D01*
X205588095Y-119004819D02*
X206159523Y-119004819D01*
X205873809Y-119004819D02*
X205873809Y-118004819D01*
X205873809Y-118004819D02*
X205969047Y-118147676D01*
X205969047Y-118147676D02*
X206064285Y-118242914D01*
X206064285Y-118242914D02*
X206159523Y-118290533D01*
X200738094Y-114954819D02*
X200738094Y-113954819D01*
X200738094Y-113954819D02*
X200499999Y-113954819D01*
X200499999Y-113954819D02*
X200357142Y-114002438D01*
X200357142Y-114002438D02*
X200261904Y-114097676D01*
X200261904Y-114097676D02*
X200214285Y-114192914D01*
X200214285Y-114192914D02*
X200166666Y-114383390D01*
X200166666Y-114383390D02*
X200166666Y-114526247D01*
X200166666Y-114526247D02*
X200214285Y-114716723D01*
X200214285Y-114716723D02*
X200261904Y-114811961D01*
X200261904Y-114811961D02*
X200357142Y-114907200D01*
X200357142Y-114907200D02*
X200499999Y-114954819D01*
X200499999Y-114954819D02*
X200738094Y-114954819D01*
X199833332Y-113954819D02*
X199214285Y-113954819D01*
X199214285Y-113954819D02*
X199547618Y-114335771D01*
X199547618Y-114335771D02*
X199404761Y-114335771D01*
X199404761Y-114335771D02*
X199309523Y-114383390D01*
X199309523Y-114383390D02*
X199261904Y-114431009D01*
X199261904Y-114431009D02*
X199214285Y-114526247D01*
X199214285Y-114526247D02*
X199214285Y-114764342D01*
X199214285Y-114764342D02*
X199261904Y-114859580D01*
X199261904Y-114859580D02*
X199309523Y-114907200D01*
X199309523Y-114907200D02*
X199404761Y-114954819D01*
X199404761Y-114954819D02*
X199690475Y-114954819D01*
X199690475Y-114954819D02*
X199785713Y-114907200D01*
X199785713Y-114907200D02*
X199833332Y-114859580D01*
X206154819Y-117935714D02*
X206154819Y-117364286D01*
X206154819Y-117650000D02*
X205154819Y-117650000D01*
X205154819Y-117650000D02*
X205297676Y-117554762D01*
X205297676Y-117554762D02*
X205392914Y-117459524D01*
X205392914Y-117459524D02*
X205440533Y-117364286D01*
D11*
%TO.C,C11*%
X203761252Y-117765000D02*
X203238748Y-117765000D01*
X203761252Y-119235000D02*
X203238748Y-119235000D01*
%TO.C,D3*%
X201350000Y-110450000D02*
X201350000Y-117000000D01*
X201350000Y-117000000D02*
X206850000Y-117000000D01*
X201800000Y-110000000D02*
X201350000Y-110450000D01*
X205000000Y-110800000D02*
X203200000Y-110800000D01*
X205000000Y-116200000D02*
X203200000Y-116200000D01*
X206850000Y-110000000D02*
X201800000Y-110000000D01*
X206850000Y-110000000D02*
X206850000Y-117000000D01*
%TD*%
M02*
