%TF.GenerationSoftware,KiCad,Pcbnew,8.0.6*%
%TF.CreationDate,2024-10-17T21:45:20+02:00*%
%TF.ProjectId,weatherStationBoard,77656174-6865-4725-9374-6174696f6e42,rev?*%
%TF.SameCoordinates,Original*%
%TF.FileFunction,Drillmap*%
%TF.FilePolarity,Positive*%
%FSLAX45Y45*%
G04 Gerber Fmt 4.5, Leading zero omitted, Abs format (unit mm)*
G04 Created by KiCad (PCBNEW 8.0.6) date 2024-10-17 21:45:20*
%MOMM*%
%LPD*%
G01*
G04 APERTURE LIST*
%ADD10C,0.100000*%
%ADD11C,0.050000*%
%ADD12C,0.200000*%
%ADD13C,0.220000*%
G04 APERTURE END LIST*
D10*
X19060000Y-10740000D02*
G75*
G02*
X18920000Y-10880000I-70000J-70000D01*
G01*
X19060000Y-11960000D02*
G75*
G02*
X19060000Y-10740000I-610000J610000D01*
G01*
D11*
X19600000Y-12500000D02*
X19600000Y-12900000D01*
X22850000Y-9600000D02*
G75*
G02*
X23100000Y-9850000I0J-250000D01*
G01*
X23100000Y-9850000D02*
X23100000Y-12850000D01*
D10*
X18920000Y-11820000D02*
G75*
G02*
X18920000Y-10880000I-470000J470000D01*
G01*
D11*
X21000000Y-12300000D02*
G75*
G02*
X21200000Y-12500000I0J-200000D01*
G01*
X14600000Y-9850000D02*
G75*
G02*
X14850000Y-9600000I250000J0D01*
G01*
X21000000Y-12300000D02*
X19800000Y-12300000D01*
X19600000Y-12900000D02*
G75*
G02*
X19400000Y-13100000I-200000J0D01*
G01*
X23100000Y-12850000D02*
G75*
G02*
X22850000Y-13100000I-250000J0D01*
G01*
X19400000Y-13100000D02*
X14850000Y-13100000D01*
X21200000Y-12900000D02*
X21200000Y-12500000D01*
X14850000Y-9600000D02*
X22850000Y-9600000D01*
X14850000Y-13100000D02*
G75*
G02*
X14600000Y-12850000I0J250000D01*
G01*
X21400000Y-13100000D02*
G75*
G02*
X21200000Y-12900000I0J200000D01*
G01*
D10*
X18920000Y-11820000D02*
G75*
G02*
X19060000Y-11960000I70000J-70000D01*
G01*
D11*
X19600000Y-12500000D02*
G75*
G02*
X19800000Y-12300000I200000J0D01*
G01*
X14600000Y-12850000D02*
X14600000Y-9850000D01*
X22850000Y-13100000D02*
X21400000Y-13100000D01*
D12*
D10*
X15140000Y-11029000D02*
X15205000Y-11094000D01*
X15205000Y-11029000D02*
X15140000Y-11094000D01*
X15140000Y-11607000D02*
X15205000Y-11672000D01*
X15205000Y-11607000D02*
X15140000Y-11672000D01*
D13*
X14960000Y-9850000D02*
G75*
G02*
X14740000Y-9850000I-110000J0D01*
G01*
X14740000Y-9850000D02*
G75*
G02*
X14960000Y-9850000I110000J0D01*
G01*
X14960000Y-12850000D02*
G75*
G02*
X14740000Y-12850000I-110000J0D01*
G01*
X14740000Y-12850000D02*
G75*
G02*
X14960000Y-12850000I110000J0D01*
G01*
X22960000Y-9850000D02*
G75*
G02*
X22740000Y-9850000I-110000J0D01*
G01*
X22740000Y-9850000D02*
G75*
G02*
X22960000Y-9850000I110000J0D01*
G01*
X22960000Y-12850000D02*
G75*
G02*
X22740000Y-12850000I-110000J0D01*
G01*
X22740000Y-12850000D02*
G75*
G02*
X22960000Y-12850000I110000J0D01*
G01*
D12*
X14858277Y-13413984D02*
X14858277Y-13213984D01*
X14858277Y-13213984D02*
X14905896Y-13213984D01*
X14905896Y-13213984D02*
X14934467Y-13223508D01*
X14934467Y-13223508D02*
X14953515Y-13242555D01*
X14953515Y-13242555D02*
X14963039Y-13261603D01*
X14963039Y-13261603D02*
X14972562Y-13299698D01*
X14972562Y-13299698D02*
X14972562Y-13328269D01*
X14972562Y-13328269D02*
X14963039Y-13366365D01*
X14963039Y-13366365D02*
X14953515Y-13385412D01*
X14953515Y-13385412D02*
X14934467Y-13404460D01*
X14934467Y-13404460D02*
X14905896Y-13413984D01*
X14905896Y-13413984D02*
X14858277Y-13413984D01*
X15058277Y-13413984D02*
X15058277Y-13280650D01*
X15058277Y-13318746D02*
X15067801Y-13299698D01*
X15067801Y-13299698D02*
X15077324Y-13290174D01*
X15077324Y-13290174D02*
X15096372Y-13280650D01*
X15096372Y-13280650D02*
X15115420Y-13280650D01*
X15182086Y-13413984D02*
X15182086Y-13280650D01*
X15182086Y-13213984D02*
X15172562Y-13223508D01*
X15172562Y-13223508D02*
X15182086Y-13233031D01*
X15182086Y-13233031D02*
X15191610Y-13223508D01*
X15191610Y-13223508D02*
X15182086Y-13213984D01*
X15182086Y-13213984D02*
X15182086Y-13233031D01*
X15305896Y-13413984D02*
X15286848Y-13404460D01*
X15286848Y-13404460D02*
X15277324Y-13385412D01*
X15277324Y-13385412D02*
X15277324Y-13213984D01*
X15410658Y-13413984D02*
X15391610Y-13404460D01*
X15391610Y-13404460D02*
X15382086Y-13385412D01*
X15382086Y-13385412D02*
X15382086Y-13213984D01*
X15639229Y-13413984D02*
X15639229Y-13213984D01*
X15639229Y-13213984D02*
X15705896Y-13356841D01*
X15705896Y-13356841D02*
X15772562Y-13213984D01*
X15772562Y-13213984D02*
X15772562Y-13413984D01*
X15953515Y-13413984D02*
X15953515Y-13309222D01*
X15953515Y-13309222D02*
X15943991Y-13290174D01*
X15943991Y-13290174D02*
X15924943Y-13280650D01*
X15924943Y-13280650D02*
X15886848Y-13280650D01*
X15886848Y-13280650D02*
X15867801Y-13290174D01*
X15953515Y-13404460D02*
X15934467Y-13413984D01*
X15934467Y-13413984D02*
X15886848Y-13413984D01*
X15886848Y-13413984D02*
X15867801Y-13404460D01*
X15867801Y-13404460D02*
X15858277Y-13385412D01*
X15858277Y-13385412D02*
X15858277Y-13366365D01*
X15858277Y-13366365D02*
X15867801Y-13347317D01*
X15867801Y-13347317D02*
X15886848Y-13337793D01*
X15886848Y-13337793D02*
X15934467Y-13337793D01*
X15934467Y-13337793D02*
X15953515Y-13328269D01*
X16048753Y-13280650D02*
X16048753Y-13480650D01*
X16048753Y-13290174D02*
X16067801Y-13280650D01*
X16067801Y-13280650D02*
X16105896Y-13280650D01*
X16105896Y-13280650D02*
X16124943Y-13290174D01*
X16124943Y-13290174D02*
X16134467Y-13299698D01*
X16134467Y-13299698D02*
X16143991Y-13318746D01*
X16143991Y-13318746D02*
X16143991Y-13375888D01*
X16143991Y-13375888D02*
X16134467Y-13394936D01*
X16134467Y-13394936D02*
X16124943Y-13404460D01*
X16124943Y-13404460D02*
X16105896Y-13413984D01*
X16105896Y-13413984D02*
X16067801Y-13413984D01*
X16067801Y-13413984D02*
X16048753Y-13404460D01*
X16229705Y-13394936D02*
X16239229Y-13404460D01*
X16239229Y-13404460D02*
X16229705Y-13413984D01*
X16229705Y-13413984D02*
X16220182Y-13404460D01*
X16220182Y-13404460D02*
X16229705Y-13394936D01*
X16229705Y-13394936D02*
X16229705Y-13413984D01*
X16229705Y-13290174D02*
X16239229Y-13299698D01*
X16239229Y-13299698D02*
X16229705Y-13309222D01*
X16229705Y-13309222D02*
X16220182Y-13299698D01*
X16220182Y-13299698D02*
X16229705Y-13290174D01*
X16229705Y-13290174D02*
X16229705Y-13309222D01*
D10*
X14532500Y-13710000D02*
X14597500Y-13775000D01*
X14597500Y-13710000D02*
X14532500Y-13775000D01*
D12*
X14896372Y-13633984D02*
X14915420Y-13633984D01*
X14915420Y-13633984D02*
X14934467Y-13643508D01*
X14934467Y-13643508D02*
X14943991Y-13653031D01*
X14943991Y-13653031D02*
X14953515Y-13672079D01*
X14953515Y-13672079D02*
X14963039Y-13710174D01*
X14963039Y-13710174D02*
X14963039Y-13757793D01*
X14963039Y-13757793D02*
X14953515Y-13795888D01*
X14953515Y-13795888D02*
X14943991Y-13814936D01*
X14943991Y-13814936D02*
X14934467Y-13824460D01*
X14934467Y-13824460D02*
X14915420Y-13833984D01*
X14915420Y-13833984D02*
X14896372Y-13833984D01*
X14896372Y-13833984D02*
X14877324Y-13824460D01*
X14877324Y-13824460D02*
X14867801Y-13814936D01*
X14867801Y-13814936D02*
X14858277Y-13795888D01*
X14858277Y-13795888D02*
X14848753Y-13757793D01*
X14848753Y-13757793D02*
X14848753Y-13710174D01*
X14848753Y-13710174D02*
X14858277Y-13672079D01*
X14858277Y-13672079D02*
X14867801Y-13653031D01*
X14867801Y-13653031D02*
X14877324Y-13643508D01*
X14877324Y-13643508D02*
X14896372Y-13633984D01*
X15048753Y-13814936D02*
X15058277Y-13824460D01*
X15058277Y-13824460D02*
X15048753Y-13833984D01*
X15048753Y-13833984D02*
X15039229Y-13824460D01*
X15039229Y-13824460D02*
X15048753Y-13814936D01*
X15048753Y-13814936D02*
X15048753Y-13833984D01*
X15229705Y-13633984D02*
X15191610Y-13633984D01*
X15191610Y-13633984D02*
X15172562Y-13643508D01*
X15172562Y-13643508D02*
X15163039Y-13653031D01*
X15163039Y-13653031D02*
X15143991Y-13681603D01*
X15143991Y-13681603D02*
X15134467Y-13719698D01*
X15134467Y-13719698D02*
X15134467Y-13795888D01*
X15134467Y-13795888D02*
X15143991Y-13814936D01*
X15143991Y-13814936D02*
X15153515Y-13824460D01*
X15153515Y-13824460D02*
X15172562Y-13833984D01*
X15172562Y-13833984D02*
X15210658Y-13833984D01*
X15210658Y-13833984D02*
X15229705Y-13824460D01*
X15229705Y-13824460D02*
X15239229Y-13814936D01*
X15239229Y-13814936D02*
X15248753Y-13795888D01*
X15248753Y-13795888D02*
X15248753Y-13748269D01*
X15248753Y-13748269D02*
X15239229Y-13729222D01*
X15239229Y-13729222D02*
X15229705Y-13719698D01*
X15229705Y-13719698D02*
X15210658Y-13710174D01*
X15210658Y-13710174D02*
X15172562Y-13710174D01*
X15172562Y-13710174D02*
X15153515Y-13719698D01*
X15153515Y-13719698D02*
X15143991Y-13729222D01*
X15143991Y-13729222D02*
X15134467Y-13748269D01*
X15429705Y-13633984D02*
X15334467Y-13633984D01*
X15334467Y-13633984D02*
X15324943Y-13729222D01*
X15324943Y-13729222D02*
X15334467Y-13719698D01*
X15334467Y-13719698D02*
X15353515Y-13710174D01*
X15353515Y-13710174D02*
X15401134Y-13710174D01*
X15401134Y-13710174D02*
X15420182Y-13719698D01*
X15420182Y-13719698D02*
X15429705Y-13729222D01*
X15429705Y-13729222D02*
X15439229Y-13748269D01*
X15439229Y-13748269D02*
X15439229Y-13795888D01*
X15439229Y-13795888D02*
X15429705Y-13814936D01*
X15429705Y-13814936D02*
X15420182Y-13824460D01*
X15420182Y-13824460D02*
X15401134Y-13833984D01*
X15401134Y-13833984D02*
X15353515Y-13833984D01*
X15353515Y-13833984D02*
X15334467Y-13824460D01*
X15334467Y-13824460D02*
X15324943Y-13814936D01*
X15563039Y-13633984D02*
X15582086Y-13633984D01*
X15582086Y-13633984D02*
X15601134Y-13643508D01*
X15601134Y-13643508D02*
X15610658Y-13653031D01*
X15610658Y-13653031D02*
X15620182Y-13672079D01*
X15620182Y-13672079D02*
X15629705Y-13710174D01*
X15629705Y-13710174D02*
X15629705Y-13757793D01*
X15629705Y-13757793D02*
X15620182Y-13795888D01*
X15620182Y-13795888D02*
X15610658Y-13814936D01*
X15610658Y-13814936D02*
X15601134Y-13824460D01*
X15601134Y-13824460D02*
X15582086Y-13833984D01*
X15582086Y-13833984D02*
X15563039Y-13833984D01*
X15563039Y-13833984D02*
X15543991Y-13824460D01*
X15543991Y-13824460D02*
X15534467Y-13814936D01*
X15534467Y-13814936D02*
X15524943Y-13795888D01*
X15524943Y-13795888D02*
X15515420Y-13757793D01*
X15515420Y-13757793D02*
X15515420Y-13710174D01*
X15515420Y-13710174D02*
X15524943Y-13672079D01*
X15524943Y-13672079D02*
X15534467Y-13653031D01*
X15534467Y-13653031D02*
X15543991Y-13643508D01*
X15543991Y-13643508D02*
X15563039Y-13633984D01*
X15715420Y-13833984D02*
X15715420Y-13700650D01*
X15715420Y-13719698D02*
X15724943Y-13710174D01*
X15724943Y-13710174D02*
X15743991Y-13700650D01*
X15743991Y-13700650D02*
X15772563Y-13700650D01*
X15772563Y-13700650D02*
X15791610Y-13710174D01*
X15791610Y-13710174D02*
X15801134Y-13729222D01*
X15801134Y-13729222D02*
X15801134Y-13833984D01*
X15801134Y-13729222D02*
X15810658Y-13710174D01*
X15810658Y-13710174D02*
X15829705Y-13700650D01*
X15829705Y-13700650D02*
X15858277Y-13700650D01*
X15858277Y-13700650D02*
X15877324Y-13710174D01*
X15877324Y-13710174D02*
X15886848Y-13729222D01*
X15886848Y-13729222D02*
X15886848Y-13833984D01*
X15982086Y-13833984D02*
X15982086Y-13700650D01*
X15982086Y-13719698D02*
X15991610Y-13710174D01*
X15991610Y-13710174D02*
X16010658Y-13700650D01*
X16010658Y-13700650D02*
X16039229Y-13700650D01*
X16039229Y-13700650D02*
X16058277Y-13710174D01*
X16058277Y-13710174D02*
X16067801Y-13729222D01*
X16067801Y-13729222D02*
X16067801Y-13833984D01*
X16067801Y-13729222D02*
X16077324Y-13710174D01*
X16077324Y-13710174D02*
X16096372Y-13700650D01*
X16096372Y-13700650D02*
X16124943Y-13700650D01*
X16124943Y-13700650D02*
X16143991Y-13710174D01*
X16143991Y-13710174D02*
X16153515Y-13729222D01*
X16153515Y-13729222D02*
X16153515Y-13833984D01*
X16543991Y-13624460D02*
X16372563Y-13881603D01*
X16801134Y-13633984D02*
X16820182Y-13633984D01*
X16820182Y-13633984D02*
X16839229Y-13643508D01*
X16839229Y-13643508D02*
X16848753Y-13653031D01*
X16848753Y-13653031D02*
X16858277Y-13672079D01*
X16858277Y-13672079D02*
X16867801Y-13710174D01*
X16867801Y-13710174D02*
X16867801Y-13757793D01*
X16867801Y-13757793D02*
X16858277Y-13795888D01*
X16858277Y-13795888D02*
X16848753Y-13814936D01*
X16848753Y-13814936D02*
X16839229Y-13824460D01*
X16839229Y-13824460D02*
X16820182Y-13833984D01*
X16820182Y-13833984D02*
X16801134Y-13833984D01*
X16801134Y-13833984D02*
X16782087Y-13824460D01*
X16782087Y-13824460D02*
X16772563Y-13814936D01*
X16772563Y-13814936D02*
X16763039Y-13795888D01*
X16763039Y-13795888D02*
X16753515Y-13757793D01*
X16753515Y-13757793D02*
X16753515Y-13710174D01*
X16753515Y-13710174D02*
X16763039Y-13672079D01*
X16763039Y-13672079D02*
X16772563Y-13653031D01*
X16772563Y-13653031D02*
X16782087Y-13643508D01*
X16782087Y-13643508D02*
X16801134Y-13633984D01*
X16953515Y-13814936D02*
X16963039Y-13824460D01*
X16963039Y-13824460D02*
X16953515Y-13833984D01*
X16953515Y-13833984D02*
X16943991Y-13824460D01*
X16943991Y-13824460D02*
X16953515Y-13814936D01*
X16953515Y-13814936D02*
X16953515Y-13833984D01*
X17086848Y-13633984D02*
X17105896Y-13633984D01*
X17105896Y-13633984D02*
X17124944Y-13643508D01*
X17124944Y-13643508D02*
X17134468Y-13653031D01*
X17134468Y-13653031D02*
X17143991Y-13672079D01*
X17143991Y-13672079D02*
X17153515Y-13710174D01*
X17153515Y-13710174D02*
X17153515Y-13757793D01*
X17153515Y-13757793D02*
X17143991Y-13795888D01*
X17143991Y-13795888D02*
X17134468Y-13814936D01*
X17134468Y-13814936D02*
X17124944Y-13824460D01*
X17124944Y-13824460D02*
X17105896Y-13833984D01*
X17105896Y-13833984D02*
X17086848Y-13833984D01*
X17086848Y-13833984D02*
X17067801Y-13824460D01*
X17067801Y-13824460D02*
X17058277Y-13814936D01*
X17058277Y-13814936D02*
X17048753Y-13795888D01*
X17048753Y-13795888D02*
X17039229Y-13757793D01*
X17039229Y-13757793D02*
X17039229Y-13710174D01*
X17039229Y-13710174D02*
X17048753Y-13672079D01*
X17048753Y-13672079D02*
X17058277Y-13653031D01*
X17058277Y-13653031D02*
X17067801Y-13643508D01*
X17067801Y-13643508D02*
X17086848Y-13633984D01*
X17229706Y-13653031D02*
X17239229Y-13643508D01*
X17239229Y-13643508D02*
X17258277Y-13633984D01*
X17258277Y-13633984D02*
X17305896Y-13633984D01*
X17305896Y-13633984D02*
X17324944Y-13643508D01*
X17324944Y-13643508D02*
X17334468Y-13653031D01*
X17334468Y-13653031D02*
X17343991Y-13672079D01*
X17343991Y-13672079D02*
X17343991Y-13691127D01*
X17343991Y-13691127D02*
X17334468Y-13719698D01*
X17334468Y-13719698D02*
X17220182Y-13833984D01*
X17220182Y-13833984D02*
X17343991Y-13833984D01*
X17524944Y-13633984D02*
X17429706Y-13633984D01*
X17429706Y-13633984D02*
X17420182Y-13729222D01*
X17420182Y-13729222D02*
X17429706Y-13719698D01*
X17429706Y-13719698D02*
X17448753Y-13710174D01*
X17448753Y-13710174D02*
X17496372Y-13710174D01*
X17496372Y-13710174D02*
X17515420Y-13719698D01*
X17515420Y-13719698D02*
X17524944Y-13729222D01*
X17524944Y-13729222D02*
X17534468Y-13748269D01*
X17534468Y-13748269D02*
X17534468Y-13795888D01*
X17534468Y-13795888D02*
X17524944Y-13814936D01*
X17524944Y-13814936D02*
X17515420Y-13824460D01*
X17515420Y-13824460D02*
X17496372Y-13833984D01*
X17496372Y-13833984D02*
X17448753Y-13833984D01*
X17448753Y-13833984D02*
X17429706Y-13824460D01*
X17429706Y-13824460D02*
X17420182Y-13814936D01*
X17705896Y-13633984D02*
X17667801Y-13633984D01*
X17667801Y-13633984D02*
X17648753Y-13643508D01*
X17648753Y-13643508D02*
X17639229Y-13653031D01*
X17639229Y-13653031D02*
X17620182Y-13681603D01*
X17620182Y-13681603D02*
X17610658Y-13719698D01*
X17610658Y-13719698D02*
X17610658Y-13795888D01*
X17610658Y-13795888D02*
X17620182Y-13814936D01*
X17620182Y-13814936D02*
X17629706Y-13824460D01*
X17629706Y-13824460D02*
X17648753Y-13833984D01*
X17648753Y-13833984D02*
X17686849Y-13833984D01*
X17686849Y-13833984D02*
X17705896Y-13824460D01*
X17705896Y-13824460D02*
X17715420Y-13814936D01*
X17715420Y-13814936D02*
X17724944Y-13795888D01*
X17724944Y-13795888D02*
X17724944Y-13748269D01*
X17724944Y-13748269D02*
X17715420Y-13729222D01*
X17715420Y-13729222D02*
X17705896Y-13719698D01*
X17705896Y-13719698D02*
X17686849Y-13710174D01*
X17686849Y-13710174D02*
X17648753Y-13710174D01*
X17648753Y-13710174D02*
X17629706Y-13719698D01*
X17629706Y-13719698D02*
X17620182Y-13729222D01*
X17620182Y-13729222D02*
X17610658Y-13748269D01*
X17801134Y-13633984D02*
X17801134Y-13672079D01*
X17877325Y-13633984D02*
X17877325Y-13672079D01*
X18172563Y-13910174D02*
X18163039Y-13900650D01*
X18163039Y-13900650D02*
X18143991Y-13872079D01*
X18143991Y-13872079D02*
X18134468Y-13853031D01*
X18134468Y-13853031D02*
X18124944Y-13824460D01*
X18124944Y-13824460D02*
X18115420Y-13776841D01*
X18115420Y-13776841D02*
X18115420Y-13738746D01*
X18115420Y-13738746D02*
X18124944Y-13691127D01*
X18124944Y-13691127D02*
X18134468Y-13662555D01*
X18134468Y-13662555D02*
X18143991Y-13643508D01*
X18143991Y-13643508D02*
X18163039Y-13614936D01*
X18163039Y-13614936D02*
X18172563Y-13605412D01*
X18239230Y-13653031D02*
X18248753Y-13643508D01*
X18248753Y-13643508D02*
X18267801Y-13633984D01*
X18267801Y-13633984D02*
X18315420Y-13633984D01*
X18315420Y-13633984D02*
X18334468Y-13643508D01*
X18334468Y-13643508D02*
X18343991Y-13653031D01*
X18343991Y-13653031D02*
X18353515Y-13672079D01*
X18353515Y-13672079D02*
X18353515Y-13691127D01*
X18353515Y-13691127D02*
X18343991Y-13719698D01*
X18343991Y-13719698D02*
X18229706Y-13833984D01*
X18229706Y-13833984D02*
X18353515Y-13833984D01*
X18591611Y-13833984D02*
X18591611Y-13633984D01*
X18677325Y-13833984D02*
X18677325Y-13729222D01*
X18677325Y-13729222D02*
X18667801Y-13710174D01*
X18667801Y-13710174D02*
X18648753Y-13700650D01*
X18648753Y-13700650D02*
X18620182Y-13700650D01*
X18620182Y-13700650D02*
X18601134Y-13710174D01*
X18601134Y-13710174D02*
X18591611Y-13719698D01*
X18801134Y-13833984D02*
X18782087Y-13824460D01*
X18782087Y-13824460D02*
X18772563Y-13814936D01*
X18772563Y-13814936D02*
X18763039Y-13795888D01*
X18763039Y-13795888D02*
X18763039Y-13738746D01*
X18763039Y-13738746D02*
X18772563Y-13719698D01*
X18772563Y-13719698D02*
X18782087Y-13710174D01*
X18782087Y-13710174D02*
X18801134Y-13700650D01*
X18801134Y-13700650D02*
X18829706Y-13700650D01*
X18829706Y-13700650D02*
X18848753Y-13710174D01*
X18848753Y-13710174D02*
X18858277Y-13719698D01*
X18858277Y-13719698D02*
X18867801Y-13738746D01*
X18867801Y-13738746D02*
X18867801Y-13795888D01*
X18867801Y-13795888D02*
X18858277Y-13814936D01*
X18858277Y-13814936D02*
X18848753Y-13824460D01*
X18848753Y-13824460D02*
X18829706Y-13833984D01*
X18829706Y-13833984D02*
X18801134Y-13833984D01*
X18982087Y-13833984D02*
X18963039Y-13824460D01*
X18963039Y-13824460D02*
X18953515Y-13805412D01*
X18953515Y-13805412D02*
X18953515Y-13633984D01*
X19134468Y-13824460D02*
X19115420Y-13833984D01*
X19115420Y-13833984D02*
X19077325Y-13833984D01*
X19077325Y-13833984D02*
X19058277Y-13824460D01*
X19058277Y-13824460D02*
X19048753Y-13805412D01*
X19048753Y-13805412D02*
X19048753Y-13729222D01*
X19048753Y-13729222D02*
X19058277Y-13710174D01*
X19058277Y-13710174D02*
X19077325Y-13700650D01*
X19077325Y-13700650D02*
X19115420Y-13700650D01*
X19115420Y-13700650D02*
X19134468Y-13710174D01*
X19134468Y-13710174D02*
X19143992Y-13729222D01*
X19143992Y-13729222D02*
X19143992Y-13748269D01*
X19143992Y-13748269D02*
X19048753Y-13767317D01*
X19220182Y-13824460D02*
X19239230Y-13833984D01*
X19239230Y-13833984D02*
X19277325Y-13833984D01*
X19277325Y-13833984D02*
X19296373Y-13824460D01*
X19296373Y-13824460D02*
X19305896Y-13805412D01*
X19305896Y-13805412D02*
X19305896Y-13795888D01*
X19305896Y-13795888D02*
X19296373Y-13776841D01*
X19296373Y-13776841D02*
X19277325Y-13767317D01*
X19277325Y-13767317D02*
X19248753Y-13767317D01*
X19248753Y-13767317D02*
X19229706Y-13757793D01*
X19229706Y-13757793D02*
X19220182Y-13738746D01*
X19220182Y-13738746D02*
X19220182Y-13729222D01*
X19220182Y-13729222D02*
X19229706Y-13710174D01*
X19229706Y-13710174D02*
X19248753Y-13700650D01*
X19248753Y-13700650D02*
X19277325Y-13700650D01*
X19277325Y-13700650D02*
X19296373Y-13710174D01*
X19372563Y-13910174D02*
X19382087Y-13900650D01*
X19382087Y-13900650D02*
X19401134Y-13872079D01*
X19401134Y-13872079D02*
X19410658Y-13853031D01*
X19410658Y-13853031D02*
X19420182Y-13824460D01*
X19420182Y-13824460D02*
X19429706Y-13776841D01*
X19429706Y-13776841D02*
X19429706Y-13738746D01*
X19429706Y-13738746D02*
X19420182Y-13691127D01*
X19420182Y-13691127D02*
X19410658Y-13662555D01*
X19410658Y-13662555D02*
X19401134Y-13643508D01*
X19401134Y-13643508D02*
X19382087Y-13614936D01*
X19382087Y-13614936D02*
X19372563Y-13605412D01*
X19734468Y-13910174D02*
X19724944Y-13900650D01*
X19724944Y-13900650D02*
X19705896Y-13872079D01*
X19705896Y-13872079D02*
X19696373Y-13853031D01*
X19696373Y-13853031D02*
X19686849Y-13824460D01*
X19686849Y-13824460D02*
X19677325Y-13776841D01*
X19677325Y-13776841D02*
X19677325Y-13738746D01*
X19677325Y-13738746D02*
X19686849Y-13691127D01*
X19686849Y-13691127D02*
X19696373Y-13662555D01*
X19696373Y-13662555D02*
X19705896Y-13643508D01*
X19705896Y-13643508D02*
X19724944Y-13614936D01*
X19724944Y-13614936D02*
X19734468Y-13605412D01*
X19810658Y-13700650D02*
X19810658Y-13833984D01*
X19810658Y-13719698D02*
X19820182Y-13710174D01*
X19820182Y-13710174D02*
X19839230Y-13700650D01*
X19839230Y-13700650D02*
X19867801Y-13700650D01*
X19867801Y-13700650D02*
X19886849Y-13710174D01*
X19886849Y-13710174D02*
X19896373Y-13729222D01*
X19896373Y-13729222D02*
X19896373Y-13833984D01*
X20020182Y-13833984D02*
X20001134Y-13824460D01*
X20001134Y-13824460D02*
X19991611Y-13814936D01*
X19991611Y-13814936D02*
X19982087Y-13795888D01*
X19982087Y-13795888D02*
X19982087Y-13738746D01*
X19982087Y-13738746D02*
X19991611Y-13719698D01*
X19991611Y-13719698D02*
X20001134Y-13710174D01*
X20001134Y-13710174D02*
X20020182Y-13700650D01*
X20020182Y-13700650D02*
X20048754Y-13700650D01*
X20048754Y-13700650D02*
X20067801Y-13710174D01*
X20067801Y-13710174D02*
X20077325Y-13719698D01*
X20077325Y-13719698D02*
X20086849Y-13738746D01*
X20086849Y-13738746D02*
X20086849Y-13795888D01*
X20086849Y-13795888D02*
X20077325Y-13814936D01*
X20077325Y-13814936D02*
X20067801Y-13824460D01*
X20067801Y-13824460D02*
X20048754Y-13833984D01*
X20048754Y-13833984D02*
X20020182Y-13833984D01*
X20143992Y-13700650D02*
X20220182Y-13700650D01*
X20172563Y-13633984D02*
X20172563Y-13805412D01*
X20172563Y-13805412D02*
X20182087Y-13824460D01*
X20182087Y-13824460D02*
X20201134Y-13833984D01*
X20201134Y-13833984D02*
X20220182Y-13833984D01*
X20439230Y-13700650D02*
X20439230Y-13900650D01*
X20439230Y-13710174D02*
X20458277Y-13700650D01*
X20458277Y-13700650D02*
X20496373Y-13700650D01*
X20496373Y-13700650D02*
X20515420Y-13710174D01*
X20515420Y-13710174D02*
X20524944Y-13719698D01*
X20524944Y-13719698D02*
X20534468Y-13738746D01*
X20534468Y-13738746D02*
X20534468Y-13795888D01*
X20534468Y-13795888D02*
X20524944Y-13814936D01*
X20524944Y-13814936D02*
X20515420Y-13824460D01*
X20515420Y-13824460D02*
X20496373Y-13833984D01*
X20496373Y-13833984D02*
X20458277Y-13833984D01*
X20458277Y-13833984D02*
X20439230Y-13824460D01*
X20648754Y-13833984D02*
X20629706Y-13824460D01*
X20629706Y-13824460D02*
X20620182Y-13805412D01*
X20620182Y-13805412D02*
X20620182Y-13633984D01*
X20810658Y-13833984D02*
X20810658Y-13729222D01*
X20810658Y-13729222D02*
X20801135Y-13710174D01*
X20801135Y-13710174D02*
X20782087Y-13700650D01*
X20782087Y-13700650D02*
X20743992Y-13700650D01*
X20743992Y-13700650D02*
X20724944Y-13710174D01*
X20810658Y-13824460D02*
X20791611Y-13833984D01*
X20791611Y-13833984D02*
X20743992Y-13833984D01*
X20743992Y-13833984D02*
X20724944Y-13824460D01*
X20724944Y-13824460D02*
X20715420Y-13805412D01*
X20715420Y-13805412D02*
X20715420Y-13786365D01*
X20715420Y-13786365D02*
X20724944Y-13767317D01*
X20724944Y-13767317D02*
X20743992Y-13757793D01*
X20743992Y-13757793D02*
X20791611Y-13757793D01*
X20791611Y-13757793D02*
X20810658Y-13748269D01*
X20877325Y-13700650D02*
X20953515Y-13700650D01*
X20905896Y-13633984D02*
X20905896Y-13805412D01*
X20905896Y-13805412D02*
X20915420Y-13824460D01*
X20915420Y-13824460D02*
X20934468Y-13833984D01*
X20934468Y-13833984D02*
X20953515Y-13833984D01*
X21096373Y-13824460D02*
X21077325Y-13833984D01*
X21077325Y-13833984D02*
X21039230Y-13833984D01*
X21039230Y-13833984D02*
X21020182Y-13824460D01*
X21020182Y-13824460D02*
X21010658Y-13805412D01*
X21010658Y-13805412D02*
X21010658Y-13729222D01*
X21010658Y-13729222D02*
X21020182Y-13710174D01*
X21020182Y-13710174D02*
X21039230Y-13700650D01*
X21039230Y-13700650D02*
X21077325Y-13700650D01*
X21077325Y-13700650D02*
X21096373Y-13710174D01*
X21096373Y-13710174D02*
X21105896Y-13729222D01*
X21105896Y-13729222D02*
X21105896Y-13748269D01*
X21105896Y-13748269D02*
X21010658Y-13767317D01*
X21277325Y-13833984D02*
X21277325Y-13633984D01*
X21277325Y-13824460D02*
X21258277Y-13833984D01*
X21258277Y-13833984D02*
X21220182Y-13833984D01*
X21220182Y-13833984D02*
X21201135Y-13824460D01*
X21201135Y-13824460D02*
X21191611Y-13814936D01*
X21191611Y-13814936D02*
X21182087Y-13795888D01*
X21182087Y-13795888D02*
X21182087Y-13738746D01*
X21182087Y-13738746D02*
X21191611Y-13719698D01*
X21191611Y-13719698D02*
X21201135Y-13710174D01*
X21201135Y-13710174D02*
X21220182Y-13700650D01*
X21220182Y-13700650D02*
X21258277Y-13700650D01*
X21258277Y-13700650D02*
X21277325Y-13710174D01*
X21353516Y-13910174D02*
X21363039Y-13900650D01*
X21363039Y-13900650D02*
X21382087Y-13872079D01*
X21382087Y-13872079D02*
X21391611Y-13853031D01*
X21391611Y-13853031D02*
X21401135Y-13824460D01*
X21401135Y-13824460D02*
X21410658Y-13776841D01*
X21410658Y-13776841D02*
X21410658Y-13738746D01*
X21410658Y-13738746D02*
X21401135Y-13691127D01*
X21401135Y-13691127D02*
X21391611Y-13662555D01*
X21391611Y-13662555D02*
X21382087Y-13643508D01*
X21382087Y-13643508D02*
X21363039Y-13614936D01*
X21363039Y-13614936D02*
X21353516Y-13605412D01*
X14597500Y-14006500D02*
G75*
G02*
X14397500Y-14006500I-100000J0D01*
G01*
X14397500Y-14006500D02*
G75*
G02*
X14597500Y-14006500I100000J0D01*
G01*
X14848753Y-13917031D02*
X14858277Y-13907508D01*
X14858277Y-13907508D02*
X14877324Y-13897984D01*
X14877324Y-13897984D02*
X14924943Y-13897984D01*
X14924943Y-13897984D02*
X14943991Y-13907508D01*
X14943991Y-13907508D02*
X14953515Y-13917031D01*
X14953515Y-13917031D02*
X14963039Y-13936079D01*
X14963039Y-13936079D02*
X14963039Y-13955127D01*
X14963039Y-13955127D02*
X14953515Y-13983698D01*
X14953515Y-13983698D02*
X14839229Y-14097984D01*
X14839229Y-14097984D02*
X14963039Y-14097984D01*
X15048753Y-14078936D02*
X15058277Y-14088460D01*
X15058277Y-14088460D02*
X15048753Y-14097984D01*
X15048753Y-14097984D02*
X15039229Y-14088460D01*
X15039229Y-14088460D02*
X15048753Y-14078936D01*
X15048753Y-14078936D02*
X15048753Y-14097984D01*
X15134467Y-13917031D02*
X15143991Y-13907508D01*
X15143991Y-13907508D02*
X15163039Y-13897984D01*
X15163039Y-13897984D02*
X15210658Y-13897984D01*
X15210658Y-13897984D02*
X15229705Y-13907508D01*
X15229705Y-13907508D02*
X15239229Y-13917031D01*
X15239229Y-13917031D02*
X15248753Y-13936079D01*
X15248753Y-13936079D02*
X15248753Y-13955127D01*
X15248753Y-13955127D02*
X15239229Y-13983698D01*
X15239229Y-13983698D02*
X15124943Y-14097984D01*
X15124943Y-14097984D02*
X15248753Y-14097984D01*
X15372562Y-13897984D02*
X15391610Y-13897984D01*
X15391610Y-13897984D02*
X15410658Y-13907508D01*
X15410658Y-13907508D02*
X15420182Y-13917031D01*
X15420182Y-13917031D02*
X15429705Y-13936079D01*
X15429705Y-13936079D02*
X15439229Y-13974174D01*
X15439229Y-13974174D02*
X15439229Y-14021793D01*
X15439229Y-14021793D02*
X15429705Y-14059888D01*
X15429705Y-14059888D02*
X15420182Y-14078936D01*
X15420182Y-14078936D02*
X15410658Y-14088460D01*
X15410658Y-14088460D02*
X15391610Y-14097984D01*
X15391610Y-14097984D02*
X15372562Y-14097984D01*
X15372562Y-14097984D02*
X15353515Y-14088460D01*
X15353515Y-14088460D02*
X15343991Y-14078936D01*
X15343991Y-14078936D02*
X15334467Y-14059888D01*
X15334467Y-14059888D02*
X15324943Y-14021793D01*
X15324943Y-14021793D02*
X15324943Y-13974174D01*
X15324943Y-13974174D02*
X15334467Y-13936079D01*
X15334467Y-13936079D02*
X15343991Y-13917031D01*
X15343991Y-13917031D02*
X15353515Y-13907508D01*
X15353515Y-13907508D02*
X15372562Y-13897984D01*
X15563039Y-13897984D02*
X15582086Y-13897984D01*
X15582086Y-13897984D02*
X15601134Y-13907508D01*
X15601134Y-13907508D02*
X15610658Y-13917031D01*
X15610658Y-13917031D02*
X15620182Y-13936079D01*
X15620182Y-13936079D02*
X15629705Y-13974174D01*
X15629705Y-13974174D02*
X15629705Y-14021793D01*
X15629705Y-14021793D02*
X15620182Y-14059888D01*
X15620182Y-14059888D02*
X15610658Y-14078936D01*
X15610658Y-14078936D02*
X15601134Y-14088460D01*
X15601134Y-14088460D02*
X15582086Y-14097984D01*
X15582086Y-14097984D02*
X15563039Y-14097984D01*
X15563039Y-14097984D02*
X15543991Y-14088460D01*
X15543991Y-14088460D02*
X15534467Y-14078936D01*
X15534467Y-14078936D02*
X15524943Y-14059888D01*
X15524943Y-14059888D02*
X15515420Y-14021793D01*
X15515420Y-14021793D02*
X15515420Y-13974174D01*
X15515420Y-13974174D02*
X15524943Y-13936079D01*
X15524943Y-13936079D02*
X15534467Y-13917031D01*
X15534467Y-13917031D02*
X15543991Y-13907508D01*
X15543991Y-13907508D02*
X15563039Y-13897984D01*
X15715420Y-14097984D02*
X15715420Y-13964650D01*
X15715420Y-13983698D02*
X15724943Y-13974174D01*
X15724943Y-13974174D02*
X15743991Y-13964650D01*
X15743991Y-13964650D02*
X15772563Y-13964650D01*
X15772563Y-13964650D02*
X15791610Y-13974174D01*
X15791610Y-13974174D02*
X15801134Y-13993222D01*
X15801134Y-13993222D02*
X15801134Y-14097984D01*
X15801134Y-13993222D02*
X15810658Y-13974174D01*
X15810658Y-13974174D02*
X15829705Y-13964650D01*
X15829705Y-13964650D02*
X15858277Y-13964650D01*
X15858277Y-13964650D02*
X15877324Y-13974174D01*
X15877324Y-13974174D02*
X15886848Y-13993222D01*
X15886848Y-13993222D02*
X15886848Y-14097984D01*
X15982086Y-14097984D02*
X15982086Y-13964650D01*
X15982086Y-13983698D02*
X15991610Y-13974174D01*
X15991610Y-13974174D02*
X16010658Y-13964650D01*
X16010658Y-13964650D02*
X16039229Y-13964650D01*
X16039229Y-13964650D02*
X16058277Y-13974174D01*
X16058277Y-13974174D02*
X16067801Y-13993222D01*
X16067801Y-13993222D02*
X16067801Y-14097984D01*
X16067801Y-13993222D02*
X16077324Y-13974174D01*
X16077324Y-13974174D02*
X16096372Y-13964650D01*
X16096372Y-13964650D02*
X16124943Y-13964650D01*
X16124943Y-13964650D02*
X16143991Y-13974174D01*
X16143991Y-13974174D02*
X16153515Y-13993222D01*
X16153515Y-13993222D02*
X16153515Y-14097984D01*
X16543991Y-13888460D02*
X16372563Y-14145603D01*
X16801134Y-13897984D02*
X16820182Y-13897984D01*
X16820182Y-13897984D02*
X16839229Y-13907508D01*
X16839229Y-13907508D02*
X16848753Y-13917031D01*
X16848753Y-13917031D02*
X16858277Y-13936079D01*
X16858277Y-13936079D02*
X16867801Y-13974174D01*
X16867801Y-13974174D02*
X16867801Y-14021793D01*
X16867801Y-14021793D02*
X16858277Y-14059888D01*
X16858277Y-14059888D02*
X16848753Y-14078936D01*
X16848753Y-14078936D02*
X16839229Y-14088460D01*
X16839229Y-14088460D02*
X16820182Y-14097984D01*
X16820182Y-14097984D02*
X16801134Y-14097984D01*
X16801134Y-14097984D02*
X16782087Y-14088460D01*
X16782087Y-14088460D02*
X16772563Y-14078936D01*
X16772563Y-14078936D02*
X16763039Y-14059888D01*
X16763039Y-14059888D02*
X16753515Y-14021793D01*
X16753515Y-14021793D02*
X16753515Y-13974174D01*
X16753515Y-13974174D02*
X16763039Y-13936079D01*
X16763039Y-13936079D02*
X16772563Y-13917031D01*
X16772563Y-13917031D02*
X16782087Y-13907508D01*
X16782087Y-13907508D02*
X16801134Y-13897984D01*
X16953515Y-14078936D02*
X16963039Y-14088460D01*
X16963039Y-14088460D02*
X16953515Y-14097984D01*
X16953515Y-14097984D02*
X16943991Y-14088460D01*
X16943991Y-14088460D02*
X16953515Y-14078936D01*
X16953515Y-14078936D02*
X16953515Y-14097984D01*
X17086848Y-13897984D02*
X17105896Y-13897984D01*
X17105896Y-13897984D02*
X17124944Y-13907508D01*
X17124944Y-13907508D02*
X17134468Y-13917031D01*
X17134468Y-13917031D02*
X17143991Y-13936079D01*
X17143991Y-13936079D02*
X17153515Y-13974174D01*
X17153515Y-13974174D02*
X17153515Y-14021793D01*
X17153515Y-14021793D02*
X17143991Y-14059888D01*
X17143991Y-14059888D02*
X17134468Y-14078936D01*
X17134468Y-14078936D02*
X17124944Y-14088460D01*
X17124944Y-14088460D02*
X17105896Y-14097984D01*
X17105896Y-14097984D02*
X17086848Y-14097984D01*
X17086848Y-14097984D02*
X17067801Y-14088460D01*
X17067801Y-14088460D02*
X17058277Y-14078936D01*
X17058277Y-14078936D02*
X17048753Y-14059888D01*
X17048753Y-14059888D02*
X17039229Y-14021793D01*
X17039229Y-14021793D02*
X17039229Y-13974174D01*
X17039229Y-13974174D02*
X17048753Y-13936079D01*
X17048753Y-13936079D02*
X17058277Y-13917031D01*
X17058277Y-13917031D02*
X17067801Y-13907508D01*
X17067801Y-13907508D02*
X17086848Y-13897984D01*
X17267801Y-13983698D02*
X17248753Y-13974174D01*
X17248753Y-13974174D02*
X17239229Y-13964650D01*
X17239229Y-13964650D02*
X17229706Y-13945603D01*
X17229706Y-13945603D02*
X17229706Y-13936079D01*
X17229706Y-13936079D02*
X17239229Y-13917031D01*
X17239229Y-13917031D02*
X17248753Y-13907508D01*
X17248753Y-13907508D02*
X17267801Y-13897984D01*
X17267801Y-13897984D02*
X17305896Y-13897984D01*
X17305896Y-13897984D02*
X17324944Y-13907508D01*
X17324944Y-13907508D02*
X17334468Y-13917031D01*
X17334468Y-13917031D02*
X17343991Y-13936079D01*
X17343991Y-13936079D02*
X17343991Y-13945603D01*
X17343991Y-13945603D02*
X17334468Y-13964650D01*
X17334468Y-13964650D02*
X17324944Y-13974174D01*
X17324944Y-13974174D02*
X17305896Y-13983698D01*
X17305896Y-13983698D02*
X17267801Y-13983698D01*
X17267801Y-13983698D02*
X17248753Y-13993222D01*
X17248753Y-13993222D02*
X17239229Y-14002746D01*
X17239229Y-14002746D02*
X17229706Y-14021793D01*
X17229706Y-14021793D02*
X17229706Y-14059888D01*
X17229706Y-14059888D02*
X17239229Y-14078936D01*
X17239229Y-14078936D02*
X17248753Y-14088460D01*
X17248753Y-14088460D02*
X17267801Y-14097984D01*
X17267801Y-14097984D02*
X17305896Y-14097984D01*
X17305896Y-14097984D02*
X17324944Y-14088460D01*
X17324944Y-14088460D02*
X17334468Y-14078936D01*
X17334468Y-14078936D02*
X17343991Y-14059888D01*
X17343991Y-14059888D02*
X17343991Y-14021793D01*
X17343991Y-14021793D02*
X17334468Y-14002746D01*
X17334468Y-14002746D02*
X17324944Y-13993222D01*
X17324944Y-13993222D02*
X17305896Y-13983698D01*
X17515420Y-13897984D02*
X17477325Y-13897984D01*
X17477325Y-13897984D02*
X17458277Y-13907508D01*
X17458277Y-13907508D02*
X17448753Y-13917031D01*
X17448753Y-13917031D02*
X17429706Y-13945603D01*
X17429706Y-13945603D02*
X17420182Y-13983698D01*
X17420182Y-13983698D02*
X17420182Y-14059888D01*
X17420182Y-14059888D02*
X17429706Y-14078936D01*
X17429706Y-14078936D02*
X17439229Y-14088460D01*
X17439229Y-14088460D02*
X17458277Y-14097984D01*
X17458277Y-14097984D02*
X17496372Y-14097984D01*
X17496372Y-14097984D02*
X17515420Y-14088460D01*
X17515420Y-14088460D02*
X17524944Y-14078936D01*
X17524944Y-14078936D02*
X17534468Y-14059888D01*
X17534468Y-14059888D02*
X17534468Y-14012269D01*
X17534468Y-14012269D02*
X17524944Y-13993222D01*
X17524944Y-13993222D02*
X17515420Y-13983698D01*
X17515420Y-13983698D02*
X17496372Y-13974174D01*
X17496372Y-13974174D02*
X17458277Y-13974174D01*
X17458277Y-13974174D02*
X17439229Y-13983698D01*
X17439229Y-13983698D02*
X17429706Y-13993222D01*
X17429706Y-13993222D02*
X17420182Y-14012269D01*
X17705896Y-13897984D02*
X17667801Y-13897984D01*
X17667801Y-13897984D02*
X17648753Y-13907508D01*
X17648753Y-13907508D02*
X17639229Y-13917031D01*
X17639229Y-13917031D02*
X17620182Y-13945603D01*
X17620182Y-13945603D02*
X17610658Y-13983698D01*
X17610658Y-13983698D02*
X17610658Y-14059888D01*
X17610658Y-14059888D02*
X17620182Y-14078936D01*
X17620182Y-14078936D02*
X17629706Y-14088460D01*
X17629706Y-14088460D02*
X17648753Y-14097984D01*
X17648753Y-14097984D02*
X17686849Y-14097984D01*
X17686849Y-14097984D02*
X17705896Y-14088460D01*
X17705896Y-14088460D02*
X17715420Y-14078936D01*
X17715420Y-14078936D02*
X17724944Y-14059888D01*
X17724944Y-14059888D02*
X17724944Y-14012269D01*
X17724944Y-14012269D02*
X17715420Y-13993222D01*
X17715420Y-13993222D02*
X17705896Y-13983698D01*
X17705896Y-13983698D02*
X17686849Y-13974174D01*
X17686849Y-13974174D02*
X17648753Y-13974174D01*
X17648753Y-13974174D02*
X17629706Y-13983698D01*
X17629706Y-13983698D02*
X17620182Y-13993222D01*
X17620182Y-13993222D02*
X17610658Y-14012269D01*
X17801134Y-13897984D02*
X17801134Y-13936079D01*
X17877325Y-13897984D02*
X17877325Y-13936079D01*
X18172563Y-14174174D02*
X18163039Y-14164650D01*
X18163039Y-14164650D02*
X18143991Y-14136079D01*
X18143991Y-14136079D02*
X18134468Y-14117031D01*
X18134468Y-14117031D02*
X18124944Y-14088460D01*
X18124944Y-14088460D02*
X18115420Y-14040841D01*
X18115420Y-14040841D02*
X18115420Y-14002746D01*
X18115420Y-14002746D02*
X18124944Y-13955127D01*
X18124944Y-13955127D02*
X18134468Y-13926555D01*
X18134468Y-13926555D02*
X18143991Y-13907508D01*
X18143991Y-13907508D02*
X18163039Y-13878936D01*
X18163039Y-13878936D02*
X18172563Y-13869412D01*
X18334468Y-13964650D02*
X18334468Y-14097984D01*
X18286849Y-13888460D02*
X18239230Y-14031317D01*
X18239230Y-14031317D02*
X18363039Y-14031317D01*
X18591611Y-14097984D02*
X18591611Y-13897984D01*
X18677325Y-14097984D02*
X18677325Y-13993222D01*
X18677325Y-13993222D02*
X18667801Y-13974174D01*
X18667801Y-13974174D02*
X18648753Y-13964650D01*
X18648753Y-13964650D02*
X18620182Y-13964650D01*
X18620182Y-13964650D02*
X18601134Y-13974174D01*
X18601134Y-13974174D02*
X18591611Y-13983698D01*
X18801134Y-14097984D02*
X18782087Y-14088460D01*
X18782087Y-14088460D02*
X18772563Y-14078936D01*
X18772563Y-14078936D02*
X18763039Y-14059888D01*
X18763039Y-14059888D02*
X18763039Y-14002746D01*
X18763039Y-14002746D02*
X18772563Y-13983698D01*
X18772563Y-13983698D02*
X18782087Y-13974174D01*
X18782087Y-13974174D02*
X18801134Y-13964650D01*
X18801134Y-13964650D02*
X18829706Y-13964650D01*
X18829706Y-13964650D02*
X18848753Y-13974174D01*
X18848753Y-13974174D02*
X18858277Y-13983698D01*
X18858277Y-13983698D02*
X18867801Y-14002746D01*
X18867801Y-14002746D02*
X18867801Y-14059888D01*
X18867801Y-14059888D02*
X18858277Y-14078936D01*
X18858277Y-14078936D02*
X18848753Y-14088460D01*
X18848753Y-14088460D02*
X18829706Y-14097984D01*
X18829706Y-14097984D02*
X18801134Y-14097984D01*
X18982087Y-14097984D02*
X18963039Y-14088460D01*
X18963039Y-14088460D02*
X18953515Y-14069412D01*
X18953515Y-14069412D02*
X18953515Y-13897984D01*
X19134468Y-14088460D02*
X19115420Y-14097984D01*
X19115420Y-14097984D02*
X19077325Y-14097984D01*
X19077325Y-14097984D02*
X19058277Y-14088460D01*
X19058277Y-14088460D02*
X19048753Y-14069412D01*
X19048753Y-14069412D02*
X19048753Y-13993222D01*
X19048753Y-13993222D02*
X19058277Y-13974174D01*
X19058277Y-13974174D02*
X19077325Y-13964650D01*
X19077325Y-13964650D02*
X19115420Y-13964650D01*
X19115420Y-13964650D02*
X19134468Y-13974174D01*
X19134468Y-13974174D02*
X19143992Y-13993222D01*
X19143992Y-13993222D02*
X19143992Y-14012269D01*
X19143992Y-14012269D02*
X19048753Y-14031317D01*
X19220182Y-14088460D02*
X19239230Y-14097984D01*
X19239230Y-14097984D02*
X19277325Y-14097984D01*
X19277325Y-14097984D02*
X19296373Y-14088460D01*
X19296373Y-14088460D02*
X19305896Y-14069412D01*
X19305896Y-14069412D02*
X19305896Y-14059888D01*
X19305896Y-14059888D02*
X19296373Y-14040841D01*
X19296373Y-14040841D02*
X19277325Y-14031317D01*
X19277325Y-14031317D02*
X19248753Y-14031317D01*
X19248753Y-14031317D02*
X19229706Y-14021793D01*
X19229706Y-14021793D02*
X19220182Y-14002746D01*
X19220182Y-14002746D02*
X19220182Y-13993222D01*
X19220182Y-13993222D02*
X19229706Y-13974174D01*
X19229706Y-13974174D02*
X19248753Y-13964650D01*
X19248753Y-13964650D02*
X19277325Y-13964650D01*
X19277325Y-13964650D02*
X19296373Y-13974174D01*
X19372563Y-14174174D02*
X19382087Y-14164650D01*
X19382087Y-14164650D02*
X19401134Y-14136079D01*
X19401134Y-14136079D02*
X19410658Y-14117031D01*
X19410658Y-14117031D02*
X19420182Y-14088460D01*
X19420182Y-14088460D02*
X19429706Y-14040841D01*
X19429706Y-14040841D02*
X19429706Y-14002746D01*
X19429706Y-14002746D02*
X19420182Y-13955127D01*
X19420182Y-13955127D02*
X19410658Y-13926555D01*
X19410658Y-13926555D02*
X19401134Y-13907508D01*
X19401134Y-13907508D02*
X19382087Y-13878936D01*
X19382087Y-13878936D02*
X19372563Y-13869412D01*
X19734468Y-14174174D02*
X19724944Y-14164650D01*
X19724944Y-14164650D02*
X19705896Y-14136079D01*
X19705896Y-14136079D02*
X19696373Y-14117031D01*
X19696373Y-14117031D02*
X19686849Y-14088460D01*
X19686849Y-14088460D02*
X19677325Y-14040841D01*
X19677325Y-14040841D02*
X19677325Y-14002746D01*
X19677325Y-14002746D02*
X19686849Y-13955127D01*
X19686849Y-13955127D02*
X19696373Y-13926555D01*
X19696373Y-13926555D02*
X19705896Y-13907508D01*
X19705896Y-13907508D02*
X19724944Y-13878936D01*
X19724944Y-13878936D02*
X19734468Y-13869412D01*
X19810658Y-13964650D02*
X19810658Y-14097984D01*
X19810658Y-13983698D02*
X19820182Y-13974174D01*
X19820182Y-13974174D02*
X19839230Y-13964650D01*
X19839230Y-13964650D02*
X19867801Y-13964650D01*
X19867801Y-13964650D02*
X19886849Y-13974174D01*
X19886849Y-13974174D02*
X19896373Y-13993222D01*
X19896373Y-13993222D02*
X19896373Y-14097984D01*
X20020182Y-14097984D02*
X20001134Y-14088460D01*
X20001134Y-14088460D02*
X19991611Y-14078936D01*
X19991611Y-14078936D02*
X19982087Y-14059888D01*
X19982087Y-14059888D02*
X19982087Y-14002746D01*
X19982087Y-14002746D02*
X19991611Y-13983698D01*
X19991611Y-13983698D02*
X20001134Y-13974174D01*
X20001134Y-13974174D02*
X20020182Y-13964650D01*
X20020182Y-13964650D02*
X20048754Y-13964650D01*
X20048754Y-13964650D02*
X20067801Y-13974174D01*
X20067801Y-13974174D02*
X20077325Y-13983698D01*
X20077325Y-13983698D02*
X20086849Y-14002746D01*
X20086849Y-14002746D02*
X20086849Y-14059888D01*
X20086849Y-14059888D02*
X20077325Y-14078936D01*
X20077325Y-14078936D02*
X20067801Y-14088460D01*
X20067801Y-14088460D02*
X20048754Y-14097984D01*
X20048754Y-14097984D02*
X20020182Y-14097984D01*
X20143992Y-13964650D02*
X20220182Y-13964650D01*
X20172563Y-13897984D02*
X20172563Y-14069412D01*
X20172563Y-14069412D02*
X20182087Y-14088460D01*
X20182087Y-14088460D02*
X20201134Y-14097984D01*
X20201134Y-14097984D02*
X20220182Y-14097984D01*
X20439230Y-13964650D02*
X20439230Y-14164650D01*
X20439230Y-13974174D02*
X20458277Y-13964650D01*
X20458277Y-13964650D02*
X20496373Y-13964650D01*
X20496373Y-13964650D02*
X20515420Y-13974174D01*
X20515420Y-13974174D02*
X20524944Y-13983698D01*
X20524944Y-13983698D02*
X20534468Y-14002746D01*
X20534468Y-14002746D02*
X20534468Y-14059888D01*
X20534468Y-14059888D02*
X20524944Y-14078936D01*
X20524944Y-14078936D02*
X20515420Y-14088460D01*
X20515420Y-14088460D02*
X20496373Y-14097984D01*
X20496373Y-14097984D02*
X20458277Y-14097984D01*
X20458277Y-14097984D02*
X20439230Y-14088460D01*
X20648754Y-14097984D02*
X20629706Y-14088460D01*
X20629706Y-14088460D02*
X20620182Y-14069412D01*
X20620182Y-14069412D02*
X20620182Y-13897984D01*
X20810658Y-14097984D02*
X20810658Y-13993222D01*
X20810658Y-13993222D02*
X20801135Y-13974174D01*
X20801135Y-13974174D02*
X20782087Y-13964650D01*
X20782087Y-13964650D02*
X20743992Y-13964650D01*
X20743992Y-13964650D02*
X20724944Y-13974174D01*
X20810658Y-14088460D02*
X20791611Y-14097984D01*
X20791611Y-14097984D02*
X20743992Y-14097984D01*
X20743992Y-14097984D02*
X20724944Y-14088460D01*
X20724944Y-14088460D02*
X20715420Y-14069412D01*
X20715420Y-14069412D02*
X20715420Y-14050365D01*
X20715420Y-14050365D02*
X20724944Y-14031317D01*
X20724944Y-14031317D02*
X20743992Y-14021793D01*
X20743992Y-14021793D02*
X20791611Y-14021793D01*
X20791611Y-14021793D02*
X20810658Y-14012269D01*
X20877325Y-13964650D02*
X20953515Y-13964650D01*
X20905896Y-13897984D02*
X20905896Y-14069412D01*
X20905896Y-14069412D02*
X20915420Y-14088460D01*
X20915420Y-14088460D02*
X20934468Y-14097984D01*
X20934468Y-14097984D02*
X20953515Y-14097984D01*
X21096373Y-14088460D02*
X21077325Y-14097984D01*
X21077325Y-14097984D02*
X21039230Y-14097984D01*
X21039230Y-14097984D02*
X21020182Y-14088460D01*
X21020182Y-14088460D02*
X21010658Y-14069412D01*
X21010658Y-14069412D02*
X21010658Y-13993222D01*
X21010658Y-13993222D02*
X21020182Y-13974174D01*
X21020182Y-13974174D02*
X21039230Y-13964650D01*
X21039230Y-13964650D02*
X21077325Y-13964650D01*
X21077325Y-13964650D02*
X21096373Y-13974174D01*
X21096373Y-13974174D02*
X21105896Y-13993222D01*
X21105896Y-13993222D02*
X21105896Y-14012269D01*
X21105896Y-14012269D02*
X21010658Y-14031317D01*
X21277325Y-14097984D02*
X21277325Y-13897984D01*
X21277325Y-14088460D02*
X21258277Y-14097984D01*
X21258277Y-14097984D02*
X21220182Y-14097984D01*
X21220182Y-14097984D02*
X21201135Y-14088460D01*
X21201135Y-14088460D02*
X21191611Y-14078936D01*
X21191611Y-14078936D02*
X21182087Y-14059888D01*
X21182087Y-14059888D02*
X21182087Y-14002746D01*
X21182087Y-14002746D02*
X21191611Y-13983698D01*
X21191611Y-13983698D02*
X21201135Y-13974174D01*
X21201135Y-13974174D02*
X21220182Y-13964650D01*
X21220182Y-13964650D02*
X21258277Y-13964650D01*
X21258277Y-13964650D02*
X21277325Y-13974174D01*
X21353516Y-14174174D02*
X21363039Y-14164650D01*
X21363039Y-14164650D02*
X21382087Y-14136079D01*
X21382087Y-14136079D02*
X21391611Y-14117031D01*
X21391611Y-14117031D02*
X21401135Y-14088460D01*
X21401135Y-14088460D02*
X21410658Y-14040841D01*
X21410658Y-14040841D02*
X21410658Y-14002746D01*
X21410658Y-14002746D02*
X21401135Y-13955127D01*
X21401135Y-13955127D02*
X21391611Y-13926555D01*
X21391611Y-13926555D02*
X21382087Y-13907508D01*
X21382087Y-13907508D02*
X21363039Y-13878936D01*
X21363039Y-13878936D02*
X21353516Y-13869412D01*
M02*
