  0
SECTION
  2
HEADER
  9
$ANGBASE
  50
0.0
  9
$ANGDIR
  70
1
  9
$MEASUREMENT
  70
1
  0
ENDSEC
  0
SECTION
  2
TABLES
  0
TABLE
  2
LTYPE
  70
4
  0
LTYPE
  5
40F
  2
CONTINUOUS
  70
0
  3
Solid line
  72
65
  73
0
  40
0.0
  0
LTYPE
  5
410
  2
DASHDOT
 70
0
  3
Dash Dot ____ _ ____ _
 72
65
 73
4
 40
2.0
 49
1.25
 49
-0.25
 49
0.25
 49
-0.25
  0
LTYPE
  5
411
  2
DASHED
 70
0
  3
Dashed __ __ __ __ __
 72
65
 73
2
 40
0.75
 49
0.5
 49
-0.25
  0
LTYPE
  5
43B
  2
DOTTED
 70
0
  3
Dotted .  .  .  .
 72
65
 73
2
 40
0.2
 49
0.0
 49
-0.2
  0
ENDTAB
  0
TABLE
  2
STYLE
  70
4
  0
STYLE
  2
KICAD
  70
0
  40
0
  41
1
  42
1
  50
0
  71
0
  3
isocp.shx
  0
STYLE
  2
KICADB
  70
0
  40
0
  41
1
  42
1
  50
0
  71
0
  3
isocp.shx
  0
STYLE
  2
KICADI
  70
0
  40
0
  41
1
  42
1
  50
15
  71
0
  3
isocp.shx
  0
STYLE
  2
KICADBI
  70
0
  40
0
  41
1
  42
1
  50
15
  71
0
  3
isocp.shx
  0
ENDTAB
  0
TABLE
  2
LAYER
  70
1
  0
LAYER
  2
BLACK
  70
0
  62
7
  6
CONTINUOUS
  0
ENDTAB
  0
ENDSEC
  0
SECTION
  2
ENTITIES
0
LINE
8
BLACK
6
CONTINUOUS
10
55.2842129999999941
20
-20.6795669999999987
11
55.3166849999999997
21
-20.7120390000000008
0
LINE
8
BLACK
6
CONTINUOUS
10
55.3166849999999997
20
-20.7120390000000008
11
55.3166849999999997
21
-20.7579609999999981
0
LINE
8
BLACK
6
CONTINUOUS
10
55.3166849999999997
20
-20.7579609999999981
11
55.2842129999999941
21
-20.7904330000000002
0
LINE
8
BLACK
6
CONTINUOUS
10
55.2842129999999941
20
-20.7904330000000002
11
55.2612519999999989
21
-20.7949999999999982
0
LINE
8
BLACK
6
CONTINUOUS
10
55.2612519999999989
20
-20.7949999999999982
11
54.7387480000000011
21
-20.7949999999999982
0
LINE
8
BLACK
6
CONTINUOUS
10
54.7387480000000011
20
-20.7949999999999982
11
54.7157869999999988
21
-20.7904330000000002
0
LINE
8
BLACK
6
CONTINUOUS
10
54.7157869999999988
20
-20.7904330000000002
11
54.6833150000000003
21
-20.7579609999999981
0
LINE
8
BLACK
6
CONTINUOUS
10
54.6833150000000003
20
-20.7579609999999981
11
54.6833150000000003
21
-20.7120390000000008
0
LINE
8
BLACK
6
CONTINUOUS
10
54.6833150000000003
20
-20.7120390000000008
11
54.7157869999999988
21
-20.6795669999999987
0
LINE
8
BLACK
6
CONTINUOUS
10
54.7157869999999988
20
-20.6795669999999987
11
54.7387480000000011
21
-20.6750000000000007
0
LINE
8
BLACK
6
CONTINUOUS
10
54.7387480000000011
20
-20.6750000000000007
11
55.2612519999999989
21
-20.6750000000000007
0
LINE
8
BLACK
6
CONTINUOUS
10
55.2612519999999989
20
-20.6750000000000007
11
55.2842129999999941
21
-20.6795669999999987
0
LINE
8
BLACK
6
CONTINUOUS
10
57.3810929999999999
20
-19.4312599999999982
11
57.3884410000000003
21
-19.4312599999999982
0
LINE
8
BLACK
6
CONTINUOUS
10
57.3884410000000003
20
-19.4312599999999982
11
57.3953009999999963
21
-19.4341009999999983
0
LINE
8
BLACK
6
CONTINUOUS
10
57.3953009999999963
20
-19.4341009999999983
11
57.4025819999999953
21
-19.4355580000000003
0
LINE
8
BLACK
6
CONTINUOUS
10
57.4025819999999953
20
-19.4355580000000003
11
57.4086870000000005
21
-19.4396459999999998
0
LINE
8
BLACK
6
CONTINUOUS
10
57.4086870000000005
20
-19.4396459999999998
11
57.4154769999999957
21
-19.4424589999999995
0
LINE
8
BLACK
6
CONTINUOUS
10
57.4154769999999957
20
-19.4424589999999995
11
57.4207269999999994
21
-19.4477089999999997
0
LINE
8
BLACK
6
CONTINUOUS
10
57.4207269999999994
20
-19.4477089999999997
11
57.4268969999999968
21
-19.4518409999999982
0
LINE
8
BLACK
6
CONTINUOUS
10
57.4268969999999968
20
-19.4518409999999982
11
57.4361169999999959
21
-19.4630989999999997
0
LINE
8
BLACK
6
CONTINUOUS
10
57.4361169999999959
20
-19.4630989999999997
11
57.4361689999999996
21
-19.4631509999999999
0
LINE
8
BLACK
6
CONTINUOUS
10
57.4361689999999996
20
-19.4631509999999999
11
57.4361779999999982
21
-19.4631729999999976
0
LINE
8
BLACK
6
CONTINUOUS
10
57.4361779999999982
20
-19.4631729999999976
11
57.4362129999999951
21
-19.4632159999999992
0
LINE
8
BLACK
6
CONTINUOUS
10
57.4362129999999951
20
-19.4632159999999992
11
57.5273309999999967
21
-19.599893999999999
0
LINE
8
BLACK
6
CONTINUOUS
10
57.5273309999999967
20
-19.599893999999999
11
57.608711999999997
21
-19.6812749999999994
0
LINE
8
BLACK
6
CONTINUOUS
10
57.608711999999997
20
-19.6812749999999994
11
57.6930639999999997
21
-19.7234510000000007
0
LINE
8
BLACK
6
CONTINUOUS
10
57.6930639999999997
20
-19.7234510000000007
11
57.7055069999999972
21
-19.7312829999999977
0
LINE
8
BLACK
6
CONTINUOUS
10
57.7055069999999972
20
-19.7312829999999977
11
57.7246799999999993
21
-19.7533910000000006
0
LINE
8
BLACK
6
CONTINUOUS
10
57.7246799999999993
20
-19.7533910000000006
11
57.7339339999999979
21
-19.7811519999999987
0
LINE
8
BLACK
6
CONTINUOUS
10
57.7339339999999979
20
-19.7811519999999987
11
57.7318599999999975
21
-19.8103419999999986
0
LINE
8
BLACK
6
CONTINUOUS
10
57.7318599999999975
20
-19.8103419999999986
11
57.7187719999999942
21
-19.8365170000000006
0
LINE
8
BLACK
6
CONTINUOUS
10
57.7187719999999942
20
-19.8365170000000006
11
57.6966649999999959
21
-19.8556899999999992
0
LINE
8
BLACK
6
CONTINUOUS
10
57.6966649999999959
20
-19.8556899999999992
11
57.6689030000000002
21
-19.8649439999999977
0
LINE
8
BLACK
6
CONTINUOUS
10
57.6689030000000002
20
-19.8649439999999977
11
57.6397130000000004
21
-19.8628699999999974
0
LINE
8
BLACK
6
CONTINUOUS
10
57.6397130000000004
20
-19.8628699999999974
11
57.6259820000000005
21
-19.8576149999999991
0
LINE
8
BLACK
6
CONTINUOUS
10
57.6259820000000005
20
-19.8576149999999991
11
57.5307439999999986
21
-19.8099959999999982
0
LINE
8
BLACK
6
CONTINUOUS
10
57.5307439999999986
20
-19.8099959999999982
11
57.5244489999999971
21
-19.8060329999999993
0
LINE
8
BLACK
6
CONTINUOUS
10
57.5244489999999971
20
-19.8060329999999993
11
57.5226169999999968
21
-19.8052749999999982
0
LINE
8
BLACK
6
CONTINUOUS
10
57.5226169999999968
20
-19.8052749999999982
11
57.5205549999999945
21
-19.8035829999999997
0
LINE
8
BLACK
6
CONTINUOUS
10
57.5205549999999945
20
-19.8035829999999997
11
57.5183009999999939
21
-19.8021639999999977
0
LINE
8
BLACK
6
CONTINUOUS
10
57.5183009999999939
20
-19.8021639999999977
11
57.517001999999998
21
-19.8006670000000007
0
LINE
8
BLACK
6
CONTINUOUS
10
57.517001999999998
20
-19.8006670000000007
11
57.5112519999999989
21
-19.7959469999999982
0
LINE
8
BLACK
6
CONTINUOUS
10
57.5112519999999989
20
-19.7959469999999982
11
57.4488089999999971
21
-19.7335039999999999
0
LINE
8
BLACK
6
CONTINUOUS
10
57.4488089999999971
20
-19.7335039999999999
11
57.4488089999999971
21
-20.4298189999999984
0
LINE
8
BLACK
6
CONTINUOUS
10
57.4488089999999971
20
-20.4298189999999984
11
57.6595230000000001
21
-20.4298189999999984
0
LINE
8
BLACK
6
CONTINUOUS
10
57.6595230000000001
20
-20.4298189999999984
11
57.6741549999999989
21
-20.4312599999999982
0
LINE
8
BLACK
6
CONTINUOUS
10
57.6741549999999989
20
-20.4312599999999982
11
57.7011909999999943
21
-20.4424589999999995
0
LINE
8
BLACK
6
CONTINUOUS
10
57.7011909999999943
20
-20.4424589999999995
11
57.7218829999999983
21
-20.4631509999999999
0
LINE
8
BLACK
6
CONTINUOUS
10
57.7218829999999983
20
-20.4631509999999999
11
57.733081999999996
21
-20.4901869999999988
0
LINE
8
BLACK
6
CONTINUOUS
10
57.733081999999996
20
-20.4901869999999988
11
57.733081999999996
21
-20.5194510000000001
0
LINE
8
BLACK
6
CONTINUOUS
10
57.733081999999996
20
-20.5194510000000001
11
57.7218829999999983
21
-20.5464869999999991
0
LINE
8
BLACK
6
CONTINUOUS
10
57.7218829999999983
20
-20.5464869999999991
11
57.7011909999999943
21
-20.5671789999999994
0
LINE
8
BLACK
6
CONTINUOUS
10
57.7011909999999943
20
-20.5671789999999994
11
57.6741549999999989
21
-20.5783780000000007
0
LINE
8
BLACK
6
CONTINUOUS
10
57.6741549999999989
20
-20.5783780000000007
11
57.6595230000000001
21
-20.5798190000000005
0
LINE
8
BLACK
6
CONTINUOUS
10
57.6595230000000001
20
-20.5798190000000005
11
57.0880949999999956
21
-20.5798190000000005
0
LINE
8
BLACK
6
CONTINUOUS
10
57.0880949999999956
20
-20.5798190000000005
11
57.0734629999999967
21
-20.5783780000000007
0
LINE
8
BLACK
6
CONTINUOUS
10
57.0734629999999967
20
-20.5783780000000007
11
57.0464269999999942
21
-20.5671789999999994
0
LINE
8
BLACK
6
CONTINUOUS
10
57.0464269999999942
20
-20.5671789999999994
11
57.0257349999999974
21
-20.5464869999999991
0
LINE
8
BLACK
6
CONTINUOUS
10
57.0257349999999974
20
-20.5464869999999991
11
57.0145359999999997
21
-20.5194510000000001
0
LINE
8
BLACK
6
CONTINUOUS
10
57.0145359999999997
20
-20.5194510000000001
11
57.0145359999999997
21
-20.4901869999999988
0
LINE
8
BLACK
6
CONTINUOUS
10
57.0145359999999997
20
-20.4901869999999988
11
57.0257349999999974
21
-20.4631509999999999
0
LINE
8
BLACK
6
CONTINUOUS
10
57.0257349999999974
20
-20.4631509999999999
11
57.0464269999999942
21
-20.4424589999999995
0
LINE
8
BLACK
6
CONTINUOUS
10
57.0464269999999942
20
-20.4424589999999995
11
57.0734629999999967
21
-20.4312599999999982
0
LINE
8
BLACK
6
CONTINUOUS
10
57.0734629999999967
20
-20.4312599999999982
11
57.0880949999999956
21
-20.4298189999999984
0
LINE
8
BLACK
6
CONTINUOUS
10
57.0880949999999956
20
-20.4298189999999984
11
57.2988089999999985
21
-20.4298189999999984
0
LINE
8
BLACK
6
CONTINUOUS
10
57.2988089999999985
20
-20.4298189999999984
11
57.2988089999999985
21
-19.5048189999999977
0
LINE
8
BLACK
6
CONTINUOUS
10
57.2988089999999985
20
-19.5048189999999977
11
57.2988140000000001
21
-19.504766
0
LINE
8
BLACK
6
CONTINUOUS
10
57.2988140000000001
20
-19.504766
11
57.2988089999999985
21
-19.5047399999999982
0
LINE
8
BLACK
6
CONTINUOUS
10
57.2988089999999985
20
-19.5047399999999982
11
57.2988239999999962
21
-19.5046630000000007
0
LINE
8
BLACK
6
CONTINUOUS
10
57.2988239999999962
20
-19.5046630000000007
11
57.3002499999999984
21
-19.4901869999999988
0
LINE
8
BLACK
6
CONTINUOUS
10
57.3002499999999984
20
-19.4901869999999988
11
57.3030909999999949
21
-19.4833259999999981
0
LINE
8
BLACK
6
CONTINUOUS
10
57.3030909999999949
20
-19.4833259999999981
11
57.3045479999999969
21
-19.4760460000000002
0
LINE
8
BLACK
6
CONTINUOUS
10
57.3045479999999969
20
-19.4760460000000002
11
57.3086359999999999
21
-19.4699399999999976
0
LINE
8
BLACK
6
CONTINUOUS
10
57.3086359999999999
20
-19.4699399999999976
11
57.3114489999999961
21
-19.4631509999999999
0
LINE
8
BLACK
6
CONTINUOUS
10
57.3114489999999961
20
-19.4631509999999999
11
57.3166989999999998
21
-19.4578999999999986
0
LINE
8
BLACK
6
CONTINUOUS
10
57.3166989999999998
20
-19.4578999999999986
11
57.3208309999999983
21
-19.4517309999999988
0
LINE
8
BLACK
6
CONTINUOUS
10
57.3208309999999983
20
-19.4517309999999988
11
57.3269449999999949
21
-19.447654
0
LINE
8
BLACK
6
CONTINUOUS
10
57.3269449999999949
20
-19.447654
11
57.332141
21
-19.4424589999999995
0
LINE
8
BLACK
6
CONTINUOUS
10
57.332141
20
-19.4424589999999995
11
57.3390009999999961
21
-19.4396169999999984
0
LINE
8
BLACK
6
CONTINUOUS
10
57.3390009999999961
20
-19.4396169999999984
11
57.3451799999999992
21
-19.4354979999999991
0
LINE
8
BLACK
6
CONTINUOUS
10
57.3451799999999992
20
-19.4354979999999991
11
57.3523879999999977
21
-19.4340720000000005
0
LINE
8
BLACK
6
CONTINUOUS
10
57.3523879999999977
20
-19.4340720000000005
11
57.3591769999999954
21
-19.4312599999999982
0
LINE
8
BLACK
6
CONTINUOUS
10
57.3591769999999954
20
-19.4312599999999982
11
57.3666039999999953
21
-19.4312599999999982
0
LINE
8
BLACK
6
CONTINUOUS
10
57.3666039999999953
20
-19.4312599999999982
11
57.3738880000000009
21
-19.4298189999999984
0
LINE
8
BLACK
6
CONTINUOUS
10
57.3738880000000009
20
-19.4298189999999984
11
57.3810929999999999
21
-19.4312599999999982
0
LINE
8
BLACK
6
CONTINUOUS
10
58.3334739999999954
20
-19.4312599999999982
11
58.3408219999999957
21
-19.4312599999999982
0
LINE
8
BLACK
6
CONTINUOUS
10
58.3408219999999957
20
-19.4312599999999982
11
58.3476819999999989
21
-19.4341009999999983
0
LINE
8
BLACK
6
CONTINUOUS
10
58.3476819999999989
20
-19.4341009999999983
11
58.3549629999999979
21
-19.4355580000000003
0
LINE
8
BLACK
6
CONTINUOUS
10
58.3549629999999979
20
-19.4355580000000003
11
58.3610679999999959
21
-19.4396459999999998
0
LINE
8
BLACK
6
CONTINUOUS
10
58.3610679999999959
20
-19.4396459999999998
11
58.3678579999999982
21
-19.4424589999999995
0
LINE
8
BLACK
6
CONTINUOUS
10
58.3678579999999982
20
-19.4424589999999995
11
58.3731079999999949
21
-19.4477089999999997
0
LINE
8
BLACK
6
CONTINUOUS
10
58.3731079999999949
20
-19.4477089999999997
11
58.3792779999999993
21
-19.4518409999999982
0
LINE
8
BLACK
6
CONTINUOUS
10
58.3792779999999993
20
-19.4518409999999982
11
58.3884979999999985
21
-19.4630989999999997
0
LINE
8
BLACK
6
CONTINUOUS
10
58.3884979999999985
20
-19.4630989999999997
11
58.3885499999999951
21
-19.4631509999999999
0
LINE
8
BLACK
6
CONTINUOUS
10
58.3885499999999951
20
-19.4631509999999999
11
58.3885590000000008
21
-19.4631729999999976
0
LINE
8
BLACK
6
CONTINUOUS
10
58.3885590000000008
20
-19.4631729999999976
11
58.3885939999999977
21
-19.4632159999999992
0
LINE
8
BLACK
6
CONTINUOUS
10
58.3885939999999977
20
-19.4632159999999992
11
58.4797119999999993
21
-19.599893999999999
0
LINE
8
BLACK
6
CONTINUOUS
10
58.4797119999999993
20
-19.599893999999999
11
58.5610929999999996
21
-19.6812749999999994
0
LINE
8
BLACK
6
CONTINUOUS
10
58.5610929999999996
20
-19.6812749999999994
11
58.6454449999999952
21
-19.7234510000000007
0
LINE
8
BLACK
6
CONTINUOUS
10
58.6454449999999952
20
-19.7234510000000007
11
58.6578879999999998
21
-19.7312829999999977
0
LINE
8
BLACK
6
CONTINUOUS
10
58.6578879999999998
20
-19.7312829999999977
11
58.6770609999999948
21
-19.7533910000000006
0
LINE
8
BLACK
6
CONTINUOUS
10
58.6770609999999948
20
-19.7533910000000006
11
58.6863150000000005
21
-19.7811519999999987
0
LINE
8
BLACK
6
CONTINUOUS
10
58.6863150000000005
20
-19.7811519999999987
11
58.6842410000000001
21
-19.8103419999999986
0
LINE
8
BLACK
6
CONTINUOUS
10
58.6842410000000001
20
-19.8103419999999986
11
58.6711529999999968
21
-19.8365170000000006
0
LINE
8
BLACK
6
CONTINUOUS
10
58.6711529999999968
20
-19.8365170000000006
11
58.6490459999999985
21
-19.8556899999999992
0
LINE
8
BLACK
6
CONTINUOUS
10
58.6490459999999985
20
-19.8556899999999992
11
58.6212839999999957
21
-19.8649439999999977
0
LINE
8
BLACK
6
CONTINUOUS
10
58.6212839999999957
20
-19.8649439999999977
11
58.5920939999999959
21
-19.8628699999999974
0
LINE
8
BLACK
6
CONTINUOUS
10
58.5920939999999959
20
-19.8628699999999974
11
58.578362999999996
21
-19.8576149999999991
0
LINE
8
BLACK
6
CONTINUOUS
10
58.578362999999996
20
-19.8576149999999991
11
58.483124999999994
21
-19.8099959999999982
0
LINE
8
BLACK
6
CONTINUOUS
10
58.483124999999994
20
-19.8099959999999982
11
58.4768299999999996
21
-19.8060329999999993
0
LINE
8
BLACK
6
CONTINUOUS
10
58.4768299999999996
20
-19.8060329999999993
11
58.4749979999999994
21
-19.8052749999999982
0
LINE
8
BLACK
6
CONTINUOUS
10
58.4749979999999994
20
-19.8052749999999982
11
58.4729359999999971
21
-19.8035829999999997
0
LINE
8
BLACK
6
CONTINUOUS
10
58.4729359999999971
20
-19.8035829999999997
11
58.4706819999999965
21
-19.8021639999999977
0
LINE
8
BLACK
6
CONTINUOUS
10
58.4706819999999965
20
-19.8021639999999977
11
58.4693830000000005
21
-19.8006670000000007
0
LINE
8
BLACK
6
CONTINUOUS
10
58.4693830000000005
20
-19.8006670000000007
11
58.4636329999999944
21
-19.7959469999999982
0
LINE
8
BLACK
6
CONTINUOUS
10
58.4636329999999944
20
-19.7959469999999982
11
58.4011899999999997
21
-19.7335039999999999
0
LINE
8
BLACK
6
CONTINUOUS
10
58.4011899999999997
20
-19.7335039999999999
11
58.4011899999999997
21
-20.4298189999999984
0
LINE
8
BLACK
6
CONTINUOUS
10
58.4011899999999997
20
-20.4298189999999984
11
58.6119039999999956
21
-20.4298189999999984
0
LINE
8
BLACK
6
CONTINUOUS
10
58.6119039999999956
20
-20.4298189999999984
11
58.6265359999999944
21
-20.4312599999999982
0
LINE
8
BLACK
6
CONTINUOUS
10
58.6265359999999944
20
-20.4312599999999982
11
58.6535719999999969
21
-20.4424589999999995
0
LINE
8
BLACK
6
CONTINUOUS
10
58.6535719999999969
20
-20.4424589999999995
11
58.6742640000000009
21
-20.4631509999999999
0
LINE
8
BLACK
6
CONTINUOUS
10
58.6742640000000009
20
-20.4631509999999999
11
58.6854629999999986
21
-20.4901869999999988
0
LINE
8
BLACK
6
CONTINUOUS
10
58.6854629999999986
20
-20.4901869999999988
11
58.6854629999999986
21
-20.5194510000000001
0
LINE
8
BLACK
6
CONTINUOUS
10
58.6854629999999986
20
-20.5194510000000001
11
58.6742640000000009
21
-20.5464869999999991
0
LINE
8
BLACK
6
CONTINUOUS
10
58.6742640000000009
20
-20.5464869999999991
11
58.6535719999999969
21
-20.5671789999999994
0
LINE
8
BLACK
6
CONTINUOUS
10
58.6535719999999969
20
-20.5671789999999994
11
58.6265359999999944
21
-20.5783780000000007
0
LINE
8
BLACK
6
CONTINUOUS
10
58.6265359999999944
20
-20.5783780000000007
11
58.6119039999999956
21
-20.5798190000000005
0
LINE
8
BLACK
6
CONTINUOUS
10
58.6119039999999956
20
-20.5798190000000005
11
58.0404759999999982
21
-20.5798190000000005
0
LINE
8
BLACK
6
CONTINUOUS
10
58.0404759999999982
20
-20.5798190000000005
11
58.0258439999999993
21
-20.5783780000000007
0
LINE
8
BLACK
6
CONTINUOUS
10
58.0258439999999993
20
-20.5783780000000007
11
57.9988079999999968
21
-20.5671789999999994
0
LINE
8
BLACK
6
CONTINUOUS
10
57.9988079999999968
20
-20.5671789999999994
11
57.978116
21
-20.5464869999999991
0
LINE
8
BLACK
6
CONTINUOUS
10
57.978116
20
-20.5464869999999991
11
57.9669169999999951
21
-20.5194510000000001
0
LINE
8
BLACK
6
CONTINUOUS
10
57.9669169999999951
20
-20.5194510000000001
11
57.9669169999999951
21
-20.4901869999999988
0
LINE
8
BLACK
6
CONTINUOUS
10
57.9669169999999951
20
-20.4901869999999988
11
57.978116
21
-20.4631509999999999
0
LINE
8
BLACK
6
CONTINUOUS
10
57.978116
20
-20.4631509999999999
11
57.9988079999999968
21
-20.4424589999999995
0
LINE
8
BLACK
6
CONTINUOUS
10
57.9988079999999968
20
-20.4424589999999995
11
58.0258439999999993
21
-20.4312599999999982
0
LINE
8
BLACK
6
CONTINUOUS
10
58.0258439999999993
20
-20.4312599999999982
11
58.0404759999999982
21
-20.4298189999999984
0
LINE
8
BLACK
6
CONTINUOUS
10
58.0404759999999982
20
-20.4298189999999984
11
58.251189999999994
21
-20.4298189999999984
0
LINE
8
BLACK
6
CONTINUOUS
10
58.251189999999994
20
-20.4298189999999984
11
58.251189999999994
21
-19.5048189999999977
0
LINE
8
BLACK
6
CONTINUOUS
10
58.251189999999994
20
-19.5048189999999977
11
58.2511949999999956
21
-19.504766
0
LINE
8
BLACK
6
CONTINUOUS
10
58.2511949999999956
20
-19.504766
11
58.251189999999994
21
-19.5047399999999982
0
LINE
8
BLACK
6
CONTINUOUS
10
58.251189999999994
20
-19.5047399999999982
11
58.2512049999999988
21
-19.5046630000000007
0
LINE
8
BLACK
6
CONTINUOUS
10
58.2512049999999988
20
-19.5046630000000007
11
58.2526309999999938
21
-19.4901869999999988
0
LINE
8
BLACK
6
CONTINUOUS
10
58.2526309999999938
20
-19.4901869999999988
11
58.2554719999999975
21
-19.4833259999999981
0
LINE
8
BLACK
6
CONTINUOUS
10
58.2554719999999975
20
-19.4833259999999981
11
58.2569289999999995
21
-19.4760460000000002
0
LINE
8
BLACK
6
CONTINUOUS
10
58.2569289999999995
20
-19.4760460000000002
11
58.2610169999999954
21
-19.4699399999999976
0
LINE
8
BLACK
6
CONTINUOUS
10
58.2610169999999954
20
-19.4699399999999976
11
58.2638299999999987
21
-19.4631509999999999
0
LINE
8
BLACK
6
CONTINUOUS
10
58.2638299999999987
20
-19.4631509999999999
11
58.2690799999999953
21
-19.4578999999999986
0
LINE
8
BLACK
6
CONTINUOUS
10
58.2690799999999953
20
-19.4578999999999986
11
58.2732120000000009
21
-19.4517309999999988
0
LINE
8
BLACK
6
CONTINUOUS
10
58.2732120000000009
20
-19.4517309999999988
11
58.2793259999999975
21
-19.447654
0
LINE
8
BLACK
6
CONTINUOUS
10
58.2793259999999975
20
-19.447654
11
58.2845219999999955
21
-19.4424589999999995
0
LINE
8
BLACK
6
CONTINUOUS
10
58.2845219999999955
20
-19.4424589999999995
11
58.2913819999999987
21
-19.4396169999999984
0
LINE
8
BLACK
6
CONTINUOUS
10
58.2913819999999987
20
-19.4396169999999984
11
58.2975609999999946
21
-19.4354979999999991
0
LINE
8
BLACK
6
CONTINUOUS
10
58.2975609999999946
20
-19.4354979999999991
11
58.3047690000000003
21
-19.4340720000000005
0
LINE
8
BLACK
6
CONTINUOUS
10
58.3047690000000003
20
-19.4340720000000005
11
58.311557999999998
21
-19.4312599999999982
0
LINE
8
BLACK
6
CONTINUOUS
10
58.311557999999998
20
-19.4312599999999982
11
58.3189849999999979
21
-19.4312599999999982
0
LINE
8
BLACK
6
CONTINUOUS
10
58.3189849999999979
20
-19.4312599999999982
11
58.3262689999999964
21
-19.4298189999999984
0
LINE
8
BLACK
6
CONTINUOUS
10
58.3262689999999964
20
-19.4298189999999984
11
58.3334739999999954
21
-19.4312599999999982
0
LINE
8
BLACK
6
CONTINUOUS
10
59.285975999999998
20
-19.4305479999999982
11
59.2879509999999996
21
-19.4304079999999999
0
LINE
8
BLACK
6
CONTINUOUS
10
59.2879509999999996
20
-19.4304079999999999
11
59.290547999999994
21
-19.4309979999999989
0
LINE
8
BLACK
6
CONTINUOUS
10
59.290547999999994
20
-19.4309979999999989
11
59.2932029999999983
21
-19.4312599999999982
0
LINE
8
BLACK
6
CONTINUOUS
10
59.2932029999999983
20
-19.4312599999999982
11
59.295033999999994
21
-19.4320179999999993
0
LINE
8
BLACK
6
CONTINUOUS
10
59.295033999999994
20
-19.4320179999999993
11
59.3022879999999972
21
-19.4336680000000008
0
LINE
8
BLACK
6
CONTINUOUS
10
59.3022879999999972
20
-19.4336680000000008
11
59.4451449999999966
21
-19.4812869999999982
0
LINE
8
BLACK
6
CONTINUOUS
10
59.4451449999999966
20
-19.4812869999999982
11
59.4585699999999946
21
-19.4872809999999994
0
LINE
8
BLACK
6
CONTINUOUS
10
59.4585699999999946
20
-19.4872809999999994
11
59.4606049999999939
21
-19.4890459999999983
0
LINE
8
BLACK
6
CONTINUOUS
10
59.4606049999999939
20
-19.4890459999999983
11
59.4630960000000002
21
-19.4900780000000005
0
LINE
8
BLACK
6
CONTINUOUS
10
59.4630960000000002
20
-19.4900780000000005
11
59.474460999999998
21
-19.4994049999999994
0
LINE
8
BLACK
6
CONTINUOUS
10
59.474460999999998
20
-19.4994049999999994
11
59.569699
21
-19.5946429999999978
0
LINE
8
BLACK
6
CONTINUOUS
10
59.569699
20
-19.5946429999999978
11
59.5744189999999989
21
-19.6003930000000004
0
LINE
8
BLACK
6
CONTINUOUS
10
59.5744189999999989
20
-19.6003930000000004
11
59.5759159999999994
21
-19.6016919999999999
0
LINE
8
BLACK
6
CONTINUOUS
10
59.5759159999999994
20
-19.6016919999999999
11
59.5773349999999979
21
-19.6039460000000005
0
LINE
8
BLACK
6
CONTINUOUS
10
59.5773349999999979
20
-19.6039460000000005
11
59.5790269999999964
21
-19.6060079999999992
0
LINE
8
BLACK
6
CONTINUOUS
10
59.5790269999999964
20
-19.6060079999999992
11
59.579784999999994
21
-19.6078399999999995
0
LINE
8
BLACK
6
CONTINUOUS
10
59.579784999999994
20
-19.6078399999999995
11
59.5837479999999999
21
-19.6141349999999974
0
LINE
8
BLACK
6
CONTINUOUS
10
59.5837479999999999
20
-19.6141349999999974
11
59.6313669999999973
21
-19.7093729999999994
0
LINE
8
BLACK
6
CONTINUOUS
10
59.6313669999999973
20
-19.7093729999999994
11
59.631775999999995
21
-19.7104420000000005
0
LINE
8
BLACK
6
CONTINUOUS
10
59.631775999999995
20
-19.7104420000000005
11
59.6320989999999966
21
-19.7108779999999975
0
LINE
8
BLACK
6
CONTINUOUS
10
59.6320989999999966
20
-19.7108779999999975
11
59.6342849999999984
21
-19.7169969999999992
0
LINE
8
BLACK
6
CONTINUOUS
10
59.6342849999999984
20
-19.7169969999999992
11
59.6366219999999956
21
-19.7231039999999993
0
LINE
8
BLACK
6
CONTINUOUS
10
59.6366219999999956
20
-19.7231039999999993
11
59.6366599999999991
21
-19.7236440000000002
0
LINE
8
BLACK
6
CONTINUOUS
10
59.6366599999999991
20
-19.7236440000000002
11
59.637045999999998
21
-19.7247239999999984
0
LINE
8
BLACK
6
CONTINUOUS
10
59.637045999999998
20
-19.7247239999999984
11
59.6846649999999954
21
-19.9151999999999987
0
LINE
8
BLACK
6
CONTINUOUS
10
59.6846649999999954
20
-19.9151999999999987
11
59.6850400000000008
21
-19.9177359999999979
0
LINE
8
BLACK
6
CONTINUOUS
10
59.6850400000000008
20
-19.9177359999999979
11
59.6854629999999986
21
-19.9187580000000004
0
LINE
8
BLACK
6
CONTINUOUS
10
59.6854629999999986
20
-19.9187580000000004
11
59.6860049999999944
21
-19.9242699999999999
0
LINE
8
BLACK
6
CONTINUOUS
10
59.6860049999999944
20
-19.9242699999999999
11
59.6868149999999957
21
-19.9297439999999995
0
LINE
8
BLACK
6
CONTINUOUS
10
59.6868149999999957
20
-19.9297439999999995
11
59.6866519999999952
21
-19.9308359999999993
0
LINE
8
BLACK
6
CONTINUOUS
10
59.6866519999999952
20
-19.9308359999999993
11
59.6869039999999984
21
-19.9333899999999993
0
LINE
8
BLACK
6
CONTINUOUS
10
59.6869039999999984
20
-19.9333899999999993
11
59.6869039999999984
21
-20.0762469999999986
0
LINE
8
BLACK
6
CONTINUOUS
10
59.6869039999999984
20
-20.0762469999999986
11
59.6866519999999952
21
-20.0787999999999975
0
LINE
8
BLACK
6
CONTINUOUS
10
59.6866519999999952
20
-20.0787999999999975
11
59.6868149999999957
21
-20.0798929999999984
0
LINE
8
BLACK
6
CONTINUOUS
10
59.6868149999999957
20
-20.0798929999999984
11
59.6860049999999944
21
-20.0853660000000005
0
LINE
8
BLACK
6
CONTINUOUS
10
59.6860049999999944
20
-20.0853660000000005
11
59.6854629999999986
21
-20.0908789999999975
0
LINE
8
BLACK
6
CONTINUOUS
10
59.6854629999999986
20
-20.0908789999999975
11
59.6850400000000008
21
-20.091899999999999
0
LINE
8
BLACK
6
CONTINUOUS
10
59.6850400000000008
20
-20.091899999999999
11
59.6846649999999954
21
-20.0944369999999992
0
LINE
8
BLACK
6
CONTINUOUS
10
59.6846649999999954
20
-20.0944369999999992
11
59.637045999999998
21
-20.2849129999999995
0
LINE
8
BLACK
6
CONTINUOUS
10
59.637045999999998
20
-20.2849129999999995
11
59.6366599999999991
21
-20.2859920000000002
0
LINE
8
BLACK
6
CONTINUOUS
10
59.6366599999999991
20
-20.2859920000000002
11
59.6366219999999956
21
-20.2865329999999986
0
LINE
8
BLACK
6
CONTINUOUS
10
59.6366219999999956
20
-20.2865329999999986
11
59.6342909999999975
21
-20.2926219999999979
0
LINE
8
BLACK
6
CONTINUOUS
10
59.6342909999999975
20
-20.2926219999999979
11
59.6320989999999966
21
-20.2987590000000004
0
LINE
8
BLACK
6
CONTINUOUS
10
59.6320989999999966
20
-20.2987590000000004
11
59.631775999999995
21
-20.299194
0
LINE
8
BLACK
6
CONTINUOUS
10
59.631775999999995
20
-20.299194
11
59.6313669999999973
21
-20.3002639999999985
0
LINE
8
BLACK
6
CONTINUOUS
10
59.6313669999999973
20
-20.3002639999999985
11
59.5837479999999999
21
-20.3955020000000005
0
LINE
8
BLACK
6
CONTINUOUS
10
59.5837479999999999
20
-20.3955020000000005
11
59.5797839999999965
21
-20.4017979999999994
0
LINE
8
BLACK
6
CONTINUOUS
10
59.5797839999999965
20
-20.4017979999999994
11
59.5790269999999964
21
-20.4036279999999977
0
LINE
8
BLACK
6
CONTINUOUS
10
59.5790269999999964
20
-20.4036279999999977
11
59.577337
21
-20.4056859999999993
0
LINE
8
BLACK
6
CONTINUOUS
10
59.577337
20
-20.4056859999999993
11
59.5759159999999994
21
-20.407944999999998
0
LINE
8
BLACK
6
CONTINUOUS
10
59.5759159999999994
20
-20.407944999999998
11
59.5744169999999968
21
-20.4092439999999975
0
LINE
8
BLACK
6
CONTINUOUS
10
59.5744169999999968
20
-20.4092439999999975
11
59.5696999999999974
21
-20.4149929999999991
0
LINE
8
BLACK
6
CONTINUOUS
10
59.5696999999999974
20
-20.4149929999999991
11
59.474460999999998
21
-20.5102329999999995
0
LINE
8
BLACK
6
CONTINUOUS
10
59.474460999999998
20
-20.5102329999999995
11
59.4630960000000002
21
-20.5195599999999985
0
LINE
8
BLACK
6
CONTINUOUS
10
59.4630960000000002
20
-20.5195599999999985
11
59.4606049999999939
21
-20.5205909999999996
0
LINE
8
BLACK
6
CONTINUOUS
10
59.4606049999999939
20
-20.5205909999999996
11
59.4585699999999946
21
-20.5223569999999995
0
LINE
8
BLACK
6
CONTINUOUS
10
59.4585699999999946
20
-20.5223569999999995
11
59.4451449999999966
21
-20.5283510000000007
0
LINE
8
BLACK
6
CONTINUOUS
10
59.4451449999999966
20
-20.5283510000000007
11
59.3022879999999972
21
-20.5759699999999981
0
LINE
8
BLACK
6
CONTINUOUS
10
59.3022879999999972
20
-20.5759699999999981
11
59.295033999999994
21
-20.5776189999999986
0
LINE
8
BLACK
6
CONTINUOUS
10
59.295033999999994
20
-20.5776189999999986
11
59.2932029999999983
21
-20.5783780000000007
0
LINE
8
BLACK
6
CONTINUOUS
10
59.2932029999999983
20
-20.5783780000000007
11
59.290547999999994
21
-20.578638999999999
0
LINE
8
BLACK
6
CONTINUOUS
10
59.290547999999994
20
-20.578638999999999
11
59.2879509999999996
21
-20.579229999999999
0
LINE
8
BLACK
6
CONTINUOUS
10
59.2879509999999996
20
-20.579229999999999
11
59.285975999999998
21
-20.5790889999999997
0
LINE
8
BLACK
6
CONTINUOUS
10
59.285975999999998
20
-20.5790889999999997
11
59.2785709999999995
21
-20.5798190000000005
0
LINE
8
BLACK
6
CONTINUOUS
10
59.2785709999999995
20
-20.5798190000000005
11
59.1833329999999975
21
-20.5798190000000005
0
LINE
8
BLACK
6
CONTINUOUS
10
59.1833329999999975
20
-20.5798190000000005
11
59.1759259999999969
21
-20.5790889999999997
0
LINE
8
BLACK
6
CONTINUOUS
10
59.1759259999999969
20
-20.5790889999999997
11
59.1739519999999999
21
-20.579229999999999
0
LINE
8
BLACK
6
CONTINUOUS
10
59.1739519999999999
20
-20.579229999999999
11
59.1713539999999938
21
-20.578638999999999
0
LINE
8
BLACK
6
CONTINUOUS
10
59.1713539999999938
20
-20.578638999999999
11
59.1687009999999987
21
-20.5783780000000007
0
LINE
8
BLACK
6
CONTINUOUS
10
59.1687009999999987
20
-20.5783780000000007
11
59.1668699999999959
21
-20.5776189999999986
0
LINE
8
BLACK
6
CONTINUOUS
10
59.1668699999999959
20
-20.5776189999999986
11
59.1596149999999952
21
-20.5759699999999981
0
LINE
8
BLACK
6
CONTINUOUS
10
59.1596149999999952
20
-20.5759699999999981
11
59.0167590000000004
21
-20.5283510000000007
0
LINE
8
BLACK
6
CONTINUOUS
10
59.0167590000000004
20
-20.5283510000000007
11
59.0033329999999978
21
-20.5223569999999995
0
LINE
8
BLACK
6
CONTINUOUS
10
59.0033329999999978
20
-20.5223569999999995
11
59.0012959999999964
21
-20.5205899999999986
0
LINE
8
BLACK
6
CONTINUOUS
10
59.0012959999999964
20
-20.5205899999999986
11
58.9988079999999968
21
-20.5195599999999985
0
LINE
8
BLACK
6
CONTINUOUS
10
58.9988079999999968
20
-20.5195599999999985
11
58.9874419999999944
21
-20.5102319999999985
0
LINE
8
BLACK
6
CONTINUOUS
10
58.9874419999999944
20
-20.5102319999999985
11
58.939822999999997
21
-20.462612
0
LINE
8
BLACK
6
CONTINUOUS
10
58.939822999999997
20
-20.462612
11
58.930495999999998
21
-20.4512469999999986
0
LINE
8
BLACK
6
CONTINUOUS
10
58.930495999999998
20
-20.4512469999999986
11
58.9192979999999977
21
-20.4242109999999997
0
LINE
8
BLACK
6
CONTINUOUS
10
58.9192979999999977
20
-20.4242109999999997
11
58.9192979999999977
21
-20.3949479999999994
0
LINE
8
BLACK
6
CONTINUOUS
10
58.9192979999999977
20
-20.3949479999999994
11
58.9304969999999955
21
-20.3679120000000005
0
LINE
8
BLACK
6
CONTINUOUS
10
58.9304969999999955
20
-20.3679120000000005
11
58.9511899999999969
21
-20.3472189999999991
0
LINE
8
BLACK
6
CONTINUOUS
10
58.9511899999999969
20
-20.3472189999999991
11
58.9782259999999994
21
-20.3360209999999988
0
LINE
8
BLACK
6
CONTINUOUS
10
58.9782259999999994
20
-20.3360209999999988
11
59.0074889999999996
21
-20.3360209999999988
0
LINE
8
BLACK
6
CONTINUOUS
10
59.0074889999999996
20
-20.3360209999999988
11
59.034524999999995
21
-20.3472200000000001
0
LINE
8
BLACK
6
CONTINUOUS
10
59.034524999999995
20
-20.3472200000000001
11
59.0458909999999975
21
-20.3565480000000001
0
LINE
8
BLACK
6
CONTINUOUS
10
59.0458909999999975
20
-20.3565480000000001
11
59.0809899999999999
21
-20.391648
0
LINE
8
BLACK
6
CONTINUOUS
10
59.0809899999999999
20
-20.391648
11
59.1955029999999951
21
-20.4298189999999984
0
LINE
8
BLACK
6
CONTINUOUS
10
59.1955029999999951
20
-20.4298189999999984
11
59.2664009999999948
21
-20.4298189999999984
0
LINE
8
BLACK
6
CONTINUOUS
10
59.2664009999999948
20
-20.4298189999999984
11
59.3809139999999971
21
-20.391646999999999
0
LINE
8
BLACK
6
CONTINUOUS
10
59.3809139999999971
20
-20.391646999999999
11
59.4550259999999966
21
-20.3175339999999984
0
LINE
8
BLACK
6
CONTINUOUS
10
59.4550259999999966
20
-20.3175339999999984
11
59.4935199999999966
21
-20.2405469999999994
0
LINE
8
BLACK
6
CONTINUOUS
10
59.4935199999999966
20
-20.2405469999999994
11
59.5369039999999998
21
-20.0670129999999993
0
LINE
8
BLACK
6
CONTINUOUS
10
59.5369039999999998
20
-20.0670129999999993
11
59.5369039999999998
21
-19.9426239999999986
0
LINE
8
BLACK
6
CONTINUOUS
10
59.5369039999999998
20
-19.9426239999999986
11
59.4935199999999966
21
-19.7690899999999985
0
LINE
8
BLACK
6
CONTINUOUS
10
59.4935199999999966
20
-19.7690899999999985
11
59.4550269999999941
21
-19.6921029999999995
0
LINE
8
BLACK
6
CONTINUOUS
10
59.4550269999999941
20
-19.6921029999999995
11
59.3809139999999971
21
-19.6179899999999989
0
LINE
8
BLACK
6
CONTINUOUS
10
59.3809139999999971
20
-19.6179899999999989
11
59.2664009999999948
21
-19.5798190000000005
0
LINE
8
BLACK
6
CONTINUOUS
10
59.2664009999999948
20
-19.5798190000000005
11
59.1955029999999951
21
-19.5798190000000005
0
LINE
8
BLACK
6
CONTINUOUS
10
59.1955029999999951
20
-19.5798190000000005
11
59.0809899999999999
21
-19.6179899999999989
0
LINE
8
BLACK
6
CONTINUOUS
10
59.0809899999999999
20
-19.6179899999999989
11
59.04589
21
-19.6530899999999988
0
LINE
8
BLACK
6
CONTINUOUS
10
59.04589
20
-19.6530899999999988
11
59.034524999999995
21
-19.6624169999999978
0
LINE
8
BLACK
6
CONTINUOUS
10
59.034524999999995
20
-19.6624169999999978
11
59.0074879999999951
21
-19.6736159999999991
0
LINE
8
BLACK
6
CONTINUOUS
10
59.0074879999999951
20
-19.6736159999999991
11
58.9782259999999994
21
-19.6736159999999991
0
LINE
8
BLACK
6
CONTINUOUS
10
58.9782259999999994
20
-19.6736159999999991
11
58.9511889999999994
21
-19.6624169999999978
0
LINE
8
BLACK
6
CONTINUOUS
10
58.9511889999999994
20
-19.6624169999999978
11
58.9304969999999955
21
-19.6417249999999974
0
LINE
8
BLACK
6
CONTINUOUS
10
58.9304969999999955
20
-19.6417249999999974
11
58.9192979999999977
21
-19.6146879999999975
0
LINE
8
BLACK
6
CONTINUOUS
10
58.9192979999999977
20
-19.6146879999999975
11
58.9192979999999977
21
-19.5854259999999982
0
LINE
8
BLACK
6
CONTINUOUS
10
58.9192979999999977
20
-19.5854259999999982
11
58.9304969999999955
21
-19.5583889999999982
0
LINE
8
BLACK
6
CONTINUOUS
10
58.9304969999999955
20
-19.5583889999999982
11
58.9398239999999944
21
-19.5470240000000004
0
LINE
8
BLACK
6
CONTINUOUS
10
58.9398239999999944
20
-19.5470240000000004
11
58.987442999999999
21
-19.4994049999999994
0
LINE
8
BLACK
6
CONTINUOUS
10
58.987442999999999
20
-19.4994049999999994
11
58.9988079999999968
21
-19.4900780000000005
0
LINE
8
BLACK
6
CONTINUOUS
10
58.9988079999999968
20
-19.4900780000000005
11
59.0012959999999964
21
-19.4890469999999993
0
LINE
8
BLACK
6
CONTINUOUS
10
59.0012959999999964
20
-19.4890469999999993
11
59.0033329999999978
21
-19.4872809999999994
0
LINE
8
BLACK
6
CONTINUOUS
10
59.0033329999999978
20
-19.4872809999999994
11
59.0167590000000004
21
-19.4812869999999982
0
LINE
8
BLACK
6
CONTINUOUS
10
59.0167590000000004
20
-19.4812869999999982
11
59.1596149999999952
21
-19.4336680000000008
0
LINE
8
BLACK
6
CONTINUOUS
10
59.1596149999999952
20
-19.4336680000000008
11
59.1668699999999959
21
-19.4320179999999993
0
LINE
8
BLACK
6
CONTINUOUS
10
59.1668699999999959
20
-19.4320179999999993
11
59.1687009999999987
21
-19.4312599999999982
0
LINE
8
BLACK
6
CONTINUOUS
10
59.1687009999999987
20
-19.4312599999999982
11
59.1713539999999938
21
-19.4309979999999989
0
LINE
8
BLACK
6
CONTINUOUS
10
59.1713539999999938
20
-19.4309979999999989
11
59.1739519999999999
21
-19.4304079999999999
0
LINE
8
BLACK
6
CONTINUOUS
10
59.1739519999999999
20
-19.4304079999999999
11
59.1759259999999969
21
-19.4305479999999982
0
LINE
8
BLACK
6
CONTINUOUS
10
59.1759259999999969
20
-19.4305479999999982
11
59.1833329999999975
21
-19.4298189999999984
0
LINE
8
BLACK
6
CONTINUOUS
10
59.1833329999999975
20
-19.4298189999999984
11
59.2785709999999995
21
-19.4298189999999984
0
LINE
8
BLACK
6
CONTINUOUS
10
59.2785709999999995
20
-19.4298189999999984
11
59.285975999999998
21
-19.4305479999999982
0
LINE
8
BLACK
6
CONTINUOUS
10
56.9603419999999971
20
-18.7919489999999989
11
56.9865169999999992
21
-18.8050369999999987
0
LINE
8
BLACK
6
CONTINUOUS
10
56.9865169999999992
20
-18.8050369999999987
11
57.0056899999999942
21
-18.8271440000000005
0
LINE
8
BLACK
6
CONTINUOUS
10
57.0056899999999942
20
-18.8271440000000005
11
57.0149439999999998
21
-18.8549059999999997
0
LINE
8
BLACK
6
CONTINUOUS
10
57.0149439999999998
20
-18.8549059999999997
11
57.0128699999999995
21
-18.8840959999999995
0
LINE
8
BLACK
6
CONTINUOUS
10
57.0128699999999995
20
-18.8840959999999995
11
57.0076149999999942
21
-18.8978269999999995
0
LINE
8
BLACK
6
CONTINUOUS
10
57.0076149999999942
20
-18.8978269999999995
11
56.9599959999999967
21
-18.9930649999999979
0
LINE
8
BLACK
6
CONTINUOUS
10
56.9599959999999967
20
-18.9930649999999979
11
56.9560329999999979
21
-18.9993589999999983
0
LINE
8
BLACK
6
CONTINUOUS
10
56.9560329999999979
20
-18.9993589999999983
11
56.9552750000000003
21
-19.0011919999999996
0
LINE
8
BLACK
6
CONTINUOUS
10
56.9552750000000003
20
-19.0011919999999996
11
56.9535829999999947
21
-19.0032530000000008
0
LINE
8
BLACK
6
CONTINUOUS
10
56.9535829999999947
20
-19.0032530000000008
11
56.9521639999999962
21
-19.005507999999999
0
LINE
8
BLACK
6
CONTINUOUS
10
56.9521639999999962
20
-19.005507999999999
11
56.9506669999999957
21
-19.0068059999999974
0
LINE
8
BLACK
6
CONTINUOUS
10
56.9506669999999957
20
-19.0068059999999974
11
56.9459469999999968
21
-19.0125569999999975
0
LINE
8
BLACK
6
CONTINUOUS
10
56.9459469999999968
20
-19.0125569999999975
11
56.883503999999995
21
-19.0749999999999993
0
LINE
8
BLACK
6
CONTINUOUS
10
56.883503999999995
20
-19.0749999999999993
11
57.5798190000000005
21
-19.0749999999999993
0
LINE
8
BLACK
6
CONTINUOUS
10
57.5798190000000005
20
-19.0749999999999993
11
57.5798190000000005
21
-18.8642859999999999
0
LINE
8
BLACK
6
CONTINUOUS
10
57.5798190000000005
20
-18.8642859999999999
11
57.5812600000000003
21
-18.8496539999999975
0
LINE
8
BLACK
6
CONTINUOUS
10
57.5812600000000003
20
-18.8496539999999975
11
57.5924589999999981
21
-18.8226179999999985
0
LINE
8
BLACK
6
CONTINUOUS
10
57.5924589999999981
20
-18.8226179999999985
11
57.6131509999999949
21
-18.8019259999999981
0
LINE
8
BLACK
6
CONTINUOUS
10
57.6131509999999949
20
-18.8019259999999981
11
57.6401869999999974
21
-18.7907270000000004
0
LINE
8
BLACK
6
CONTINUOUS
10
57.6401869999999974
20
-18.7907270000000004
11
57.6694509999999951
21
-18.7907270000000004
0
LINE
8
BLACK
6
CONTINUOUS
10
57.6694509999999951
20
-18.7907270000000004
11
57.6964869999999976
21
-18.8019259999999981
0
LINE
8
BLACK
6
CONTINUOUS
10
57.6964869999999976
20
-18.8019259999999981
11
57.7171789999999945
21
-18.8226179999999985
0
LINE
8
BLACK
6
CONTINUOUS
10
57.7171789999999945
20
-18.8226179999999985
11
57.7283779999999993
21
-18.8496539999999975
0
LINE
8
BLACK
6
CONTINUOUS
10
57.7283779999999993
20
-18.8496539999999975
11
57.7298189999999991
21
-18.8642859999999999
0
LINE
8
BLACK
6
CONTINUOUS
10
57.7298189999999991
20
-18.8642859999999999
11
57.7298189999999991
21
-19.4357140000000008
0
LINE
8
BLACK
6
CONTINUOUS
10
57.7298189999999991
20
-19.4357140000000008
11
57.7283779999999993
21
-19.4503459999999997
0
LINE
8
BLACK
6
CONTINUOUS
10
57.7283779999999993
20
-19.4503459999999997
11
57.7171789999999945
21
-19.4773819999999986
0
LINE
8
BLACK
6
CONTINUOUS
10
57.7171789999999945
20
-19.4773819999999986
11
57.6964869999999976
21
-19.498073999999999
0
LINE
8
BLACK
6
CONTINUOUS
10
57.6964869999999976
20
-19.498073999999999
11
57.6694509999999951
21
-19.5092730000000003
0
LINE
8
BLACK
6
CONTINUOUS
10
57.6694509999999951
20
-19.5092730000000003
11
57.6401869999999974
21
-19.5092730000000003
0
LINE
8
BLACK
6
CONTINUOUS
10
57.6401869999999974
20
-19.5092730000000003
11
57.6131509999999949
21
-19.498073999999999
0
LINE
8
BLACK
6
CONTINUOUS
10
57.6131509999999949
20
-19.498073999999999
11
57.5924589999999981
21
-19.4773819999999986
0
LINE
8
BLACK
6
CONTINUOUS
10
57.5924589999999981
20
-19.4773819999999986
11
57.5812600000000003
21
-19.4503459999999997
0
LINE
8
BLACK
6
CONTINUOUS
10
57.5812600000000003
20
-19.4503459999999997
11
57.5798190000000005
21
-19.4357140000000008
0
LINE
8
BLACK
6
CONTINUOUS
10
57.5798190000000005
20
-19.4357140000000008
11
57.5798190000000005
21
-19.2249999999999979
0
LINE
8
BLACK
6
CONTINUOUS
10
57.5798190000000005
20
-19.2249999999999979
11
56.6548189999999963
21
-19.2249999999999979
0
LINE
8
BLACK
6
CONTINUOUS
10
56.6548189999999963
20
-19.2249999999999979
11
56.6547659999999951
21
-19.2249939999999988
0
LINE
8
BLACK
6
CONTINUOUS
10
56.6547659999999951
20
-19.2249939999999988
11
56.6547399999999968
21
-19.2249999999999979
0
LINE
8
BLACK
6
CONTINUOUS
10
56.6547399999999968
20
-19.2249999999999979
11
56.6546629999999993
21
-19.2249839999999992
0
LINE
8
BLACK
6
CONTINUOUS
10
56.6546629999999993
20
-19.2249839999999992
11
56.6401869999999974
21
-19.2235589999999981
0
LINE
8
BLACK
6
CONTINUOUS
10
56.6401869999999974
20
-19.2235589999999981
11
56.6333259999999967
21
-19.2207170000000005
0
LINE
8
BLACK
6
CONTINUOUS
10
56.6333259999999967
20
-19.2207170000000005
11
56.6260459999999952
21
-19.2192609999999995
0
LINE
8
BLACK
6
CONTINUOUS
10
56.6260459999999952
20
-19.2192609999999995
11
56.6199399999999997
21
-19.215171999999999
0
LINE
8
BLACK
6
CONTINUOUS
10
56.6199399999999997
20
-19.215171999999999
11
56.6131509999999949
21
-19.2123600000000003
0
LINE
8
BLACK
6
CONTINUOUS
10
56.6131509999999949
20
-19.2123600000000003
11
56.6079000000000008
21
-19.2071089999999991
0
LINE
8
BLACK
6
CONTINUOUS
10
56.6079000000000008
20
-19.2071089999999991
11
56.6017310000000009
21
-19.2029779999999981
0
LINE
8
BLACK
6
CONTINUOUS
10
56.6017310000000009
20
-19.2029779999999981
11
56.5976539999999986
21
-19.1968630000000005
0
LINE
8
BLACK
6
CONTINUOUS
10
56.5976539999999986
20
-19.1968630000000005
11
56.5924589999999981
21
-19.1916679999999999
0
LINE
8
BLACK
6
CONTINUOUS
10
56.5924589999999981
20
-19.1916679999999999
11
56.5896169999999969
21
-19.1848069999999993
0
LINE
8
BLACK
6
CONTINUOUS
10
56.5896169999999969
20
-19.1848069999999993
11
56.5854979999999941
21
-19.1786290000000008
0
LINE
8
BLACK
6
CONTINUOUS
10
56.5854979999999941
20
-19.1786290000000008
11
56.584071999999999
21
-19.1714199999999977
0
LINE
8
BLACK
6
CONTINUOUS
10
56.584071999999999
20
-19.1714199999999977
11
56.5812600000000003
21
-19.1646319999999974
0
LINE
8
BLACK
6
CONTINUOUS
10
56.5812600000000003
20
-19.1646319999999974
11
56.5812600000000003
21
-19.1572049999999976
0
LINE
8
BLACK
6
CONTINUOUS
10
56.5812600000000003
20
-19.1572049999999976
11
56.5798190000000005
21
-19.1499209999999991
0
LINE
8
BLACK
6
CONTINUOUS
10
56.5798190000000005
20
-19.1499209999999991
11
56.5812600000000003
21
-19.1427160000000001
0
LINE
8
BLACK
6
CONTINUOUS
10
56.5812600000000003
20
-19.1427160000000001
11
56.5812600000000003
21
-19.1353679999999997
0
LINE
8
BLACK
6
CONTINUOUS
10
56.5812600000000003
20
-19.1353679999999997
11
56.5841009999999969
21
-19.128506999999999
0
LINE
8
BLACK
6
CONTINUOUS
10
56.5841009999999969
20
-19.128506999999999
11
56.5855579999999989
21
-19.1212269999999975
0
LINE
8
BLACK
6
CONTINUOUS
10
56.5855579999999989
20
-19.1212269999999975
11
56.5896459999999948
21
-19.1151209999999985
0
LINE
8
BLACK
6
CONTINUOUS
10
56.5896459999999948
20
-19.1151209999999985
11
56.5924589999999981
21
-19.1083320000000008
0
LINE
8
BLACK
6
CONTINUOUS
10
56.5924589999999981
20
-19.1083320000000008
11
56.5977089999999947
21
-19.1030809999999995
0
LINE
8
BLACK
6
CONTINUOUS
10
56.5977089999999947
20
-19.1030809999999995
11
56.6018410000000003
21
-19.0969119999999997
0
LINE
8
BLACK
6
CONTINUOUS
10
56.6018410000000003
20
-19.0969119999999997
11
56.6130989999999983
21
-19.0876909999999995
0
LINE
8
BLACK
6
CONTINUOUS
10
56.6130989999999983
20
-19.0876909999999995
11
56.6131509999999949
21
-19.0876400000000004
0
LINE
8
BLACK
6
CONTINUOUS
10
56.6131509999999949
20
-19.0876400000000004
11
56.6131729999999962
21
-19.0876300000000008
0
LINE
8
BLACK
6
CONTINUOUS
10
56.6131729999999962
20
-19.0876300000000008
11
56.6132159999999942
21
-19.0875959999999978
0
LINE
8
BLACK
6
CONTINUOUS
10
56.6132159999999942
20
-19.0875959999999978
11
56.7498939999999976
21
-18.9964769999999987
0
LINE
8
BLACK
6
CONTINUOUS
10
56.7498939999999976
20
-18.9964769999999987
11
56.831274999999998
21
-18.9150969999999994
0
LINE
8
BLACK
6
CONTINUOUS
10
56.831274999999998
20
-18.9150969999999994
11
56.8734509999999958
21
-18.8307450000000003
0
LINE
8
BLACK
6
CONTINUOUS
10
56.8734509999999958
20
-18.8307450000000003
11
56.8812829999999963
21
-18.8183019999999992
0
LINE
8
BLACK
6
CONTINUOUS
10
56.8812829999999963
20
-18.8183019999999992
11
56.9033909999999992
21
-18.7991290000000006
0
LINE
8
BLACK
6
CONTINUOUS
10
56.9033909999999992
20
-18.7991290000000006
11
56.9311519999999973
21
-18.7898749999999986
0
LINE
8
BLACK
6
CONTINUOUS
10
56.9311519999999973
20
-18.7898749999999986
11
56.9603419999999971
21
-18.7919489999999989
0
LINE
8
BLACK
6
CONTINUOUS
10
55.2842129999999941
20
-19.2095669999999998
11
55.3166849999999997
21
-19.2420389999999983
0
LINE
8
BLACK
6
CONTINUOUS
10
55.3166849999999997
20
-19.2420389999999983
11
55.3166849999999997
21
-19.2879609999999992
0
LINE
8
BLACK
6
CONTINUOUS
10
55.3166849999999997
20
-19.2879609999999992
11
55.2842129999999941
21
-19.3204329999999977
0
LINE
8
BLACK
6
CONTINUOUS
10
55.2842129999999941
20
-19.3204329999999977
11
55.2612519999999989
21
-19.3249999999999993
0
LINE
8
BLACK
6
CONTINUOUS
10
55.2612519999999989
20
-19.3249999999999993
11
54.7387480000000011
21
-19.3249999999999993
0
LINE
8
BLACK
6
CONTINUOUS
10
54.7387480000000011
20
-19.3249999999999993
11
54.7157869999999988
21
-19.3204329999999977
0
LINE
8
BLACK
6
CONTINUOUS
10
54.7157869999999988
20
-19.3204329999999977
11
54.6833150000000003
21
-19.2879609999999992
0
LINE
8
BLACK
6
CONTINUOUS
10
54.6833150000000003
20
-19.2879609999999992
11
54.6833150000000003
21
-19.2420389999999983
0
LINE
8
BLACK
6
CONTINUOUS
10
54.6833150000000003
20
-19.2420389999999983
11
54.7157869999999988
21
-19.2095669999999998
0
LINE
8
BLACK
6
CONTINUOUS
10
54.7157869999999988
20
-19.2095669999999998
11
54.7387480000000011
21
-19.2049999999999983
0
LINE
8
BLACK
6
CONTINUOUS
10
54.7387480000000011
20
-19.2049999999999983
11
55.2612519999999989
21
-19.2049999999999983
0
LINE
8
BLACK
6
CONTINUOUS
10
55.2612519999999989
20
-19.2049999999999983
11
55.2842129999999941
21
-19.2095669999999998
0
LINE
8
BLACK
6
CONTINUOUS
10
56.5229609999999951
20
-17.6445669999999986
11
56.5554330000000007
21
-17.6770390000000006
0
LINE
8
BLACK
6
CONTINUOUS
10
56.5554330000000007
20
-17.6770390000000006
11
56.5554330000000007
21
-17.722960999999998
0
LINE
8
BLACK
6
CONTINUOUS
10
56.5554330000000007
20
-17.722960999999998
11
56.5229609999999951
21
-17.755433
0
LINE
8
BLACK
6
CONTINUOUS
10
56.5229609999999951
20
-17.755433
11
56.5
21
-17.759999999999998
0
LINE
8
BLACK
6
CONTINUOUS
10
56.5
20
-17.759999999999998
11
54.6999999999999957
21
-17.759999999999998
0
LINE
8
BLACK
6
CONTINUOUS
10
54.6999999999999957
20
-17.759999999999998
11
54.6770390000000006
21
-17.755433
0
LINE
8
BLACK
6
CONTINUOUS
10
54.6770390000000006
20
-17.755433
11
54.644566999999995
21
-17.722960999999998
0
LINE
8
BLACK
6
CONTINUOUS
10
54.644566999999995
20
-17.722960999999998
11
54.644566999999995
21
-17.6770390000000006
0
LINE
8
BLACK
6
CONTINUOUS
10
54.644566999999995
20
-17.6770390000000006
11
54.6770390000000006
21
-17.6445669999999986
0
LINE
8
BLACK
6
CONTINUOUS
10
54.6770390000000006
20
-17.6445669999999986
11
54.6999999999999957
21
-17.6400000000000006
0
LINE
8
BLACK
6
CONTINUOUS
10
54.6999999999999957
20
-17.6400000000000006
11
56.5
21
-17.6400000000000006
0
LINE
8
BLACK
6
CONTINUOUS
10
56.5
20
-17.6400000000000006
11
56.5229609999999951
21
-17.6445669999999986
0
LINE
8
BLACK
6
CONTINUOUS
10
56.5229609999999951
20
-12.244567
11
56.5554330000000007
21
-12.2770390000000003
0
LINE
8
BLACK
6
CONTINUOUS
10
56.5554330000000007
20
-12.2770390000000003
11
56.5554330000000007
21
-12.3229609999999994
0
LINE
8
BLACK
6
CONTINUOUS
10
56.5554330000000007
20
-12.3229609999999994
11
56.5229609999999951
21
-12.3554329999999997
0
LINE
8
BLACK
6
CONTINUOUS
10
56.5229609999999951
20
-12.3554329999999997
11
56.5
21
-12.3599999999999994
0
LINE
8
BLACK
6
CONTINUOUS
10
56.5
20
-12.3599999999999994
11
54.6999999999999957
21
-12.3599999999999994
0
LINE
8
BLACK
6
CONTINUOUS
10
54.6999999999999957
20
-12.3599999999999994
11
54.6770390000000006
21
-12.3554329999999997
0
LINE
8
BLACK
6
CONTINUOUS
10
54.6770390000000006
20
-12.3554329999999997
11
54.644566999999995
21
-12.3229609999999994
0
LINE
8
BLACK
6
CONTINUOUS
10
54.644566999999995
20
-12.3229609999999994
11
54.644566999999995
21
-12.2770390000000003
0
LINE
8
BLACK
6
CONTINUOUS
10
54.644566999999995
20
-12.2770390000000003
11
54.6770390000000006
21
-12.244567
0
LINE
8
BLACK
6
CONTINUOUS
10
54.6770390000000006
20
-12.244567
11
54.6999999999999957
21
-12.2400000000000002
0
LINE
8
BLACK
6
CONTINUOUS
10
54.6999999999999957
20
-12.2400000000000002
11
56.5
21
-12.2400000000000002
0
LINE
8
BLACK
6
CONTINUOUS
10
56.5
20
-12.2400000000000002
11
56.5229609999999951
21
-12.244567
0
LINE
8
BLACK
6
CONTINUOUS
10
58.3729609999999965
20
-11.4445669999999993
11
58.405432999999995
21
-11.4770389999999995
0
LINE
8
BLACK
6
CONTINUOUS
10
58.405432999999995
20
-11.4770389999999995
11
58.4099999999999966
21
-11.5
0
LINE
8
BLACK
6
CONTINUOUS
10
58.4099999999999966
20
-11.5
11
58.4099999999999966
21
-18.5
0
LINE
8
BLACK
6
CONTINUOUS
10
58.4099999999999966
20
-18.5
11
58.405432999999995
21
-18.5229609999999987
0
LINE
8
BLACK
6
CONTINUOUS
10
58.405432999999995
20
-18.5229609999999987
11
58.3729609999999965
21
-18.5554330000000007
0
LINE
8
BLACK
6
CONTINUOUS
10
58.3729609999999965
20
-18.5554330000000007
11
58.3499999999999943
21
-18.5599999999999987
0
LINE
8
BLACK
6
CONTINUOUS
10
58.3499999999999943
20
-18.5599999999999987
11
52.8499999999999943
21
-18.5599999999999987
0
LINE
8
BLACK
6
CONTINUOUS
10
52.8499999999999943
20
-18.5599999999999987
11
52.8270389999999992
21
-18.5554330000000007
0
LINE
8
BLACK
6
CONTINUOUS
10
52.8270389999999992
20
-18.5554330000000007
11
52.7945670000000007
21
-18.5229609999999987
0
LINE
8
BLACK
6
CONTINUOUS
10
52.7945670000000007
20
-18.5229609999999987
11
52.7899999999999991
21
-18.5
0
LINE
8
BLACK
6
CONTINUOUS
10
52.7899999999999991
20
-18.5
11
52.7899999999999991
21
-11.9499999999999993
0
LINE
8
BLACK
6
CONTINUOUS
10
52.7899999999999991
20
-11.9499999999999993
11
52.7945670000000007
21
-11.9270389999999988
0
LINE
8
BLACK
6
CONTINUOUS
10
52.7945670000000007
20
-11.9270389999999988
11
52.8075739999999954
21
-11.9075740000000003
0
LINE
8
BLACK
6
CONTINUOUS
10
52.8075739999999954
20
-11.9075740000000003
11
53.2575739999999982
21
-11.4575739999999993
0
LINE
8
BLACK
6
CONTINUOUS
10
53.2575739999999982
20
-11.4575739999999993
11
53.2770389999999949
21
-11.4445669999999993
0
LINE
8
BLACK
6
CONTINUOUS
10
53.2770389999999949
20
-11.4445669999999993
11
53.2999999999999972
21
-11.4399999999999995
0
LINE
8
BLACK
6
CONTINUOUS
10
53.2999999999999972
20
-11.4399999999999995
11
58.3499999999999943
21
-11.4399999999999995
0
LINE
8
BLACK
6
CONTINUOUS
10
58.3499999999999943
20
-11.4399999999999995
11
58.3729609999999965
21
-11.4445669999999993
0
LINE
8
BLACK
6
CONTINUOUS
10
53.3248519999999999
20
-11.5599999999999987
11
52.9099999999999966
21
-11.9748520000000003
0
LINE
8
BLACK
6
CONTINUOUS
10
52.9099999999999966
20
-11.9748520000000003
11
52.9099999999999966
21
-18.4399999999999977
0
LINE
8
BLACK
6
CONTINUOUS
10
52.9099999999999966
20
-18.4399999999999977
11
58.2899999999999991
21
-18.4399999999999977
0
LINE
8
BLACK
6
CONTINUOUS
10
58.2899999999999991
20
-18.4399999999999977
11
58.2899999999999991
21
-11.5599999999999987
0
LINE
8
BLACK
6
CONTINUOUS
10
58.2899999999999991
20
-11.5599999999999987
11
53.3248519999999999
21
-11.5599999999999987
0
LINE
8
BLACK
6
CONTINUOUS
10
51.3479639999999975
20
-15.3812599999999993
11
51.375
21
-15.3924589999999988
0
LINE
8
BLACK
6
CONTINUOUS
10
51.375
20
-15.3924589999999988
11
51.3956919999999968
21
-15.4131509999999992
0
LINE
8
BLACK
6
CONTINUOUS
10
51.3956919999999968
20
-15.4131509999999992
11
51.4068909999999946
21
-15.4401869999999999
0
LINE
8
BLACK
6
CONTINUOUS
10
51.4068909999999946
20
-15.4401869999999999
11
51.4068909999999946
21
-15.4694509999999994
0
LINE
8
BLACK
6
CONTINUOUS
10
51.4068909999999946
20
-15.4694509999999994
11
51.3956919999999968
21
-15.4964870000000001
0
LINE
8
BLACK
6
CONTINUOUS
10
51.3956919999999968
20
-15.4964870000000001
11
51.375
21
-15.5171789999999987
0
LINE
8
BLACK
6
CONTINUOUS
10
51.375
20
-15.5171789999999987
11
51.3479639999999975
21
-15.528378
0
LINE
8
BLACK
6
CONTINUOUS
10
51.3479639999999975
20
-15.528378
11
51.3333319999999986
21
-15.5298189999999998
0
LINE
8
BLACK
6
CONTINUOUS
10
51.3333319999999986
20
-15.5298189999999998
11
50.8795669999999944
21
-15.5298189999999998
0
LINE
8
BLACK
6
CONTINUOUS
10
50.8795669999999944
20
-15.5298189999999998
11
51.1040609999999944
21
-15.7863829999999989
0
LINE
8
BLACK
6
CONTINUOUS
10
51.1040609999999944
20
-15.7863829999999989
11
51.1085819999999984
21
-15.7927070000000001
0
LINE
8
BLACK
6
CONTINUOUS
10
51.1085819999999984
20
-15.7927070000000001
11
51.1099779999999981
21
-15.7941029999999998
0
LINE
8
BLACK
6
CONTINUOUS
10
51.1099779999999981
20
-15.7941029999999998
11
51.1105260000000001
21
-15.7954259999999991
0
LINE
8
BLACK
6
CONTINUOUS
10
51.1105260000000001
20
-15.7954259999999991
11
51.1126119999999986
21
-15.7983440000000002
0
LINE
8
BLACK
6
CONTINUOUS
10
51.1126119999999986
20
-15.7983440000000002
11
51.1165129999999976
21
-15.809880999999999
0
LINE
8
BLACK
6
CONTINUOUS
10
51.1165129999999976
20
-15.809880999999999
11
51.1211769999999959
21
-15.8211389999999987
0
LINE
8
BLACK
6
CONTINUOUS
10
51.1211769999999959
20
-15.8211389999999987
11
51.1211769999999959
21
-15.8236689999999989
0
LINE
8
BLACK
6
CONTINUOUS
10
51.1211769999999959
20
-15.8236689999999989
11
51.1219869999999972
21
-15.8260649999999998
0
LINE
8
BLACK
6
CONTINUOUS
10
51.1219869999999972
20
-15.8260649999999998
11
51.1211769999999959
21
-15.8382179999999995
0
LINE
8
BLACK
6
CONTINUOUS
10
51.1211769999999959
20
-15.8382179999999995
11
51.1211769999999959
21
-15.850403
0
LINE
8
BLACK
6
CONTINUOUS
10
51.1211769999999959
20
-15.850403
11
51.1202089999999956
21
-15.8527389999999997
0
LINE
8
BLACK
6
CONTINUOUS
10
51.1202089999999956
20
-15.8527389999999997
11
51.1200410000000005
21
-15.855262999999999
0
LINE
8
BLACK
6
CONTINUOUS
10
51.1200410000000005
20
-15.855262999999999
11
51.1146379999999994
21
-15.8661879999999993
0
LINE
8
BLACK
6
CONTINUOUS
10
51.1146379999999994
20
-15.8661879999999993
11
51.1099779999999981
21
-15.877438999999999
0
LINE
8
BLACK
6
CONTINUOUS
10
51.1099779999999981
20
-15.877438999999999
11
51.1081909999999979
21
-15.8792249999999999
0
LINE
8
BLACK
6
CONTINUOUS
10
51.1081909999999979
20
-15.8792249999999999
11
51.1070689999999956
21
-15.8814949999999993
0
LINE
8
BLACK
6
CONTINUOUS
10
51.1070689999999956
20
-15.8814949999999993
11
51.0978959999999987
21
-15.8895199999999992
0
LINE
8
BLACK
6
CONTINUOUS
10
51.0978959999999987
20
-15.8895199999999992
11
51.0892859999999942
21
-15.8981309999999993
0
LINE
8
BLACK
6
CONTINUOUS
10
51.0892859999999942
20
-15.8981309999999993
11
51.0869489999999971
21
-15.8990989999999996
0
LINE
8
BLACK
6
CONTINUOUS
10
51.0869489999999971
20
-15.8990989999999996
11
51.0850450000000009
21
-15.9007649999999998
0
LINE
8
BLACK
6
CONTINUOUS
10
51.0850450000000009
20
-15.9007649999999998
11
51.0735069999999993
21
-15.9046659999999989
0
LINE
8
BLACK
6
CONTINUOUS
10
51.0735069999999993
20
-15.9046659999999989
11
51.0622499999999988
21
-15.9093299999999989
0
LINE
8
BLACK
6
CONTINUOUS
10
51.0622499999999988
20
-15.9093299999999989
11
51.0586789999999979
21
-15.9096809999999991
0
LINE
8
BLACK
6
CONTINUOUS
10
51.0586789999999979
20
-15.9096809999999991
11
51.0573239999999942
21
-15.9101399999999984
0
LINE
8
BLACK
6
CONTINUOUS
10
51.0573239999999942
20
-15.9101399999999984
11
51.0553559999999962
21
-15.9100079999999995
0
LINE
8
BLACK
6
CONTINUOUS
10
51.0553559999999962
20
-15.9100079999999995
11
51.0476179999999999
21
-15.9107709999999987
0
LINE
8
BLACK
6
CONTINUOUS
10
51.0476179999999999
20
-15.9107709999999987
11
50.922466
21
-15.9107709999999987
0
LINE
8
BLACK
6
CONTINUOUS
10
50.922466
20
-15.9107709999999987
11
50.8539499999999975
21
-15.9450289999999999
0
LINE
8
BLACK
6
CONTINUOUS
10
50.8539499999999975
20
-15.9450289999999999
11
50.8235430000000008
21
-15.9754359999999984
0
LINE
8
BLACK
6
CONTINUOUS
10
50.8235430000000008
20
-15.9754359999999984
11
50.7892849999999996
21
-16.0439520000000009
0
LINE
8
BLACK
6
CONTINUOUS
10
50.7892849999999996
20
-16.0439520000000009
11
50.7892849999999996
21
-16.2466369999999998
0
LINE
8
BLACK
6
CONTINUOUS
10
50.7892849999999996
20
-16.2466369999999998
11
50.8235430000000008
21
-16.3151529999999987
0
LINE
8
BLACK
6
CONTINUOUS
10
50.8235430000000008
20
-16.3151529999999987
11
50.8539499999999975
21
-16.345561
0
LINE
8
BLACK
6
CONTINUOUS
10
50.8539499999999975
20
-16.345561
11
50.922466
21
-16.3798189999999977
0
LINE
8
BLACK
6
CONTINUOUS
10
50.922466
20
-16.3798189999999977
11
51.1727699999999999
21
-16.3798189999999977
0
LINE
8
BLACK
6
CONTINUOUS
10
51.1727699999999999
20
-16.3798189999999977
11
51.2412849999999978
21
-16.345561
0
LINE
8
BLACK
6
CONTINUOUS
10
51.2412849999999978
20
-16.345561
11
51.2802979999999948
21
-16.3065479999999994
0
LINE
8
BLACK
6
CONTINUOUS
10
51.2802979999999948
20
-16.3065479999999994
11
51.2916639999999973
21
-16.2972199999999994
0
LINE
8
BLACK
6
CONTINUOUS
10
51.2916639999999973
20
-16.2972199999999994
11
51.3186999999999998
21
-16.2860209999999981
0
LINE
8
BLACK
6
CONTINUOUS
10
51.3186999999999998
20
-16.2860209999999981
11
51.347963
21
-16.2860209999999981
0
LINE
8
BLACK
6
CONTINUOUS
10
51.347963
20
-16.2860209999999981
11
51.3749989999999954
21
-16.2972189999999983
0
LINE
8
BLACK
6
CONTINUOUS
10
51.3749989999999954
20
-16.2972189999999983
11
51.3956919999999968
21
-16.3179119999999998
0
LINE
8
BLACK
6
CONTINUOUS
10
51.3956919999999968
20
-16.3179119999999998
11
51.4068909999999946
21
-16.3449479999999987
0
LINE
8
BLACK
6
CONTINUOUS
10
51.4068909999999946
20
-16.3449479999999987
11
51.4068909999999946
21
-16.374210999999999
0
LINE
8
BLACK
6
CONTINUOUS
10
51.4068909999999946
20
-16.374210999999999
11
51.3956929999999943
21
-16.4012469999999979
0
LINE
8
BLACK
6
CONTINUOUS
10
51.3956929999999943
20
-16.4012469999999979
11
51.3863649999999978
21
-16.4126130000000003
0
LINE
8
BLACK
6
CONTINUOUS
10
51.3863649999999978
20
-16.4126130000000003
11
51.3387469999999979
21
-16.4602319999999978
0
LINE
8
BLACK
6
CONTINUOUS
10
51.3387469999999979
20
-16.4602319999999978
11
51.3329969999999989
21
-16.4649499999999982
0
LINE
8
BLACK
6
CONTINUOUS
10
51.3329969999999989
20
-16.4649499999999982
11
51.3316969999999984
21
-16.4664499999999983
0
LINE
8
BLACK
6
CONTINUOUS
10
51.3316969999999984
20
-16.4664499999999983
11
51.3294369999999986
21
-16.4678719999999998
0
LINE
8
BLACK
6
CONTINUOUS
10
51.3294369999999986
20
-16.4678719999999998
11
51.3273809999999955
21
-16.4695599999999978
0
LINE
8
BLACK
6
CONTINUOUS
10
51.3273809999999955
20
-16.4695599999999978
11
51.3255529999999993
21
-16.4703169999999979
0
LINE
8
BLACK
6
CONTINUOUS
10
51.3255529999999993
20
-16.4703169999999979
11
51.3192540000000008
21
-16.4742819999999988
0
LINE
8
BLACK
6
CONTINUOUS
10
51.3192540000000008
20
-16.4742819999999988
11
51.2240159999999989
21
-16.5219009999999997
0
LINE
8
BLACK
6
CONTINUOUS
10
51.2240159999999989
20
-16.5219009999999997
11
51.2102839999999944
21
-16.527155999999998
0
LINE
8
BLACK
6
CONTINUOUS
10
51.2102839999999944
20
-16.527155999999998
11
51.2075959999999952
21
-16.5273459999999979
0
LINE
8
BLACK
6
CONTINUOUS
10
51.2075959999999952
20
-16.5273459999999979
11
51.2051069999999982
21
-16.528378
0
LINE
8
BLACK
6
CONTINUOUS
10
51.2051069999999982
20
-16.528378
11
51.1904749999999993
21
-16.5298189999999998
0
LINE
8
BLACK
6
CONTINUOUS
10
51.1904749999999993
20
-16.5298189999999998
11
50.9047610000000006
21
-16.5298189999999998
0
LINE
8
BLACK
6
CONTINUOUS
10
50.9047610000000006
20
-16.5298189999999998
11
50.8901289999999946
21
-16.528378
0
LINE
8
BLACK
6
CONTINUOUS
10
50.8901289999999946
20
-16.528378
11
50.8876399999999975
21
-16.5273469999999989
0
LINE
8
BLACK
6
CONTINUOUS
10
50.8876399999999975
20
-16.5273469999999989
11
50.8849510000000009
21
-16.527155999999998
0
LINE
8
BLACK
6
CONTINUOUS
10
50.8849510000000009
20
-16.527155999999998
11
50.871220000000001
21
-16.5219009999999997
0
LINE
8
BLACK
6
CONTINUOUS
10
50.871220000000001
20
-16.5219009999999997
11
50.7759819999999991
21
-16.4742819999999988
0
LINE
8
BLACK
6
CONTINUOUS
10
50.7759819999999991
20
-16.4742819999999988
11
50.769681999999996
21
-16.4703169999999979
0
LINE
8
BLACK
6
CONTINUOUS
10
50.769681999999996
20
-16.4703169999999979
11
50.7678549999999973
21
-16.4695599999999978
0
LINE
8
BLACK
6
CONTINUOUS
10
50.7678549999999973
20
-16.4695599999999978
11
50.7657979999999966
21
-16.4678719999999998
0
LINE
8
BLACK
6
CONTINUOUS
10
50.7657979999999966
20
-16.4678719999999998
11
50.7635389999999944
21
-16.4664499999999983
0
LINE
8
BLACK
6
CONTINUOUS
10
50.7635389999999944
20
-16.4664499999999983
11
50.7622379999999964
21
-16.4649499999999982
0
LINE
8
BLACK
6
CONTINUOUS
10
50.7622379999999964
20
-16.4649499999999982
11
50.7564889999999949
21
-16.4602319999999978
0
LINE
8
BLACK
6
CONTINUOUS
10
50.7564889999999949
20
-16.4602319999999978
11
50.7088699999999974
21
-16.4126119999999993
0
LINE
8
BLACK
6
CONTINUOUS
10
50.7088699999999974
20
-16.4126119999999993
11
50.7041520000000006
21
-16.4068629999999978
0
LINE
8
BLACK
6
CONTINUOUS
10
50.7041520000000006
20
-16.4068629999999978
11
50.7026539999999954
21
-16.4055639999999983
0
LINE
8
BLACK
6
CONTINUOUS
10
50.7026539999999954
20
-16.4055639999999983
11
50.7012319999999974
21
-16.4033049999999996
0
LINE
8
BLACK
6
CONTINUOUS
10
50.7012319999999974
20
-16.4033049999999996
11
50.6995429999999985
21
-16.4012469999999979
0
LINE
8
BLACK
6
CONTINUOUS
10
50.6995429999999985
20
-16.4012469999999979
11
50.6987850000000009
21
-16.3994169999999997
0
LINE
8
BLACK
6
CONTINUOUS
10
50.6987850000000009
20
-16.3994169999999997
11
50.6948219999999949
21
-16.3931210000000007
0
LINE
8
BLACK
6
CONTINUOUS
10
50.6948219999999949
20
-16.3931210000000007
11
50.6472029999999975
21
-16.2978829999999988
0
LINE
8
BLACK
6
CONTINUOUS
10
50.6472029999999975
20
-16.2978829999999988
11
50.6419479999999993
21
-16.2841509999999978
0
LINE
8
BLACK
6
CONTINUOUS
10
50.6419479999999993
20
-16.2841509999999978
11
50.6417569999999984
21
-16.2814629999999987
0
LINE
8
BLACK
6
CONTINUOUS
10
50.6417569999999984
20
-16.2814629999999987
11
50.6407260000000008
21
-16.2789739999999981
0
LINE
8
BLACK
6
CONTINUOUS
10
50.6407260000000008
20
-16.2789739999999981
11
50.639285000000001
21
-16.2643419999999992
0
LINE
8
BLACK
6
CONTINUOUS
10
50.639285000000001
20
-16.2643419999999992
11
50.639285000000001
21
-16.0262469999999979
0
LINE
8
BLACK
6
CONTINUOUS
10
50.639285000000001
20
-16.0262469999999979
11
50.6407260000000008
21
-16.011614999999999
0
LINE
8
BLACK
6
CONTINUOUS
10
50.6407260000000008
20
-16.011614999999999
11
50.6417569999999984
21
-16.0091250000000009
0
LINE
8
BLACK
6
CONTINUOUS
10
50.6417569999999984
20
-16.0091250000000009
11
50.6419479999999993
21
-16.0064379999999993
0
LINE
8
BLACK
6
CONTINUOUS
10
50.6419479999999993
20
-16.0064379999999993
11
50.6472029999999975
21
-15.9927060000000001
0
LINE
8
BLACK
6
CONTINUOUS
10
50.6472029999999975
20
-15.9927060000000001
11
50.6948219999999949
21
-15.8974679999999999
0
LINE
8
BLACK
6
CONTINUOUS
10
50.6948219999999949
20
-15.8974679999999999
11
50.6987859999999984
21
-15.8911679999999986
0
LINE
8
BLACK
6
CONTINUOUS
10
50.6987859999999984
20
-15.8911679999999986
11
50.6995439999999959
21
-15.8893409999999999
0
LINE
8
BLACK
6
CONTINUOUS
10
50.6995439999999959
20
-15.8893409999999999
11
50.7012319999999974
21
-15.8872839999999993
0
LINE
8
BLACK
6
CONTINUOUS
10
50.7012319999999974
20
-15.8872839999999993
11
50.7026539999999954
21
-15.8850249999999988
0
LINE
8
BLACK
6
CONTINUOUS
10
50.7026539999999954
20
-15.8850249999999988
11
50.7041520000000006
21
-15.8837250000000001
0
LINE
8
BLACK
6
CONTINUOUS
10
50.7041520000000006
20
-15.8837250000000001
11
50.7088709999999949
21
-15.8779759999999985
0
LINE
8
BLACK
6
CONTINUOUS
10
50.7088709999999949
20
-15.8779759999999985
11
50.7564899999999994
21
-15.8303569999999993
0
LINE
8
BLACK
6
CONTINUOUS
10
50.7564899999999994
20
-15.8303569999999993
11
50.762239000000001
21
-15.8256379999999996
0
LINE
8
BLACK
6
CONTINUOUS
10
50.762239000000001
20
-15.8256379999999996
11
50.7635389999999944
21
-15.8241399999999999
0
LINE
8
BLACK
6
CONTINUOUS
10
50.7635389999999944
20
-15.8241399999999999
11
50.7657979999999966
21
-15.8227180000000001
0
LINE
8
BLACK
6
CONTINUOUS
10
50.7657979999999966
20
-15.8227180000000001
11
50.7678549999999973
21
-15.8210299999999986
0
LINE
8
BLACK
6
CONTINUOUS
10
50.7678549999999973
20
-15.8210299999999986
11
50.769681999999996
21
-15.8202719999999992
0
LINE
8
BLACK
6
CONTINUOUS
10
50.769681999999996
20
-15.8202719999999992
11
50.7759819999999991
21
-15.8163079999999994
0
LINE
8
BLACK
6
CONTINUOUS
10
50.7759819999999991
20
-15.8163079999999994
11
50.871220000000001
21
-15.7686889999999984
0
LINE
8
BLACK
6
CONTINUOUS
10
50.871220000000001
20
-15.7686889999999984
11
50.8847370000000012
21
-15.7635149999999999
0
LINE
8
BLACK
6
CONTINUOUS
10
50.8847370000000012
20
-15.7635149999999999
11
50.6578419999999952
21
-15.5042069999999992
0
LINE
8
BLACK
6
CONTINUOUS
10
50.6578419999999952
20
-15.5042069999999992
11
50.6533200000000008
21
-15.4978819999999988
0
LINE
8
BLACK
6
CONTINUOUS
10
50.6533200000000008
20
-15.4978819999999988
11
50.6519249999999985
21
-15.4964870000000001
0
LINE
8
BLACK
6
CONTINUOUS
10
50.6519249999999985
20
-15.4964870000000001
11
50.6513759999999991
21
-15.4951629999999998
0
LINE
8
BLACK
6
CONTINUOUS
10
50.6513759999999991
20
-15.4951629999999998
11
50.6492909999999981
21
-15.4922459999999997
0
LINE
8
BLACK
6
CONTINUOUS
10
50.6492909999999981
20
-15.4922459999999997
11
50.6453889999999944
21
-15.4807079999999999
0
LINE
8
BLACK
6
CONTINUOUS
10
50.6453889999999944
20
-15.4807079999999999
11
50.6407260000000008
21
-15.4694509999999994
0
LINE
8
BLACK
6
CONTINUOUS
10
50.6407260000000008
20
-15.4694509999999994
11
50.6407260000000008
21
-15.46692
0
LINE
8
BLACK
6
CONTINUOUS
10
50.6407260000000008
20
-15.46692
11
50.6399159999999995
21
-15.4645250000000001
0
LINE
8
BLACK
6
CONTINUOUS
10
50.6399159999999995
20
-15.4645250000000001
11
50.6407260000000008
21
-15.4523709999999994
0
LINE
8
BLACK
6
CONTINUOUS
10
50.6407260000000008
20
-15.4523709999999994
11
50.6407260000000008
21
-15.4401869999999999
0
LINE
8
BLACK
6
CONTINUOUS
10
50.6407260000000008
20
-15.4401869999999999
11
50.6416929999999965
21
-15.4378499999999992
0
LINE
8
BLACK
6
CONTINUOUS
10
50.6416929999999965
20
-15.4378499999999992
11
50.6418619999999962
21
-15.4353269999999991
0
LINE
8
BLACK
6
CONTINUOUS
10
50.6418619999999962
20
-15.4353269999999991
11
50.6472639999999998
21
-15.4244009999999996
0
LINE
8
BLACK
6
CONTINUOUS
10
50.6472639999999998
20
-15.4244009999999996
11
50.6519249999999985
21
-15.4131509999999992
0
LINE
8
BLACK
6
CONTINUOUS
10
50.6519249999999985
20
-15.4131509999999992
11
50.6537109999999942
21
-15.411363999999999
0
LINE
8
BLACK
6
CONTINUOUS
10
50.6537109999999942
20
-15.411363999999999
11
50.654834000000001
21
-15.4090949999999989
0
LINE
8
BLACK
6
CONTINUOUS
10
50.654834000000001
20
-15.4090949999999989
11
50.6640060000000005
21
-15.4010689999999997
0
LINE
8
BLACK
6
CONTINUOUS
10
50.6640060000000005
20
-15.4010689999999997
11
50.6726169999999954
21
-15.3924589999999988
0
LINE
8
BLACK
6
CONTINUOUS
10
50.6726169999999954
20
-15.3924589999999988
11
50.674952999999995
21
-15.3914899999999992
0
LINE
8
BLACK
6
CONTINUOUS
10
50.674952999999995
20
-15.3914899999999992
11
50.6768579999999957
21
-15.3898250000000001
0
LINE
8
BLACK
6
CONTINUOUS
10
50.6768579999999957
20
-15.3898250000000001
11
50.6883949999999999
21
-15.385923
0
LINE
8
BLACK
6
CONTINUOUS
10
50.6883949999999999
20
-15.385923
11
50.6996529999999979
21
-15.3812599999999993
0
LINE
8
BLACK
6
CONTINUOUS
10
50.6996529999999979
20
-15.3812599999999993
11
50.7032229999999942
21
-15.3809079999999998
0
LINE
8
BLACK
6
CONTINUOUS
10
50.7032229999999942
20
-15.3809079999999998
11
50.7045789999999954
21
-15.3804499999999997
0
LINE
8
BLACK
6
CONTINUOUS
10
50.7045789999999954
20
-15.3804499999999997
11
50.7065459999999959
21
-15.3805809999999994
0
LINE
8
BLACK
6
CONTINUOUS
10
50.7065459999999959
20
-15.3805809999999994
11
50.7142849999999967
21
-15.3798189999999995
0
LINE
8
BLACK
6
CONTINUOUS
10
50.7142849999999967
20
-15.3798189999999995
11
51.3333319999999986
21
-15.3798189999999995
0
LINE
8
BLACK
6
CONTINUOUS
10
51.3333319999999986
20
-15.3798189999999995
11
51.3479639999999975
21
-15.3812599999999993
0
LINE
8
BLACK
6
CONTINUOUS
10
52.2527259999999956
20
-15.3812599999999993
11
52.2797619999999981
21
-15.3924589999999988
0
LINE
8
BLACK
6
CONTINUOUS
10
52.2797619999999981
20
-15.3924589999999988
11
52.3004539999999949
21
-15.4131509999999992
0
LINE
8
BLACK
6
CONTINUOUS
10
52.3004539999999949
20
-15.4131509999999992
11
52.3116529999999997
21
-15.4401869999999999
0
LINE
8
BLACK
6
CONTINUOUS
10
52.3116529999999997
20
-15.4401869999999999
11
52.3130939999999995
21
-15.4548189999999988
0
LINE
8
BLACK
6
CONTINUOUS
10
52.3130939999999995
20
-15.4548189999999988
11
52.3130939999999995
21
-16.4548190000000005
0
LINE
8
BLACK
6
CONTINUOUS
10
52.3130939999999995
20
-16.4548190000000005
11
52.3116529999999997
21
-16.4694509999999994
0
LINE
8
BLACK
6
CONTINUOUS
10
52.3116529999999997
20
-16.4694509999999994
11
52.3004539999999949
21
-16.4964869999999983
0
LINE
8
BLACK
6
CONTINUOUS
10
52.3004539999999949
20
-16.4964869999999983
11
52.2797619999999981
21
-16.5171789999999987
0
LINE
8
BLACK
6
CONTINUOUS
10
52.2797619999999981
20
-16.5171789999999987
11
52.2527259999999956
21
-16.528378
0
LINE
8
BLACK
6
CONTINUOUS
10
52.2527259999999956
20
-16.528378
11
52.2380939999999967
21
-16.5298189999999998
0
LINE
8
BLACK
6
CONTINUOUS
10
52.2380939999999967
20
-16.5298189999999998
11
51.9999989999999954
21
-16.5298189999999998
0
LINE
8
BLACK
6
CONTINUOUS
10
51.9999989999999954
20
-16.5298189999999998
11
51.9925919999999948
21
-16.529088999999999
0
LINE
8
BLACK
6
CONTINUOUS
10
51.9925919999999948
20
-16.529088999999999
11
51.9906179999999978
21
-16.5292299999999983
0
LINE
8
BLACK
6
CONTINUOUS
10
51.9906179999999978
20
-16.5292299999999983
11
51.9880199999999988
21
-16.5286389999999983
0
LINE
8
BLACK
6
CONTINUOUS
10
51.9880199999999988
20
-16.5286389999999983
11
51.9853669999999966
21
-16.528378
0
LINE
8
BLACK
6
CONTINUOUS
10
51.9853669999999966
20
-16.528378
11
51.9835360000000009
21
-16.5276189999999978
0
LINE
8
BLACK
6
CONTINUOUS
10
51.9835360000000009
20
-16.5276189999999978
11
51.9762810000000002
21
-16.5259700000000009
0
LINE
8
BLACK
6
CONTINUOUS
10
51.9762810000000002
20
-16.5259700000000009
11
51.8334249999999983
21
-16.478351
0
LINE
8
BLACK
6
CONTINUOUS
10
51.8334249999999983
20
-16.478351
11
51.8199989999999957
21
-16.4723569999999988
0
LINE
8
BLACK
6
CONTINUOUS
10
51.8199989999999957
20
-16.4723569999999988
11
51.8179639999999964
21
-16.4705919999999999
0
LINE
8
BLACK
6
CONTINUOUS
10
51.8179639999999964
20
-16.4705919999999999
11
51.8154739999999947
21
-16.4695609999999988
0
LINE
8
BLACK
6
CONTINUOUS
10
51.8154739999999947
20
-16.4695609999999988
11
51.8041089999999969
21
-16.4602329999999988
0
LINE
8
BLACK
6
CONTINUOUS
10
51.8041089999999969
20
-16.4602329999999988
11
51.7088709999999949
21
-16.3649939999999994
0
LINE
8
BLACK
6
CONTINUOUS
10
51.7088709999999949
20
-16.3649939999999994
11
51.7041520000000006
21
-16.3592440000000003
0
LINE
8
BLACK
6
CONTINUOUS
10
51.7041520000000006
20
-16.3592440000000003
11
51.7026539999999954
21
-16.3579450000000008
0
LINE
8
BLACK
6
CONTINUOUS
10
51.7026539999999954
20
-16.3579450000000008
11
51.7012319999999974
21
-16.3556859999999986
0
LINE
8
BLACK
6
CONTINUOUS
10
51.7012319999999974
20
-16.3556859999999986
11
51.6995429999999985
21
-16.3536280000000005
0
LINE
8
BLACK
6
CONTINUOUS
10
51.6995429999999985
20
-16.3536280000000005
11
51.6987850000000009
21
-16.3517979999999987
0
LINE
8
BLACK
6
CONTINUOUS
10
51.6987850000000009
20
-16.3517979999999987
11
51.6948219999999949
21
-16.3455019999999998
0
LINE
8
BLACK
6
CONTINUOUS
10
51.6948219999999949
20
-16.3455019999999998
11
51.6472029999999975
21
-16.2502639999999978
0
LINE
8
BLACK
6
CONTINUOUS
10
51.6472029999999975
20
-16.2502639999999978
11
51.6467929999999953
21
-16.2491939999999992
0
LINE
8
BLACK
6
CONTINUOUS
10
51.6467929999999953
20
-16.2491939999999992
11
51.6464709999999982
21
-16.2487589999999997
0
LINE
8
BLACK
6
CONTINUOUS
10
51.6464709999999982
20
-16.2487589999999997
11
51.6442750000000004
21
-16.2426129999999986
0
LINE
8
BLACK
6
CONTINUOUS
10
51.6442750000000004
20
-16.2426129999999986
11
51.6419479999999993
21
-16.2365320000000004
0
LINE
8
BLACK
6
CONTINUOUS
10
51.6419479999999993
20
-16.2365320000000004
11
51.6419089999999983
21
-16.2359919999999995
0
LINE
8
BLACK
6
CONTINUOUS
10
51.6419089999999983
20
-16.2359919999999995
11
51.6415239999999969
21
-16.2349129999999988
0
LINE
8
BLACK
6
CONTINUOUS
10
51.6415239999999969
20
-16.2349129999999988
11
51.5939049999999995
21
-16.0444369999999985
0
LINE
8
BLACK
6
CONTINUOUS
10
51.5939049999999995
20
-16.0444369999999985
11
51.5935289999999966
21
-16.0418999999999983
0
LINE
8
BLACK
6
CONTINUOUS
10
51.5935289999999966
20
-16.0418999999999983
11
51.5931069999999963
21
-16.0408790000000003
0
LINE
8
BLACK
6
CONTINUOUS
10
51.5931069999999963
20
-16.0408790000000003
11
51.5925639999999959
21
-16.0353659999999998
0
LINE
8
BLACK
6
CONTINUOUS
10
51.5925639999999959
20
-16.0353659999999998
11
51.5917549999999991
21
-16.0298929999999977
0
LINE
8
BLACK
6
CONTINUOUS
10
51.5917549999999991
20
-16.0298929999999977
11
51.5919169999999951
21
-16.0288000000000004
0
LINE
8
BLACK
6
CONTINUOUS
10
51.5919169999999951
20
-16.0288000000000004
11
51.5916659999999965
21
-16.0262469999999979
0
LINE
8
BLACK
6
CONTINUOUS
10
51.5916659999999965
20
-16.0262469999999979
11
51.5916659999999965
21
-15.8833899999999986
0
LINE
8
BLACK
6
CONTINUOUS
10
51.5916659999999965
20
-15.8833899999999986
11
51.5919169999999951
21
-15.8808359999999986
0
LINE
8
BLACK
6
CONTINUOUS
10
51.5919169999999951
20
-15.8808359999999986
11
51.5917549999999991
21
-15.8797439999999987
0
LINE
8
BLACK
6
CONTINUOUS
10
51.5917549999999991
20
-15.8797439999999987
11
51.5925639999999959
21
-15.8742699999999992
0
LINE
8
BLACK
6
CONTINUOUS
10
51.5925639999999959
20
-15.8742699999999992
11
51.5931069999999963
21
-15.8687579999999997
0
LINE
8
BLACK
6
CONTINUOUS
10
51.5931069999999963
20
-15.8687579999999997
11
51.5935289999999966
21
-15.867735999999999
0
LINE
8
BLACK
6
CONTINUOUS
10
51.5935289999999966
20
-15.867735999999999
11
51.5939049999999995
21
-15.8651999999999997
0
LINE
8
BLACK
6
CONTINUOUS
10
51.5939049999999995
20
-15.8651999999999997
11
51.6415239999999969
21
-15.6747239999999994
0
LINE
8
BLACK
6
CONTINUOUS
10
51.6415239999999969
20
-15.6747239999999994
11
51.6419089999999983
21
-15.6736439999999995
0
LINE
8
BLACK
6
CONTINUOUS
10
51.6419089999999983
20
-15.6736439999999995
11
51.6419479999999993
21
-15.6731049999999996
0
LINE
8
BLACK
6
CONTINUOUS
10
51.6419479999999993
20
-15.6731049999999996
11
51.6442750000000004
21
-15.6670229999999986
0
LINE
8
BLACK
6
CONTINUOUS
10
51.6442750000000004
20
-15.6670229999999986
11
51.6464709999999982
21
-15.6608779999999985
0
LINE
8
BLACK
6
CONTINUOUS
10
51.6464709999999982
20
-15.6608779999999985
11
51.6467929999999953
21
-15.6604419999999998
0
LINE
8
BLACK
6
CONTINUOUS
10
51.6467929999999953
20
-15.6604419999999998
11
51.6472029999999975
21
-15.6593729999999987
0
LINE
8
BLACK
6
CONTINUOUS
10
51.6472029999999975
20
-15.6593729999999987
11
51.6948219999999949
21
-15.5641349999999985
0
LINE
8
BLACK
6
CONTINUOUS
10
51.6948219999999949
20
-15.5641349999999985
11
51.6987859999999984
21
-15.557834999999999
0
LINE
8
BLACK
6
CONTINUOUS
10
51.6987859999999984
20
-15.557834999999999
11
51.6995439999999959
21
-15.5560079999999985
0
LINE
8
BLACK
6
CONTINUOUS
10
51.6995439999999959
20
-15.5560079999999985
11
51.7012319999999974
21
-15.5539509999999996
0
LINE
8
BLACK
6
CONTINUOUS
10
51.7012319999999974
20
-15.5539509999999996
11
51.7026539999999954
21
-15.5516919999999992
0
LINE
8
BLACK
6
CONTINUOUS
10
51.7026539999999954
20
-15.5516919999999992
11
51.7041520000000006
21
-15.5503919999999987
0
LINE
8
BLACK
6
CONTINUOUS
10
51.7041520000000006
20
-15.5503919999999987
11
51.7088709999999949
21
-15.5446429999999989
0
LINE
8
BLACK
6
CONTINUOUS
10
51.7088709999999949
20
-15.5446429999999989
11
51.8041089999999969
21
-15.4494049999999987
0
LINE
8
BLACK
6
CONTINUOUS
10
51.8041089999999969
20
-15.4494049999999987
11
51.8154739999999947
21
-15.4400769999999987
0
LINE
8
BLACK
6
CONTINUOUS
10
51.8154739999999947
20
-15.4400769999999987
11
51.8179639999999964
21
-15.4390450000000001
0
LINE
8
BLACK
6
CONTINUOUS
10
51.8179639999999964
20
-15.4390450000000001
11
51.8199989999999957
21
-15.4372809999999987
0
LINE
8
BLACK
6
CONTINUOUS
10
51.8199989999999957
20
-15.4372809999999987
11
51.8334249999999983
21
-15.4312869999999993
0
LINE
8
BLACK
6
CONTINUOUS
10
51.8334249999999983
20
-15.4312869999999993
11
51.9762810000000002
21
-15.3836680000000001
0
LINE
8
BLACK
6
CONTINUOUS
10
51.9762810000000002
20
-15.3836680000000001
11
51.9835360000000009
21
-15.3820179999999986
0
LINE
8
BLACK
6
CONTINUOUS
10
51.9835360000000009
20
-15.3820179999999986
11
51.9853669999999966
21
-15.3812599999999993
0
LINE
8
BLACK
6
CONTINUOUS
10
51.9853669999999966
20
-15.3812599999999993
11
51.9880199999999988
21
-15.3809979999999999
0
LINE
8
BLACK
6
CONTINUOUS
10
51.9880199999999988
20
-15.3809979999999999
11
51.9906179999999978
21
-15.3804079999999992
0
LINE
8
BLACK
6
CONTINUOUS
10
51.9906179999999978
20
-15.3804079999999992
11
51.9925919999999948
21
-15.3805479999999992
0
LINE
8
BLACK
6
CONTINUOUS
10
51.9925919999999948
20
-15.3805479999999992
11
51.9999989999999954
21
-15.3798189999999995
0
LINE
8
BLACK
6
CONTINUOUS
10
51.9999989999999954
20
-15.3798189999999995
11
52.2380939999999967
21
-15.3798189999999995
0
LINE
8
BLACK
6
CONTINUOUS
10
52.2380939999999967
20
-15.3798189999999995
11
52.2527259999999956
21
-15.3812599999999993
0
LINE
8
BLACK
6
CONTINUOUS
10
51.8976559999999978
20
-15.56799
11
51.8235430000000008
21
-15.6421029999999988
0
LINE
8
BLACK
6
CONTINUOUS
10
51.8235430000000008
20
-15.6421029999999988
11
51.7850490000000008
21
-15.7190899999999996
0
LINE
8
BLACK
6
CONTINUOUS
10
51.7850490000000008
20
-15.7190899999999996
11
51.7416659999999951
21
-15.8926239999999996
0
LINE
8
BLACK
6
CONTINUOUS
10
51.7416659999999951
20
-15.8926239999999996
11
51.7416659999999951
21
-16.0170129999999986
0
LINE
8
BLACK
6
CONTINUOUS
10
51.7416659999999951
20
-16.0170129999999986
11
51.7850490000000008
21
-16.1905469999999987
0
LINE
8
BLACK
6
CONTINUOUS
10
51.7850490000000008
20
-16.1905469999999987
11
51.8235430000000008
21
-16.2675339999999977
0
LINE
8
BLACK
6
CONTINUOUS
10
51.8235430000000008
20
-16.2675339999999977
11
51.8976559999999978
21
-16.3416479999999993
0
LINE
8
BLACK
6
CONTINUOUS
10
51.8976559999999978
20
-16.3416479999999993
11
52.0121690000000001
21
-16.3798189999999977
0
LINE
8
BLACK
6
CONTINUOUS
10
52.0121690000000001
20
-16.3798189999999977
11
52.163094000000001
21
-16.3798189999999977
0
LINE
8
BLACK
6
CONTINUOUS
10
52.163094000000001
20
-16.3798189999999977
11
52.163094000000001
21
-15.5298189999999998
0
LINE
8
BLACK
6
CONTINUOUS
10
52.163094000000001
20
-15.5298189999999998
11
52.0121690000000001
21
-15.5298189999999998
0
LINE
8
BLACK
6
CONTINUOUS
10
52.0121690000000001
20
-15.5298189999999998
11
51.8976559999999978
21
-15.56799
  0
ENDSEC
  0
EOF
