%TF.GenerationSoftware,KiCad,Pcbnew,8.0.6*%
%TF.CreationDate,2024-10-17T21:48:29+02:00*%
%TF.ProjectId,weatherStationBoard,77656174-6865-4725-9374-6174696f6e42,rev?*%
%TF.SameCoordinates,Original*%
%TF.FileFunction,OtherDrawing,Comment*%
%FSLAX46Y46*%
G04 Gerber Fmt 4.6, Leading zero omitted, Abs format (unit mm)*
G04 Created by KiCad (PCBNEW 8.0.6) date 2024-10-17 21:48:29*
%MOMM*%
%LPD*%
G01*
G04 APERTURE LIST*
%ADD10C,0.150000*%
%ADD11C,0.100000*%
G04 APERTURE END LIST*
D10*
X184071429Y-87733390D02*
X183976191Y-87685771D01*
X183976191Y-87685771D02*
X183928572Y-87638152D01*
X183928572Y-87638152D02*
X183880953Y-87542914D01*
X183880953Y-87542914D02*
X183880953Y-87495295D01*
X183880953Y-87495295D02*
X183928572Y-87400057D01*
X183928572Y-87400057D02*
X183976191Y-87352438D01*
X183976191Y-87352438D02*
X184071429Y-87304819D01*
X184071429Y-87304819D02*
X184261905Y-87304819D01*
X184261905Y-87304819D02*
X184357143Y-87352438D01*
X184357143Y-87352438D02*
X184404762Y-87400057D01*
X184404762Y-87400057D02*
X184452381Y-87495295D01*
X184452381Y-87495295D02*
X184452381Y-87542914D01*
X184452381Y-87542914D02*
X184404762Y-87638152D01*
X184404762Y-87638152D02*
X184357143Y-87685771D01*
X184357143Y-87685771D02*
X184261905Y-87733390D01*
X184261905Y-87733390D02*
X184071429Y-87733390D01*
X184071429Y-87733390D02*
X183976191Y-87781009D01*
X183976191Y-87781009D02*
X183928572Y-87828628D01*
X183928572Y-87828628D02*
X183880953Y-87923866D01*
X183880953Y-87923866D02*
X183880953Y-88114342D01*
X183880953Y-88114342D02*
X183928572Y-88209580D01*
X183928572Y-88209580D02*
X183976191Y-88257200D01*
X183976191Y-88257200D02*
X184071429Y-88304819D01*
X184071429Y-88304819D02*
X184261905Y-88304819D01*
X184261905Y-88304819D02*
X184357143Y-88257200D01*
X184357143Y-88257200D02*
X184404762Y-88209580D01*
X184404762Y-88209580D02*
X184452381Y-88114342D01*
X184452381Y-88114342D02*
X184452381Y-87923866D01*
X184452381Y-87923866D02*
X184404762Y-87828628D01*
X184404762Y-87828628D02*
X184357143Y-87781009D01*
X184357143Y-87781009D02*
X184261905Y-87733390D01*
X185357143Y-87304819D02*
X184880953Y-87304819D01*
X184880953Y-87304819D02*
X184833334Y-87781009D01*
X184833334Y-87781009D02*
X184880953Y-87733390D01*
X184880953Y-87733390D02*
X184976191Y-87685771D01*
X184976191Y-87685771D02*
X185214286Y-87685771D01*
X185214286Y-87685771D02*
X185309524Y-87733390D01*
X185309524Y-87733390D02*
X185357143Y-87781009D01*
X185357143Y-87781009D02*
X185404762Y-87876247D01*
X185404762Y-87876247D02*
X185404762Y-88114342D01*
X185404762Y-88114342D02*
X185357143Y-88209580D01*
X185357143Y-88209580D02*
X185309524Y-88257200D01*
X185309524Y-88257200D02*
X185214286Y-88304819D01*
X185214286Y-88304819D02*
X184976191Y-88304819D01*
X184976191Y-88304819D02*
X184880953Y-88257200D01*
X184880953Y-88257200D02*
X184833334Y-88209580D01*
X185833334Y-88209580D02*
X185880953Y-88257200D01*
X185880953Y-88257200D02*
X185833334Y-88304819D01*
X185833334Y-88304819D02*
X185785715Y-88257200D01*
X185785715Y-88257200D02*
X185833334Y-88209580D01*
X185833334Y-88209580D02*
X185833334Y-88304819D01*
X186500000Y-87304819D02*
X186595238Y-87304819D01*
X186595238Y-87304819D02*
X186690476Y-87352438D01*
X186690476Y-87352438D02*
X186738095Y-87400057D01*
X186738095Y-87400057D02*
X186785714Y-87495295D01*
X186785714Y-87495295D02*
X186833333Y-87685771D01*
X186833333Y-87685771D02*
X186833333Y-87923866D01*
X186833333Y-87923866D02*
X186785714Y-88114342D01*
X186785714Y-88114342D02*
X186738095Y-88209580D01*
X186738095Y-88209580D02*
X186690476Y-88257200D01*
X186690476Y-88257200D02*
X186595238Y-88304819D01*
X186595238Y-88304819D02*
X186500000Y-88304819D01*
X186500000Y-88304819D02*
X186404762Y-88257200D01*
X186404762Y-88257200D02*
X186357143Y-88209580D01*
X186357143Y-88209580D02*
X186309524Y-88114342D01*
X186309524Y-88114342D02*
X186261905Y-87923866D01*
X186261905Y-87923866D02*
X186261905Y-87685771D01*
X186261905Y-87685771D02*
X186309524Y-87495295D01*
X186309524Y-87495295D02*
X186357143Y-87400057D01*
X186357143Y-87400057D02*
X186404762Y-87352438D01*
X186404762Y-87352438D02*
X186500000Y-87304819D01*
X187452381Y-87304819D02*
X187547619Y-87304819D01*
X187547619Y-87304819D02*
X187642857Y-87352438D01*
X187642857Y-87352438D02*
X187690476Y-87400057D01*
X187690476Y-87400057D02*
X187738095Y-87495295D01*
X187738095Y-87495295D02*
X187785714Y-87685771D01*
X187785714Y-87685771D02*
X187785714Y-87923866D01*
X187785714Y-87923866D02*
X187738095Y-88114342D01*
X187738095Y-88114342D02*
X187690476Y-88209580D01*
X187690476Y-88209580D02*
X187642857Y-88257200D01*
X187642857Y-88257200D02*
X187547619Y-88304819D01*
X187547619Y-88304819D02*
X187452381Y-88304819D01*
X187452381Y-88304819D02*
X187357143Y-88257200D01*
X187357143Y-88257200D02*
X187309524Y-88209580D01*
X187309524Y-88209580D02*
X187261905Y-88114342D01*
X187261905Y-88114342D02*
X187214286Y-87923866D01*
X187214286Y-87923866D02*
X187214286Y-87685771D01*
X187214286Y-87685771D02*
X187261905Y-87495295D01*
X187261905Y-87495295D02*
X187309524Y-87400057D01*
X187309524Y-87400057D02*
X187357143Y-87352438D01*
X187357143Y-87352438D02*
X187452381Y-87304819D01*
X188404762Y-87304819D02*
X188500000Y-87304819D01*
X188500000Y-87304819D02*
X188595238Y-87352438D01*
X188595238Y-87352438D02*
X188642857Y-87400057D01*
X188642857Y-87400057D02*
X188690476Y-87495295D01*
X188690476Y-87495295D02*
X188738095Y-87685771D01*
X188738095Y-87685771D02*
X188738095Y-87923866D01*
X188738095Y-87923866D02*
X188690476Y-88114342D01*
X188690476Y-88114342D02*
X188642857Y-88209580D01*
X188642857Y-88209580D02*
X188595238Y-88257200D01*
X188595238Y-88257200D02*
X188500000Y-88304819D01*
X188500000Y-88304819D02*
X188404762Y-88304819D01*
X188404762Y-88304819D02*
X188309524Y-88257200D01*
X188309524Y-88257200D02*
X188261905Y-88209580D01*
X188261905Y-88209580D02*
X188214286Y-88114342D01*
X188214286Y-88114342D02*
X188166667Y-87923866D01*
X188166667Y-87923866D02*
X188166667Y-87685771D01*
X188166667Y-87685771D02*
X188214286Y-87495295D01*
X188214286Y-87495295D02*
X188261905Y-87400057D01*
X188261905Y-87400057D02*
X188309524Y-87352438D01*
X188309524Y-87352438D02*
X188404762Y-87304819D01*
X189357143Y-87304819D02*
X189452381Y-87304819D01*
X189452381Y-87304819D02*
X189547619Y-87352438D01*
X189547619Y-87352438D02*
X189595238Y-87400057D01*
X189595238Y-87400057D02*
X189642857Y-87495295D01*
X189642857Y-87495295D02*
X189690476Y-87685771D01*
X189690476Y-87685771D02*
X189690476Y-87923866D01*
X189690476Y-87923866D02*
X189642857Y-88114342D01*
X189642857Y-88114342D02*
X189595238Y-88209580D01*
X189595238Y-88209580D02*
X189547619Y-88257200D01*
X189547619Y-88257200D02*
X189452381Y-88304819D01*
X189452381Y-88304819D02*
X189357143Y-88304819D01*
X189357143Y-88304819D02*
X189261905Y-88257200D01*
X189261905Y-88257200D02*
X189214286Y-88209580D01*
X189214286Y-88209580D02*
X189166667Y-88114342D01*
X189166667Y-88114342D02*
X189119048Y-87923866D01*
X189119048Y-87923866D02*
X189119048Y-87685771D01*
X189119048Y-87685771D02*
X189166667Y-87495295D01*
X189166667Y-87495295D02*
X189214286Y-87400057D01*
X189214286Y-87400057D02*
X189261905Y-87352438D01*
X189261905Y-87352438D02*
X189357143Y-87304819D01*
X190880953Y-88304819D02*
X190880953Y-87638152D01*
X190880953Y-87733390D02*
X190928572Y-87685771D01*
X190928572Y-87685771D02*
X191023810Y-87638152D01*
X191023810Y-87638152D02*
X191166667Y-87638152D01*
X191166667Y-87638152D02*
X191261905Y-87685771D01*
X191261905Y-87685771D02*
X191309524Y-87781009D01*
X191309524Y-87781009D02*
X191309524Y-88304819D01*
X191309524Y-87781009D02*
X191357143Y-87685771D01*
X191357143Y-87685771D02*
X191452381Y-87638152D01*
X191452381Y-87638152D02*
X191595238Y-87638152D01*
X191595238Y-87638152D02*
X191690477Y-87685771D01*
X191690477Y-87685771D02*
X191738096Y-87781009D01*
X191738096Y-87781009D02*
X191738096Y-88304819D01*
X192214286Y-88304819D02*
X192214286Y-87638152D01*
X192214286Y-87733390D02*
X192261905Y-87685771D01*
X192261905Y-87685771D02*
X192357143Y-87638152D01*
X192357143Y-87638152D02*
X192500000Y-87638152D01*
X192500000Y-87638152D02*
X192595238Y-87685771D01*
X192595238Y-87685771D02*
X192642857Y-87781009D01*
X192642857Y-87781009D02*
X192642857Y-88304819D01*
X192642857Y-87781009D02*
X192690476Y-87685771D01*
X192690476Y-87685771D02*
X192785714Y-87638152D01*
X192785714Y-87638152D02*
X192928571Y-87638152D01*
X192928571Y-87638152D02*
X193023810Y-87685771D01*
X193023810Y-87685771D02*
X193071429Y-87781009D01*
X193071429Y-87781009D02*
X193071429Y-88304819D01*
D11*
X146000000Y-95500000D02*
X146000000Y-88413580D01*
X231000000Y-95500000D02*
X231000000Y-88413580D01*
X146000000Y-89000000D02*
X231000000Y-89000000D01*
X146000000Y-89000000D02*
X231000000Y-89000000D01*
X146000000Y-89000000D02*
X147126504Y-88413579D01*
X146000000Y-89000000D02*
X147126504Y-89586421D01*
X231000000Y-89000000D02*
X229873496Y-89586421D01*
X231000000Y-89000000D02*
X229873496Y-88413579D01*
D10*
X135804819Y-118166665D02*
X135804819Y-117547618D01*
X135804819Y-117547618D02*
X136185771Y-117880951D01*
X136185771Y-117880951D02*
X136185771Y-117738094D01*
X136185771Y-117738094D02*
X136233390Y-117642856D01*
X136233390Y-117642856D02*
X136281009Y-117595237D01*
X136281009Y-117595237D02*
X136376247Y-117547618D01*
X136376247Y-117547618D02*
X136614342Y-117547618D01*
X136614342Y-117547618D02*
X136709580Y-117595237D01*
X136709580Y-117595237D02*
X136757200Y-117642856D01*
X136757200Y-117642856D02*
X136804819Y-117738094D01*
X136804819Y-117738094D02*
X136804819Y-118023808D01*
X136804819Y-118023808D02*
X136757200Y-118119046D01*
X136757200Y-118119046D02*
X136709580Y-118166665D01*
X135804819Y-116642856D02*
X135804819Y-117119046D01*
X135804819Y-117119046D02*
X136281009Y-117166665D01*
X136281009Y-117166665D02*
X136233390Y-117119046D01*
X136233390Y-117119046D02*
X136185771Y-117023808D01*
X136185771Y-117023808D02*
X136185771Y-116785713D01*
X136185771Y-116785713D02*
X136233390Y-116690475D01*
X136233390Y-116690475D02*
X136281009Y-116642856D01*
X136281009Y-116642856D02*
X136376247Y-116595237D01*
X136376247Y-116595237D02*
X136614342Y-116595237D01*
X136614342Y-116595237D02*
X136709580Y-116642856D01*
X136709580Y-116642856D02*
X136757200Y-116690475D01*
X136757200Y-116690475D02*
X136804819Y-116785713D01*
X136804819Y-116785713D02*
X136804819Y-117023808D01*
X136804819Y-117023808D02*
X136757200Y-117119046D01*
X136757200Y-117119046D02*
X136709580Y-117166665D01*
X136709580Y-116166665D02*
X136757200Y-116119046D01*
X136757200Y-116119046D02*
X136804819Y-116166665D01*
X136804819Y-116166665D02*
X136757200Y-116214284D01*
X136757200Y-116214284D02*
X136709580Y-116166665D01*
X136709580Y-116166665D02*
X136804819Y-116166665D01*
X135804819Y-115499999D02*
X135804819Y-115404761D01*
X135804819Y-115404761D02*
X135852438Y-115309523D01*
X135852438Y-115309523D02*
X135900057Y-115261904D01*
X135900057Y-115261904D02*
X135995295Y-115214285D01*
X135995295Y-115214285D02*
X136185771Y-115166666D01*
X136185771Y-115166666D02*
X136423866Y-115166666D01*
X136423866Y-115166666D02*
X136614342Y-115214285D01*
X136614342Y-115214285D02*
X136709580Y-115261904D01*
X136709580Y-115261904D02*
X136757200Y-115309523D01*
X136757200Y-115309523D02*
X136804819Y-115404761D01*
X136804819Y-115404761D02*
X136804819Y-115499999D01*
X136804819Y-115499999D02*
X136757200Y-115595237D01*
X136757200Y-115595237D02*
X136709580Y-115642856D01*
X136709580Y-115642856D02*
X136614342Y-115690475D01*
X136614342Y-115690475D02*
X136423866Y-115738094D01*
X136423866Y-115738094D02*
X136185771Y-115738094D01*
X136185771Y-115738094D02*
X135995295Y-115690475D01*
X135995295Y-115690475D02*
X135900057Y-115642856D01*
X135900057Y-115642856D02*
X135852438Y-115595237D01*
X135852438Y-115595237D02*
X135804819Y-115499999D01*
X135804819Y-114547618D02*
X135804819Y-114452380D01*
X135804819Y-114452380D02*
X135852438Y-114357142D01*
X135852438Y-114357142D02*
X135900057Y-114309523D01*
X135900057Y-114309523D02*
X135995295Y-114261904D01*
X135995295Y-114261904D02*
X136185771Y-114214285D01*
X136185771Y-114214285D02*
X136423866Y-114214285D01*
X136423866Y-114214285D02*
X136614342Y-114261904D01*
X136614342Y-114261904D02*
X136709580Y-114309523D01*
X136709580Y-114309523D02*
X136757200Y-114357142D01*
X136757200Y-114357142D02*
X136804819Y-114452380D01*
X136804819Y-114452380D02*
X136804819Y-114547618D01*
X136804819Y-114547618D02*
X136757200Y-114642856D01*
X136757200Y-114642856D02*
X136709580Y-114690475D01*
X136709580Y-114690475D02*
X136614342Y-114738094D01*
X136614342Y-114738094D02*
X136423866Y-114785713D01*
X136423866Y-114785713D02*
X136185771Y-114785713D01*
X136185771Y-114785713D02*
X135995295Y-114738094D01*
X135995295Y-114738094D02*
X135900057Y-114690475D01*
X135900057Y-114690475D02*
X135852438Y-114642856D01*
X135852438Y-114642856D02*
X135804819Y-114547618D01*
X135804819Y-113595237D02*
X135804819Y-113499999D01*
X135804819Y-113499999D02*
X135852438Y-113404761D01*
X135852438Y-113404761D02*
X135900057Y-113357142D01*
X135900057Y-113357142D02*
X135995295Y-113309523D01*
X135995295Y-113309523D02*
X136185771Y-113261904D01*
X136185771Y-113261904D02*
X136423866Y-113261904D01*
X136423866Y-113261904D02*
X136614342Y-113309523D01*
X136614342Y-113309523D02*
X136709580Y-113357142D01*
X136709580Y-113357142D02*
X136757200Y-113404761D01*
X136757200Y-113404761D02*
X136804819Y-113499999D01*
X136804819Y-113499999D02*
X136804819Y-113595237D01*
X136804819Y-113595237D02*
X136757200Y-113690475D01*
X136757200Y-113690475D02*
X136709580Y-113738094D01*
X136709580Y-113738094D02*
X136614342Y-113785713D01*
X136614342Y-113785713D02*
X136423866Y-113833332D01*
X136423866Y-113833332D02*
X136185771Y-113833332D01*
X136185771Y-113833332D02*
X135995295Y-113785713D01*
X135995295Y-113785713D02*
X135900057Y-113738094D01*
X135900057Y-113738094D02*
X135852438Y-113690475D01*
X135852438Y-113690475D02*
X135804819Y-113595237D01*
X135804819Y-112642856D02*
X135804819Y-112547618D01*
X135804819Y-112547618D02*
X135852438Y-112452380D01*
X135852438Y-112452380D02*
X135900057Y-112404761D01*
X135900057Y-112404761D02*
X135995295Y-112357142D01*
X135995295Y-112357142D02*
X136185771Y-112309523D01*
X136185771Y-112309523D02*
X136423866Y-112309523D01*
X136423866Y-112309523D02*
X136614342Y-112357142D01*
X136614342Y-112357142D02*
X136709580Y-112404761D01*
X136709580Y-112404761D02*
X136757200Y-112452380D01*
X136757200Y-112452380D02*
X136804819Y-112547618D01*
X136804819Y-112547618D02*
X136804819Y-112642856D01*
X136804819Y-112642856D02*
X136757200Y-112738094D01*
X136757200Y-112738094D02*
X136709580Y-112785713D01*
X136709580Y-112785713D02*
X136614342Y-112833332D01*
X136614342Y-112833332D02*
X136423866Y-112880951D01*
X136423866Y-112880951D02*
X136185771Y-112880951D01*
X136185771Y-112880951D02*
X135995295Y-112833332D01*
X135995295Y-112833332D02*
X135900057Y-112785713D01*
X135900057Y-112785713D02*
X135852438Y-112738094D01*
X135852438Y-112738094D02*
X135804819Y-112642856D01*
X136804819Y-111119046D02*
X136138152Y-111119046D01*
X136233390Y-111119046D02*
X136185771Y-111071427D01*
X136185771Y-111071427D02*
X136138152Y-110976189D01*
X136138152Y-110976189D02*
X136138152Y-110833332D01*
X136138152Y-110833332D02*
X136185771Y-110738094D01*
X136185771Y-110738094D02*
X136281009Y-110690475D01*
X136281009Y-110690475D02*
X136804819Y-110690475D01*
X136281009Y-110690475D02*
X136185771Y-110642856D01*
X136185771Y-110642856D02*
X136138152Y-110547618D01*
X136138152Y-110547618D02*
X136138152Y-110404761D01*
X136138152Y-110404761D02*
X136185771Y-110309522D01*
X136185771Y-110309522D02*
X136281009Y-110261903D01*
X136281009Y-110261903D02*
X136804819Y-110261903D01*
X136804819Y-109785713D02*
X136138152Y-109785713D01*
X136233390Y-109785713D02*
X136185771Y-109738094D01*
X136185771Y-109738094D02*
X136138152Y-109642856D01*
X136138152Y-109642856D02*
X136138152Y-109499999D01*
X136138152Y-109499999D02*
X136185771Y-109404761D01*
X136185771Y-109404761D02*
X136281009Y-109357142D01*
X136281009Y-109357142D02*
X136804819Y-109357142D01*
X136281009Y-109357142D02*
X136185771Y-109309523D01*
X136185771Y-109309523D02*
X136138152Y-109214285D01*
X136138152Y-109214285D02*
X136138152Y-109071428D01*
X136138152Y-109071428D02*
X136185771Y-108976189D01*
X136185771Y-108976189D02*
X136281009Y-108928570D01*
X136281009Y-108928570D02*
X136804819Y-108928570D01*
D11*
X145500000Y-96000000D02*
X136913580Y-96000000D01*
X145500000Y-131000000D02*
X136913580Y-131000000D01*
X137500000Y-96000000D02*
X137500000Y-131000000D01*
X137500000Y-96000000D02*
X137500000Y-131000000D01*
X137500000Y-96000000D02*
X138086421Y-97126504D01*
X137500000Y-96000000D02*
X136913579Y-97126504D01*
X137500000Y-131000000D02*
X136913579Y-129873496D01*
X137500000Y-131000000D02*
X138086421Y-129873496D01*
D10*
X184071429Y-92233390D02*
X183976191Y-92185771D01*
X183976191Y-92185771D02*
X183928572Y-92138152D01*
X183928572Y-92138152D02*
X183880953Y-92042914D01*
X183880953Y-92042914D02*
X183880953Y-91995295D01*
X183880953Y-91995295D02*
X183928572Y-91900057D01*
X183928572Y-91900057D02*
X183976191Y-91852438D01*
X183976191Y-91852438D02*
X184071429Y-91804819D01*
X184071429Y-91804819D02*
X184261905Y-91804819D01*
X184261905Y-91804819D02*
X184357143Y-91852438D01*
X184357143Y-91852438D02*
X184404762Y-91900057D01*
X184404762Y-91900057D02*
X184452381Y-91995295D01*
X184452381Y-91995295D02*
X184452381Y-92042914D01*
X184452381Y-92042914D02*
X184404762Y-92138152D01*
X184404762Y-92138152D02*
X184357143Y-92185771D01*
X184357143Y-92185771D02*
X184261905Y-92233390D01*
X184261905Y-92233390D02*
X184071429Y-92233390D01*
X184071429Y-92233390D02*
X183976191Y-92281009D01*
X183976191Y-92281009D02*
X183928572Y-92328628D01*
X183928572Y-92328628D02*
X183880953Y-92423866D01*
X183880953Y-92423866D02*
X183880953Y-92614342D01*
X183880953Y-92614342D02*
X183928572Y-92709580D01*
X183928572Y-92709580D02*
X183976191Y-92757200D01*
X183976191Y-92757200D02*
X184071429Y-92804819D01*
X184071429Y-92804819D02*
X184261905Y-92804819D01*
X184261905Y-92804819D02*
X184357143Y-92757200D01*
X184357143Y-92757200D02*
X184404762Y-92709580D01*
X184404762Y-92709580D02*
X184452381Y-92614342D01*
X184452381Y-92614342D02*
X184452381Y-92423866D01*
X184452381Y-92423866D02*
X184404762Y-92328628D01*
X184404762Y-92328628D02*
X184357143Y-92281009D01*
X184357143Y-92281009D02*
X184261905Y-92233390D01*
X185071429Y-91804819D02*
X185166667Y-91804819D01*
X185166667Y-91804819D02*
X185261905Y-91852438D01*
X185261905Y-91852438D02*
X185309524Y-91900057D01*
X185309524Y-91900057D02*
X185357143Y-91995295D01*
X185357143Y-91995295D02*
X185404762Y-92185771D01*
X185404762Y-92185771D02*
X185404762Y-92423866D01*
X185404762Y-92423866D02*
X185357143Y-92614342D01*
X185357143Y-92614342D02*
X185309524Y-92709580D01*
X185309524Y-92709580D02*
X185261905Y-92757200D01*
X185261905Y-92757200D02*
X185166667Y-92804819D01*
X185166667Y-92804819D02*
X185071429Y-92804819D01*
X185071429Y-92804819D02*
X184976191Y-92757200D01*
X184976191Y-92757200D02*
X184928572Y-92709580D01*
X184928572Y-92709580D02*
X184880953Y-92614342D01*
X184880953Y-92614342D02*
X184833334Y-92423866D01*
X184833334Y-92423866D02*
X184833334Y-92185771D01*
X184833334Y-92185771D02*
X184880953Y-91995295D01*
X184880953Y-91995295D02*
X184928572Y-91900057D01*
X184928572Y-91900057D02*
X184976191Y-91852438D01*
X184976191Y-91852438D02*
X185071429Y-91804819D01*
X185833334Y-92709580D02*
X185880953Y-92757200D01*
X185880953Y-92757200D02*
X185833334Y-92804819D01*
X185833334Y-92804819D02*
X185785715Y-92757200D01*
X185785715Y-92757200D02*
X185833334Y-92709580D01*
X185833334Y-92709580D02*
X185833334Y-92804819D01*
X186500000Y-91804819D02*
X186595238Y-91804819D01*
X186595238Y-91804819D02*
X186690476Y-91852438D01*
X186690476Y-91852438D02*
X186738095Y-91900057D01*
X186738095Y-91900057D02*
X186785714Y-91995295D01*
X186785714Y-91995295D02*
X186833333Y-92185771D01*
X186833333Y-92185771D02*
X186833333Y-92423866D01*
X186833333Y-92423866D02*
X186785714Y-92614342D01*
X186785714Y-92614342D02*
X186738095Y-92709580D01*
X186738095Y-92709580D02*
X186690476Y-92757200D01*
X186690476Y-92757200D02*
X186595238Y-92804819D01*
X186595238Y-92804819D02*
X186500000Y-92804819D01*
X186500000Y-92804819D02*
X186404762Y-92757200D01*
X186404762Y-92757200D02*
X186357143Y-92709580D01*
X186357143Y-92709580D02*
X186309524Y-92614342D01*
X186309524Y-92614342D02*
X186261905Y-92423866D01*
X186261905Y-92423866D02*
X186261905Y-92185771D01*
X186261905Y-92185771D02*
X186309524Y-91995295D01*
X186309524Y-91995295D02*
X186357143Y-91900057D01*
X186357143Y-91900057D02*
X186404762Y-91852438D01*
X186404762Y-91852438D02*
X186500000Y-91804819D01*
X187452381Y-91804819D02*
X187547619Y-91804819D01*
X187547619Y-91804819D02*
X187642857Y-91852438D01*
X187642857Y-91852438D02*
X187690476Y-91900057D01*
X187690476Y-91900057D02*
X187738095Y-91995295D01*
X187738095Y-91995295D02*
X187785714Y-92185771D01*
X187785714Y-92185771D02*
X187785714Y-92423866D01*
X187785714Y-92423866D02*
X187738095Y-92614342D01*
X187738095Y-92614342D02*
X187690476Y-92709580D01*
X187690476Y-92709580D02*
X187642857Y-92757200D01*
X187642857Y-92757200D02*
X187547619Y-92804819D01*
X187547619Y-92804819D02*
X187452381Y-92804819D01*
X187452381Y-92804819D02*
X187357143Y-92757200D01*
X187357143Y-92757200D02*
X187309524Y-92709580D01*
X187309524Y-92709580D02*
X187261905Y-92614342D01*
X187261905Y-92614342D02*
X187214286Y-92423866D01*
X187214286Y-92423866D02*
X187214286Y-92185771D01*
X187214286Y-92185771D02*
X187261905Y-91995295D01*
X187261905Y-91995295D02*
X187309524Y-91900057D01*
X187309524Y-91900057D02*
X187357143Y-91852438D01*
X187357143Y-91852438D02*
X187452381Y-91804819D01*
X188404762Y-91804819D02*
X188500000Y-91804819D01*
X188500000Y-91804819D02*
X188595238Y-91852438D01*
X188595238Y-91852438D02*
X188642857Y-91900057D01*
X188642857Y-91900057D02*
X188690476Y-91995295D01*
X188690476Y-91995295D02*
X188738095Y-92185771D01*
X188738095Y-92185771D02*
X188738095Y-92423866D01*
X188738095Y-92423866D02*
X188690476Y-92614342D01*
X188690476Y-92614342D02*
X188642857Y-92709580D01*
X188642857Y-92709580D02*
X188595238Y-92757200D01*
X188595238Y-92757200D02*
X188500000Y-92804819D01*
X188500000Y-92804819D02*
X188404762Y-92804819D01*
X188404762Y-92804819D02*
X188309524Y-92757200D01*
X188309524Y-92757200D02*
X188261905Y-92709580D01*
X188261905Y-92709580D02*
X188214286Y-92614342D01*
X188214286Y-92614342D02*
X188166667Y-92423866D01*
X188166667Y-92423866D02*
X188166667Y-92185771D01*
X188166667Y-92185771D02*
X188214286Y-91995295D01*
X188214286Y-91995295D02*
X188261905Y-91900057D01*
X188261905Y-91900057D02*
X188309524Y-91852438D01*
X188309524Y-91852438D02*
X188404762Y-91804819D01*
X189357143Y-91804819D02*
X189452381Y-91804819D01*
X189452381Y-91804819D02*
X189547619Y-91852438D01*
X189547619Y-91852438D02*
X189595238Y-91900057D01*
X189595238Y-91900057D02*
X189642857Y-91995295D01*
X189642857Y-91995295D02*
X189690476Y-92185771D01*
X189690476Y-92185771D02*
X189690476Y-92423866D01*
X189690476Y-92423866D02*
X189642857Y-92614342D01*
X189642857Y-92614342D02*
X189595238Y-92709580D01*
X189595238Y-92709580D02*
X189547619Y-92757200D01*
X189547619Y-92757200D02*
X189452381Y-92804819D01*
X189452381Y-92804819D02*
X189357143Y-92804819D01*
X189357143Y-92804819D02*
X189261905Y-92757200D01*
X189261905Y-92757200D02*
X189214286Y-92709580D01*
X189214286Y-92709580D02*
X189166667Y-92614342D01*
X189166667Y-92614342D02*
X189119048Y-92423866D01*
X189119048Y-92423866D02*
X189119048Y-92185771D01*
X189119048Y-92185771D02*
X189166667Y-91995295D01*
X189166667Y-91995295D02*
X189214286Y-91900057D01*
X189214286Y-91900057D02*
X189261905Y-91852438D01*
X189261905Y-91852438D02*
X189357143Y-91804819D01*
X190880953Y-92804819D02*
X190880953Y-92138152D01*
X190880953Y-92233390D02*
X190928572Y-92185771D01*
X190928572Y-92185771D02*
X191023810Y-92138152D01*
X191023810Y-92138152D02*
X191166667Y-92138152D01*
X191166667Y-92138152D02*
X191261905Y-92185771D01*
X191261905Y-92185771D02*
X191309524Y-92281009D01*
X191309524Y-92281009D02*
X191309524Y-92804819D01*
X191309524Y-92281009D02*
X191357143Y-92185771D01*
X191357143Y-92185771D02*
X191452381Y-92138152D01*
X191452381Y-92138152D02*
X191595238Y-92138152D01*
X191595238Y-92138152D02*
X191690477Y-92185771D01*
X191690477Y-92185771D02*
X191738096Y-92281009D01*
X191738096Y-92281009D02*
X191738096Y-92804819D01*
X192214286Y-92804819D02*
X192214286Y-92138152D01*
X192214286Y-92233390D02*
X192261905Y-92185771D01*
X192261905Y-92185771D02*
X192357143Y-92138152D01*
X192357143Y-92138152D02*
X192500000Y-92138152D01*
X192500000Y-92138152D02*
X192595238Y-92185771D01*
X192595238Y-92185771D02*
X192642857Y-92281009D01*
X192642857Y-92281009D02*
X192642857Y-92804819D01*
X192642857Y-92281009D02*
X192690476Y-92185771D01*
X192690476Y-92185771D02*
X192785714Y-92138152D01*
X192785714Y-92138152D02*
X192928571Y-92138152D01*
X192928571Y-92138152D02*
X193023810Y-92185771D01*
X193023810Y-92185771D02*
X193071429Y-92281009D01*
X193071429Y-92281009D02*
X193071429Y-92804819D01*
D11*
X148500000Y-98000000D02*
X148500000Y-92913580D01*
X228500000Y-98000000D02*
X228500000Y-92913580D01*
X148500000Y-93500000D02*
X228500000Y-93500000D01*
X148500000Y-93500000D02*
X228500000Y-93500000D01*
X148500000Y-93500000D02*
X149626504Y-92913579D01*
X148500000Y-93500000D02*
X149626504Y-94086421D01*
X228500000Y-93500000D02*
X227373496Y-94086421D01*
X228500000Y-93500000D02*
X227373496Y-92913579D01*
D10*
X140804819Y-118166665D02*
X140804819Y-117547618D01*
X140804819Y-117547618D02*
X141185771Y-117880951D01*
X141185771Y-117880951D02*
X141185771Y-117738094D01*
X141185771Y-117738094D02*
X141233390Y-117642856D01*
X141233390Y-117642856D02*
X141281009Y-117595237D01*
X141281009Y-117595237D02*
X141376247Y-117547618D01*
X141376247Y-117547618D02*
X141614342Y-117547618D01*
X141614342Y-117547618D02*
X141709580Y-117595237D01*
X141709580Y-117595237D02*
X141757200Y-117642856D01*
X141757200Y-117642856D02*
X141804819Y-117738094D01*
X141804819Y-117738094D02*
X141804819Y-118023808D01*
X141804819Y-118023808D02*
X141757200Y-118119046D01*
X141757200Y-118119046D02*
X141709580Y-118166665D01*
X140804819Y-116928570D02*
X140804819Y-116833332D01*
X140804819Y-116833332D02*
X140852438Y-116738094D01*
X140852438Y-116738094D02*
X140900057Y-116690475D01*
X140900057Y-116690475D02*
X140995295Y-116642856D01*
X140995295Y-116642856D02*
X141185771Y-116595237D01*
X141185771Y-116595237D02*
X141423866Y-116595237D01*
X141423866Y-116595237D02*
X141614342Y-116642856D01*
X141614342Y-116642856D02*
X141709580Y-116690475D01*
X141709580Y-116690475D02*
X141757200Y-116738094D01*
X141757200Y-116738094D02*
X141804819Y-116833332D01*
X141804819Y-116833332D02*
X141804819Y-116928570D01*
X141804819Y-116928570D02*
X141757200Y-117023808D01*
X141757200Y-117023808D02*
X141709580Y-117071427D01*
X141709580Y-117071427D02*
X141614342Y-117119046D01*
X141614342Y-117119046D02*
X141423866Y-117166665D01*
X141423866Y-117166665D02*
X141185771Y-117166665D01*
X141185771Y-117166665D02*
X140995295Y-117119046D01*
X140995295Y-117119046D02*
X140900057Y-117071427D01*
X140900057Y-117071427D02*
X140852438Y-117023808D01*
X140852438Y-117023808D02*
X140804819Y-116928570D01*
X141709580Y-116166665D02*
X141757200Y-116119046D01*
X141757200Y-116119046D02*
X141804819Y-116166665D01*
X141804819Y-116166665D02*
X141757200Y-116214284D01*
X141757200Y-116214284D02*
X141709580Y-116166665D01*
X141709580Y-116166665D02*
X141804819Y-116166665D01*
X140804819Y-115499999D02*
X140804819Y-115404761D01*
X140804819Y-115404761D02*
X140852438Y-115309523D01*
X140852438Y-115309523D02*
X140900057Y-115261904D01*
X140900057Y-115261904D02*
X140995295Y-115214285D01*
X140995295Y-115214285D02*
X141185771Y-115166666D01*
X141185771Y-115166666D02*
X141423866Y-115166666D01*
X141423866Y-115166666D02*
X141614342Y-115214285D01*
X141614342Y-115214285D02*
X141709580Y-115261904D01*
X141709580Y-115261904D02*
X141757200Y-115309523D01*
X141757200Y-115309523D02*
X141804819Y-115404761D01*
X141804819Y-115404761D02*
X141804819Y-115499999D01*
X141804819Y-115499999D02*
X141757200Y-115595237D01*
X141757200Y-115595237D02*
X141709580Y-115642856D01*
X141709580Y-115642856D02*
X141614342Y-115690475D01*
X141614342Y-115690475D02*
X141423866Y-115738094D01*
X141423866Y-115738094D02*
X141185771Y-115738094D01*
X141185771Y-115738094D02*
X140995295Y-115690475D01*
X140995295Y-115690475D02*
X140900057Y-115642856D01*
X140900057Y-115642856D02*
X140852438Y-115595237D01*
X140852438Y-115595237D02*
X140804819Y-115499999D01*
X140804819Y-114547618D02*
X140804819Y-114452380D01*
X140804819Y-114452380D02*
X140852438Y-114357142D01*
X140852438Y-114357142D02*
X140900057Y-114309523D01*
X140900057Y-114309523D02*
X140995295Y-114261904D01*
X140995295Y-114261904D02*
X141185771Y-114214285D01*
X141185771Y-114214285D02*
X141423866Y-114214285D01*
X141423866Y-114214285D02*
X141614342Y-114261904D01*
X141614342Y-114261904D02*
X141709580Y-114309523D01*
X141709580Y-114309523D02*
X141757200Y-114357142D01*
X141757200Y-114357142D02*
X141804819Y-114452380D01*
X141804819Y-114452380D02*
X141804819Y-114547618D01*
X141804819Y-114547618D02*
X141757200Y-114642856D01*
X141757200Y-114642856D02*
X141709580Y-114690475D01*
X141709580Y-114690475D02*
X141614342Y-114738094D01*
X141614342Y-114738094D02*
X141423866Y-114785713D01*
X141423866Y-114785713D02*
X141185771Y-114785713D01*
X141185771Y-114785713D02*
X140995295Y-114738094D01*
X140995295Y-114738094D02*
X140900057Y-114690475D01*
X140900057Y-114690475D02*
X140852438Y-114642856D01*
X140852438Y-114642856D02*
X140804819Y-114547618D01*
X140804819Y-113595237D02*
X140804819Y-113499999D01*
X140804819Y-113499999D02*
X140852438Y-113404761D01*
X140852438Y-113404761D02*
X140900057Y-113357142D01*
X140900057Y-113357142D02*
X140995295Y-113309523D01*
X140995295Y-113309523D02*
X141185771Y-113261904D01*
X141185771Y-113261904D02*
X141423866Y-113261904D01*
X141423866Y-113261904D02*
X141614342Y-113309523D01*
X141614342Y-113309523D02*
X141709580Y-113357142D01*
X141709580Y-113357142D02*
X141757200Y-113404761D01*
X141757200Y-113404761D02*
X141804819Y-113499999D01*
X141804819Y-113499999D02*
X141804819Y-113595237D01*
X141804819Y-113595237D02*
X141757200Y-113690475D01*
X141757200Y-113690475D02*
X141709580Y-113738094D01*
X141709580Y-113738094D02*
X141614342Y-113785713D01*
X141614342Y-113785713D02*
X141423866Y-113833332D01*
X141423866Y-113833332D02*
X141185771Y-113833332D01*
X141185771Y-113833332D02*
X140995295Y-113785713D01*
X140995295Y-113785713D02*
X140900057Y-113738094D01*
X140900057Y-113738094D02*
X140852438Y-113690475D01*
X140852438Y-113690475D02*
X140804819Y-113595237D01*
X140804819Y-112642856D02*
X140804819Y-112547618D01*
X140804819Y-112547618D02*
X140852438Y-112452380D01*
X140852438Y-112452380D02*
X140900057Y-112404761D01*
X140900057Y-112404761D02*
X140995295Y-112357142D01*
X140995295Y-112357142D02*
X141185771Y-112309523D01*
X141185771Y-112309523D02*
X141423866Y-112309523D01*
X141423866Y-112309523D02*
X141614342Y-112357142D01*
X141614342Y-112357142D02*
X141709580Y-112404761D01*
X141709580Y-112404761D02*
X141757200Y-112452380D01*
X141757200Y-112452380D02*
X141804819Y-112547618D01*
X141804819Y-112547618D02*
X141804819Y-112642856D01*
X141804819Y-112642856D02*
X141757200Y-112738094D01*
X141757200Y-112738094D02*
X141709580Y-112785713D01*
X141709580Y-112785713D02*
X141614342Y-112833332D01*
X141614342Y-112833332D02*
X141423866Y-112880951D01*
X141423866Y-112880951D02*
X141185771Y-112880951D01*
X141185771Y-112880951D02*
X140995295Y-112833332D01*
X140995295Y-112833332D02*
X140900057Y-112785713D01*
X140900057Y-112785713D02*
X140852438Y-112738094D01*
X140852438Y-112738094D02*
X140804819Y-112642856D01*
X141804819Y-111119046D02*
X141138152Y-111119046D01*
X141233390Y-111119046D02*
X141185771Y-111071427D01*
X141185771Y-111071427D02*
X141138152Y-110976189D01*
X141138152Y-110976189D02*
X141138152Y-110833332D01*
X141138152Y-110833332D02*
X141185771Y-110738094D01*
X141185771Y-110738094D02*
X141281009Y-110690475D01*
X141281009Y-110690475D02*
X141804819Y-110690475D01*
X141281009Y-110690475D02*
X141185771Y-110642856D01*
X141185771Y-110642856D02*
X141138152Y-110547618D01*
X141138152Y-110547618D02*
X141138152Y-110404761D01*
X141138152Y-110404761D02*
X141185771Y-110309522D01*
X141185771Y-110309522D02*
X141281009Y-110261903D01*
X141281009Y-110261903D02*
X141804819Y-110261903D01*
X141804819Y-109785713D02*
X141138152Y-109785713D01*
X141233390Y-109785713D02*
X141185771Y-109738094D01*
X141185771Y-109738094D02*
X141138152Y-109642856D01*
X141138152Y-109642856D02*
X141138152Y-109499999D01*
X141138152Y-109499999D02*
X141185771Y-109404761D01*
X141185771Y-109404761D02*
X141281009Y-109357142D01*
X141281009Y-109357142D02*
X141804819Y-109357142D01*
X141281009Y-109357142D02*
X141185771Y-109309523D01*
X141185771Y-109309523D02*
X141138152Y-109214285D01*
X141138152Y-109214285D02*
X141138152Y-109071428D01*
X141138152Y-109071428D02*
X141185771Y-108976189D01*
X141185771Y-108976189D02*
X141281009Y-108928570D01*
X141281009Y-108928570D02*
X141804819Y-108928570D01*
D11*
X148000000Y-128500000D02*
X141913580Y-128500000D01*
X148000000Y-98500000D02*
X141913580Y-98500000D01*
X142500000Y-128500000D02*
X142500000Y-98500000D01*
X142500000Y-128500000D02*
X142500000Y-98500000D01*
X142500000Y-128500000D02*
X141913579Y-127373496D01*
X142500000Y-128500000D02*
X143086421Y-127373496D01*
X142500000Y-98500000D02*
X143086421Y-99626504D01*
X142500000Y-98500000D02*
X141913579Y-99626504D01*
M02*
