%TF.GenerationSoftware,KiCad,Pcbnew,8.0.6*%
%TF.CreationDate,2024-10-17T21:48:28+02:00*%
%TF.ProjectId,weatherStationBoard,77656174-6865-4725-9374-6174696f6e42,rev?*%
%TF.SameCoordinates,Original*%
%TF.FileFunction,Soldermask,Top*%
%TF.FilePolarity,Negative*%
%FSLAX46Y46*%
G04 Gerber Fmt 4.6, Leading zero omitted, Abs format (unit mm)*
G04 Created by KiCad (PCBNEW 8.0.6) date 2024-10-17 21:48:28*
%MOMM*%
%LPD*%
G01*
G04 APERTURE LIST*
G04 Aperture macros list*
%AMRoundRect*
0 Rectangle with rounded corners*
0 $1 Rounding radius*
0 $2 $3 $4 $5 $6 $7 $8 $9 X,Y pos of 4 corners*
0 Add a 4 corners polygon primitive as box body*
4,1,4,$2,$3,$4,$5,$6,$7,$8,$9,$2,$3,0*
0 Add four circle primitives for the rounded corners*
1,1,$1+$1,$2,$3*
1,1,$1+$1,$4,$5*
1,1,$1+$1,$6,$7*
1,1,$1+$1,$8,$9*
0 Add four rect primitives between the rounded corners*
20,1,$1+$1,$2,$3,$4,$5,0*
20,1,$1+$1,$4,$5,$6,$7,0*
20,1,$1+$1,$6,$7,$8,$9,0*
20,1,$1+$1,$8,$9,$2,$3,0*%
G04 Aperture macros list end*
%ADD10C,0.650000*%
%ADD11R,1.450000X0.600000*%
%ADD12R,1.450000X0.300000*%
%ADD13O,2.100000X1.000000*%
%ADD14O,1.600000X1.000000*%
%ADD15RoundRect,0.250000X-0.250000X-0.475000X0.250000X-0.475000X0.250000X0.475000X-0.250000X0.475000X0*%
%ADD16R,1.550000X1.300000*%
%ADD17C,1.000000*%
%ADD18RoundRect,0.150000X0.150000X-0.512500X0.150000X0.512500X-0.150000X0.512500X-0.150000X-0.512500X0*%
%ADD19RoundRect,0.250000X-0.262500X-0.450000X0.262500X-0.450000X0.262500X0.450000X-0.262500X0.450000X0*%
%ADD20RoundRect,0.250000X0.450000X-0.262500X0.450000X0.262500X-0.450000X0.262500X-0.450000X-0.262500X0*%
%ADD21RoundRect,0.250000X-0.450000X0.262500X-0.450000X-0.262500X0.450000X-0.262500X0.450000X0.262500X0*%
%ADD22C,2.200000*%
%ADD23RoundRect,0.250000X-0.475000X0.250000X-0.475000X-0.250000X0.475000X-0.250000X0.475000X0.250000X0*%
%ADD24RoundRect,0.375000X0.375000X-0.625000X0.375000X0.625000X-0.375000X0.625000X-0.375000X-0.625000X0*%
%ADD25RoundRect,0.500000X1.400000X-0.500000X1.400000X0.500000X-1.400000X0.500000X-1.400000X-0.500000X0*%
%ADD26RoundRect,0.150000X-0.150000X0.512500X-0.150000X-0.512500X0.150000X-0.512500X0.150000X0.512500X0*%
%ADD27RoundRect,0.243750X0.243750X0.456250X-0.243750X0.456250X-0.243750X-0.456250X0.243750X-0.456250X0*%
%ADD28RoundRect,0.250000X0.250000X0.475000X-0.250000X0.475000X-0.250000X-0.475000X0.250000X-0.475000X0*%
%ADD29RoundRect,0.250000X0.262500X0.450000X-0.262500X0.450000X-0.262500X-0.450000X0.262500X-0.450000X0*%
%ADD30RoundRect,0.250000X0.475000X-0.250000X0.475000X0.250000X-0.475000X0.250000X-0.475000X-0.250000X0*%
%ADD31R,2.500000X1.000000*%
%ADD32R,1.000000X1.800000*%
%ADD33R,2.000000X0.400000*%
%ADD34RoundRect,0.243750X0.456250X-0.243750X0.456250X0.243750X-0.456250X0.243750X-0.456250X-0.243750X0*%
%ADD35RoundRect,0.150000X-0.825000X-0.150000X0.825000X-0.150000X0.825000X0.150000X-0.825000X0.150000X0*%
%ADD36R,1.400000X1.200000*%
%ADD37RoundRect,0.125000X-0.137500X0.125000X-0.137500X-0.125000X0.137500X-0.125000X0.137500X0.125000X0*%
%ADD38RoundRect,0.225000X-0.375000X0.225000X-0.375000X-0.225000X0.375000X-0.225000X0.375000X0.225000X0*%
G04 APERTURE END LIST*
D10*
%TO.C,J1*%
X151725000Y-110615000D03*
X151725000Y-116395000D03*
D11*
X153170000Y-110255000D03*
X153170000Y-111055000D03*
D12*
X153170000Y-112255000D03*
X153170000Y-113255000D03*
X153170000Y-113755000D03*
X153170000Y-114755000D03*
D11*
X153170000Y-115955000D03*
X153170000Y-116755000D03*
X153170000Y-116755000D03*
X153170000Y-115955000D03*
D12*
X153170000Y-115255000D03*
X153170000Y-114255000D03*
X153170000Y-112755000D03*
X153170000Y-111755000D03*
D11*
X153170000Y-111055000D03*
X153170000Y-110255000D03*
D13*
X152255000Y-109185000D03*
D14*
X148075000Y-109185000D03*
D13*
X152255000Y-117825000D03*
D14*
X148075000Y-117825000D03*
%TD*%
D15*
%TO.C,C4*%
X160850000Y-124900000D03*
X162750000Y-124900000D03*
%TD*%
D16*
%TO.C,S2*%
X212975000Y-103000000D03*
X205025000Y-103000000D03*
X212975000Y-98500000D03*
X205025000Y-98500000D03*
%TD*%
D17*
%TO.C,TP1*%
X169650000Y-102350000D03*
%TD*%
D18*
%TO.C,Q1*%
X170100000Y-121975000D03*
X172000000Y-121975000D03*
X171050000Y-119700000D03*
%TD*%
D19*
%TO.C,R3*%
X175887500Y-124900000D03*
X177712500Y-124900000D03*
%TD*%
D20*
%TO.C,R11*%
X219775000Y-110762500D03*
X219775000Y-108937500D03*
%TD*%
D21*
%TO.C,R12*%
X217650000Y-108927500D03*
X217650000Y-110752500D03*
%TD*%
D17*
%TO.C,TP10*%
X186950000Y-109850000D03*
%TD*%
D22*
%TO.C,H2*%
X228500000Y-98500000D03*
%TD*%
D17*
%TO.C,TP9*%
X150150000Y-124300000D03*
%TD*%
D23*
%TO.C,C3*%
X165050000Y-121050000D03*
X165050000Y-122950000D03*
%TD*%
D21*
%TO.C,R10*%
X192800000Y-116887500D03*
X192800000Y-118712500D03*
%TD*%
D22*
%TO.C,H3*%
X148500000Y-128500000D03*
%TD*%
D24*
%TO.C,U4*%
X161250000Y-106650000D03*
X163550000Y-106650000D03*
D25*
X163550000Y-100350000D03*
D24*
X165850000Y-106650000D03*
%TD*%
D26*
%TO.C,Q2*%
X172000000Y-115400000D03*
X170100000Y-115400000D03*
X171050000Y-117675000D03*
%TD*%
D17*
%TO.C,TP2*%
X182600000Y-109550000D03*
%TD*%
%TO.C,TP8*%
X218400000Y-106150000D03*
%TD*%
D27*
%TO.C,D1*%
X158437500Y-102250000D03*
X156562500Y-102250000D03*
%TD*%
D15*
%TO.C,C6*%
X168500000Y-107150000D03*
X170400000Y-107150000D03*
%TD*%
%TO.C,C2*%
X168500000Y-111250000D03*
X170400000Y-111250000D03*
%TD*%
D28*
%TO.C,C18*%
X224000000Y-123950000D03*
X222100000Y-123950000D03*
%TD*%
D20*
%TO.C,R5*%
X173900000Y-122012500D03*
X173900000Y-120187500D03*
%TD*%
D29*
%TO.C,R8*%
X153762500Y-119970000D03*
X151937500Y-119970000D03*
%TD*%
D15*
%TO.C,C5*%
X214050000Y-107500000D03*
X215950000Y-107500000D03*
%TD*%
D17*
%TO.C,TP7*%
X158600000Y-98100000D03*
%TD*%
D30*
%TO.C,C9*%
X171250000Y-100400000D03*
X171250000Y-98500000D03*
%TD*%
D17*
%TO.C,TP3*%
X184750000Y-117650000D03*
%TD*%
D19*
%TO.C,R14*%
X222137500Y-119900000D03*
X223962500Y-119900000D03*
%TD*%
%TO.C,R2*%
X179487500Y-123900000D03*
X181312500Y-123900000D03*
%TD*%
D31*
%TO.C,U1*%
X211600000Y-121500000D03*
X211600000Y-119500000D03*
X211600000Y-117500000D03*
X211600000Y-115500000D03*
X211600000Y-113500000D03*
X211600000Y-111500000D03*
X211600000Y-109500000D03*
X211600000Y-107500000D03*
D32*
X209000000Y-106000000D03*
X207000000Y-106000000D03*
X205000000Y-106000000D03*
X203000000Y-106000000D03*
X201000000Y-106000000D03*
X199000000Y-106000000D03*
D31*
X196400000Y-107500000D03*
X196400000Y-109500000D03*
X196400000Y-111500000D03*
X196400000Y-113500000D03*
X196400000Y-115500000D03*
X196400000Y-117500000D03*
X196400000Y-119500000D03*
X196400000Y-121500000D03*
%TD*%
D15*
%TO.C,C1*%
X168500000Y-109200000D03*
X170400000Y-109200000D03*
%TD*%
D28*
%TO.C,C14*%
X224000000Y-112450000D03*
X222100000Y-112450000D03*
%TD*%
D33*
%TO.C,J3*%
X227400000Y-103350000D03*
X227400000Y-104050000D03*
X227400000Y-104750000D03*
X227400000Y-105450000D03*
X227400000Y-106150000D03*
X227400000Y-106850000D03*
X227400000Y-107550000D03*
X227400000Y-108250000D03*
X227400000Y-108950000D03*
X227400000Y-109650000D03*
X227400000Y-110350000D03*
X227400000Y-111050000D03*
X227400000Y-111800000D03*
X227400000Y-112450000D03*
X227400000Y-113150000D03*
X227400000Y-113850000D03*
X227400000Y-114550000D03*
X227400000Y-115250000D03*
X227400000Y-115950000D03*
X227400000Y-116650000D03*
X227400000Y-117350000D03*
X227400000Y-118050000D03*
X227400000Y-118750000D03*
X227400000Y-119450000D03*
X227400000Y-120150000D03*
X227400000Y-120850000D03*
X227400000Y-121550000D03*
X227400000Y-122250000D03*
X227400000Y-122950000D03*
X227400000Y-123650000D03*
%TD*%
D22*
%TO.C,H4*%
X228500000Y-128500000D03*
%TD*%
D34*
%TO.C,D2*%
X156550000Y-125125000D03*
X156550000Y-123250000D03*
%TD*%
D29*
%TO.C,R6*%
X152390000Y-106410000D03*
X150565000Y-106410000D03*
%TD*%
D15*
%TO.C,C12*%
X191950000Y-111550000D03*
X193850000Y-111550000D03*
%TD*%
D30*
%TO.C,C10*%
X156560000Y-112330000D03*
X156560000Y-110430000D03*
%TD*%
D15*
%TO.C,C7*%
X168500000Y-105100000D03*
X170400000Y-105100000D03*
%TD*%
D17*
%TO.C,TP5*%
X215200000Y-98500000D03*
%TD*%
D35*
%TO.C,U2*%
X160825000Y-109805000D03*
X160825000Y-111075000D03*
X160825000Y-112345000D03*
X160825000Y-113615000D03*
X160825000Y-114885000D03*
X160825000Y-116155000D03*
X160825000Y-117425000D03*
X160825000Y-118695000D03*
X165775000Y-118695000D03*
X165775000Y-117425000D03*
X165775000Y-116155000D03*
X165775000Y-114885000D03*
X165775000Y-113615000D03*
X165775000Y-112345000D03*
X165775000Y-111075000D03*
X165775000Y-109805000D03*
%TD*%
D21*
%TO.C,R13*%
X216200000Y-117987500D03*
X216200000Y-119812500D03*
%TD*%
D22*
%TO.C,H1*%
X148500000Y-98500000D03*
%TD*%
D36*
%TO.C,Y1*%
X162900000Y-121150000D03*
X160700000Y-121150000D03*
X160700000Y-122850000D03*
X162900000Y-122850000D03*
%TD*%
D37*
%TO.C,U3*%
X185687500Y-112300000D03*
X185687500Y-113100000D03*
X185687500Y-113900000D03*
X185687500Y-114700000D03*
X183312500Y-114700000D03*
X183312500Y-113900000D03*
X183312500Y-113100000D03*
X183312500Y-112300000D03*
%TD*%
D30*
%TO.C,C8*%
X169100000Y-100400000D03*
X169100000Y-98500000D03*
%TD*%
D21*
%TO.C,R9*%
X168150000Y-119487500D03*
X168150000Y-121312500D03*
%TD*%
D28*
%TO.C,C17*%
X224000000Y-126000000D03*
X222100000Y-126000000D03*
%TD*%
D38*
%TO.C,D4*%
X223050000Y-107450000D03*
X223050000Y-110750000D03*
%TD*%
D28*
%TO.C,C16*%
X224000000Y-121900000D03*
X222100000Y-121900000D03*
%TD*%
D21*
%TO.C,R7*%
X173400000Y-98537500D03*
X173400000Y-100362500D03*
%TD*%
D17*
%TO.C,TP4*%
X186950000Y-117400000D03*
%TD*%
D28*
%TO.C,C13*%
X224000000Y-105200000D03*
X222100000Y-105200000D03*
%TD*%
D29*
%TO.C,R4*%
X158412500Y-100250000D03*
X156587500Y-100250000D03*
%TD*%
D17*
%TO.C,TP6*%
X177520000Y-98550000D03*
%TD*%
D28*
%TO.C,C15*%
X224000000Y-102950000D03*
X222100000Y-102950000D03*
%TD*%
D21*
%TO.C,R1*%
X156550000Y-119587500D03*
X156550000Y-121412500D03*
%TD*%
D16*
%TO.C,S1*%
X202725000Y-103000000D03*
X194775000Y-103000000D03*
X202725000Y-98500000D03*
X194775000Y-98500000D03*
%TD*%
M02*
