M48
; DRILL file {KiCad 8.0.6} date 2024-10-17T21:45:22+0200
; FORMAT={-:-/ absolute / metric / decimal}
; #@! TF.CreationDate,2024-10-17T21:45:22+02:00
; #@! TF.GenerationSoftware,Kicad,Pcbnew,8.0.6
; #@! TF.FileFunction,Plated,1,4,PTH
FMAT,2
METRIC
; #@! TA.AperFunction,Plated,PTH,ViaDrill
T1C0.300
; #@! TA.AperFunction,Plated,PTH,ComponentDrill
T2C0.600
%
G90
G05
T1
X148.0Y-120.0
X148.0Y-122.0
X148.0Y-124.0
X149.0Y-102.0
X149.0Y-104.0
X149.45Y-112.15
X149.45Y-114.65
X150.0Y-120.0
X150.0Y-122.0
X150.6Y-112.45
X150.6Y-113.85
X151.0Y-102.0
X151.0Y-104.0
X151.3Y-114.55
X151.5Y-113.155
X152.0Y-124.0
X152.0Y-127.0
X152.0Y-129.0
X153.0Y-98.0
X153.0Y-100.0
X153.0Y-102.0
X153.0Y-104.0
X153.755Y-107.374
X154.0Y-127.0
X154.0Y-129.0
X154.74Y-111.7
X155.0Y-104.0
X155.0Y-106.0
X155.05Y-118.92
X155.1Y-115.275
X155.26Y-108.0
X156.0Y-127.0
X156.0Y-129.0
X157.0Y-104.0
X157.0Y-106.0
X157.532Y-126.554
X158.0Y-129.0
X158.15Y-111.075
X158.33Y-112.35
X158.75Y-127.325
X159.0Y-106.0
X159.0Y-117.55
X159.0Y-125.0
X159.001Y-123.0
X159.39Y-104.69
X159.67Y-108.5
X160.0Y-129.0
X162.0Y-129.0
X163.0Y-112.0
X163.0Y-114.0
X163.0Y-116.0
X163.0Y-118.0
X163.55Y-98.55
X164.0Y-119.85
X164.0Y-129.0
X166.0Y-127.0
X166.0Y-129.0
X166.65Y-121.3
X167.0Y-98.0
X167.0Y-122.9
X167.65Y-113.615
X168.0Y-127.0
X168.0Y-129.0
X168.6Y-103.65
X170.0Y-127.0
X170.0Y-129.0
X170.75Y-103.65
X171.05Y-114.15
X171.05Y-123.65
X171.05Y-125.6
X172.0Y-127.0
X172.0Y-129.0
X174.0Y-105.0
X174.0Y-107.0
X174.0Y-109.0
X174.0Y-111.0
X174.0Y-113.0
X174.0Y-115.0
X174.0Y-127.0
X174.0Y-129.0
X175.0Y-118.0
X175.55Y-98.0
X176.0Y-102.0
X176.0Y-105.0
X176.0Y-107.0
X176.0Y-109.0
X176.0Y-119.0
X176.0Y-129.0
X177.0Y-122.0
X178.0Y-102.0
X178.0Y-105.0
X178.0Y-129.0
X180.0Y-102.0
X180.0Y-105.0
X180.0Y-114.0
X180.0Y-127.0
X180.0Y-129.0
X182.0Y-102.0
X182.0Y-127.0
X182.0Y-129.0
X182.05Y-112.3
X182.05Y-113.9
X182.1Y-115.35
X183.0Y-119.0
X183.3Y-111.05
X184.0Y-98.0
X184.0Y-102.0
X184.0Y-127.0
X184.0Y-129.0
X186.0Y-102.0
X186.0Y-127.0
X186.0Y-129.0
X186.9Y-115.35
X187.0Y-123.0
X187.2Y-112.6
X188.0Y-102.0
X188.0Y-127.0
X188.0Y-129.0
X189.0Y-123.0
X190.0Y-102.0
X190.0Y-127.0
X190.0Y-129.0
X191.0Y-105.0
X191.0Y-121.0
X192.45Y-108.6
X192.875Y-101.375
X193.0Y-98.0
X193.0Y-124.7
X193.3Y-113.6
X194.0Y-106.0
X194.0Y-108.0
X199.0Y-109.0
X199.0Y-111.0
X199.0Y-119.0
X199.0Y-121.0
X201.0Y-109.0
X201.0Y-121.0
X202.8Y-100.2
X202.8Y-101.8
X203.0Y-121.0
X203.96Y-104.35
X205.0Y-121.0
X205.75Y-109.05
X207.75Y-104.42
X207.8Y-121.5
X209.5Y-113.5
X212.96Y-100.03
X213.75Y-119.8
X214.0Y-109.0
X214.8Y-114.45
X214.8Y-117.86
X215.0Y-110.0
X215.85Y-110.8
X215.85Y-116.7
X216.0Y-101.0
X216.0Y-103.0
X217.0Y-127.0
X218.0Y-101.0
X218.0Y-103.0
X218.0Y-116.0
X219.0Y-129.0
X220.0Y-101.0
X220.0Y-103.0
X221.0Y-114.0
X221.0Y-118.0
X222.0Y-129.0
X223.0Y-98.0
X224.0Y-118.0
X224.7Y-109.725
X224.825Y-107.475
X225.0Y-98.0
X225.0Y-101.0
X225.0Y-114.0
X225.0Y-129.0
X229.0Y-102.0
X229.0Y-125.0
T2
G00X148.375Y-109.185
M15
G01X147.775Y-109.185
M16
G05
G00X148.375Y-117.825
M15
G01X147.775Y-117.825
M16
G05
G00X152.805Y-109.185
M15
G01X151.705Y-109.185
M16
G05
G00X152.805Y-117.825
M15
G01X151.705Y-117.825
M16
G05
M30
